<svg width="513" height="280" viewBox="0 0 513 280" fill="none" xmlns="http://www.w3.org/2000/svg">
<path fill-rule="evenodd" clip-rule="evenodd" d="M42.9174 152.501C29.482 132.11 7.76761 107.85 22.9547 88.0611C38.6838 67.5655 83.9765 72.3088 113.159 60.974C135.935 52.1275 148.658 30.6701 174.659 29.1375C200.646 27.6058 217.488 49.4111 242.953 53.3234C281.815 59.2941 338.088 34.3954 359.778 57.5785C380.96 80.219 321.018 103.983 315.343 130.696C310.614 152.952 351.531 178.961 330.37 195.991C308.279 213.769 263.647 192.234 231.071 198.514C204.393 203.657 189.718 228.774 162.036 228.445C134.394 228.116 115.028 209.876 94.6591 196.89C74.0497 183.751 54.5594 170.171 42.9174 152.501Z" stroke="url(#paint0_linear_148_346)"/>
<path opacity="0.95875" fill-rule="evenodd" clip-rule="evenodd" d="M47.6134 151.972C35.2106 131.267 14.7282 106.496 30.9002 87.087C47.6494 66.9853 92.6762 72.8237 122.41 62.2034C145.617 53.9145 159.41 32.7786 185.472 31.8773C211.52 30.9766 227.257 53.1769 252.509 57.7043C291.048 64.6135 348.537 41.0943 369.049 64.7891C389.082 87.9293 327.982 110.226 320.968 136.785C315.124 158.913 354.71 185.898 332.706 202.405C309.736 219.636 266.212 197.032 233.341 202.518C206.421 207.012 190.493 231.758 162.844 230.757C135.236 229.758 116.797 211.06 97.0936 197.588C77.1569 183.957 58.3607 169.913 47.6134 151.972Z" stroke="url(#paint1_linear_148_346)"/>
<path opacity="0.9175" fill-rule="evenodd" clip-rule="evenodd" d="M52.3332 151.557C40.9781 130.564 21.7526 105.311 38.8898 86.306C56.6386 66.6225 101.345 73.5491 131.594 63.656C155.203 55.9349 170.05 35.1463 196.141 34.8774C222.219 34.6087 236.83 57.177 261.84 62.3138C300.008 70.1532 358.644 48.0421 377.953 72.2198C396.811 95.8316 334.628 116.633 326.284 143.006C319.332 164.979 357.538 192.908 334.719 208.87C310.897 225.534 268.535 201.889 235.409 206.575C208.279 210.413 191.118 234.758 163.536 233.087C135.994 231.42 118.507 212.286 99.4916 198.345C80.2518 184.238 62.1726 169.747 52.3332 151.557Z" stroke="url(#paint2_linear_148_346)"/>
<path opacity="0.87625" fill-rule="evenodd" clip-rule="evenodd" d="M57.0709 151.256C46.7774 130 28.8322 104.297 46.9138 85.719C65.6407 66.4779 109.972 74.4841 140.7 65.3305C164.682 58.1864 180.564 37.7704 206.653 38.1343C232.728 38.4979 246.197 61.4068 270.934 67.1468C308.685 75.9068 368.395 55.2307 386.478 79.8619C404.138 103.916 340.949 123.198 331.285 149.352C323.233 171.143 360.013 199.981 336.405 215.381C311.761 231.457 270.613 206.799 237.271 210.679C209.965 213.857 191.591 237.771 164.11 235.433C136.669 233.099 120.153 213.552 101.85 199.159C83.3307 184.595 65.9905 169.674 57.0709 151.256Z" stroke="url(#paint3_linear_148_346)"/>
<path opacity="0.835" fill-rule="evenodd" clip-rule="evenodd" d="M61.8209 151.07C52.6015 129.578 35.9585 103.456 54.9624 85.3271C74.6445 66.5517 118.546 75.6278 149.715 67.2248C174.042 60.6664 190.94 40.6479 216.995 41.6441C243.036 42.6397 255.345 65.8612 279.779 72.1974C317.067 81.8673 377.78 62.6515 394.614 87.706C411.055 112.174 346.935 129.911 335.963 155.816C326.822 177.398 362.131 207.11 337.763 221.929C312.326 237.397 272.442 211.757 238.926 214.826C211.477 217.34 191.913 240.794 164.566 237.791C137.259 234.793 121.735 214.858 104.166 200.029C86.3898 185.025 69.8098 169.694 61.8209 151.07Z" stroke="url(#paint4_linear_148_346)"/>
<path opacity="0.79375" fill-rule="evenodd" clip-rule="evenodd" d="M66.5773 151C58.4432 129.297 43.1227 102.787 63.0257 85.1305C83.639 66.8437 127.058 76.9786 158.63 69.3364C183.272 63.3719 201.165 43.7752 227.154 45.4025C253.129 47.0288 264.265 70.5346 288.365 77.4593C325.144 88.0273 386.785 70.2952 402.351 95.7426C417.552 120.594 352.581 136.766 340.314 162.389C330.094 183.736 363.889 214.287 338.792 228.505C312.593 243.348 274.021 216.756 240.371 219.011C212.813 220.858 192.083 243.823 164.903 240.159C137.763 236.501 123.25 216.201 106.437 200.956C89.4255 185.53 73.6257 169.806 66.5773 151Z" stroke="url(#paint5_linear_148_346)"/>
<path opacity="0.7525" fill-rule="evenodd" clip-rule="evenodd" d="M71.3344 151.045C64.2955 129.158 50.3161 102.293 71.0941 85.1295C92.6135 67.3536 135.497 78.535 167.434 71.6629C192.36 66.2994 211.227 47.1485 237.118 49.4048C262.996 51.6599 272.944 75.4213 296.681 82.9262C332.907 94.3794 395.402 78.1526 409.68 103.962C423.623 129.167 357.879 143.754 344.333 169.063C333.046 190.15 365.285 221.501 339.49 235.103C312.561 249.301 275.349 221.79 241.606 223.228C213.971 224.406 192.1 246.854 165.121 242.534C138.182 238.219 124.697 217.581 108.661 201.937C92.4339 186.108 77.4337 170.01 71.3344 151.045Z" stroke="url(#paint6_linear_148_346)"/>
<path opacity="0.71125" fill-rule="evenodd" clip-rule="evenodd" d="M76.0863 151.205C70.1512 129.161 57.53 101.973 79.1575 85.3241C101.557 68.0808 143.852 80.2951 176.115 74.2014C201.295 69.4455 221.113 50.7637 246.875 53.6464C272.624 56.5275 281.372 80.5156 304.718 88.5914C340.346 100.916 403.618 86.2141 416.591 112.354C429.26 137.882 362.822 150.866 348.013 175.831C335.674 196.632 366.319 228.745 339.855 241.713C312.23 255.25 276.422 226.853 242.628 227.472C214.951 227.979 191.965 249.884 165.22 244.912C138.514 239.947 126.074 218.994 110.833 202.971C95.4115 186.758 81.2292 170.307 76.0863 151.205Z" stroke="url(#paint7_linear_148_346)"/>
<path opacity="0.67" fill-rule="evenodd" clip-rule="evenodd" d="M80.8272 151.481C76.0032 129.306 64.7555 101.829 87.2063 85.7141C110.458 69.0243 152.114 82.2566 184.664 76.9488C210.068 72.8063 230.812 54.6164 256.413 58.1219C282.001 61.6255 289.539 85.8111 312.465 94.4479C347.453 107.629 411.425 94.4699 423.076 120.908C434.455 146.728 367.406 158.093 351.351 182.685C337.975 203.173 366.987 236.01 339.889 248.328C311.6 261.187 277.241 231.94 243.436 231.739C215.75 231.575 191.678 252.909 165.199 247.291C138.758 241.682 127.379 220.44 112.952 204.057C98.3545 187.481 85.0074 170.695 80.8272 151.481Z" stroke="url(#paint8_linear_148_346)"/>
<path opacity="0.62875" fill-rule="evenodd" clip-rule="evenodd" d="M85.5515 151.871C81.8443 129.593 71.9839 101.859 95.2306 86.2989C119.307 70.183 160.273 84.4172 193.069 79.9018C218.665 76.3777 240.311 58.7018 265.721 62.8258C291.117 66.9477 297.435 91.3013 319.913 100.489C354.218 114.51 418.812 102.91 429.128 129.615C439.202 155.694 371.623 165.427 354.343 189.614C339.946 209.766 367.291 243.286 339.59 254.94C310.672 267.105 277.803 237.043 244.029 236.023C216.369 235.187 191.239 255.925 165.058 249.669C138.916 243.422 128.611 221.917 115.016 205.194C101.26 188.274 88.7638 171.175 85.5515 151.871Z" stroke="url(#paint9_linear_148_346)"/>
<path opacity="0.5875" fill-rule="evenodd" clip-rule="evenodd" d="M90.2532 152.375C87.6675 130.021 79.2064 102.065 103.221 87.078C128.092 71.5556 168.318 86.7743 201.321 83.0568C227.079 80.1554 249.599 63.015 274.786 67.7526C299.96 72.4877 305.051 96.9796 327.054 106.706C360.633 121.551 425.77 111.524 434.738 138.462C443.497 164.77 375.47 172.859 356.985 196.613C341.584 216.403 367.228 250.566 338.959 261.541C309.448 272.997 278.109 242.156 244.407 240.318C216.805 238.813 190.649 258.928 164.799 252.041C138.986 245.164 129.767 223.423 117.02 206.381C104.123 189.137 92.4938 171.745 90.2532 152.375Z" stroke="url(#paint10_linear_148_346)"/>
<path opacity="0.54625" fill-rule="evenodd" clip-rule="evenodd" d="M94.9267 152.993C93.4656 130.59 86.4141 102.446 111.167 88.0503C136.802 73.1404 176.239 89.3251 209.409 86.41C235.297 84.1349 258.664 67.5509 283.598 72.8963C308.519 78.2388 312.376 102.839 333.877 113.094C366.69 128.743 432.291 120.301 439.901 147.441C447.332 173.945 378.94 180.38 359.273 203.67C342.888 223.075 366.8 257.839 337.997 268.122C307.928 278.856 278.158 247.274 244.568 244.62C217.059 242.446 189.909 261.915 164.42 254.406C138.968 246.907 130.847 224.956 118.965 207.615C106.941 190.069 96.1928 172.406 94.9267 152.993Z" stroke="url(#paint11_linear_148_346)"/>
<path opacity="0.505" fill-rule="evenodd" clip-rule="evenodd" d="M99.5664 153.724C99.2316 131.3 93.5983 103.002 119.059 89.2146C145.428 74.9354 184.028 92.0663 217.324 89.9571C243.31 88.311 267.497 72.3037 292.147 78.2503C316.784 84.1937 319.403 108.873 340.376 119.642C372.382 136.077 438.368 129.231 444.609 156.539C450.705 183.207 382.031 187.98 361.206 210.78C343.856 229.775 366.007 265.098 336.704 274.676C306.115 284.675 277.95 252.39 244.514 248.923C217.131 246.084 189.019 264.883 163.922 256.76C138.863 248.649 131.85 226.514 120.846 208.895C109.711 191.069 99.8565 173.156 99.5664 153.724Z" stroke="url(#paint12_linear_148_346)"/>
<path opacity="0.46375" fill-rule="evenodd" clip-rule="evenodd" d="M104.166 154.568C104.958 132.148 100.75 103.731 126.888 90.5696C153.958 76.9384 191.674 94.9947 225.056 93.6941C251.109 92.679 276.085 77.2678 300.421 83.8084C324.745 90.3455 326.122 115.073 346.541 126.344C377.703 143.545 443.992 138.304 448.858 165.746C453.61 192.546 384.738 195.65 362.781 217.931C344.486 236.495 364.85 272.333 335.084 281.195C304.011 290.446 277.484 257.498 244.243 253.222C217.019 249.721 187.98 267.827 163.307 259.101C138.67 250.387 132.774 228.095 122.661 210.221C112.429 192.135 103.48 173.994 104.166 154.568Z" stroke="url(#paint13_linear_148_346)"/>
<path opacity="0.4225" fill-rule="evenodd" clip-rule="evenodd" d="M108.721 155.522C110.639 133.135 107.861 104.634 134.644 92.1137C162.383 79.147 199.169 98.1067 232.595 97.6162C258.684 97.2334 284.418 82.4371 308.411 89.5638C332.392 96.6866 332.526 121.432 352.366 133.192C382.645 151.138 449.157 147.506 452.641 175.05C456.044 201.949 387.058 203.382 363.995 225.117C344.779 243.225 363.33 279.535 333.137 287.67C301.618 296.162 276.763 262.591 243.756 257.513C216.725 253.353 186.794 270.744 162.575 261.425C138.391 252.119 133.617 229.698 124.409 211.589C115.091 193.266 107.06 174.92 108.721 155.522Z" stroke="url(#paint14_linear_148_346)"/>
<path opacity="0.38125" fill-rule="evenodd" clip-rule="evenodd" d="M113.226 156.586C116.267 134.259 114.922 105.708 142.318 93.8447C170.691 81.5585 206.502 101.398 239.933 101.719C266.025 101.969 292.487 87.8052 316.108 95.5093C339.715 103.209 338.607 127.943 357.844 140.176C387.202 158.846 453.857 156.829 455.955 184.44C458.004 211.405 388.989 211.164 364.847 232.327C344.733 249.959 361.449 286.696 330.865 294.094C298.939 301.817 275.786 267.664 243.055 261.788C216.249 256.976 185.462 273.631 161.726 263.73C138.024 253.844 134.38 231.32 126.087 213C117.696 194.462 110.59 175.932 113.226 156.586Z" stroke="url(#paint15_linear_148_346)"/>
<path opacity="0.34" fill-rule="evenodd" clip-rule="evenodd" d="M117.674 157.758C121.835 135.519 121.925 106.952 149.9 95.7608C178.874 84.1699 213.666 104.866 247.06 105.997C273.124 106.879 300.281 93.3657 323.5 101.638C346.707 109.905 344.356 134.597 362.967 147.29C391.37 166.659 458.085 166.26 458.795 193.905C459.488 220.903 390.527 218.989 365.337 239.554C344.349 256.688 359.209 293.808 328.273 300.46C295.978 307.404 274.554 272.71 242.138 266.044C215.591 260.585 183.986 276.483 160.761 266.013C137.571 255.558 135.061 232.96 127.693 214.45C120.238 195.72 114.068 177.029 117.674 157.758Z" stroke="url(#paint16_linear_148_346)"/>
<path opacity="0.29875" fill-rule="evenodd" clip-rule="evenodd" d="M122.06 159.038C127.336 136.913 128.861 108.366 157.382 97.8595C186.92 86.9781 220.651 108.505 253.968 110.445C279.971 111.958 307.791 99.1118 330.581 107.942C353.358 116.767 349.768 141.387 367.73 154.523C395.142 174.569 461.837 175.787 461.157 203.433C460.494 230.431 391.671 226.847 365.463 246.788C343.628 263.403 356.614 300.86 325.362 306.758C292.738 312.915 273.07 277.723 241.009 270.276C214.752 264.176 182.368 279.298 159.683 268.271C137.032 257.261 135.658 234.616 129.225 215.938C122.716 197.038 117.489 178.209 122.06 159.038Z" stroke="url(#paint17_linear_148_346)"/>
<path opacity="0.2575" fill-rule="evenodd" clip-rule="evenodd" d="M126.38 160.423C132.764 138.44 135.722 109.947 164.753 100.138C194.82 89.9797 227.449 112.311 260.648 115.057C286.56 117.201 315.008 105.037 337.34 114.414C359.66 123.785 354.836 148.303 372.127 161.867C398.515 182.566 465.108 185.4 463.04 213.012C461.021 239.978 392.42 234.727 365.226 254.021C342.569 270.096 353.665 307.846 322.136 312.982C289.223 318.345 271.335 282.697 239.668 274.477C213.733 267.744 180.609 282.072 158.492 270.502C136.408 258.949 136.173 236.285 130.682 217.462C125.126 198.416 120.848 179.472 126.38 160.423Z" stroke="url(#paint18_linear_148_346)"/>
<path opacity="0.21625" fill-rule="evenodd" clip-rule="evenodd" d="M130.627 161.912C138.111 140.097 142.5 111.693 172.005 102.595C202.564 93.171 234.052 116.28 267.093 119.83C292.881 122.6 321.923 111.133 343.77 121.045C365.606 130.953 359.553 155.339 376.152 169.313C401.484 190.639 467.894 195.086 464.44 222.631C461.068 249.532 392.772 242.621 364.626 261.244C341.175 276.76 350.368 314.756 318.6 319.125C285.437 323.686 269.351 287.626 238.116 278.643C212.535 271.286 178.712 284.802 157.19 272.703C135.699 260.621 136.603 237.965 132.061 219.02C127.465 199.852 124.141 180.815 130.627 161.912Z" stroke="url(#paint19_linear_148_346)"/>
<path opacity="0.175" fill-rule="evenodd" clip-rule="evenodd" d="M134.797 163.503C143.372 141.883 149.185 113.603 179.13 105.225C210.143 96.5481 240.451 120.407 273.294 124.755C298.927 128.148 328.527 117.392 349.863 127.829C371.188 138.26 363.913 162.484 379.8 176.852C404.046 198.779 470.192 204.834 465.356 232.279C460.634 259.081 392.728 250.519 363.663 268.448C339.447 283.385 346.726 321.581 314.757 325.177C281.386 328.931 267.121 292.504 236.356 282.769C211.161 274.796 176.678 287.484 155.778 274.87C134.907 262.275 136.949 239.655 133.361 220.612C129.731 201.343 127.365 182.238 134.797 163.503Z" stroke="url(#paint20_linear_148_346)"/>
<path opacity="0.13375" fill-rule="evenodd" clip-rule="evenodd" d="M138.884 165.195C148.541 143.795 155.771 115.673 186.118 108.027C217.549 100.107 246.639 124.686 279.243 129.828C304.69 133.841 334.813 123.809 355.612 134.756C376.399 145.697 367.912 169.731 383.068 184.475C406.197 206.977 471.998 214.631 465.787 241.942C459.721 268.614 392.286 258.41 362.338 275.624C337.387 289.965 342.742 328.314 310.613 331.133C277.073 334.076 264.647 297.325 234.39 286.85C209.61 278.271 174.512 290.115 154.257 277.003C134.032 263.909 137.209 241.352 134.58 222.233C131.92 202.889 130.516 183.737 138.884 165.195Z" stroke="url(#paint21_linear_148_346)"/>
<path opacity="0.0925" fill-rule="evenodd" clip-rule="evenodd" d="M142.884 166.984C153.61 145.832 162.248 117.902 192.961 110.996C224.77 103.843 252.608 129.112 284.935 135.041C310.164 139.669 340.773 130.373 361.009 141.818C381.234 153.257 371.545 177.07 385.95 192.173C407.935 215.222 473.312 224.467 465.732 251.61C458.33 278.119 391.449 266.287 360.655 282.763C334.998 296.491 338.423 334.947 306.172 336.985C272.505 339.113 261.933 302.083 232.22 290.881C207.886 281.706 172.214 292.692 152.631 279.096C133.076 265.521 137.384 243.054 135.717 223.884C134.031 204.486 133.59 185.313 142.884 166.984Z" stroke="url(#paint22_linear_148_346)"/>
<path opacity="0.05125" fill-rule="evenodd" clip-rule="evenodd" d="M146.791 168.869C158.573 147.99 168.61 120.287 199.651 114.129C231.8 107.752 258.351 133.681 290.36 140.39C315.342 145.626 346.399 137.079 366.048 149.007C385.686 160.929 374.806 184.493 388.445 199.936C409.258 223.504 474.13 234.328 465.192 261.271C456.463 287.584 390.216 274.138 358.613 289.858C332.283 302.955 333.774 341.47 301.44 342.725C267.686 344.036 258.981 306.772 229.849 294.856C205.991 285.098 169.789 295.212 150.9 281.15C132.039 267.108 137.473 244.76 136.771 225.56C136.06 206.134 136.582 186.961 146.791 168.869Z" stroke="url(#paint23_linear_148_346)"/>
<path opacity="0.01" fill-rule="evenodd" clip-rule="evenodd" d="M150.602 170.848C163.426 150.267 174.848 122.824 206.18 117.423C238.63 111.829 263.862 138.385 295.515 145.867C320.218 151.705 351.686 143.916 370.723 156.314C389.75 168.705 377.693 191.99 390.548 207.754C410.164 231.812 474.453 244.203 464.167 270.913C454.121 296.998 388.591 281.954 356.217 296.898C329.244 309.349 328.8 347.877 296.422 348.347C262.624 348.839 255.795 311.387 227.28 298.772C203.927 288.441 167.239 297.671 149.068 283.16C130.924 268.669 137.477 246.466 137.74 227.261C138.005 207.83 139.49 188.681 150.602 170.848Z" stroke="url(#paint24_linear_148_346)"/>
<defs>
<linearGradient id="paint0_linear_148_346" x1="33.5508" y1="152.416" x2="354.06" y2="37.1223" gradientUnits="userSpaceOnUse">
<stop stop-color="#084378"/>
<stop offset="0.0001" stop-color="#0A437A"/>
<stop offset="0.276042" stop-color="#483BB5"/>
<stop offset="0.411458" stop-color="#347BB8"/>
<stop offset="0.557292" stop-color="#12A6D0"/>
<stop offset="0.744792" stop-color="#52EFF2"/>
<stop offset="1" stop-color="#12A6C8"/>
</linearGradient>
<linearGradient id="paint1_linear_148_346" x1="38.2569" y1="151.659" x2="366.441" y2="50.9809" gradientUnits="userSpaceOnUse">
<stop stop-color="#084378"/>
<stop offset="0.0001" stop-color="#0A437A"/>
<stop offset="0.276042" stop-color="#483BB5"/>
<stop offset="0.411458" stop-color="#347BB8"/>
<stop offset="0.557292" stop-color="#12A6D0"/>
<stop offset="0.744792" stop-color="#52EFF2"/>
<stop offset="1" stop-color="#12A6C8"/>
</linearGradient>
<linearGradient id="paint2_linear_148_346" x1="42.998" y1="151.017" x2="377.92" y2="65.7422" gradientUnits="userSpaceOnUse">
<stop stop-color="#084378"/>
<stop offset="0.0001" stop-color="#0A437A"/>
<stop offset="0.276042" stop-color="#483BB5"/>
<stop offset="0.411458" stop-color="#347BB8"/>
<stop offset="0.557292" stop-color="#12A6D0"/>
<stop offset="0.744792" stop-color="#52EFF2"/>
<stop offset="1" stop-color="#12A6C8"/>
</linearGradient>
<linearGradient id="paint3_linear_148_346" x1="47.7686" y1="150.49" x2="388.381" y2="81.3158" gradientUnits="userSpaceOnUse">
<stop stop-color="#084378"/>
<stop offset="0.0001" stop-color="#0A437A"/>
<stop offset="0.276042" stop-color="#483BB5"/>
<stop offset="0.411458" stop-color="#347BB8"/>
<stop offset="0.557292" stop-color="#12A6D0"/>
<stop offset="0.744792" stop-color="#52EFF2"/>
<stop offset="1" stop-color="#12A6C8"/>
</linearGradient>
<linearGradient id="paint4_linear_148_346" x1="52.5627" y1="150.08" x2="397.718" y2="97.5914" gradientUnits="userSpaceOnUse">
<stop stop-color="#084378"/>
<stop offset="0.0001" stop-color="#0A437A"/>
<stop offset="0.276042" stop-color="#483BB5"/>
<stop offset="0.411458" stop-color="#347BB8"/>
<stop offset="0.557292" stop-color="#12A6D0"/>
<stop offset="0.744792" stop-color="#52EFF2"/>
<stop offset="1" stop-color="#12A6C8"/>
</linearGradient>
<linearGradient id="paint5_linear_148_346" x1="57.3745" y1="149.785" x2="405.843" y2="114.441" gradientUnits="userSpaceOnUse">
<stop stop-color="#084378"/>
<stop offset="0.0001" stop-color="#0A437A"/>
<stop offset="0.276042" stop-color="#483BB5"/>
<stop offset="0.411458" stop-color="#347BB8"/>
<stop offset="0.557292" stop-color="#12A6D0"/>
<stop offset="0.744792" stop-color="#52EFF2"/>
<stop offset="1" stop-color="#12A6C8"/>
</linearGradient>
<linearGradient id="paint6_linear_148_346" x1="62.1982" y1="149.608" x2="412.689" y2="131.72" gradientUnits="userSpaceOnUse">
<stop stop-color="#084378"/>
<stop offset="0.0001" stop-color="#0A437A"/>
<stop offset="0.276042" stop-color="#483BB5"/>
<stop offset="0.411458" stop-color="#347BB8"/>
<stop offset="0.557292" stop-color="#12A6D0"/>
<stop offset="0.744792" stop-color="#52EFF2"/>
<stop offset="1" stop-color="#12A6C8"/>
</linearGradient>
<linearGradient id="paint7_linear_148_346" x1="67.0278" y1="149.548" x2="418.211" y2="149.278" gradientUnits="userSpaceOnUse">
<stop stop-color="#084378"/>
<stop offset="0.0001" stop-color="#0A437A"/>
<stop offset="0.276042" stop-color="#483BB5"/>
<stop offset="0.411458" stop-color="#347BB8"/>
<stop offset="0.557292" stop-color="#12A6D0"/>
<stop offset="0.744792" stop-color="#52EFF2"/>
<stop offset="1" stop-color="#12A6C8"/>
</linearGradient>
<linearGradient id="paint8_linear_148_346" x1="71.8576" y1="149.604" x2="422.389" y2="166.956" gradientUnits="userSpaceOnUse">
<stop stop-color="#084378"/>
<stop offset="0.0001" stop-color="#0A437A"/>
<stop offset="0.276042" stop-color="#483BB5"/>
<stop offset="0.411458" stop-color="#347BB8"/>
<stop offset="0.557292" stop-color="#12A6D0"/>
<stop offset="0.744792" stop-color="#52EFF2"/>
<stop offset="1" stop-color="#12A6C8"/>
</linearGradient>
<linearGradient id="paint9_linear_148_346" x1="76.6815" y1="149.778" x2="425.231" y2="184.594" gradientUnits="userSpaceOnUse">
<stop stop-color="#084378"/>
<stop offset="0.0001" stop-color="#0A437A"/>
<stop offset="0.276042" stop-color="#483BB5"/>
<stop offset="0.411458" stop-color="#347BB8"/>
<stop offset="0.557292" stop-color="#12A6D0"/>
<stop offset="0.744792" stop-color="#52EFF2"/>
<stop offset="1" stop-color="#12A6C8"/>
</linearGradient>
<linearGradient id="paint10_linear_148_346" x1="81.4938" y1="150.069" x2="426.769" y2="202.04" gradientUnits="userSpaceOnUse">
<stop stop-color="#084378"/>
<stop offset="0.0001" stop-color="#0A437A"/>
<stop offset="0.276042" stop-color="#483BB5"/>
<stop offset="0.411458" stop-color="#347BB8"/>
<stop offset="0.557292" stop-color="#12A6D0"/>
<stop offset="0.744792" stop-color="#52EFF2"/>
<stop offset="1" stop-color="#12A6C8"/>
</linearGradient>
<linearGradient id="paint11_linear_148_346" x1="86.2885" y1="150.476" x2="427.057" y2="219.15" gradientUnits="userSpaceOnUse">
<stop stop-color="#084378"/>
<stop offset="0.0001" stop-color="#0A437A"/>
<stop offset="0.276042" stop-color="#483BB5"/>
<stop offset="0.411458" stop-color="#347BB8"/>
<stop offset="0.557292" stop-color="#12A6D0"/>
<stop offset="0.744792" stop-color="#52EFF2"/>
<stop offset="1" stop-color="#12A6C8"/>
</linearGradient>
<linearGradient id="paint12_linear_148_346" x1="91.0599" y1="150.999" x2="426.172" y2="235.793" gradientUnits="userSpaceOnUse">
<stop stop-color="#084378"/>
<stop offset="0.0001" stop-color="#0A437A"/>
<stop offset="0.276042" stop-color="#483BB5"/>
<stop offset="0.411458" stop-color="#347BB8"/>
<stop offset="0.557292" stop-color="#12A6D0"/>
<stop offset="0.744792" stop-color="#52EFF2"/>
<stop offset="1" stop-color="#12A6C8"/>
</linearGradient>
<linearGradient id="paint13_linear_148_346" x1="95.8021" y1="151.638" x2="424.206" y2="251.857" gradientUnits="userSpaceOnUse">
<stop stop-color="#084378"/>
<stop offset="0.0001" stop-color="#0A437A"/>
<stop offset="0.276042" stop-color="#483BB5"/>
<stop offset="0.411458" stop-color="#347BB8"/>
<stop offset="0.557292" stop-color="#12A6D0"/>
<stop offset="0.744792" stop-color="#52EFF2"/>
<stop offset="1" stop-color="#12A6C8"/>
</linearGradient>
<linearGradient id="paint14_linear_148_346" x1="100.509" y1="152.391" x2="421.265" y2="267.251" gradientUnits="userSpaceOnUse">
<stop stop-color="#084378"/>
<stop offset="0.0001" stop-color="#0A437A"/>
<stop offset="0.276042" stop-color="#483BB5"/>
<stop offset="0.411458" stop-color="#347BB8"/>
<stop offset="0.557292" stop-color="#12A6D0"/>
<stop offset="0.744792" stop-color="#52EFF2"/>
<stop offset="1" stop-color="#12A6C8"/>
</linearGradient>
<linearGradient id="paint15_linear_148_346" x1="105.176" y1="153.258" x2="417.463" y2="281.9" gradientUnits="userSpaceOnUse">
<stop stop-color="#084378"/>
<stop offset="0.0001" stop-color="#0A437A"/>
<stop offset="0.276042" stop-color="#483BB5"/>
<stop offset="0.411458" stop-color="#347BB8"/>
<stop offset="0.557292" stop-color="#12A6D0"/>
<stop offset="0.744792" stop-color="#52EFF2"/>
<stop offset="1" stop-color="#12A6C8"/>
</linearGradient>
<linearGradient id="paint16_linear_148_346" x1="109.796" y1="154.237" x2="412.917" y2="295.755" gradientUnits="userSpaceOnUse">
<stop stop-color="#084378"/>
<stop offset="0.0001" stop-color="#0A437A"/>
<stop offset="0.276042" stop-color="#483BB5"/>
<stop offset="0.411458" stop-color="#347BB8"/>
<stop offset="0.557292" stop-color="#12A6D0"/>
<stop offset="0.744792" stop-color="#52EFF2"/>
<stop offset="1" stop-color="#12A6C8"/>
</linearGradient>
<linearGradient id="paint17_linear_148_346" x1="114.364" y1="155.328" x2="407.745" y2="308.785" gradientUnits="userSpaceOnUse">
<stop stop-color="#084378"/>
<stop offset="0.0001" stop-color="#0A437A"/>
<stop offset="0.276042" stop-color="#483BB5"/>
<stop offset="0.411458" stop-color="#347BB8"/>
<stop offset="0.557292" stop-color="#12A6D0"/>
<stop offset="0.744792" stop-color="#52EFF2"/>
<stop offset="1" stop-color="#12A6C8"/>
</linearGradient>
<linearGradient id="paint18_linear_148_346" x1="118.874" y1="156.529" x2="402.062" y2="320.976" gradientUnits="userSpaceOnUse">
<stop stop-color="#084378"/>
<stop offset="0.0001" stop-color="#0A437A"/>
<stop offset="0.276042" stop-color="#483BB5"/>
<stop offset="0.411458" stop-color="#347BB8"/>
<stop offset="0.557292" stop-color="#12A6D0"/>
<stop offset="0.744792" stop-color="#52EFF2"/>
<stop offset="1" stop-color="#12A6C8"/>
</linearGradient>
<linearGradient id="paint19_linear_148_346" x1="123.322" y1="157.838" x2="395.976" y2="332.332" gradientUnits="userSpaceOnUse">
<stop stop-color="#084378"/>
<stop offset="0.0001" stop-color="#0A437A"/>
<stop offset="0.276042" stop-color="#483BB5"/>
<stop offset="0.411458" stop-color="#347BB8"/>
<stop offset="0.557292" stop-color="#12A6D0"/>
<stop offset="0.744792" stop-color="#52EFF2"/>
<stop offset="1" stop-color="#12A6C8"/>
</linearGradient>
<linearGradient id="paint20_linear_148_346" x1="127.701" y1="159.255" x2="389.586" y2="342.872" gradientUnits="userSpaceOnUse">
<stop stop-color="#084378"/>
<stop offset="0.0001" stop-color="#0A437A"/>
<stop offset="0.276042" stop-color="#483BB5"/>
<stop offset="0.411458" stop-color="#347BB8"/>
<stop offset="0.557292" stop-color="#12A6D0"/>
<stop offset="0.744792" stop-color="#52EFF2"/>
<stop offset="1" stop-color="#12A6C8"/>
</linearGradient>
<linearGradient id="paint21_linear_148_346" x1="132.006" y1="160.777" x2="382.983" y2="352.625" gradientUnits="userSpaceOnUse">
<stop stop-color="#084378"/>
<stop offset="0.0001" stop-color="#0A437A"/>
<stop offset="0.276042" stop-color="#483BB5"/>
<stop offset="0.411458" stop-color="#347BB8"/>
<stop offset="0.557292" stop-color="#12A6D0"/>
<stop offset="0.744792" stop-color="#52EFF2"/>
<stop offset="1" stop-color="#12A6C8"/>
</linearGradient>
<linearGradient id="paint22_linear_148_346" x1="136.232" y1="162.402" x2="376.246" y2="361.63" gradientUnits="userSpaceOnUse">
<stop stop-color="#084378"/>
<stop offset="0.0001" stop-color="#0A437A"/>
<stop offset="0.276042" stop-color="#483BB5"/>
<stop offset="0.411458" stop-color="#347BB8"/>
<stop offset="0.557292" stop-color="#12A6D0"/>
<stop offset="0.744792" stop-color="#52EFF2"/>
<stop offset="1" stop-color="#12A6C8"/>
</linearGradient>
<linearGradient id="paint23_linear_148_346" x1="140.374" y1="164.129" x2="369.445" y2="369.932" gradientUnits="userSpaceOnUse">
<stop stop-color="#084378"/>
<stop offset="0.0001" stop-color="#0A437A"/>
<stop offset="0.276042" stop-color="#483BB5"/>
<stop offset="0.411458" stop-color="#347BB8"/>
<stop offset="0.557292" stop-color="#12A6D0"/>
<stop offset="0.744792" stop-color="#52EFF2"/>
<stop offset="1" stop-color="#12A6C8"/>
</linearGradient>
<linearGradient id="paint24_linear_148_346" x1="144.427" y1="165.955" x2="362.636" y2="377.581" gradientUnits="userSpaceOnUse">
<stop stop-color="#084378"/>
<stop offset="0.0001" stop-color="#0A437A"/>
<stop offset="0.276042" stop-color="#483BB5"/>
<stop offset="0.411458" stop-color="#347BB8"/>
<stop offset="0.557292" stop-color="#12A6D0"/>
<stop offset="0.744792" stop-color="#52EFF2"/>
<stop offset="1" stop-color="#12A6C8"/>
</linearGradient>
</defs>
</svg>
