<svg width="358" height="438" viewBox="0 0 358 438" fill="none" xmlns="http://www.w3.org/2000/svg">
<path fill-rule="evenodd" clip-rule="evenodd" d="M32.1512 207.63C22.2311 179.86 6.18454 146.819 17.4654 119.893C29.1488 92.0069 62.6915 98.5024 84.326 83.0978C101.211 71.075 110.669 41.8769 129.932 39.8129C149.183 37.75 161.625 67.447 180.481 72.7945C209.259 80.9553 250.982 47.11 267.012 78.6867C282.667 109.524 238.228 141.822 233.982 178.18C230.444 208.472 260.713 243.913 245.011 267.077C228.619 291.258 195.592 261.905 171.452 270.426C151.683 277.404 140.773 311.583 120.268 311.11C99.7929 310.639 85.476 285.793 70.4086 268.098C55.1631 250.195 40.7472 231.693 32.1512 207.63Z" stroke="url(#paint0_linear_148_178)"/>
<path opacity="0.95875" fill-rule="evenodd" clip-rule="evenodd" d="M35.6306 206.914C26.4759 178.719 11.3427 144.982 23.3525 118.575C35.7908 91.2253 69.1349 99.2115 91.1769 84.7799C108.38 73.5164 118.63 44.7569 137.937 43.5523C157.233 42.3484 168.855 72.5822 187.554 78.7667C216.09 88.2049 258.711 56.2384 273.868 88.5107C288.671 120.028 243.377 150.326 238.139 186.474C233.776 216.591 263.056 253.359 246.731 275.81C229.689 299.246 197.485 268.439 173.127 275.879C153.179 281.973 141.342 315.645 120.863 314.259C100.414 312.876 86.785 287.407 72.2109 269.051C57.4643 250.479 43.5633 231.346 35.6306 206.914Z" stroke="url(#paint1_linear_148_178)"/>
<path opacity="0.9175" fill-rule="evenodd" clip-rule="evenodd" d="M39.1274 206.353C30.7492 177.766 16.5478 143.375 29.2719 117.518C42.4501 90.7393 75.5549 100.206 97.9775 86.7653C115.478 76.2749 126.508 47.9891 145.835 47.6454C165.152 47.3019 175.94 78.0357 194.458 85.0496C222.718 95.7536 266.187 65.7049 280.452 98.6335C294.384 130.791 248.29 159.054 242.068 194.947C236.884 224.852 265.14 262.903 248.212 284.613C230.54 307.276 199.198 275.052 174.652 281.403C154.55 286.605 141.8 319.729 121.372 317.432C100.973 315.138 88.0492 289.077 73.986 270.083C59.7564 250.865 46.3872 231.123 39.1274 206.353Z" stroke="url(#paint2_linear_148_178)"/>
<path opacity="0.87625" fill-rule="evenodd" clip-rule="evenodd" d="M42.6373 205.947C35.0458 177.004 21.7935 142 35.2165 116.726C49.1185 90.5502 81.9436 101.487 104.72 89.0524C122.496 79.348 134.292 51.5702 153.617 52.0879C172.931 52.6052 182.872 83.8015 201.186 91.6364C229.136 103.593 273.399 75.4989 286.755 109.044C299.799 141.803 252.961 167.996 245.762 203.59C239.763 233.246 266.962 272.534 249.451 293.477C231.17 315.34 200.729 281.738 176.025 286.992C155.794 291.295 142.146 323.832 121.793 320.626C101.47 317.424 89.2669 290.803 75.7318 271.193C62.0366 251.352 49.2154 231.027 42.6373 205.947Z" stroke="url(#paint3_linear_148_178)"/>
<path opacity="0.835" fill-rule="evenodd" clip-rule="evenodd" d="M46.1561 205.699C39.3606 176.435 27.0736 140.861 41.179 116.2C55.7879 90.6582 88.2934 103.051 111.395 91.6387C129.425 82.7319 141.974 55.4961 161.272 56.8744C180.56 58.252 189.642 89.8728 207.73 98.519C235.336 111.714 280.339 85.6084 292.769 119.728C304.909 153.05 257.385 177.14 249.217 212.393C242.412 241.764 268.52 282.241 250.447 302.391C231.58 323.426 202.076 288.489 177.245 292.638C156.908 296.037 142.379 327.947 122.127 323.836C101.905 319.731 90.4367 292.582 77.4461 272.381C64.3019 251.941 52.0445 231.057 46.1561 205.699Z" stroke="url(#paint4_linear_148_178)"/>
<path opacity="0.79375" fill-rule="evenodd" clip-rule="evenodd" d="M49.6795 205.607C43.6883 176.057 32.3815 139.957 47.1522 115.939C62.4501 91.0634 94.5964 104.897 117.995 94.5207C136.258 86.4226 149.543 59.7619 168.791 61.9992C188.029 64.2353 196.241 96.2421 214.082 105.689C241.309 120.106 286.998 96.0211 298.488 130.675C309.709 164.517 261.556 186.476 252.43 221.344C244.826 250.395 269.811 292.011 251.198 311.344C231.768 331.526 203.238 295.295 178.309 298.336C157.892 300.827 142.5 332.07 122.373 327.059C102.276 322.056 91.557 294.411 79.1269 273.644C66.5497 252.631 54.8709 231.212 49.6795 205.607Z" stroke="url(#paint5_linear_148_178)"/>
<path opacity="0.7525" fill-rule="evenodd" clip-rule="evenodd" d="M53.2031 205.672C48.0235 175.873 37.7107 139.29 53.1288 115.944C69.097 91.7651 100.845 107.023 124.513 97.6952C142.985 90.4154 156.991 64.3624 176.166 67.4559C195.331 70.5479 202.662 102.902 220.234 113.138C247.05 128.76 293.368 106.724 303.903 141.87C314.192 176.192 265.47 195.993 255.396 230.434C247.002 259.129 270.834 301.833 251.705 320.326C231.735 339.63 204.214 302.149 179.217 304.078C158.745 305.657 142.509 336.197 122.531 330.292C102.583 324.396 92.6267 296.29 80.7721 274.981C68.7773 253.42 57.6914 231.494 53.2031 205.672Z" stroke="url(#paint6_linear_148_178)"/>
<path opacity="0.71125" fill-rule="evenodd" clip-rule="evenodd" d="M56.7228 205.894C52.3611 175.882 43.0548 138.861 59.1014 116.216C75.7206 92.7627 107.031 109.426 130.939 101.158C149.599 94.7057 164.308 69.292 183.387 73.2381C202.455 77.1821 208.897 109.843 226.178 120.857C252.55 137.664 299.441 117.705 309.01 153.299C318.354 188.06 269.121 205.678 258.111 239.65C248.939 267.954 271.588 311.695 251.965 329.324C231.481 347.728 205.001 309.042 179.967 309.856C159.465 310.523 142.404 340.321 122.6 333.53C102.826 326.748 93.6443 298.215 82.3797 276.391C70.9819 254.308 60.5023 231.901 56.7228 205.894Z" stroke="url(#paint7_linear_148_178)"/>
<path opacity="0.67" fill-rule="evenodd" clip-rule="evenodd" d="M60.2342 206.273C56.6957 176.084 48.4073 138.671 65.0628 116.754C82.3127 94.0547 113.148 112.103 137.267 104.905C156.091 99.2882 171.486 74.5448 190.445 79.3386C209.393 84.1298 214.939 117.059 231.907 128.836C257.804 146.808 305.211 128.95 313.8 164.949C322.188 200.106 272.504 215.52 260.573 248.981C250.633 276.86 272.072 321.584 251.979 338.329C231.005 355.809 205.599 315.967 180.559 315.665C160.051 315.417 142.186 344.438 122.581 336.768C103.004 329.11 94.6087 300.185 83.9478 277.871C73.1608 255.294 63.3004 232.433 60.2342 206.273Z" stroke="url(#paint8_linear_148_178)"/>
<path opacity="0.62875" fill-rule="evenodd" clip-rule="evenodd" d="M63.733 206.809C61.022 176.48 53.7616 138.719 71.0058 117.557C88.8654 95.6396 119.188 115.051 143.489 108.932C162.455 104.157 178.516 80.1142 197.332 85.7498C216.137 91.3824 220.779 124.539 237.415 137.065C262.804 156.181 310.669 140.445 318.269 176.806C325.691 212.316 275.617 225.507 262.778 258.417C252.082 285.837 272.285 331.49 251.747 347.33C230.308 363.865 206.008 322.914 180.991 321.496C160.504 320.335 141.857 348.543 122.473 340.004C103.118 331.478 95.5186 302.196 85.4744 279.421C75.3114 256.376 66.0822 233.089 63.733 206.809Z" stroke="url(#paint9_linear_148_178)"/>
<path opacity="0.5875" fill-rule="evenodd" clip-rule="evenodd" d="M67.215 207.499C65.3348 177.067 59.1113 139.005 76.9231 118.624C95.3706 97.5156 125.144 118.267 149.596 113.234C168.681 109.307 185.389 85.9936 204.039 92.4642C222.679 98.9314 226.411 132.276 242.695 145.535C267.545 165.77 315.81 152.177 322.411 188.855C328.857 224.674 278.454 235.627 264.724 267.946C253.285 294.872 272.227 341.399 251.27 356.314C229.392 371.885 206.227 329.875 181.265 327.344C160.821 325.271 141.415 352.631 122.277 343.234C103.167 333.85 96.373 304.247 86.9577 281.037C77.4311 257.553 68.8442 233.869 67.215 207.499Z" stroke="url(#paint10_linear_148_178)"/>
<path opacity="0.54625" fill-rule="evenodd" clip-rule="evenodd" d="M70.6759 208.345C69.6288 177.847 64.4497 139.53 82.8075 119.955C101.82 99.6803 131.008 121.746 155.582 117.806C174.762 114.731 192.097 92.1758 210.559 99.4735C229.01 106.767 231.828 140.258 247.739 154.235C272.02 175.566 320.627 164.131 326.221 201.081C331.684 237.167 281.013 245.867 266.409 277.555C254.241 303.956 271.899 351.299 250.547 365.272C228.257 379.859 206.255 336.842 181.377 333.2C161.004 330.217 140.862 356.697 121.993 346.452C103.152 336.223 97.1707 306.335 88.3959 282.719C79.5172 258.824 71.5832 234.771 70.6759 208.345Z" stroke="url(#paint11_linear_148_178)"/>
<path opacity="0.505" fill-rule="evenodd" clip-rule="evenodd" d="M74.1115 209.344C73.8988 178.818 69.7704 140.293 88.6518 121.546C108.207 102.131 136.773 125.484 161.44 122.641C180.691 120.423 198.632 98.6532 216.882 106.769C235.123 114.881 237.024 148.477 252.542 163.155C276.225 185.555 325.114 176.293 329.694 213.47C334.168 249.778 283.291 256.216 267.829 287.234C254.947 313.078 271.3 361.179 249.579 374.193C226.905 387.778 206.092 343.806 181.33 339.058C161.051 335.169 140.198 360.735 121.621 349.657C103.071 338.594 97.9109 308.456 89.7872 284.464C81.5673 260.188 74.2959 235.795 74.1115 209.344Z" stroke="url(#paint12_linear_148_178)"/>
<path opacity="0.46375" fill-rule="evenodd" clip-rule="evenodd" d="M77.5177 210.495C78.1396 179.978 75.067 141.291 94.449 123.397C114.523 104.865 142.432 129.476 167.161 127.735C186.461 126.375 204.986 105.418 223.003 114.342C241.01 123.262 241.992 156.923 257.099 172.284C280.155 195.726 329.266 188.647 332.827 226.007C336.305 262.492 285.284 266.659 268.984 296.971C255.404 322.225 270.431 371.027 248.368 383.065C225.337 395.632 205.739 350.758 181.123 344.91C160.963 340.12 139.424 364.742 121.161 352.842C102.925 340.96 98.5926 310.61 91.1299 286.27C83.5789 261.641 76.9788 236.94 77.5177 210.495Z" stroke="url(#paint13_linear_148_178)"/>
<path opacity="0.4225" fill-rule="evenodd" clip-rule="evenodd" d="M80.8902 211.798C82.346 181.326 80.3329 142.526 100.192 125.506C120.76 107.879 147.978 133.719 172.74 133.08C192.065 132.581 211.151 112.462 228.912 122.183C246.664 131.9 246.725 165.585 261.403 181.61C283.803 206.065 333.077 201.179 335.615 238.675C338.093 275.294 286.991 277.186 269.872 306.753C255.61 331.387 269.294 380.83 246.916 391.878C223.555 403.411 205.197 357.691 180.756 350.749C160.739 345.064 138.541 368.712 120.615 356.005C102.715 343.317 99.215 312.793 92.4224 288.134C85.5494 263.184 79.6287 238.203 80.8902 211.798Z" stroke="url(#paint14_linear_148_178)"/>
<path opacity="0.38125" fill-rule="evenodd" clip-rule="evenodd" d="M84.225 213.25C86.5129 182.861 85.5617 143.994 105.874 127.869C126.91 111.168 153.405 138.206 178.169 138.671C197.495 139.033 217.119 119.776 234.604 130.283C252.079 140.785 251.219 174.453 265.45 191.123C287.167 216.561 336.544 213.873 338.055 251.461C339.53 288.168 288.408 287.782 270.492 316.569C255.565 340.554 267.889 390.577 245.223 400.621C221.562 411.107 204.465 364.596 180.229 356.569C160.381 349.995 137.549 372.64 119.982 359.143C102.441 345.665 99.7774 315.002 93.6631 290.055C87.4765 264.813 82.2425 239.583 84.225 213.25Z" stroke="url(#paint15_linear_148_178)"/>
<path opacity="0.34" fill-rule="evenodd" clip-rule="evenodd" d="M87.518 214.85C90.6352 184.581 90.7472 145.694 111.487 130.484C132.967 114.73 158.706 142.933 183.441 144.5C202.746 145.724 222.884 127.352 240.07 138.632C257.247 149.906 255.468 183.516 269.234 200.81C290.242 227.201 339.661 226.714 340.144 264.347C340.615 301.099 289.535 298.435 270.844 326.407C255.271 349.712 266.219 400.255 243.293 409.284C219.36 418.709 203.545 371.464 179.544 362.362C159.887 354.908 136.452 376.522 119.265 362.25C102.103 347.998 100.279 317.235 94.8505 292.03C89.3579 266.528 84.8169 241.079 87.518 214.85Z" stroke="url(#paint16_linear_148_178)"/>
<path opacity="0.29875" fill-rule="evenodd" clip-rule="evenodd" d="M90.7652 216.596C94.7079 186.483 95.8829 147.624 117.025 133.347C138.923 118.56 163.875 147.893 188.551 150.561C207.81 152.644 228.438 135.18 245.305 147.22C262.163 159.252 259.466 192.763 272.75 210.66C293.024 237.972 342.425 239.687 341.879 277.319C341.345 314.07 290.37 309.132 270.926 336.255C254.725 358.853 264.286 409.853 241.127 417.855C216.951 426.208 202.438 378.287 178.701 368.121C159.26 359.795 135.248 380.353 118.462 365.323C101.701 350.315 100.719 319.488 95.9832 294.057C91.1912 268.325 87.3487 242.689 90.7652 216.596Z" stroke="url(#paint17_linear_148_178)"/>
<path opacity="0.2575" fill-rule="evenodd" clip-rule="evenodd" d="M93.9626 218.485C98.726 188.566 100.963 149.782 122.482 136.455C144.77 122.653 168.904 153.08 193.492 156.846C212.683 159.786 233.775 143.251 250.302 156.035C266.821 168.812 263.208 202.183 275.995 220.661C295.51 248.86 344.833 252.775 343.258 290.361C341.72 327.066 290.913 319.86 270.739 346.101C253.931 367.963 262.091 419.36 238.728 426.325C214.339 433.596 201.145 385.056 177.7 373.839C158.5 364.652 133.941 384.127 117.577 368.359C101.236 352.613 101.098 321.761 97.0598 296.133C92.9742 270.203 89.835 244.411 93.9626 218.485Z" stroke="url(#paint18_linear_148_178)"/>
<path opacity="0.21625" fill-rule="evenodd" clip-rule="evenodd" d="M97.1063 220.516C102.685 190.827 105.98 152.166 127.85 139.805C150.501 127.003 173.789 158.488 198.259 163.348C217.356 167.14 238.887 151.556 255.055 165.068C271.213 178.573 266.691 211.764 278.965 230.8C297.696 259.852 346.882 265.963 344.28 303.456C341.74 340.072 291.161 330.606 270.283 355.932C252.888 377.033 259.637 428.763 236.099 434.683C211.527 440.863 199.668 391.764 176.545 379.509C157.607 369.472 132.532 387.842 116.608 371.353C100.709 354.889 101.414 324.048 98.0789 298.256C94.7047 272.159 92.2726 246.242 97.1063 220.516Z" stroke="url(#paint19_linear_148_178)"/>
<path opacity="0.175" fill-rule="evenodd" clip-rule="evenodd" d="M100.193 222.686C106.579 193.262 110.929 154.771 133.124 143.392C156.11 131.607 178.523 164.11 202.844 170.057C221.826 174.699 243.769 160.083 259.557 174.307C275.337 188.525 269.91 221.494 281.656 241.066C299.581 270.936 348.569 279.234 344.944 316.589C341.404 353.07 291.116 341.357 269.558 365.738C251.597 386.051 256.929 438.051 233.243 442.919C208.517 448.001 198.008 398.402 175.234 385.124C156.584 374.249 131.021 391.491 115.559 374.303C100.119 357.139 101.667 326.349 99.0394 300.423C96.3808 274.191 94.6586 248.181 100.193 222.686Z" stroke="url(#paint20_linear_148_178)"/>
<path opacity="0.13375" fill-rule="evenodd" clip-rule="evenodd" d="M103.218 224.991C110.404 195.87 115.804 157.595 138.296 147.212C161.59 136.458 183.1 169.941 207.243 176.968C226.086 182.452 248.416 168.822 263.805 183.742C279.186 198.654 272.861 231.362 284.064 251.446C301.162 282.097 349.891 292.572 345.248 329.744C340.713 366.046 290.777 352.099 268.566 375.505C250.061 395.006 253.967 447.213 230.164 451.023C205.315 455 196.168 404.962 173.772 390.677C155.43 378.978 129.412 395.071 114.43 377.204C99.4687 359.363 101.857 328.659 99.94 302.632C98.0001 276.297 96.9901 250.226 103.218 224.991Z" stroke="url(#paint21_linear_148_178)"/>
<path opacity="0.0925" fill-rule="evenodd" clip-rule="evenodd" d="M106.178 227.43C114.156 198.646 120.599 160.634 143.36 151.259C166.934 141.55 187.515 175.971 211.451 184.07C230.132 190.391 252.82 177.764 267.791 193.36C282.755 208.949 275.54 241.356 286.188 261.927C302.436 293.321 350.849 305.962 345.192 342.905C339.667 378.983 290.144 362.82 267.307 385.222C248.281 403.887 250.758 456.238 226.865 458.985C201.923 461.853 194.15 411.437 172.158 396.162C154.147 383.653 127.706 398.577 113.222 380.053C98.7578 361.556 101.984 330.977 100.78 304.879C99.561 278.473 99.2643 252.372 106.178 227.43Z" stroke="url(#paint22_linear_148_178)"/>
<path opacity="0.05125" fill-rule="evenodd" clip-rule="evenodd" d="M109.069 230C117.83 201.588 125.307 163.886 148.31 155.531C172.135 146.877 191.762 182.195 215.461 191.355C233.958 198.505 256.977 186.896 271.513 203.15C286.041 219.396 277.945 251.463 288.023 272.497C303.403 304.596 351.44 319.386 344.776 356.056C338.269 391.866 289.219 373.506 265.784 394.878C246.259 412.684 247.303 465.114 223.35 466.795C198.346 468.55 191.956 417.817 170.395 401.572C152.738 388.268 125.906 402.005 111.936 382.846C97.9874 363.716 102.048 333.298 101.557 307.163C101.061 280.718 101.478 254.619 109.069 230Z" stroke="url(#paint23_linear_148_178)"/>
<path opacity="0.01" fill-rule="evenodd" clip-rule="evenodd" d="M111.889 232.696C121.42 204.691 129.924 167.344 153.141 160.019C177.187 152.432 195.836 188.603 219.27 198.814C237.56 206.784 260.882 196.207 274.964 213.1C289.039 229.983 280.071 261.67 289.568 283.141C304.061 315.906 351.663 332.828 344.001 369.179C336.519 404.679 288.002 384.143 263.998 404.459C243.998 421.385 243.609 473.831 219.625 474.443C194.588 475.083 189.589 424.096 168.486 406.899C151.204 392.816 124.012 405.35 110.576 385.58C97.1584 365.839 102.048 335.621 102.272 309.479C102.499 283.027 103.63 256.963 111.889 232.696Z" stroke="url(#paint24_linear_148_178)"/>
<defs>
<linearGradient id="paint0_linear_148_178" x1="25.2132" y1="207.505" x2="283.512" y2="157.254" gradientUnits="userSpaceOnUse">
<stop stop-color="#084378"/>
<stop offset="0.0001" stop-color="#0A437A"/>
<stop offset="0.276042" stop-color="#483BB5"/>
<stop offset="0.411458" stop-color="#347BB8"/>
<stop offset="0.557292" stop-color="#12A6D0"/>
<stop offset="0.744792" stop-color="#52EFF2"/>
<stop offset="1" stop-color="#12A6C8"/>
</linearGradient>
<linearGradient id="paint1_linear_148_178" x1="28.7003" y1="206.48" x2="287.517" y2="163.582" gradientUnits="userSpaceOnUse">
<stop stop-color="#084378"/>
<stop offset="0.0001" stop-color="#0A437A"/>
<stop offset="0.276042" stop-color="#483BB5"/>
<stop offset="0.411458" stop-color="#347BB8"/>
<stop offset="0.557292" stop-color="#12A6D0"/>
<stop offset="0.744792" stop-color="#52EFF2"/>
<stop offset="1" stop-color="#12A6C8"/>
</linearGradient>
<linearGradient id="paint2_linear_148_178" x1="32.2133" y1="205.61" x2="291.453" y2="169.998" gradientUnits="userSpaceOnUse">
<stop stop-color="#084378"/>
<stop offset="0.0001" stop-color="#0A437A"/>
<stop offset="0.276042" stop-color="#483BB5"/>
<stop offset="0.411458" stop-color="#347BB8"/>
<stop offset="0.557292" stop-color="#12A6D0"/>
<stop offset="0.744792" stop-color="#52EFF2"/>
<stop offset="1" stop-color="#12A6C8"/>
</linearGradient>
<linearGradient id="paint3_linear_148_178" x1="35.7479" y1="204.897" x2="295.323" y2="176.514" gradientUnits="userSpaceOnUse">
<stop stop-color="#084378"/>
<stop offset="0.0001" stop-color="#0A437A"/>
<stop offset="0.276042" stop-color="#483BB5"/>
<stop offset="0.411458" stop-color="#347BB8"/>
<stop offset="0.557292" stop-color="#12A6D0"/>
<stop offset="0.744792" stop-color="#52EFF2"/>
<stop offset="1" stop-color="#12A6C8"/>
</linearGradient>
<linearGradient id="paint4_linear_148_178" x1="39.2997" y1="204.342" x2="299.129" y2="183.143" gradientUnits="userSpaceOnUse">
<stop stop-color="#084378"/>
<stop offset="0.0001" stop-color="#0A437A"/>
<stop offset="0.276042" stop-color="#483BB5"/>
<stop offset="0.411458" stop-color="#347BB8"/>
<stop offset="0.557292" stop-color="#12A6D0"/>
<stop offset="0.744792" stop-color="#52EFF2"/>
<stop offset="1" stop-color="#12A6C8"/>
</linearGradient>
<linearGradient id="paint5_linear_148_178" x1="42.8645" y1="203.946" x2="302.87" y2="189.896" gradientUnits="userSpaceOnUse">
<stop stop-color="#084378"/>
<stop offset="0.0001" stop-color="#0A437A"/>
<stop offset="0.276042" stop-color="#483BB5"/>
<stop offset="0.411458" stop-color="#347BB8"/>
<stop offset="0.557292" stop-color="#12A6D0"/>
<stop offset="0.744792" stop-color="#52EFF2"/>
<stop offset="1" stop-color="#12A6C8"/>
</linearGradient>
<linearGradient id="paint6_linear_148_178" x1="46.4379" y1="203.708" x2="306.545" y2="196.785" gradientUnits="userSpaceOnUse">
<stop stop-color="#084378"/>
<stop offset="0.0001" stop-color="#0A437A"/>
<stop offset="0.276042" stop-color="#483BB5"/>
<stop offset="0.411458" stop-color="#347BB8"/>
<stop offset="0.557292" stop-color="#12A6D0"/>
<stop offset="0.744792" stop-color="#52EFF2"/>
<stop offset="1" stop-color="#12A6C8"/>
</linearGradient>
<linearGradient id="paint7_linear_148_178" x1="50.0155" y1="203.63" x2="310.151" y2="203.822" gradientUnits="userSpaceOnUse">
<stop stop-color="#084378"/>
<stop offset="0.0001" stop-color="#0A437A"/>
<stop offset="0.276042" stop-color="#483BB5"/>
<stop offset="0.411458" stop-color="#347BB8"/>
<stop offset="0.557292" stop-color="#12A6D0"/>
<stop offset="0.744792" stop-color="#52EFF2"/>
<stop offset="1" stop-color="#12A6C8"/>
</linearGradient>
<linearGradient id="paint8_linear_148_178" x1="53.593" y1="203.712" x2="313.686" y2="211.018" gradientUnits="userSpaceOnUse">
<stop stop-color="#084378"/>
<stop offset="0.0001" stop-color="#0A437A"/>
<stop offset="0.276042" stop-color="#483BB5"/>
<stop offset="0.411458" stop-color="#347BB8"/>
<stop offset="0.557292" stop-color="#12A6D0"/>
<stop offset="0.744792" stop-color="#52EFF2"/>
<stop offset="1" stop-color="#12A6C8"/>
</linearGradient>
<linearGradient id="paint9_linear_148_178" x1="57.166" y1="203.953" x2="317.143" y2="218.385" gradientUnits="userSpaceOnUse">
<stop stop-color="#084378"/>
<stop offset="0.0001" stop-color="#0A437A"/>
<stop offset="0.276042" stop-color="#483BB5"/>
<stop offset="0.411458" stop-color="#347BB8"/>
<stop offset="0.557292" stop-color="#12A6D0"/>
<stop offset="0.744792" stop-color="#52EFF2"/>
<stop offset="1" stop-color="#12A6C8"/>
</linearGradient>
<linearGradient id="paint10_linear_148_178" x1="60.7302" y1="204.352" x2="320.517" y2="225.933" gradientUnits="userSpaceOnUse">
<stop stop-color="#084378"/>
<stop offset="0.0001" stop-color="#0A437A"/>
<stop offset="0.276042" stop-color="#483BB5"/>
<stop offset="0.411458" stop-color="#347BB8"/>
<stop offset="0.557292" stop-color="#12A6D0"/>
<stop offset="0.744792" stop-color="#52EFF2"/>
<stop offset="1" stop-color="#12A6C8"/>
</linearGradient>
<linearGradient id="paint11_linear_148_178" x1="64.2812" y1="204.911" x2="323.8" y2="233.673" gradientUnits="userSpaceOnUse">
<stop stop-color="#084378"/>
<stop offset="0.0001" stop-color="#0A437A"/>
<stop offset="0.276042" stop-color="#483BB5"/>
<stop offset="0.411458" stop-color="#347BB8"/>
<stop offset="0.557292" stop-color="#12A6D0"/>
<stop offset="0.744792" stop-color="#52EFF2"/>
<stop offset="1" stop-color="#12A6C8"/>
</linearGradient>
<linearGradient id="paint12_linear_148_178" x1="67.8147" y1="205.627" x2="326.983" y2="241.617" gradientUnits="userSpaceOnUse">
<stop stop-color="#084378"/>
<stop offset="0.0001" stop-color="#0A437A"/>
<stop offset="0.276042" stop-color="#483BB5"/>
<stop offset="0.411458" stop-color="#347BB8"/>
<stop offset="0.557292" stop-color="#12A6D0"/>
<stop offset="0.744792" stop-color="#52EFF2"/>
<stop offset="1" stop-color="#12A6C8"/>
</linearGradient>
<linearGradient id="paint13_linear_148_178" x1="71.3264" y1="206.5" x2="330.058" y2="249.773" gradientUnits="userSpaceOnUse">
<stop stop-color="#084378"/>
<stop offset="0.0001" stop-color="#0A437A"/>
<stop offset="0.276042" stop-color="#483BB5"/>
<stop offset="0.411458" stop-color="#347BB8"/>
<stop offset="0.557292" stop-color="#12A6D0"/>
<stop offset="0.744792" stop-color="#52EFF2"/>
<stop offset="1" stop-color="#12A6C8"/>
</linearGradient>
<linearGradient id="paint14_linear_148_178" x1="74.812" y1="207.53" x2="333.012" y2="258.152" gradientUnits="userSpaceOnUse">
<stop stop-color="#084378"/>
<stop offset="0.0001" stop-color="#0A437A"/>
<stop offset="0.276042" stop-color="#483BB5"/>
<stop offset="0.411458" stop-color="#347BB8"/>
<stop offset="0.557292" stop-color="#12A6D0"/>
<stop offset="0.744792" stop-color="#52EFF2"/>
<stop offset="1" stop-color="#12A6C8"/>
</linearGradient>
<linearGradient id="paint15_linear_148_178" x1="78.2673" y1="208.714" x2="335.833" y2="266.762" gradientUnits="userSpaceOnUse">
<stop stop-color="#084378"/>
<stop offset="0.0001" stop-color="#0A437A"/>
<stop offset="0.276042" stop-color="#483BB5"/>
<stop offset="0.411458" stop-color="#347BB8"/>
<stop offset="0.557292" stop-color="#12A6D0"/>
<stop offset="0.744792" stop-color="#52EFF2"/>
<stop offset="1" stop-color="#12A6C8"/>
</linearGradient>
<linearGradient id="paint16_linear_148_178" x1="81.6881" y1="210.051" x2="338.508" y2="275.612" gradientUnits="userSpaceOnUse">
<stop stop-color="#084378"/>
<stop offset="0.0001" stop-color="#0A437A"/>
<stop offset="0.276042" stop-color="#483BB5"/>
<stop offset="0.411458" stop-color="#347BB8"/>
<stop offset="0.557292" stop-color="#12A6D0"/>
<stop offset="0.744792" stop-color="#52EFF2"/>
<stop offset="1" stop-color="#12A6C8"/>
</linearGradient>
<linearGradient id="paint17_linear_148_178" x1="85.0702" y1="211.539" x2="341.021" y2="284.71" gradientUnits="userSpaceOnUse">
<stop stop-color="#084378"/>
<stop offset="0.0001" stop-color="#0A437A"/>
<stop offset="0.276042" stop-color="#483BB5"/>
<stop offset="0.411458" stop-color="#347BB8"/>
<stop offset="0.557292" stop-color="#12A6D0"/>
<stop offset="0.744792" stop-color="#52EFF2"/>
<stop offset="1" stop-color="#12A6C8"/>
</linearGradient>
<linearGradient id="paint18_linear_148_178" x1="88.4094" y1="213.178" x2="343.355" y2="294.063" gradientUnits="userSpaceOnUse">
<stop stop-color="#084378"/>
<stop offset="0.0001" stop-color="#0A437A"/>
<stop offset="0.276042" stop-color="#483BB5"/>
<stop offset="0.411458" stop-color="#347BB8"/>
<stop offset="0.557292" stop-color="#12A6D0"/>
<stop offset="0.744792" stop-color="#52EFF2"/>
<stop offset="1" stop-color="#12A6C8"/>
</linearGradient>
<linearGradient id="paint19_linear_148_178" x1="91.7017" y1="214.964" x2="345.494" y2="303.677" gradientUnits="userSpaceOnUse">
<stop stop-color="#084378"/>
<stop offset="0.0001" stop-color="#0A437A"/>
<stop offset="0.276042" stop-color="#483BB5"/>
<stop offset="0.411458" stop-color="#347BB8"/>
<stop offset="0.557292" stop-color="#12A6D0"/>
<stop offset="0.744792" stop-color="#52EFF2"/>
<stop offset="1" stop-color="#12A6C8"/>
</linearGradient>
<linearGradient id="paint20_linear_148_178" x1="94.9432" y1="216.896" x2="347.417" y2="313.557" gradientUnits="userSpaceOnUse">
<stop stop-color="#084378"/>
<stop offset="0.0001" stop-color="#0A437A"/>
<stop offset="0.276042" stop-color="#483BB5"/>
<stop offset="0.411458" stop-color="#347BB8"/>
<stop offset="0.557292" stop-color="#12A6D0"/>
<stop offset="0.744792" stop-color="#52EFF2"/>
<stop offset="1" stop-color="#12A6C8"/>
</linearGradient>
<linearGradient id="paint21_linear_148_178" x1="98.1298" y1="218.972" x2="349.103" y2="323.706" gradientUnits="userSpaceOnUse">
<stop stop-color="#084378"/>
<stop offset="0.0001" stop-color="#0A437A"/>
<stop offset="0.276042" stop-color="#483BB5"/>
<stop offset="0.411458" stop-color="#347BB8"/>
<stop offset="0.557292" stop-color="#12A6D0"/>
<stop offset="0.744792" stop-color="#52EFF2"/>
<stop offset="1" stop-color="#12A6C8"/>
</linearGradient>
<linearGradient id="paint22_linear_148_178" x1="101.258" y1="221.188" x2="350.53" y2="334.128" gradientUnits="userSpaceOnUse">
<stop stop-color="#084378"/>
<stop offset="0.0001" stop-color="#0A437A"/>
<stop offset="0.276042" stop-color="#483BB5"/>
<stop offset="0.411458" stop-color="#347BB8"/>
<stop offset="0.557292" stop-color="#12A6D0"/>
<stop offset="0.744792" stop-color="#52EFF2"/>
<stop offset="1" stop-color="#12A6C8"/>
</linearGradient>
<linearGradient id="paint23_linear_148_178" x1="104.323" y1="223.542" x2="351.674" y2="344.823" gradientUnits="userSpaceOnUse">
<stop stop-color="#084378"/>
<stop offset="0.0001" stop-color="#0A437A"/>
<stop offset="0.276042" stop-color="#483BB5"/>
<stop offset="0.411458" stop-color="#347BB8"/>
<stop offset="0.557292" stop-color="#12A6D0"/>
<stop offset="0.744792" stop-color="#52EFF2"/>
<stop offset="1" stop-color="#12A6C8"/>
</linearGradient>
<linearGradient id="paint24_linear_148_178" x1="107.322" y1="226.03" x2="352.51" y2="355.789" gradientUnits="userSpaceOnUse">
<stop stop-color="#084378"/>
<stop offset="0.0001" stop-color="#0A437A"/>
<stop offset="0.276042" stop-color="#483BB5"/>
<stop offset="0.411458" stop-color="#347BB8"/>
<stop offset="0.557292" stop-color="#12A6D0"/>
<stop offset="0.744792" stop-color="#52EFF2"/>
<stop offset="1" stop-color="#12A6C8"/>
</linearGradient>
</defs>
</svg>
