<svg width="455" height="394" viewBox="0 0 455 394" fill="none" xmlns="http://www.w3.org/2000/svg">
<path d="M190.141 432.248C310.544 429.237 451.277 450.206 479.585 310.116C542.197 0.258454 249.226 -35.9801 250.001 60.9504C251.44 241.1 210.508 150.642 68.3616 256.775C-73.7848 362.908 39.6372 436.012 190.141 432.248Z" stroke="url(#paint0_linear_148_303)"/>
<path d="M191.748 423.011C309.537 421.957 446.845 444.673 476.646 308.123C542.561 6.0938 256.61 -33.9453 255.901 60.8559C254.585 237.048 215.924 147.946 75.3128 249.502C-65.2988 351.058 44.5121 424.328 191.748 423.011Z" stroke="url(#paint1_linear_148_303)"/>
<path d="M193.427 413.986C308.572 414.805 442.436 439.164 473.628 306.165C542.621 11.9922 263.732 -31.6311 261.606 61.0178C257.656 233.21 221.216 145.513 82.2443 242.568C-56.7271 339.624 49.4964 412.962 193.427 413.986Z" stroke="url(#paint2_linear_148_303)"/>
<path d="M195.173 405.175C307.646 407.782 438.049 433.678 470.53 304.241C542.374 17.9461 270.586 -29.0449 267.11 61.4304C260.649 229.583 226.376 143.34 89.148 235.973C-48.0797 328.606 54.5822 401.917 195.173 405.175Z" stroke="url(#paint3_linear_148_303)"/>
<path d="M196.979 396.578C306.754 400.887 433.683 428.215 467.351 302.348C541.82 23.9478 277.166 -26.1938 272.406 62.088C263.559 226.164 231.398 141.422 96.0154 229.714C-39.3671 318.005 59.7608 391.192 196.979 396.578Z" stroke="url(#paint4_linear_148_303)"/>
<path d="M198.841 388.197C305.894 394.122 429.338 422.777 464.091 300.485C540.958 29.9911 283.468 -23.0839 277.491 62.9862C266.381 222.951 236.278 139.757 102.84 223.79C-30.598 307.822 65.0259 380.791 198.841 388.197Z" stroke="url(#paint5_linear_148_303)"/>
<path d="M200.756 380.031C305.064 387.485 425.014 417.363 460.749 298.648C539.79 36.0672 289.486 -19.724 282.359 64.1178C269.113 219.941 241.011 138.339 109.615 218.198C-21.7813 298.056 70.3704 370.713 200.756 380.031Z" stroke="url(#paint6_linear_148_303)"/>
<path d="M202.716 372.082C304.26 380.979 420.71 411.975 457.326 296.837C538.315 42.1698 295.216 -16.1202 287.007 65.4782C271.748 217.133 245.591 137.166 116.332 212.937C-12.9273 288.709 75.7864 360.96 202.716 372.082Z" stroke="url(#paint7_linear_148_303)"/>
<path d="M204.718 364.35C303.479 374.603 416.425 406.611 453.821 295.05C536.534 48.2918 300.653 -12.2799 291.428 67.0618C274.284 214.522 250.013 136.232 122.984 208.005C-4.04504 279.779 81.2664 351.533 204.718 364.35Z" stroke="url(#paint8_linear_148_303)"/>
<path d="M206.755 356.836C302.718 368.358 412.158 401.274 450.232 293.284C534.444 54.4259 305.791 -8.21051 295.619 68.8626C276.714 212.107 254.271 135.533 129.563 203.4C4.85469 271.266 86.8018 342.433 206.755 356.836Z" stroke="url(#paint9_linear_148_303)"/>
<path d="M208.825 349.538C301.975 362.242 407.91 395.963 446.561 291.537C532.05 60.5635 310.628 -3.92092 299.577 70.8736C279.037 209.882 258.363 135.065 136.064 199.117C13.765 263.169 92.3878 333.659 208.825 349.538Z" stroke="url(#paint10_linear_148_303)"/>
<path d="M210.921 342.459C301.246 356.257 403.679 390.677 442.807 289.808C529.35 66.6987 315.158 0.582476 303.295 73.0897C281.246 207.848 262.282 134.823 142.478 195.156C22.6747 255.488 98.0149 325.211 210.921 342.459Z" stroke="url(#paint11_linear_148_303)"/>
<path d="M213.038 335.598C300.528 350.403 399.464 385.419 438.968 288.094C526.344 72.8244 319.377 5.29218 306.769 75.5051C283.339 205.999 266.023 134.803 148.798 191.513C31.5736 248.223 103.675 317.092 213.038 335.598Z" stroke="url(#paint12_linear_148_303)"/>
<path d="M215.172 328.956C299.819 344.681 395.266 380.189 435.047 286.394C523.036 78.934 323.281 10.2008 309.998 78.1142C285.311 204.334 269.582 135.001 155.018 188.186C40.4544 241.372 109.363 309.301 215.172 328.956Z" stroke="url(#paint13_linear_148_303)"/>
<path d="M217.317 322.532C299.115 339.088 391.083 374.985 431.041 284.705C519.424 85.019 326.867 15.2991 312.976 80.9093C287.159 202.849 272.955 135.411 161.131 185.172C49.3064 234.932 115.069 301.837 217.317 322.532Z" stroke="url(#paint14_linear_148_303)"/>
<path d="M219.469 316.325C298.414 333.626 386.915 369.809 426.953 283.026C515.511 91.0725 330.131 20.5796 315.7 83.8844C288.879 201.539 276.137 136.028 167.129 182.466C58.1215 228.903 120.788 294.7 219.469 316.325Z" stroke="url(#paint15_linear_148_303)"/>
<path d="M221.622 310.337C297.711 328.295 382.761 364.663 422.78 281.355C511.298 97.0893 333.069 26.036 318.165 87.0348C290.466 200.404 279.124 136.85 173.006 180.067C66.8887 223.285 126.509 287.891 221.622 310.337Z" stroke="url(#paint16_linear_148_303)"/>
<path d="M223.771 304.566C297.006 323.093 378.62 359.543 418.524 279.688C506.785 103.06 335.677 31.6578 320.369 90.3517C291.918 199.437 281.911 137.867 178.755 177.97C75.5999 218.073 132.228 281.407 223.771 304.566Z" stroke="url(#paint17_linear_148_303)"/>
<path d="M225.913 299.011C296.294 318.021 374.492 354.453 414.184 278.026C501.975 108.979 337.955 37.4385 322.309 93.8303C293.231 198.637 284.494 139.078 184.37 176.172C84.2462 213.266 137.936 275.249 225.913 299.011Z" stroke="url(#paint18_linear_148_303)"/>
<path d="M228.041 293.673C295.572 313.078 370.376 349.392 409.76 276.365C496.87 114.839 339.896 43.3693 323.98 97.4633C294.4 197.999 286.87 140.477 189.844 174.669C92.8176 208.862 143.626 269.416 228.041 293.673Z" stroke="url(#paint19_linear_148_303)"/>
<path d="M230.152 288.548C294.839 308.263 366.273 344.358 405.253 274.702C491.473 120.632 341.501 49.4407 325.383 101.243C295.425 197.519 289.036 142.056 195.171 173.456C101.307 204.857 149.292 263.905 230.152 288.548Z" stroke="url(#paint20_linear_148_303)"/>
<path d="M232.238 283.639C294.089 303.576 362.178 339.355 400.662 273.038C485.782 126.353 342.764 55.6467 326.509 105.164C296.298 197.194 290.985 143.813 200.343 172.531C109.702 201.25 154.923 258.717 232.238 283.639Z" stroke="url(#paint21_linear_148_303)"/>
<path d="M234.297 278.944C293.322 299.018 358.095 334.382 395.988 271.369C479.803 131.995 343.685 61.9786 327.36 109.22C297.019 197.021 292.715 145.741 205.356 171.89C117.996 198.038 160.515 253.851 234.297 278.944Z" stroke="url(#paint22_linear_148_303)"/>
<path d="M236.322 274.462C292.533 294.588 354.02 329.439 391.231 269.695C473.536 137.551 344.26 68.4281 327.931 113.405C297.584 196.996 294.223 147.836 210.201 171.527C126.18 195.219 166.058 249.305 236.322 274.462Z" stroke="url(#paint23_linear_148_303)"/>
<path d="M238.311 270.19C291.721 290.281 349.954 324.524 386.392 268.011C466.985 143.012 344.488 74.9841 328.222 117.708C297.989 197.112 295.505 150.089 214.875 171.437C134.245 192.785 171.548 245.076 238.311 270.19Z" stroke="url(#paint24_linear_148_303)"/>
<path d="M240.257 266.13C290.882 286.103 345.896 319.641 381.469 266.318C460.152 148.376 344.367 81.6427 328.228 122.127C298.233 197.37 296.558 152.5 219.37 171.619C142.182 190.739 176.975 241.164 240.257 266.13Z" stroke="url(#paint25_linear_148_303)"/>
<path d="M242.156 262.278C290.014 282.047 341.846 314.788 376.466 264.612C453.041 153.632 343.895 88.3916 327.948 126.652C298.311 197.761 297.379 155.058 223.681 172.065C149.983 189.072 182.334 237.565 242.156 262.278Z" stroke="url(#paint26_linear_148_303)"/>
<path d="M244.002 258.632C289.112 278.116 337.801 309.964 371.38 262.892C445.651 158.776 343.069 95.2232 327.38 131.277C298.221 198.283 297.964 157.758 227.801 172.77C157.638 187.783 187.615 234.278 244.002 258.632Z" stroke="url(#paint27_linear_148_303)"/>
<path d="M245.792 255.194C288.175 274.307 333.763 305.171 366.213 261.156C437.989 163.8 341.89 102.13 326.522 135.995C297.96 198.933 298.31 160.597 231.725 173.732C165.14 186.867 192.814 231.302 245.792 255.194Z" stroke="url(#paint28_linear_148_303)"/>
<path d="M247.522 251.959C287.201 270.62 329.73 300.408 360.967 259.401C430.057 168.699 340.356 109.103 325.373 140.798C297.526 199.705 298.416 163.566 235.449 174.943C172.481 186.32 197.923 228.632 247.522 251.959Z" stroke="url(#paint29_linear_148_303)"/>
<path d="M249.185 248.927C286.185 267.054 325.701 295.677 355.639 257.627C421.857 173.467 338.465 116.133 323.93 145.68C296.916 200.595 298.277 166.662 238.964 176.4C179.652 186.138 202.935 226.267 249.185 248.927Z" stroke="url(#paint30_linear_148_303)"/>
<path d="M250.777 246.095C285.126 263.608 321.676 290.975 350.232 255.831C413.394 178.096 336.217 123.212 322.192 150.634C296.127 201.599 297.892 169.877 242.267 178.096C186.643 186.316 207.842 224.205 250.777 246.095Z" stroke="url(#paint31_linear_148_303)"/>
<path d="M252.295 243.463C284.02 260.28 317.653 286.306 344.746 254.012C404.671 182.582 333.611 130.332 320.158 155.653C295.156 202.714 297.257 173.205 245.353 180.028C193.449 186.851 212.638 222.442 252.295 243.463Z" stroke="url(#paint32_linear_148_303)"/>
<path d="M253.734 241.027C282.867 257.069 313.634 281.666 339.182 252.166C395.691 186.917 330.647 137.483 317.828 160.729C294.004 203.932 296.372 176.641 248.216 182.188C200.061 187.735 217.317 220.974 253.734 241.027Z" stroke="url(#paint33_linear_148_303)"/>
<path d="M255.088 238.786C281.662 253.974 309.616 277.057 333.541 250.293C386.459 191.096 327.325 144.657 315.2 165.854C292.666 205.251 295.234 180.178 250.852 184.571C206.47 188.965 221.872 219.8 255.088 238.786Z" stroke="url(#paint34_linear_148_303)"/>
<path d="M256.353 236.737C280.401 250.994 305.598 272.479 327.822 248.391C376.977 195.113 323.642 151.845 312.271 171.023C291.138 206.666 293.838 183.81 253.253 187.173C212.668 190.535 226.294 218.916 256.353 236.737Z" stroke="url(#paint35_linear_148_303)"/>
<path d="M257.526 234.879C279.084 248.127 301.58 267.932 322.026 246.459C367.25 198.962 319.6 159.04 309.043 176.228C289.421 208.173 292.185 187.531 255.417 189.986C218.649 192.441 230.578 218.318 257.526 234.879Z" stroke="url(#paint36_linear_148_303)"/>
<path d="M258.602 233.207C277.708 245.371 297.563 263.416 316.156 244.492C357.283 202.637 315.201 166.231 305.515 181.461C287.514 209.766 290.274 191.334 257.339 193.005C224.405 194.676 234.72 218.003 258.602 233.207Z" stroke="url(#paint37_linear_148_303)"/>
<path d="M259.578 231.721C276.271 242.725 293.544 258.93 310.212 242.492C347.079 206.132 310.443 173.41 301.687 186.714C285.413 211.441 288.102 195.213 259.015 196.224C229.929 197.234 238.711 217.966 259.578 231.721Z" stroke="url(#paint38_linear_148_303)"/>
<path d="M260.446 230.418C274.768 240.188 289.522 254.475 304.193 240.454C336.642 209.443 305.327 180.569 297.556 191.982C283.115 213.194 285.665 199.162 260.438 199.637C235.211 200.111 242.544 218.205 260.446 230.418Z" stroke="url(#paint39_linear_148_303)"/>
<path d="M261.206 229.295C273.199 237.758 285.498 250.05 298.101 238.379C325.978 212.563 299.853 187.7 293.126 197.257C280.621 215.019 282.965 203.175 261.606 203.237C240.247 203.3 246.214 218.715 261.206 229.295Z" stroke="url(#paint40_linear_148_303)"/>
<defs>
<linearGradient id="paint0_linear_148_303" x1="488.317" y1="221.02" x2="2.26549" y2="224.904" gradientUnits="userSpaceOnUse">
<stop stop-color="#084378"/>
<stop offset="0.0001" stop-color="#0A437A"/>
<stop offset="0.276042" stop-color="#483BB5"/>
<stop offset="0.411458" stop-color="#347BB8"/>
<stop offset="0.557292" stop-color="#12A6D0"/>
<stop offset="0.744792" stop-color="#52EFF2"/>
<stop offset="1" stop-color="#12A6C8"/>
</linearGradient>
<linearGradient id="paint1_linear_148_303" x1="486.532" y1="221.132" x2="11.1566" y2="217.579" gradientUnits="userSpaceOnUse">
<stop stop-color="#084378"/>
<stop offset="0.0001" stop-color="#0A437A"/>
<stop offset="0.276042" stop-color="#483BB5"/>
<stop offset="0.411458" stop-color="#347BB8"/>
<stop offset="0.557292" stop-color="#12A6D0"/>
<stop offset="0.744792" stop-color="#52EFF2"/>
<stop offset="1" stop-color="#12A6C8"/>
</linearGradient>
<linearGradient id="paint2_linear_148_303" x1="484.606" y1="221.294" x2="20.0132" y2="210.636" gradientUnits="userSpaceOnUse">
<stop stop-color="#084378"/>
<stop offset="0.0001" stop-color="#0A437A"/>
<stop offset="0.276042" stop-color="#483BB5"/>
<stop offset="0.411458" stop-color="#347BB8"/>
<stop offset="0.557292" stop-color="#12A6D0"/>
<stop offset="0.744792" stop-color="#52EFF2"/>
<stop offset="1" stop-color="#12A6C8"/>
</linearGradient>
<linearGradient id="paint3_linear_148_303" x1="482.537" y1="221.502" x2="28.8265" y2="204.07" gradientUnits="userSpaceOnUse">
<stop stop-color="#084378"/>
<stop offset="0.0001" stop-color="#0A437A"/>
<stop offset="0.276042" stop-color="#483BB5"/>
<stop offset="0.411458" stop-color="#347BB8"/>
<stop offset="0.557292" stop-color="#12A6D0"/>
<stop offset="0.744792" stop-color="#52EFF2"/>
<stop offset="1" stop-color="#12A6C8"/>
</linearGradient>
<linearGradient id="paint4_linear_148_303" x1="480.324" y1="221.753" x2="37.5875" y2="197.881" gradientUnits="userSpaceOnUse">
<stop stop-color="#084378"/>
<stop offset="0.0001" stop-color="#0A437A"/>
<stop offset="0.276042" stop-color="#483BB5"/>
<stop offset="0.411458" stop-color="#347BB8"/>
<stop offset="0.557292" stop-color="#12A6D0"/>
<stop offset="0.744792" stop-color="#52EFF2"/>
<stop offset="1" stop-color="#12A6C8"/>
</linearGradient>
<linearGradient id="paint5_linear_148_303" x1="477.966" y1="222.045" x2="46.2891" y2="192.066" gradientUnits="userSpaceOnUse">
<stop stop-color="#084378"/>
<stop offset="0.0001" stop-color="#0A437A"/>
<stop offset="0.276042" stop-color="#483BB5"/>
<stop offset="0.411458" stop-color="#347BB8"/>
<stop offset="0.557292" stop-color="#12A6D0"/>
<stop offset="0.744792" stop-color="#52EFF2"/>
<stop offset="1" stop-color="#12A6C8"/>
</linearGradient>
<linearGradient id="paint6_linear_148_303" x1="475.463" y1="222.371" x2="54.9239" y2="186.622" gradientUnits="userSpaceOnUse">
<stop stop-color="#084378"/>
<stop offset="0.0001" stop-color="#0A437A"/>
<stop offset="0.276042" stop-color="#483BB5"/>
<stop offset="0.411458" stop-color="#347BB8"/>
<stop offset="0.557292" stop-color="#12A6D0"/>
<stop offset="0.744792" stop-color="#52EFF2"/>
<stop offset="1" stop-color="#12A6C8"/>
</linearGradient>
<linearGradient id="paint7_linear_148_303" x1="472.816" y1="222.73" x2="63.4835" y2="181.546" gradientUnits="userSpaceOnUse">
<stop stop-color="#084378"/>
<stop offset="0.0001" stop-color="#0A437A"/>
<stop offset="0.276042" stop-color="#483BB5"/>
<stop offset="0.411458" stop-color="#347BB8"/>
<stop offset="0.557292" stop-color="#12A6D0"/>
<stop offset="0.744792" stop-color="#52EFF2"/>
<stop offset="1" stop-color="#12A6C8"/>
</linearGradient>
<linearGradient id="paint8_linear_148_303" x1="470.022" y1="223.118" x2="71.9601" y2="176.836" gradientUnits="userSpaceOnUse">
<stop stop-color="#084378"/>
<stop offset="0.0001" stop-color="#0A437A"/>
<stop offset="0.276042" stop-color="#483BB5"/>
<stop offset="0.411458" stop-color="#347BB8"/>
<stop offset="0.557292" stop-color="#12A6D0"/>
<stop offset="0.744792" stop-color="#52EFF2"/>
<stop offset="1" stop-color="#12A6C8"/>
</linearGradient>
<linearGradient id="paint9_linear_148_303" x1="467.082" y1="223.531" x2="80.3452" y2="172.49" gradientUnits="userSpaceOnUse">
<stop stop-color="#084378"/>
<stop offset="0.0001" stop-color="#0A437A"/>
<stop offset="0.276042" stop-color="#483BB5"/>
<stop offset="0.411458" stop-color="#347BB8"/>
<stop offset="0.557292" stop-color="#12A6D0"/>
<stop offset="0.744792" stop-color="#52EFF2"/>
<stop offset="1" stop-color="#12A6C8"/>
</linearGradient>
<linearGradient id="paint10_linear_148_303" x1="463.997" y1="223.966" x2="88.6334" y2="168.502" gradientUnits="userSpaceOnUse">
<stop stop-color="#084378"/>
<stop offset="0.0001" stop-color="#0A437A"/>
<stop offset="0.276042" stop-color="#483BB5"/>
<stop offset="0.411458" stop-color="#347BB8"/>
<stop offset="0.557292" stop-color="#12A6D0"/>
<stop offset="0.744792" stop-color="#52EFF2"/>
<stop offset="1" stop-color="#12A6C8"/>
</linearGradient>
<linearGradient id="paint11_linear_148_303" x1="460.766" y1="224.419" x2="96.8155" y2="164.871" gradientUnits="userSpaceOnUse">
<stop stop-color="#084378"/>
<stop offset="0.0001" stop-color="#0A437A"/>
<stop offset="0.276042" stop-color="#483BB5"/>
<stop offset="0.411458" stop-color="#347BB8"/>
<stop offset="0.557292" stop-color="#12A6D0"/>
<stop offset="0.744792" stop-color="#52EFF2"/>
<stop offset="1" stop-color="#12A6C8"/>
</linearGradient>
<linearGradient id="paint12_linear_148_303" x1="457.387" y1="224.887" x2="104.883" y2="161.594" gradientUnits="userSpaceOnUse">
<stop stop-color="#084378"/>
<stop offset="0.0001" stop-color="#0A437A"/>
<stop offset="0.276042" stop-color="#483BB5"/>
<stop offset="0.411458" stop-color="#347BB8"/>
<stop offset="0.557292" stop-color="#12A6D0"/>
<stop offset="0.744792" stop-color="#52EFF2"/>
<stop offset="1" stop-color="#12A6C8"/>
</linearGradient>
<linearGradient id="paint13_linear_148_303" x1="453.862" y1="225.368" x2="112.831" y2="158.667" gradientUnits="userSpaceOnUse">
<stop stop-color="#084378"/>
<stop offset="0.0001" stop-color="#0A437A"/>
<stop offset="0.276042" stop-color="#483BB5"/>
<stop offset="0.411458" stop-color="#347BB8"/>
<stop offset="0.557292" stop-color="#12A6D0"/>
<stop offset="0.744792" stop-color="#52EFF2"/>
<stop offset="1" stop-color="#12A6C8"/>
</linearGradient>
<linearGradient id="paint14_linear_148_303" x1="450.191" y1="225.856" x2="120.651" y2="156.086" gradientUnits="userSpaceOnUse">
<stop stop-color="#084378"/>
<stop offset="0.0001" stop-color="#0A437A"/>
<stop offset="0.276042" stop-color="#483BB5"/>
<stop offset="0.411458" stop-color="#347BB8"/>
<stop offset="0.557292" stop-color="#12A6D0"/>
<stop offset="0.744792" stop-color="#52EFF2"/>
<stop offset="1" stop-color="#12A6C8"/>
</linearGradient>
<linearGradient id="paint15_linear_148_303" x1="446.374" y1="226.348" x2="128.335" y2="153.847" gradientUnits="userSpaceOnUse">
<stop stop-color="#084378"/>
<stop offset="0.0001" stop-color="#0A437A"/>
<stop offset="0.276042" stop-color="#483BB5"/>
<stop offset="0.411458" stop-color="#347BB8"/>
<stop offset="0.557292" stop-color="#12A6D0"/>
<stop offset="0.744792" stop-color="#52EFF2"/>
<stop offset="1" stop-color="#12A6C8"/>
</linearGradient>
<linearGradient id="paint16_linear_148_303" x1="442.41" y1="226.842" x2="135.877" y2="151.949" gradientUnits="userSpaceOnUse">
<stop stop-color="#084378"/>
<stop offset="0.0001" stop-color="#0A437A"/>
<stop offset="0.276042" stop-color="#483BB5"/>
<stop offset="0.411458" stop-color="#347BB8"/>
<stop offset="0.557292" stop-color="#12A6D0"/>
<stop offset="0.744792" stop-color="#52EFF2"/>
<stop offset="1" stop-color="#12A6C8"/>
</linearGradient>
<linearGradient id="paint17_linear_148_303" x1="438.301" y1="227.334" x2="143.268" y2="150.384" gradientUnits="userSpaceOnUse">
<stop stop-color="#084378"/>
<stop offset="0.0001" stop-color="#0A437A"/>
<stop offset="0.276042" stop-color="#483BB5"/>
<stop offset="0.411458" stop-color="#347BB8"/>
<stop offset="0.557292" stop-color="#12A6D0"/>
<stop offset="0.744792" stop-color="#52EFF2"/>
<stop offset="1" stop-color="#12A6C8"/>
</linearGradient>
<linearGradient id="paint18_linear_148_303" x1="434.046" y1="227.819" x2="150.504" y2="149.152" gradientUnits="userSpaceOnUse">
<stop stop-color="#084378"/>
<stop offset="0.0001" stop-color="#0A437A"/>
<stop offset="0.276042" stop-color="#483BB5"/>
<stop offset="0.411458" stop-color="#347BB8"/>
<stop offset="0.557292" stop-color="#12A6D0"/>
<stop offset="0.744792" stop-color="#52EFF2"/>
<stop offset="1" stop-color="#12A6C8"/>
</linearGradient>
<linearGradient id="paint19_linear_148_303" x1="429.646" y1="228.296" x2="157.575" y2="148.246" gradientUnits="userSpaceOnUse">
<stop stop-color="#084378"/>
<stop offset="0.0001" stop-color="#0A437A"/>
<stop offset="0.276042" stop-color="#483BB5"/>
<stop offset="0.411458" stop-color="#347BB8"/>
<stop offset="0.557292" stop-color="#12A6D0"/>
<stop offset="0.744792" stop-color="#52EFF2"/>
<stop offset="1" stop-color="#12A6C8"/>
</linearGradient>
<linearGradient id="paint20_linear_148_303" x1="425.103" y1="228.759" x2="164.477" y2="147.661" gradientUnits="userSpaceOnUse">
<stop stop-color="#084378"/>
<stop offset="0.0001" stop-color="#0A437A"/>
<stop offset="0.276042" stop-color="#483BB5"/>
<stop offset="0.411458" stop-color="#347BB8"/>
<stop offset="0.557292" stop-color="#12A6D0"/>
<stop offset="0.744792" stop-color="#52EFF2"/>
<stop offset="1" stop-color="#12A6C8"/>
</linearGradient>
<linearGradient id="paint21_linear_148_303" x1="420.414" y1="229.206" x2="171.2" y2="147.396" gradientUnits="userSpaceOnUse">
<stop stop-color="#084378"/>
<stop offset="0.0001" stop-color="#0A437A"/>
<stop offset="0.276042" stop-color="#483BB5"/>
<stop offset="0.411458" stop-color="#347BB8"/>
<stop offset="0.557292" stop-color="#12A6D0"/>
<stop offset="0.744792" stop-color="#52EFF2"/>
<stop offset="1" stop-color="#12A6C8"/>
</linearGradient>
<linearGradient id="paint22_linear_148_303" x1="415.583" y1="229.635" x2="177.739" y2="147.445" gradientUnits="userSpaceOnUse">
<stop stop-color="#084378"/>
<stop offset="0.0001" stop-color="#0A437A"/>
<stop offset="0.276042" stop-color="#483BB5"/>
<stop offset="0.411458" stop-color="#347BB8"/>
<stop offset="0.557292" stop-color="#12A6D0"/>
<stop offset="0.744792" stop-color="#52EFF2"/>
<stop offset="1" stop-color="#12A6C8"/>
</linearGradient>
<linearGradient id="paint23_linear_148_303" x1="410.608" y1="230.041" x2="184.087" y2="147.803" gradientUnits="userSpaceOnUse">
<stop stop-color="#084378"/>
<stop offset="0.0001" stop-color="#0A437A"/>
<stop offset="0.276042" stop-color="#483BB5"/>
<stop offset="0.411458" stop-color="#347BB8"/>
<stop offset="0.557292" stop-color="#12A6D0"/>
<stop offset="0.744792" stop-color="#52EFF2"/>
<stop offset="1" stop-color="#12A6C8"/>
</linearGradient>
<linearGradient id="paint24_linear_148_303" x1="405.492" y1="230.419" x2="190.239" y2="148.464" gradientUnits="userSpaceOnUse">
<stop stop-color="#084378"/>
<stop offset="0.0001" stop-color="#0A437A"/>
<stop offset="0.276042" stop-color="#483BB5"/>
<stop offset="0.411458" stop-color="#347BB8"/>
<stop offset="0.557292" stop-color="#12A6D0"/>
<stop offset="0.744792" stop-color="#52EFF2"/>
<stop offset="1" stop-color="#12A6C8"/>
</linearGradient>
<linearGradient id="paint25_linear_148_303" x1="400.235" y1="230.771" x2="196.185" y2="149.427" gradientUnits="userSpaceOnUse">
<stop stop-color="#084378"/>
<stop offset="0.0001" stop-color="#0A437A"/>
<stop offset="0.276042" stop-color="#483BB5"/>
<stop offset="0.411458" stop-color="#347BB8"/>
<stop offset="0.557292" stop-color="#12A6D0"/>
<stop offset="0.744792" stop-color="#52EFF2"/>
<stop offset="1" stop-color="#12A6C8"/>
</linearGradient>
<linearGradient id="paint26_linear_148_303" x1="394.838" y1="231.087" x2="201.922" y2="150.683" gradientUnits="userSpaceOnUse">
<stop stop-color="#084378"/>
<stop offset="0.0001" stop-color="#0A437A"/>
<stop offset="0.276042" stop-color="#483BB5"/>
<stop offset="0.411458" stop-color="#347BB8"/>
<stop offset="0.557292" stop-color="#12A6D0"/>
<stop offset="0.744792" stop-color="#52EFF2"/>
<stop offset="1" stop-color="#12A6C8"/>
</linearGradient>
<linearGradient id="paint27_linear_148_303" x1="389.301" y1="231.368" x2="207.442" y2="152.229" gradientUnits="userSpaceOnUse">
<stop stop-color="#084378"/>
<stop offset="0.0001" stop-color="#0A437A"/>
<stop offset="0.276042" stop-color="#483BB5"/>
<stop offset="0.411458" stop-color="#347BB8"/>
<stop offset="0.557292" stop-color="#12A6D0"/>
<stop offset="0.744792" stop-color="#52EFF2"/>
<stop offset="1" stop-color="#12A6C8"/>
</linearGradient>
<linearGradient id="paint28_linear_148_303" x1="383.625" y1="231.609" x2="212.738" y2="154.06" gradientUnits="userSpaceOnUse">
<stop stop-color="#084378"/>
<stop offset="0.0001" stop-color="#0A437A"/>
<stop offset="0.276042" stop-color="#483BB5"/>
<stop offset="0.411458" stop-color="#347BB8"/>
<stop offset="0.557292" stop-color="#12A6D0"/>
<stop offset="0.744792" stop-color="#52EFF2"/>
<stop offset="1" stop-color="#12A6C8"/>
</linearGradient>
<linearGradient id="paint29_linear_148_303" x1="377.814" y1="231.808" x2="217.807" y2="156.169" gradientUnits="userSpaceOnUse">
<stop stop-color="#084378"/>
<stop offset="0.0001" stop-color="#0A437A"/>
<stop offset="0.276042" stop-color="#483BB5"/>
<stop offset="0.411458" stop-color="#347BB8"/>
<stop offset="0.557292" stop-color="#12A6D0"/>
<stop offset="0.744792" stop-color="#52EFF2"/>
<stop offset="1" stop-color="#12A6C8"/>
</linearGradient>
<linearGradient id="paint30_linear_148_303" x1="371.866" y1="231.961" x2="222.639" y2="158.553" gradientUnits="userSpaceOnUse">
<stop stop-color="#084378"/>
<stop offset="0.0001" stop-color="#0A437A"/>
<stop offset="0.276042" stop-color="#483BB5"/>
<stop offset="0.411458" stop-color="#347BB8"/>
<stop offset="0.557292" stop-color="#12A6D0"/>
<stop offset="0.744792" stop-color="#52EFF2"/>
<stop offset="1" stop-color="#12A6C8"/>
</linearGradient>
<linearGradient id="paint31_linear_148_303" x1="365.783" y1="232.065" x2="227.23" y2="161.204" gradientUnits="userSpaceOnUse">
<stop stop-color="#084378"/>
<stop offset="0.0001" stop-color="#0A437A"/>
<stop offset="0.276042" stop-color="#483BB5"/>
<stop offset="0.411458" stop-color="#347BB8"/>
<stop offset="0.557292" stop-color="#12A6D0"/>
<stop offset="0.744792" stop-color="#52EFF2"/>
<stop offset="1" stop-color="#12A6C8"/>
</linearGradient>
<linearGradient id="paint32_linear_148_303" x1="359.566" y1="232.117" x2="231.575" y2="164.119" gradientUnits="userSpaceOnUse">
<stop stop-color="#084378"/>
<stop offset="0.0001" stop-color="#0A437A"/>
<stop offset="0.276042" stop-color="#483BB5"/>
<stop offset="0.411458" stop-color="#347BB8"/>
<stop offset="0.557292" stop-color="#12A6D0"/>
<stop offset="0.744792" stop-color="#52EFF2"/>
<stop offset="1" stop-color="#12A6C8"/>
</linearGradient>
<linearGradient id="paint33_linear_148_303" x1="353.219" y1="232.114" x2="235.667" y2="167.29" gradientUnits="userSpaceOnUse">
<stop stop-color="#084378"/>
<stop offset="0.0001" stop-color="#0A437A"/>
<stop offset="0.276042" stop-color="#483BB5"/>
<stop offset="0.411458" stop-color="#347BB8"/>
<stop offset="0.557292" stop-color="#12A6D0"/>
<stop offset="0.744792" stop-color="#52EFF2"/>
<stop offset="1" stop-color="#12A6C8"/>
</linearGradient>
<linearGradient id="paint34_linear_148_303" x1="346.74" y1="232.051" x2="239.501" y2="170.712" gradientUnits="userSpaceOnUse">
<stop stop-color="#084378"/>
<stop offset="0.0001" stop-color="#0A437A"/>
<stop offset="0.276042" stop-color="#483BB5"/>
<stop offset="0.411458" stop-color="#347BB8"/>
<stop offset="0.557292" stop-color="#12A6D0"/>
<stop offset="0.744792" stop-color="#52EFF2"/>
<stop offset="1" stop-color="#12A6C8"/>
</linearGradient>
<linearGradient id="paint35_linear_148_303" x1="340.132" y1="231.928" x2="243.069" y2="174.379" gradientUnits="userSpaceOnUse">
<stop stop-color="#084378"/>
<stop offset="0.0001" stop-color="#0A437A"/>
<stop offset="0.276042" stop-color="#483BB5"/>
<stop offset="0.411458" stop-color="#347BB8"/>
<stop offset="0.557292" stop-color="#12A6D0"/>
<stop offset="0.744792" stop-color="#52EFF2"/>
<stop offset="1" stop-color="#12A6C8"/>
</linearGradient>
<linearGradient id="paint36_linear_148_303" x1="333.395" y1="231.74" x2="246.368" y2="178.286" gradientUnits="userSpaceOnUse">
<stop stop-color="#084378"/>
<stop offset="0.0001" stop-color="#0A437A"/>
<stop offset="0.276042" stop-color="#483BB5"/>
<stop offset="0.411458" stop-color="#347BB8"/>
<stop offset="0.557292" stop-color="#12A6D0"/>
<stop offset="0.744792" stop-color="#52EFF2"/>
<stop offset="1" stop-color="#12A6C8"/>
</linearGradient>
<linearGradient id="paint37_linear_148_303" x1="326.534" y1="231.484" x2="249.393" y2="182.425" gradientUnits="userSpaceOnUse">
<stop stop-color="#084378"/>
<stop offset="0.0001" stop-color="#0A437A"/>
<stop offset="0.276042" stop-color="#483BB5"/>
<stop offset="0.411458" stop-color="#347BB8"/>
<stop offset="0.557292" stop-color="#12A6D0"/>
<stop offset="0.744792" stop-color="#52EFF2"/>
<stop offset="1" stop-color="#12A6C8"/>
</linearGradient>
<linearGradient id="paint38_linear_148_303" x1="319.549" y1="231.158" x2="252.138" y2="186.79" gradientUnits="userSpaceOnUse">
<stop stop-color="#084378"/>
<stop offset="0.0001" stop-color="#0A437A"/>
<stop offset="0.276042" stop-color="#483BB5"/>
<stop offset="0.411458" stop-color="#347BB8"/>
<stop offset="0.557292" stop-color="#12A6D0"/>
<stop offset="0.744792" stop-color="#52EFF2"/>
<stop offset="1" stop-color="#12A6C8"/>
</linearGradient>
<linearGradient id="paint39_linear_148_303" x1="312.439" y1="230.758" x2="254.595" y2="191.376" gradientUnits="userSpaceOnUse">
<stop stop-color="#084378"/>
<stop offset="0.0001" stop-color="#0A437A"/>
<stop offset="0.276042" stop-color="#483BB5"/>
<stop offset="0.411458" stop-color="#347BB8"/>
<stop offset="0.557292" stop-color="#12A6D0"/>
<stop offset="0.744792" stop-color="#52EFF2"/>
<stop offset="1" stop-color="#12A6C8"/>
</linearGradient>
<linearGradient id="paint40_linear_148_303" x1="305.21" y1="230.281" x2="256.763" y2="196.175" gradientUnits="userSpaceOnUse">
<stop stop-color="#084378"/>
<stop offset="0.0001" stop-color="#0A437A"/>
<stop offset="0.276042" stop-color="#483BB5"/>
<stop offset="0.411458" stop-color="#347BB8"/>
<stop offset="0.557292" stop-color="#12A6D0"/>
<stop offset="0.744792" stop-color="#52EFF2"/>
<stop offset="1" stop-color="#12A6C8"/>
</linearGradient>
</defs>
</svg>
