<svg version="1.0" xmlns="http://www.w3.org/2000/svg"
 width="auto" height="auto" viewBox="0 0 300.000000 200.000000"
 preserveAspectRatio="xMidYMid meet">
<g transform="translate(0.000000,200.000000) scale(0.100000,-0.100000)"
fill="currentColor" stroke="none">
<path d="M1147 1353 c-4 -3 -7 -44 -7 -89 l0 -83 -47 -6 c-90 -12 -144 -36
-193 -84 -140 -135 -81 -380 103 -432 60 -17 162 -15 235 6 l62 18 0 338 0
339 -73 0 c-41 0 -77 -3 -80 -7z m-17 -444 l0 -122 -46 6 c-65 7 -87 32 -91
104 -6 89 28 133 105 133 l32 0 0 -121z"/>
<path d="M1900 1021 c0 -251 3 -331 13 -338 23 -18 105 -33 185 -33 132 0 211
40 259 133 24 46 27 64 28 148 0 89 -2 99 -30 145 -44 70 -116 106 -214 106
l-71 0 0 84 0 84 -85 0 -85 0 0 -329z m270 -6 c16 -8 34 -24 40 -34 13 -26 13
-104 -1 -135 -14 -30 -70 -58 -107 -54 l-27 3 -3 104 c-1 58 0 111 2 118 7 18
60 17 96 -2z"/>
<path d="M238 1018 c-75 -178 -140 -331 -143 -340 -7 -17 8 -18 224 -18 127 0
231 2 231 3 0 2 -13 35 -28 73 l-29 69 -71 3 c-40 2 -72 7 -72 11 0 5 13 40
29 77 16 38 43 104 61 148 l33 79 91 -229 92 -229 102 -3 102 -3 -9 23 c-11
30 -226 548 -253 611 l-20 47 -102 0 -102 0 -136 -322z"/>
<path d="M1495 1154 c-117 -43 -177 -182 -141 -325 32 -123 110 -182 243 -182
52 0 92 6 121 18 52 21 114 90 130 143 17 55 15 160 -4 215 -19 56 -86 121
-140 136 -54 15 -161 12 -209 -5z m170 -149 c22 -21 25 -33 25 -90 0 -60 -3
-69 -29 -96 -76 -75 -167 5 -148 129 12 76 101 109 152 57z"/>
<path d="M2580 1157 c-54 -17 -123 -93 -140 -152 -44 -156 33 -304 178 -345
54 -15 151 -12 210 5 l52 16 0 68 0 69 -47 -14 c-72 -22 -154 -18 -193 9 -64
43 -54 47 109 47 109 0 152 3 158 13 15 24 7 121 -15 162 -26 51 -77 100 -124
119 -43 18 -136 19 -188 3z m155 -142 c40 -39 32 -45 -55 -45 -87 0 -96 7 -58
47 30 32 81 31 113 -2z"/>
</g>
</svg>
