<svg xmlns="http://www.w3.org/2000/svg" xmlns:xlink="http://www.w3.org/1999/xlink" width="500" zoomAndPan="magnify" viewBox="0 0 375 374.999991" height="500" preserveAspectRatio="xMidYMid meet" version="1.0"><defs><g/><clipPath id="a7385844c8"><path d="M 89.65625 202.222656 L 123.363281 202.222656 L 123.363281 259.828125 L 89.65625 259.828125 Z M 89.65625 202.222656 " clip-rule="nonzero"/></clipPath><clipPath id="972328a824"><path d="M 258.039062 97.910156 L 281.859375 97.910156 L 281.859375 121.726562 L 258.039062 121.726562 Z M 258.039062 97.910156 " clip-rule="nonzero"/></clipPath><clipPath id="b29ac8fe8b"><path d="M 269.949219 97.910156 C 263.371094 97.910156 258.039062 103.242188 258.039062 109.820312 C 258.039062 116.394531 263.371094 121.726562 269.949219 121.726562 C 276.527344 121.726562 281.859375 116.394531 281.859375 109.820312 C 281.859375 103.242188 276.527344 97.910156 269.949219 97.910156 Z M 269.949219 97.910156 " clip-rule="nonzero"/></clipPath><clipPath id="e4116800bd"><path d="M 176.933594 119.472656 L 191.585938 119.472656 L 191.585938 134.125 L 176.933594 134.125 Z M 176.933594 119.472656 " clip-rule="nonzero"/></clipPath><clipPath id="f60f59ba21"><path d="M 184.257812 119.472656 C 180.210938 119.472656 176.933594 122.753906 176.933594 126.800781 C 176.933594 130.84375 180.210938 134.125 184.257812 134.125 C 188.304688 134.125 191.585938 130.84375 191.585938 126.800781 C 191.585938 122.753906 188.304688 119.472656 184.257812 119.472656 Z M 184.257812 119.472656 " clip-rule="nonzero"/></clipPath></defs><g clip-path="url(#a7385844c8)"><path fill="#ff914d" d="M 89.65625 202.222656 L 123.363281 202.222656 L 123.363281 259.890625 L 89.65625 259.890625 Z M 89.65625 202.222656 " fill-opacity="1" fill-rule="nonzero"/></g><g clip-path="url(#972328a824)"><g clip-path="url(#b29ac8fe8b)"><path fill="#ff3131" d="M 258.039062 97.910156 L 281.859375 97.910156 L 281.859375 121.726562 L 258.039062 121.726562 Z M 258.039062 97.910156 " fill-opacity="1" fill-rule="nonzero"/></g></g><g fill="#ffffff" fill-opacity="1"><g transform="translate(89.657775, 185.958972)"><g><path d="M 8.34375 0 L 8.34375 -64.25 L 35.765625 -64.25 C 39.722656 -64.25 43.070312 -63.625 45.8125 -62.375 C 48.550781 -61.132812 50.625 -59.363281 52.03125 -57.0625 C 53.4375 -54.757812 54.140625 -52.039062 54.140625 -48.90625 C 54.140625 -46.070312 53.453125 -43.566406 52.078125 -41.390625 C 50.703125 -39.222656 48.722656 -37.484375 46.140625 -36.171875 L 46.140625 -35.25 C 50.179688 -34.1875 53.300781 -32.265625 55.5 -29.484375 C 57.695312 -26.703125 58.796875 -23.289062 58.796875 -19.25 C 58.796875 -13.09375 56.941406 -8.34375 53.234375 -5 C 49.535156 -1.664062 44.035156 0 36.734375 0 Z M 33.140625 -38.625 C 39.054688 -38.625 42.015625 -41.289062 42.015625 -46.625 C 42.015625 -49.351562 41.28125 -51.382812 39.8125 -52.71875 C 38.351562 -54.050781 36.128906 -54.71875 33.140625 -54.71875 L 21.046875 -54.71875 L 21.046875 -38.625 Z M 35.46875 -10.0625 C 42.46875 -10.0625 45.96875 -13.238281 45.96875 -19.59375 C 45.96875 -25.988281 42.46875 -29.1875 35.46875 -29.1875 L 21.046875 -29.1875 L 21.046875 -10.0625 Z M 35.46875 -10.0625 "/></g></g></g><g fill="#ffffff" fill-opacity="1"><g transform="translate(147.54957, 185.958972)"><g><path d="M 20.125 0.921875 C 15.757812 0.921875 12.425781 -0.253906 10.125 -2.609375 C 7.832031 -4.972656 6.6875 -8.554688 6.6875 -13.359375 L 6.6875 -67.9375 L 18.859375 -67.9375 L 18.859375 -13.84375 C 18.859375 -10.882812 20.085938 -9.40625 22.546875 -9.40625 C 23.242188 -9.40625 23.988281 -9.519531 24.78125 -9.75 L 25.40625 -9.578125 L 26.5 -0.21875 C 25.820312 0.132812 24.925781 0.410156 23.8125 0.609375 C 22.707031 0.816406 21.476562 0.921875 20.125 0.921875 Z M 20.125 0.921875 "/></g></g></g><g fill="#ffffff" fill-opacity="1"><g transform="translate(170.460897, 185.958972)"><g><path d="M 20.4375 0 L 7.015625 0 L 7.015625 -49.140625 L 20.4375 -49.140625 Z M 20.4375 0 "/></g></g></g><g fill="#ffffff" fill-opacity="1"><g transform="translate(192.960861, 185.958972)"><g><path d="M 22.671875 0.921875 C 19.359375 0.921875 16.328125 0.535156 13.578125 -0.234375 C 10.828125 -1.015625 8.476562 -2.085938 6.53125 -3.453125 C 4.582031 -4.816406 3.140625 -6.375 2.203125 -8.125 L 8.96875 -15.421875 L 9.890625 -15.421875 C 11.503906 -13.253906 13.40625 -11.628906 15.59375 -10.546875 C 17.789062 -9.460938 20.179688 -8.921875 22.765625 -8.921875 C 25.140625 -8.921875 26.925781 -9.34375 28.125 -10.1875 C 29.320312 -11.039062 29.921875 -12.257812 29.921875 -13.84375 C 29.921875 -15.070312 29.488281 -16.101562 28.625 -16.9375 C 27.757812 -17.769531 26.363281 -18.421875 24.4375 -18.890625 L 18.015625 -20.4375 C 13.210938 -21.582031 9.703125 -23.332031 7.484375 -25.6875 C 5.273438 -28.039062 4.171875 -31.035156 4.171875 -34.671875 C 4.171875 -37.691406 4.941406 -40.3125 6.484375 -42.53125 C 8.023438 -44.757812 10.191406 -46.457031 12.984375 -47.625 C 15.785156 -48.800781 19.046875 -49.390625 22.765625 -49.390625 C 27.128906 -49.390625 30.742188 -48.757812 33.609375 -47.5 C 36.484375 -46.238281 38.726562 -44.554688 40.34375 -42.453125 L 33.84375 -35.421875 L 32.953125 -35.421875 C 31.609375 -36.941406 30.09375 -38.050781 28.40625 -38.75 C 26.726562 -39.457031 24.847656 -39.8125 22.765625 -39.8125 C 17.960938 -39.8125 15.5625 -38.316406 15.5625 -35.328125 C 15.5625 -34.066406 16.003906 -33.039062 16.890625 -32.25 C 17.785156 -31.457031 19.363281 -30.816406 21.625 -30.328125 L 27.59375 -29 C 32.519531 -27.945312 36.117188 -26.253906 38.390625 -23.921875 C 40.660156 -21.597656 41.796875 -18.472656 41.796875 -14.546875 C 41.796875 -11.472656 41.03125 -8.765625 39.5 -6.421875 C 37.976562 -4.078125 35.78125 -2.265625 32.90625 -0.984375 C 30.039062 0.285156 26.628906 0.921875 22.671875 0.921875 Z M 22.671875 0.921875 "/></g></g></g><g fill="#ffffff" fill-opacity="1"><g transform="translate(232.703237, 185.958972)"><g><path d="M 22.671875 0.921875 C 19.359375 0.921875 16.328125 0.535156 13.578125 -0.234375 C 10.828125 -1.015625 8.476562 -2.085938 6.53125 -3.453125 C 4.582031 -4.816406 3.140625 -6.375 2.203125 -8.125 L 8.96875 -15.421875 L 9.890625 -15.421875 C 11.503906 -13.253906 13.40625 -11.628906 15.59375 -10.546875 C 17.789062 -9.460938 20.179688 -8.921875 22.765625 -8.921875 C 25.140625 -8.921875 26.925781 -9.34375 28.125 -10.1875 C 29.320312 -11.039062 29.921875 -12.257812 29.921875 -13.84375 C 29.921875 -15.070312 29.488281 -16.101562 28.625 -16.9375 C 27.757812 -17.769531 26.363281 -18.421875 24.4375 -18.890625 L 18.015625 -20.4375 C 13.210938 -21.582031 9.703125 -23.332031 7.484375 -25.6875 C 5.273438 -28.039062 4.171875 -31.035156 4.171875 -34.671875 C 4.171875 -37.691406 4.941406 -40.3125 6.484375 -42.53125 C 8.023438 -44.757812 10.191406 -46.457031 12.984375 -47.625 C 15.785156 -48.800781 19.046875 -49.390625 22.765625 -49.390625 C 27.128906 -49.390625 30.742188 -48.757812 33.609375 -47.5 C 36.484375 -46.238281 38.726562 -44.554688 40.34375 -42.453125 L 33.84375 -35.421875 L 32.953125 -35.421875 C 31.609375 -36.941406 30.09375 -38.050781 28.40625 -38.75 C 26.726562 -39.457031 24.847656 -39.8125 22.765625 -39.8125 C 17.960938 -39.8125 15.5625 -38.316406 15.5625 -35.328125 C 15.5625 -34.066406 16.003906 -33.039062 16.890625 -32.25 C 17.785156 -31.457031 19.363281 -30.816406 21.625 -30.328125 L 27.59375 -29 C 32.519531 -27.945312 36.117188 -26.253906 38.390625 -23.921875 C 40.660156 -21.597656 41.796875 -18.472656 41.796875 -14.546875 C 41.796875 -11.472656 41.03125 -8.765625 39.5 -6.421875 C 37.976562 -4.078125 35.78125 -2.265625 32.90625 -0.984375 C 30.039062 0.285156 26.628906 0.921875 22.671875 0.921875 Z M 22.671875 0.921875 "/></g></g></g><g fill="#ffffff" fill-opacity="1"><g transform="translate(67.803602, 236.349066)"><g><path d="M 35.109375 0.921875 C 29.191406 0.921875 23.976562 -0.304688 19.46875 -2.765625 C 14.957031 -5.222656 11.425781 -8.921875 8.875 -13.859375 C 6.320312 -18.796875 5.046875 -24.882812 5.046875 -32.125 C 5.046875 -39.363281 6.320312 -45.445312 8.875 -50.375 C 11.425781 -55.3125 14.957031 -59.007812 19.46875 -61.46875 C 23.976562 -63.9375 29.191406 -65.171875 35.109375 -65.171875 C 41.296875 -65.171875 46.546875 -63.960938 50.859375 -61.546875 C 55.179688 -59.128906 58.269531 -55.445312 60.125 -50.5 L 50.84375 -44.828125 L 49.75 -44.875 C 48.375 -48.207031 46.503906 -50.597656 44.140625 -52.046875 C 41.785156 -53.503906 38.773438 -54.234375 35.109375 -54.234375 C 29.773438 -54.234375 25.613281 -52.46875 22.625 -48.9375 C 19.644531 -45.40625 18.15625 -39.800781 18.15625 -32.125 C 18.15625 -24.476562 19.644531 -18.890625 22.625 -15.359375 C 25.613281 -11.828125 29.773438 -10.0625 35.109375 -10.0625 C 43.460938 -10.0625 48.578125 -14.117188 50.453125 -22.234375 L 51.546875 -22.234375 L 60.90625 -17.359375 C 59.144531 -11.265625 56.140625 -6.691406 51.890625 -3.640625 C 47.648438 -0.597656 42.054688 0.921875 35.109375 0.921875 Z M 35.109375 0.921875 "/></g></g></g><g fill="#ffffff" fill-opacity="1"><g transform="translate(125.871178, 236.349066)"><g><path d="M 6.984375 0 L 6.984375 -48.46875 L 18.8125 -48.46875 L 18.8125 -41.265625 L 19.734375 -41.09375 C 20.898438 -43.78125 22.4375 -45.753906 24.34375 -47.015625 C 26.25 -48.273438 28.566406 -48.90625 31.296875 -48.90625 C 34.046875 -48.90625 36.140625 -48.4375 37.578125 -47.5 L 35.515625 -37 L 34.578125 -36.828125 C 33.796875 -37.148438 33.035156 -37.382812 32.296875 -37.53125 C 31.566406 -37.675781 30.675781 -37.75 29.625 -37.75 C 26.21875 -37.75 23.617188 -36.554688 21.828125 -34.171875 C 20.046875 -31.785156 19.15625 -27.953125 19.15625 -22.671875 L 19.15625 0 Z M 6.984375 0 "/></g></g></g><g fill="#ffffff" fill-opacity="1"><g transform="translate(158.933872, 236.349066)"><g><path d="M 18.890625 0.921875 C 15.785156 0.921875 13.09375 0.351562 10.8125 -0.78125 C 8.53125 -1.925781 6.769531 -3.601562 5.53125 -5.8125 C 4.300781 -8.03125 3.6875 -10.691406 3.6875 -13.796875 C 3.6875 -16.671875 4.300781 -19.082031 5.53125 -21.03125 C 6.769531 -22.976562 8.675781 -24.570312 11.25 -25.8125 C 13.832031 -27.0625 17.203125 -28.023438 21.359375 -28.703125 C 24.253906 -29.171875 26.457031 -29.679688 27.96875 -30.234375 C 29.476562 -30.785156 30.492188 -31.410156 31.015625 -32.109375 C 31.546875 -32.816406 31.8125 -33.71875 31.8125 -34.8125 C 31.8125 -36.363281 31.269531 -37.546875 30.1875 -38.359375 C 29.101562 -39.179688 27.300781 -39.59375 24.78125 -39.59375 C 22.09375 -39.59375 19.53125 -38.988281 17.09375 -37.78125 C 14.664062 -36.582031 12.554688 -35.003906 10.765625 -33.046875 L 9.890625 -33.046875 L 4.796875 -40.734375 C 7.253906 -43.460938 10.253906 -45.585938 13.796875 -47.109375 C 17.335938 -48.628906 21.207031 -49.390625 25.40625 -49.390625 C 31.820312 -49.390625 36.460938 -48.023438 39.328125 -45.296875 C 42.203125 -42.578125 43.640625 -38.710938 43.640625 -33.703125 L 43.640625 -12.65625 C 43.640625 -10.488281 44.59375 -9.40625 46.5 -9.40625 C 47.226562 -9.40625 47.941406 -9.535156 48.640625 -9.796875 L 49.265625 -9.625 L 50.140625 -1.140625 C 49.460938 -0.703125 48.523438 -0.34375 47.328125 -0.0625 C 46.128906 0.21875 44.8125 0.359375 43.375 0.359375 C 40.476562 0.359375 38.210938 -0.195312 36.578125 -1.3125 C 34.953125 -2.425781 33.789062 -4.171875 33.09375 -6.546875 L 32.171875 -6.640625 C 29.796875 -1.597656 25.367188 0.921875 18.890625 0.921875 Z M 22.765625 -8.171875 C 25.578125 -8.171875 27.820312 -9.113281 29.5 -11 C 31.1875 -12.894531 32.03125 -15.523438 32.03125 -18.890625 L 32.03125 -23.8125 L 31.203125 -24 C 30.472656 -23.40625 29.515625 -22.910156 28.328125 -22.515625 C 27.140625 -22.117188 25.429688 -21.734375 23.203125 -21.359375 C 20.566406 -20.921875 18.671875 -20.164062 17.515625 -19.09375 C 16.359375 -18.019531 15.78125 -16.503906 15.78125 -14.546875 C 15.78125 -12.460938 16.394531 -10.878906 17.625 -9.796875 C 18.851562 -8.710938 20.566406 -8.171875 22.765625 -8.171875 Z M 22.765625 -8.171875 "/></g></g></g><g fill="#ffffff" fill-opacity="1"><g transform="translate(205.092274, 236.349066)"><g><path d="M 8.484375 0 L 8.484375 -38.84375 L 1.625 -38.84375 L 1.625 -48.515625 L 8.484375 -48.515625 C 7.984375 -50.566406 7.734375 -52.484375 7.734375 -54.265625 C 7.734375 -57.347656 8.4375 -59.976562 9.84375 -62.15625 C 11.25 -64.34375 13.269531 -66.003906 15.90625 -67.140625 C 18.539062 -68.285156 21.675781 -68.859375 25.3125 -68.859375 C 30.675781 -68.859375 34.675781 -67.9375 37.3125 -66.09375 L 34.453125 -57.125 L 33.53125 -56.953125 C 31.71875 -58.242188 29.390625 -58.890625 26.546875 -58.890625 C 24.347656 -58.890625 22.695312 -58.351562 21.59375 -57.28125 C 20.5 -56.207031 19.953125 -54.75 19.953125 -52.90625 C 19.953125 -52.113281 20.003906 -51.390625 20.109375 -50.734375 C 20.210938 -50.078125 20.394531 -49.335938 20.65625 -48.515625 L 34.5 -48.515625 L 34.5 -38.84375 L 20.65625 -38.84375 L 20.65625 0 Z M 8.484375 0 "/></g></g></g><g fill="#ffffff" fill-opacity="1"><g transform="translate(235.122736, 236.349066)"><g><path d="M 33.4375 -11.5625 L 36.609375 -2.546875 C 35.285156 -1.460938 33.628906 -0.613281 31.640625 0 C 29.648438 0.613281 27.394531 0.921875 24.875 0.921875 C 19.625 0.921875 15.632812 -0.503906 12.90625 -3.359375 C 10.1875 -6.210938 8.828125 -10.367188 8.828125 -15.828125 L 8.828125 -38.84375 L 1.453125 -38.84375 L 1.453125 -48.515625 L 8.828125 -48.515625 L 8.828125 -57.96875 L 21 -59.9375 L 21 -48.515625 L 34.765625 -48.515625 L 34.765625 -38.84375 L 21 -38.84375 L 21 -16.703125 C 21 -14.296875 21.5 -12.539062 22.5 -11.4375 C 23.5 -10.34375 24.945312 -9.796875 26.84375 -9.796875 C 29.019531 -9.796875 30.910156 -10.382812 32.515625 -11.5625 Z M 33.4375 -11.5625 "/></g></g></g><g clip-path="url(#e4116800bd)"><g clip-path="url(#f60f59ba21)"><path fill="#ff3131" d="M 176.933594 119.472656 L 191.585938 119.472656 L 191.585938 134.125 L 176.933594 134.125 Z M 176.933594 119.472656 " fill-opacity="1" fill-rule="nonzero"/></g></g></svg>