<svg version="1.0" xmlns="http://www.w3.org/2000/svg"
 width="auto" height="auto" viewBox="0 0 300.000000 200.000000"
 preserveAspectRatio="xMidYMid meet">
<g transform="translate(0.000000,200.000000) scale(0.050000,-0.050000)"
fill="currentColor" stroke="none">
<path d="M344 2559 c-582 -291 -388 -1179 257 -1179 323 0 605 234 459 380
-66 66 -134 60 -258 -22 -231 -151 -510 -8 -511 263 -2 262 284 414 500 267
148 -100 272 -92 300 21 63 249 -432 427 -747 270z m512 -19 c179 -77 250
-181 183 -267 -55 -69 -103 -67 -209 9 -106 77 -230 95 -336 51 -74 -31 -74
-31 -74 18 0 56 -64 129 -114 129 -58 0 1 42 118 83 132 47 287 39 432 -23z
m-496 -120 c109 -109 -49 -271 -163 -167 -52 46 -47 137 7 176 60 42 108 39
156 -9z m-111 -228 c44 -11 48 -18 30 -64 -27 -72 -23 -209 7 -268 25 -47 23
-50 -25 -53 -30 -2 -73 -30 -105 -69 l-55 -65 -35 78 c-50 109 -49 389 0 499
l36 79 49 -62 c26 -34 71 -68 98 -75z m124 -464 c72 -110 -51 -233 -161 -161
-97 64 -47 213 71 213 38 0 67 -16 90 -52z m651 27 c155 -121 -112 -343 -414
-344 -138 0 -441 103 -315 107 60 3 125 70 125 131 0 48 1 48 69 20 126 -52
244 -32 355 62 65 54 131 63 180 24z"/>
<path d="M4969 2453 l-70 -70 5 -327 6 -326 60 0 60 0 6 215 5 215 71 0 c103
0 96 106 -8 116 -97 10 -85 90 16 104 62 9 70 17 70 70 0 97 -126 98 -221 3z"/>
<path d="M3034 2408 c-23 -24 -16 -541 9 -596 46 -101 247 -128 247 -32 0 34
-13 52 -40 57 -76 14 -90 44 -90 185 l0 138 69 0 c77 0 99 22 81 80 -9 30 -30
40 -80 40 -61 0 -68 6 -74 65 -6 64 -81 103 -122 63z"/>
<path d="M4560 2123 c0 -352 12 -380 164 -397 81 -10 93 -6 106 33 17 55 -20
101 -82 101 -46 0 -48 5 -48 150 l0 150 71 0 c102 0 98 106 -5 116 -55 6 -64
15 -70 70 -5 56 -14 65 -71 70 l-65 7 0 -300z"/>
<path d="M5869 2396 c-5 -15 -8 -171 -5 -347 l6 -319 60 0 60 0 0 340 0 340
-55 6 c-33 4 -59 -4 -66 -20z"/>
<path d="M1450 2270 c-303 -107 -217 -550 106 -550 174 0 260 79 161 148 -38
26 -47 26 -89 -1 -91 -60 -208 16 -208 136 0 105 60 166 147 148 119 -23 137
-21 167 23 56 83 -136 148 -284 96z"/>
<path d="M1973 2279 c-281 -84 -247 -519 44 -569 331 -55 461 433 150 563 -73
30 -111 31 -194 6z m181 -162 c94 -89 31 -277 -94 -277 -70 0 -140 78 -140
155 0 142 137 213 234 122z"/>
<path d="M2611 2261 c-95 -49 -91 -48 -91 -11 0 20 -20 30 -61 30 l-60 0 5
-275 6 -275 60 0 60 0 6 174 c5 160 10 178 57 215 129 101 194 38 207 -202
l10 -187 65 -6 65 -7 0 197 c-1 314 -129 449 -329 347z"/>
<path d="M3480 2265 c-181 -91 -217 -353 -67 -489 93 -83 310 -88 418 -8 63
47 -25 130 -101 96 -66 -30 -140 -31 -196 -1 -101 53 -75 67 142 77 l214 10
-4 83 c-9 217 -208 331 -406 232z m245 -140 c60 -54 39 -65 -117 -65 l-153 0
30 45 c51 77 164 86 240 20z"/>
<path d="M4151 2261 c-95 -49 -91 -48 -91 -11 0 20 -20 30 -61 30 l-60 0 5
-275 6 -275 60 0 60 0 6 174 c5 160 10 178 57 215 129 101 194 38 207 -202
l10 -187 65 -6 65 -7 0 197 c-1 314 -129 449 -329 347z"/>
<path d="M5233 2267 c-31 -31 -12 -337 26 -420 57 -127 187 -166 320 -97 51
26 58 26 69 -2 8 -20 31 -28 67 -24 l55 6 0 270 0 270 -63 6 -63 6 -7 -183
c-13 -352 -264 -376 -269 -26 -1 86 -3 168 -5 182 -3 26 -106 35 -130 12z"/>
</g>
</svg>
