<svg xmlns="http://www.w3.org/2000/svg" xmlns:xlink="http://www.w3.org/1999/xlink" width="500" zoomAndPan="magnify" viewBox="0 0 375 374.999991" height="500" preserveAspectRatio="xMidYMid meet" version="1.0"><defs><g/><clipPath id="639890fda3"><path d="M 218 159.75 L 325 159.75 L 325 189 L 218 189 Z M 218 159.75 " clip-rule="nonzero"/></clipPath><clipPath id="f98a8e8dde"><path d="M 321 190 L 331 190 L 331 204.75 L 321 204.75 Z M 321 190 " clip-rule="nonzero"/></clipPath><clipPath id="152c60e66d"><path d="M 212 190 L 222 190 L 222 204.75 L 212 204.75 Z M 212 190 " clip-rule="nonzero"/></clipPath><clipPath id="cedbcafd6e"><path d="M 196.535156 182 L 346.535156 182 L 346.535156 200 L 196.535156 200 Z M 196.535156 182 " clip-rule="nonzero"/></clipPath></defs><g clip-path="url(#639890fda3)"><path fill="#000000" d="M 224.105469 186.878906 C 226.242188 184.121094 228.40625 181.59375 230.351562 179.789062 C 241.332031 169.628906 255.957031 164.035156 271.535156 164.035156 C 287.113281 164.035156 301.738281 169.628906 312.71875 179.789062 C 314.664062 181.589844 316.828125 184.121094 318.964844 186.875 C 320.804688 187.425781 322.632812 188.011719 324.449219 188.636719 C 321.695312 184.074219 318.289062 179.898438 314.261719 176.175781 C 302.828125 165.59375 287.652344 159.765625 271.535156 159.765625 C 255.417969 159.765625 240.242188 165.59375 228.808594 176.175781 C 224.78125 179.902344 221.375 184.074219 218.621094 188.636719 C 220.4375 188.011719 222.261719 187.425781 224.105469 186.878906 Z M 224.105469 186.878906 " fill-opacity="1" fill-rule="nonzero"/></g><g clip-path="url(#f98a8e8dde)"><path fill="#000000" d="M 326.308594 191.976562 C 326.15625 191.9375 326.003906 191.894531 325.851562 191.855469 C 324.625 191.539062 323.320312 191.207031 321.941406 190.871094 C 326.8125 197.644531 330.882812 204.363281 330.882812 204.363281 C 330.066406 200.90625 328.910156 197.527344 327.410156 194.246094 C 327.058594 193.480469 326.691406 192.722656 326.308594 191.976562 Z M 326.308594 191.976562 " fill-opacity="1" fill-rule="nonzero"/></g><g clip-path="url(#152c60e66d)"><path fill="#000000" d="M 216.746094 192.035156 C 216.742188 192.035156 216.734375 192.039062 216.730469 192.039062 C 216.359375 192.765625 216 193.503906 215.660156 194.246094 C 214.160156 197.527344 213.003906 200.90625 212.1875 204.363281 C 212.1875 204.363281 216.226562 197.691406 221.074219 190.945312 C 219.539062 191.320312 218.09375 191.6875 216.746094 192.035156 Z M 216.746094 192.035156 " fill-opacity="1" fill-rule="nonzero"/></g><g clip-path="url(#cedbcafd6e)"><path fill="#000000" d="M 271.535156 182.105469 C 248.035156 181.582031 221.953125 185.953125 196.535156 199.890625 C 196.535156 199.890625 226.992188 186.203125 271.535156 186.375 C 316.078125 186.203125 346.53125 199.890625 346.53125 199.890625 C 321.117188 185.953125 295.035156 181.582031 271.535156 182.105469 Z M 271.535156 182.105469 " fill-opacity="1" fill-rule="nonzero"/></g><path fill="#000000" d="M 271.535156 191.929688 C 256.472656 191.59375 239.753906 194.398438 223.460938 203.328125 C 223.460938 203.328125 242.984375 194.554688 271.535156 194.667969 C 300.085938 194.554688 319.609375 203.328125 319.609375 203.328125 C 303.316406 194.398438 286.597656 191.59375 271.535156 191.929688 Z M 271.535156 191.929688 " fill-opacity="1" fill-rule="nonzero"/><g fill="#000000" fill-opacity="1"><g transform="translate(59.312722, 174.56372)"><g><path d="M 10.703125 0.1875 C 9.398438 0.1875 8.179688 -0.0390625 7.046875 -0.5 C 5.921875 -0.957031 4.921875 -1.609375 4.046875 -2.453125 C 3.179688 -3.304688 2.503906 -4.316406 2.015625 -5.484375 C 1.535156 -6.660156 1.296875 -7.957031 1.296875 -9.375 C 1.296875 -10.8125 1.546875 -12.125 2.046875 -13.3125 C 2.546875 -14.5 3.234375 -15.519531 4.109375 -16.375 C 4.984375 -17.238281 5.992188 -17.90625 7.140625 -18.375 C 8.296875 -18.84375 9.515625 -19.078125 10.796875 -19.078125 C 12.335938 -19.078125 13.679688 -18.796875 14.828125 -18.234375 C 15.984375 -17.671875 16.929688 -16.945312 17.671875 -16.0625 C 18.410156 -15.175781 18.925781 -14.25 19.21875 -13.28125 L 17.4375 -12.46875 C 17.175781 -13.238281 16.769531 -13.984375 16.21875 -14.703125 C 15.675781 -15.429688 14.957031 -16.023438 14.0625 -16.484375 C 13.175781 -16.953125 12.070312 -17.1875 10.75 -17.1875 C 9.757812 -17.1875 8.816406 -17 7.921875 -16.625 C 7.023438 -16.257812 6.234375 -15.734375 5.546875 -15.046875 C 4.867188 -14.367188 4.335938 -13.554688 3.953125 -12.609375 C 3.566406 -11.671875 3.375 -10.632812 3.375 -9.5 C 3.375 -8 3.691406 -6.660156 4.328125 -5.484375 C 4.972656 -4.316406 5.851562 -3.390625 6.96875 -2.703125 C 8.09375 -2.023438 9.363281 -1.6875 10.78125 -1.6875 C 12.507812 -1.6875 13.925781 -2.128906 15.03125 -3.015625 C 16.132812 -3.910156 16.941406 -5.0625 17.453125 -6.46875 L 19.234375 -5.625 C 18.898438 -4.664062 18.359375 -3.738281 17.609375 -2.84375 C 16.859375 -1.957031 15.90625 -1.226562 14.75 -0.65625 C 13.59375 -0.09375 12.242188 0.1875 10.703125 0.1875 Z M 10.703125 0.1875 "/></g></g></g><g fill="#000000" fill-opacity="1"><g transform="translate(77.261151, 174.56372)"><g><path d="M 20.28125 -9.5 C 20.28125 -8.144531 20.039062 -6.878906 19.5625 -5.703125 C 19.09375 -4.535156 18.425781 -3.507812 17.5625 -2.625 C 16.707031 -1.738281 15.695312 -1.046875 14.53125 -0.546875 C 13.375 -0.0546875 12.113281 0.1875 10.75 0.1875 C 9.40625 0.1875 8.15625 -0.0546875 7 -0.546875 C 5.851562 -1.035156 4.851562 -1.710938 4 -2.578125 C 3.144531 -3.441406 2.476562 -4.453125 2 -5.609375 C 1.53125 -6.773438 1.296875 -8.03125 1.296875 -9.375 C 1.296875 -10.726562 1.53125 -11.988281 2 -13.15625 C 2.476562 -14.332031 3.144531 -15.363281 4 -16.25 C 4.863281 -17.132812 5.875 -17.828125 7.03125 -18.328125 C 8.195312 -18.828125 9.460938 -19.078125 10.828125 -19.078125 C 12.171875 -19.078125 13.414062 -18.828125 14.5625 -18.328125 C 15.71875 -17.835938 16.722656 -17.160156 17.578125 -16.296875 C 18.429688 -15.429688 19.09375 -14.421875 19.5625 -13.265625 C 20.039062 -12.109375 20.28125 -10.851562 20.28125 -9.5 Z M 18.234375 -9.375 C 18.234375 -10.4375 18.050781 -11.4375 17.6875 -12.375 C 17.320312 -13.320312 16.804688 -14.160156 16.140625 -14.890625 C 15.472656 -15.617188 14.679688 -16.1875 13.765625 -16.59375 C 12.847656 -17.007812 11.84375 -17.21875 10.75 -17.21875 C 9.675781 -17.21875 8.679688 -17.015625 7.765625 -16.609375 C 6.859375 -16.210938 6.078125 -15.65625 5.421875 -14.9375 C 4.765625 -14.21875 4.253906 -13.394531 3.890625 -12.46875 C 3.523438 -11.550781 3.34375 -10.5625 3.34375 -9.5 C 3.34375 -8.4375 3.523438 -7.429688 3.890625 -6.484375 C 4.253906 -5.535156 4.769531 -4.695312 5.4375 -3.96875 C 6.101562 -3.25 6.894531 -2.679688 7.8125 -2.265625 C 8.726562 -1.859375 9.734375 -1.65625 10.828125 -1.65625 C 11.921875 -1.65625 12.914062 -1.859375 13.8125 -2.265625 C 14.71875 -2.671875 15.5 -3.226562 16.15625 -3.9375 C 16.8125 -4.65625 17.320312 -5.472656 17.6875 -6.390625 C 18.050781 -7.316406 18.234375 -8.3125 18.234375 -9.375 Z M 18.234375 -9.375 "/></g></g></g><g fill="#000000" fill-opacity="1"><g transform="translate(96.607018, 174.56372)"><g><path d="M 4.609375 -7.640625 L 4.609375 0 L 2.625 0 L 2.625 -18.875 L 9.15625 -18.875 C 10.695312 -18.875 11.953125 -18.617188 12.921875 -18.109375 C 13.898438 -17.609375 14.625 -16.9375 15.09375 -16.09375 C 15.5625 -15.257812 15.796875 -14.351562 15.796875 -13.375 C 15.796875 -12.300781 15.554688 -11.378906 15.078125 -10.609375 C 14.609375 -9.847656 13.984375 -9.25 13.203125 -8.8125 C 12.421875 -8.382812 11.554688 -8.109375 10.609375 -7.984375 L 16.4375 0 L 14.03125 0 L 8.46875 -7.640625 Z M 4.609375 -9.453125 L 9 -9.453125 C 10.132812 -9.453125 11.054688 -9.640625 11.765625 -10.015625 C 12.472656 -10.390625 12.988281 -10.875 13.3125 -11.46875 C 13.632812 -12.070312 13.796875 -12.6875 13.796875 -13.3125 C 13.796875 -13.9375 13.648438 -14.53125 13.359375 -15.09375 C 13.066406 -15.65625 12.570312 -16.113281 11.875 -16.46875 C 11.1875 -16.832031 10.242188 -17.015625 9.046875 -17.015625 L 4.609375 -17.015625 Z M 4.609375 -9.453125 "/></g></g></g><g fill="#000000" fill-opacity="1"><g transform="translate(111.736478, 174.56372)"><g><path d="M 14.4375 -17.046875 L 4.609375 -17.046875 L 4.609375 -10.515625 L 13.59375 -10.515625 L 13.59375 -8.671875 L 4.609375 -8.671875 L 4.609375 -1.828125 L 14.53125 -1.828125 L 14.53125 0 L 2.625 0 L 2.625 -18.875 L 14.4375 -18.875 Z M 14.4375 -17.046875 "/></g></g></g><g fill="#000000" fill-opacity="1"><g transform="translate(125.516686, 174.56372)"><g><path d="M 2.625 -18.875 L 9.40625 -18.875 C 10.5625 -18.875 11.597656 -18.691406 12.515625 -18.328125 C 13.429688 -17.972656 14.15625 -17.441406 14.6875 -16.734375 C 15.21875 -16.023438 15.484375 -15.15625 15.484375 -14.125 C 15.484375 -13.914062 15.453125 -13.628906 15.390625 -13.265625 C 15.335938 -12.910156 15.21875 -12.519531 15.03125 -12.09375 C 14.84375 -11.675781 14.554688 -11.265625 14.171875 -10.859375 C 13.785156 -10.453125 13.265625 -10.101562 12.609375 -9.8125 C 13.535156 -9.570312 14.269531 -9.175781 14.8125 -8.625 C 15.351562 -8.082031 15.738281 -7.492188 15.96875 -6.859375 C 16.207031 -6.222656 16.328125 -5.664062 16.328125 -5.1875 C 16.328125 -3.976562 16.015625 -2.988281 15.390625 -2.21875 C 14.773438 -1.457031 13.957031 -0.894531 12.9375 -0.53125 C 11.925781 -0.175781 10.828125 0 9.640625 0 L 2.625 0 Z M 4.578125 -10.484375 L 9.09375 -10.484375 C 10.132812 -10.484375 10.972656 -10.640625 11.609375 -10.953125 C 12.253906 -11.265625 12.726562 -11.679688 13.03125 -12.203125 C 13.332031 -12.734375 13.484375 -13.300781 13.484375 -13.90625 C 13.484375 -14.675781 13.28125 -15.289062 12.875 -15.75 C 12.46875 -16.207031 11.9375 -16.539062 11.28125 -16.75 C 10.632812 -16.957031 9.953125 -17.0625 9.234375 -17.0625 L 4.578125 -17.0625 Z M 4.578125 -1.8125 L 9.6875 -1.8125 C 10.207031 -1.8125 10.734375 -1.863281 11.265625 -1.96875 C 11.804688 -2.082031 12.304688 -2.273438 12.765625 -2.546875 C 13.222656 -2.828125 13.59375 -3.191406 13.875 -3.640625 C 14.15625 -4.085938 14.296875 -4.648438 14.296875 -5.328125 C 14.296875 -6.003906 14.140625 -6.554688 13.828125 -6.984375 C 13.523438 -7.421875 13.125 -7.769531 12.625 -8.03125 C 12.132812 -8.289062 11.597656 -8.472656 11.015625 -8.578125 C 10.441406 -8.679688 9.878906 -8.734375 9.328125 -8.734375 L 4.578125 -8.734375 Z M 4.578125 -1.8125 "/></g></g></g><g fill="#000000" fill-opacity="1"><g transform="translate(140.959365, 174.56372)"><g><path d="M 4.609375 -7.640625 L 4.609375 0 L 2.625 0 L 2.625 -18.875 L 9.15625 -18.875 C 10.695312 -18.875 11.953125 -18.617188 12.921875 -18.109375 C 13.898438 -17.609375 14.625 -16.9375 15.09375 -16.09375 C 15.5625 -15.257812 15.796875 -14.351562 15.796875 -13.375 C 15.796875 -12.300781 15.554688 -11.378906 15.078125 -10.609375 C 14.609375 -9.847656 13.984375 -9.25 13.203125 -8.8125 C 12.421875 -8.382812 11.554688 -8.109375 10.609375 -7.984375 L 16.4375 0 L 14.03125 0 L 8.46875 -7.640625 Z M 4.609375 -9.453125 L 9 -9.453125 C 10.132812 -9.453125 11.054688 -9.640625 11.765625 -10.015625 C 12.472656 -10.390625 12.988281 -10.875 13.3125 -11.46875 C 13.632812 -12.070312 13.796875 -12.6875 13.796875 -13.3125 C 13.796875 -13.9375 13.648438 -14.53125 13.359375 -15.09375 C 13.066406 -15.65625 12.570312 -16.113281 11.875 -16.46875 C 11.1875 -16.832031 10.242188 -17.015625 9.046875 -17.015625 L 4.609375 -17.015625 Z M 4.609375 -9.453125 "/></g></g></g><g fill="#000000" fill-opacity="1"><g transform="translate(156.088831, 174.56372)"><g><path d="M 4.609375 0 L 2.625 0 L 2.625 -18.875 L 4.609375 -18.875 Z M 4.609375 0 "/></g></g></g><g fill="#000000" fill-opacity="1"><g transform="translate(161.098917, 174.56372)"><g><path d="M 2.625 -18.875 L 8.25 -18.875 C 9.726562 -18.875 11.070312 -18.632812 12.28125 -18.15625 C 13.5 -17.6875 14.546875 -17.023438 15.421875 -16.171875 C 16.304688 -15.328125 16.988281 -14.332031 17.46875 -13.1875 C 17.957031 -12.039062 18.203125 -10.800781 18.203125 -9.46875 C 18.203125 -8.070312 17.941406 -6.789062 17.421875 -5.625 C 16.910156 -4.457031 16.203125 -3.457031 15.296875 -2.625 C 14.390625 -1.789062 13.332031 -1.144531 12.125 -0.6875 C 10.914062 -0.226562 9.625 0 8.25 0 L 2.625 0 Z M 4.609375 -1.859375 L 8.171875 -1.859375 C 9.765625 -1.859375 11.160156 -2.179688 12.359375 -2.828125 C 13.554688 -3.484375 14.488281 -4.378906 15.15625 -5.515625 C 15.820312 -6.660156 16.15625 -7.960938 16.15625 -9.421875 C 16.15625 -10.867188 15.828125 -12.160156 15.171875 -13.296875 C 14.523438 -14.441406 13.601562 -15.347656 12.40625 -16.015625 C 11.207031 -16.679688 9.789062 -17.015625 8.15625 -17.015625 L 4.609375 -17.015625 Z M 4.609375 -1.859375 "/></g></g></g><g fill="#000000" fill-opacity="1"><g transform="translate(178.372719, 174.56372)"><g><path d="M 19.21875 -13.359375 L 17.4375 -12.53125 C 17.175781 -13.289062 16.769531 -14.023438 16.21875 -14.734375 C 15.675781 -15.453125 14.957031 -16.039062 14.0625 -16.5 C 13.175781 -16.957031 12.070312 -17.1875 10.75 -17.1875 C 9.738281 -17.1875 8.785156 -17 7.890625 -16.625 C 7.003906 -16.257812 6.21875 -15.734375 5.53125 -15.046875 C 4.851562 -14.367188 4.316406 -13.554688 3.921875 -12.609375 C 3.535156 -11.671875 3.34375 -10.632812 3.34375 -9.5 C 3.34375 -8.070312 3.640625 -6.757812 4.234375 -5.5625 C 4.835938 -4.375 5.695312 -3.425781 6.8125 -2.71875 C 7.925781 -2.007812 9.25 -1.65625 10.78125 -1.65625 C 11.90625 -1.65625 12.957031 -1.875 13.9375 -2.3125 C 14.914062 -2.757812 15.722656 -3.40625 16.359375 -4.25 C 17.003906 -5.09375 17.363281 -6.113281 17.4375 -7.3125 L 9.546875 -7.3125 L 9.546875 -9.140625 L 19.546875 -9.140625 L 19.546875 -8.421875 C 19.546875 -7.222656 19.34375 -6.101562 18.9375 -5.0625 C 18.539062 -4.019531 17.960938 -3.101562 17.203125 -2.3125 C 16.441406 -1.53125 15.515625 -0.914062 14.421875 -0.46875 C 13.335938 -0.03125 12.109375 0.1875 10.734375 0.1875 C 9.296875 0.1875 8 -0.0507812 6.84375 -0.53125 C 5.6875 -1.007812 4.691406 -1.6875 3.859375 -2.5625 C 3.035156 -3.4375 2.398438 -4.453125 1.953125 -5.609375 C 1.515625 -6.773438 1.296875 -8.03125 1.296875 -9.375 C 1.296875 -10.738281 1.53125 -12.007812 2 -13.1875 C 2.476562 -14.363281 3.144531 -15.390625 4 -16.265625 C 4.863281 -17.148438 5.875 -17.835938 7.03125 -18.328125 C 8.195312 -18.828125 9.453125 -19.078125 10.796875 -19.078125 C 12.359375 -19.078125 13.707031 -18.796875 14.84375 -18.234375 C 15.988281 -17.671875 16.925781 -16.953125 17.65625 -16.078125 C 18.382812 -15.210938 18.90625 -14.304688 19.21875 -13.359375 Z M 19.21875 -13.359375 "/></g></g></g><g fill="#000000" fill-opacity="1"><g transform="translate(196.803027, 174.56372)"><g><path d="M 14.4375 -17.046875 L 4.609375 -17.046875 L 4.609375 -10.515625 L 13.59375 -10.515625 L 13.59375 -8.671875 L 4.609375 -8.671875 L 4.609375 -1.828125 L 14.53125 -1.828125 L 14.53125 0 L 2.625 0 L 2.625 -18.875 L 14.4375 -18.875 Z M 14.4375 -17.046875 "/></g></g></g><g fill="#000000" fill-opacity="1"><g transform="translate(210.59006, 174.56372)"><g/></g></g><g fill="#000000" fill-opacity="1"><g transform="translate(215.094176, 174.56372)"><g/></g></g><g fill="#000000" fill-opacity="1"><g transform="translate(59.312722, 208.313718)"><g><path d="M 7.71875 0.1875 C 6.0625 0.1875 4.691406 -0.21875 3.609375 -1.03125 C 2.535156 -1.851562 1.726562 -2.976562 1.1875 -4.40625 L 2.890625 -5.296875 C 3.335938 -4.210938 3.929688 -3.332031 4.671875 -2.65625 C 5.410156 -1.988281 6.425781 -1.65625 7.71875 -1.65625 C 8.457031 -1.65625 9.128906 -1.789062 9.734375 -2.0625 C 10.347656 -2.34375 10.835938 -2.726562 11.203125 -3.21875 C 11.578125 -3.707031 11.765625 -4.28125 11.765625 -4.9375 C 11.765625 -5.9375 11.378906 -6.726562 10.609375 -7.3125 C 9.847656 -7.90625 8.769531 -8.367188 7.375 -8.703125 C 5.425781 -9.171875 4 -9.828125 3.09375 -10.671875 C 2.1875 -11.523438 1.734375 -12.613281 1.734375 -13.9375 C 1.734375 -15.007812 2.007812 -15.929688 2.5625 -16.703125 C 3.125 -17.472656 3.851562 -18.0625 4.75 -18.46875 C 5.644531 -18.882812 6.617188 -19.09375 7.671875 -19.09375 C 9.242188 -19.09375 10.523438 -18.71875 11.515625 -17.96875 C 12.503906 -17.226562 13.207031 -16.296875 13.625 -15.171875 L 11.9375 -14.21875 C 11.726562 -14.75 11.445312 -15.242188 11.09375 -15.703125 C 10.738281 -16.160156 10.28125 -16.53125 9.71875 -16.8125 C 9.15625 -17.09375 8.457031 -17.234375 7.625 -17.234375 C 6.945312 -17.234375 6.3125 -17.101562 5.71875 -16.84375 C 5.125 -16.59375 4.640625 -16.222656 4.265625 -15.734375 C 3.898438 -15.253906 3.71875 -14.6875 3.71875 -14.03125 C 3.71875 -13.175781 4.035156 -12.488281 4.671875 -11.96875 C 5.304688 -11.457031 6.328125 -11.019531 7.734375 -10.65625 C 8.753906 -10.394531 9.671875 -10.070312 10.484375 -9.6875 C 11.304688 -9.300781 11.972656 -8.828125 12.484375 -8.265625 C 12.890625 -7.835938 13.207031 -7.359375 13.4375 -6.828125 C 13.675781 -6.296875 13.796875 -5.71875 13.796875 -5.09375 C 13.796875 -4.175781 13.546875 -3.3125 13.046875 -2.5 C 12.554688 -1.695312 11.863281 -1.046875 10.96875 -0.546875 C 10.070312 -0.0546875 8.988281 0.1875 7.71875 0.1875 Z M 7.71875 0.1875 "/></g></g></g><g fill="#000000" fill-opacity="1"><g transform="translate(72.225556, 208.313718)"><g><path d="M 20.28125 -9.5 C 20.28125 -8.144531 20.039062 -6.878906 19.5625 -5.703125 C 19.09375 -4.535156 18.425781 -3.507812 17.5625 -2.625 C 16.707031 -1.738281 15.695312 -1.046875 14.53125 -0.546875 C 13.375 -0.0546875 12.113281 0.1875 10.75 0.1875 C 9.40625 0.1875 8.15625 -0.0546875 7 -0.546875 C 5.851562 -1.035156 4.851562 -1.710938 4 -2.578125 C 3.144531 -3.441406 2.476562 -4.453125 2 -5.609375 C 1.53125 -6.773438 1.296875 -8.03125 1.296875 -9.375 C 1.296875 -10.726562 1.53125 -11.988281 2 -13.15625 C 2.476562 -14.332031 3.144531 -15.363281 4 -16.25 C 4.863281 -17.132812 5.875 -17.828125 7.03125 -18.328125 C 8.195312 -18.828125 9.460938 -19.078125 10.828125 -19.078125 C 12.171875 -19.078125 13.414062 -18.828125 14.5625 -18.328125 C 15.71875 -17.835938 16.722656 -17.160156 17.578125 -16.296875 C 18.429688 -15.429688 19.09375 -14.421875 19.5625 -13.265625 C 20.039062 -12.109375 20.28125 -10.851562 20.28125 -9.5 Z M 18.234375 -9.375 C 18.234375 -10.4375 18.050781 -11.4375 17.6875 -12.375 C 17.320312 -13.320312 16.804688 -14.160156 16.140625 -14.890625 C 15.472656 -15.617188 14.679688 -16.1875 13.765625 -16.59375 C 12.847656 -17.007812 11.84375 -17.21875 10.75 -17.21875 C 9.675781 -17.21875 8.679688 -17.015625 7.765625 -16.609375 C 6.859375 -16.210938 6.078125 -15.65625 5.421875 -14.9375 C 4.765625 -14.21875 4.253906 -13.394531 3.890625 -12.46875 C 3.523438 -11.550781 3.34375 -10.5625 3.34375 -9.5 C 3.34375 -8.4375 3.523438 -7.429688 3.890625 -6.484375 C 4.253906 -5.535156 4.769531 -4.695312 5.4375 -3.96875 C 6.101562 -3.25 6.894531 -2.679688 7.8125 -2.265625 C 8.726562 -1.859375 9.734375 -1.65625 10.828125 -1.65625 C 11.921875 -1.65625 12.914062 -1.859375 13.8125 -2.265625 C 14.71875 -2.671875 15.5 -3.226562 16.15625 -3.9375 C 16.8125 -4.65625 17.320312 -5.472656 17.6875 -6.390625 C 18.050781 -7.316406 18.234375 -8.3125 18.234375 -9.375 Z M 18.234375 -9.375 "/></g></g></g><g fill="#000000" fill-opacity="1"><g transform="translate(91.571423, 208.313718)"><g><path d="M 4.609375 -1.859375 L 13.546875 -1.859375 L 13.546875 0 L 2.625 0 L 2.625 -18.875 L 4.609375 -18.875 Z M 4.609375 -1.859375 "/></g></g></g><g fill="#000000" fill-opacity="1"><g transform="translate(103.400033, 208.313718)"><g><path d="M 16.5625 -18.875 L 16.5625 -7.375 C 16.5625 -5 15.941406 -3.144531 14.703125 -1.8125 C 13.460938 -0.476562 11.71875 0.1875 9.46875 0.1875 C 7.945312 0.1875 6.660156 -0.117188 5.609375 -0.734375 C 4.554688 -1.347656 3.753906 -2.21875 3.203125 -3.34375 C 2.660156 -4.46875 2.390625 -5.769531 2.390625 -7.25 L 2.390625 -18.875 L 4.359375 -18.875 L 4.359375 -7.359375 C 4.359375 -5.984375 4.585938 -4.878906 5.046875 -4.046875 C 5.503906 -3.210938 6.125 -2.601562 6.90625 -2.21875 C 7.695312 -1.84375 8.578125 -1.65625 9.546875 -1.65625 C 11.171875 -1.65625 12.414062 -2.144531 13.28125 -3.125 C 14.15625 -4.113281 14.59375 -5.484375 14.59375 -7.234375 L 14.59375 -18.875 Z M 16.5625 -18.875 "/></g></g></g><g fill="#000000" fill-opacity="1"><g transform="translate(120.119675, 208.313718)"><g><path d="M 6.828125 -17.015625 L 0.5 -17.015625 L 0.5 -18.875 L 15.109375 -18.875 L 15.109375 -17.015625 L 8.828125 -17.015625 L 8.828125 0 L 6.828125 0 Z M 6.828125 -17.015625 "/></g></g></g><g fill="#000000" fill-opacity="1"><g transform="translate(133.514389, 208.313718)"><g><path d="M 4.609375 0 L 2.625 0 L 2.625 -18.875 L 4.609375 -18.875 Z M 4.609375 0 "/></g></g></g><g fill="#000000" fill-opacity="1"><g transform="translate(138.524474, 208.313718)"><g><path d="M 20.28125 -9.5 C 20.28125 -8.144531 20.039062 -6.878906 19.5625 -5.703125 C 19.09375 -4.535156 18.425781 -3.507812 17.5625 -2.625 C 16.707031 -1.738281 15.695312 -1.046875 14.53125 -0.546875 C 13.375 -0.0546875 12.113281 0.1875 10.75 0.1875 C 9.40625 0.1875 8.15625 -0.0546875 7 -0.546875 C 5.851562 -1.035156 4.851562 -1.710938 4 -2.578125 C 3.144531 -3.441406 2.476562 -4.453125 2 -5.609375 C 1.53125 -6.773438 1.296875 -8.03125 1.296875 -9.375 C 1.296875 -10.726562 1.53125 -11.988281 2 -13.15625 C 2.476562 -14.332031 3.144531 -15.363281 4 -16.25 C 4.863281 -17.132812 5.875 -17.828125 7.03125 -18.328125 C 8.195312 -18.828125 9.460938 -19.078125 10.828125 -19.078125 C 12.171875 -19.078125 13.414062 -18.828125 14.5625 -18.328125 C 15.71875 -17.835938 16.722656 -17.160156 17.578125 -16.296875 C 18.429688 -15.429688 19.09375 -14.421875 19.5625 -13.265625 C 20.039062 -12.109375 20.28125 -10.851562 20.28125 -9.5 Z M 18.234375 -9.375 C 18.234375 -10.4375 18.050781 -11.4375 17.6875 -12.375 C 17.320312 -13.320312 16.804688 -14.160156 16.140625 -14.890625 C 15.472656 -15.617188 14.679688 -16.1875 13.765625 -16.59375 C 12.847656 -17.007812 11.84375 -17.21875 10.75 -17.21875 C 9.675781 -17.21875 8.679688 -17.015625 7.765625 -16.609375 C 6.859375 -16.210938 6.078125 -15.65625 5.421875 -14.9375 C 4.765625 -14.21875 4.253906 -13.394531 3.890625 -12.46875 C 3.523438 -11.550781 3.34375 -10.5625 3.34375 -9.5 C 3.34375 -8.4375 3.523438 -7.429688 3.890625 -6.484375 C 4.253906 -5.535156 4.769531 -4.695312 5.4375 -3.96875 C 6.101562 -3.25 6.894531 -2.679688 7.8125 -2.265625 C 8.726562 -1.859375 9.734375 -1.65625 10.828125 -1.65625 C 11.921875 -1.65625 12.914062 -1.859375 13.8125 -2.265625 C 14.71875 -2.671875 15.5 -3.226562 16.15625 -3.9375 C 16.8125 -4.65625 17.320312 -5.472656 17.6875 -6.390625 C 18.050781 -7.316406 18.234375 -8.3125 18.234375 -9.375 Z M 18.234375 -9.375 "/></g></g></g><g fill="#000000" fill-opacity="1"><g transform="translate(157.870344, 208.313718)"><g><path d="M 18.015625 0 L 15.890625 0 L 4.578125 -16.078125 L 4.578125 0 L 2.625 0 L 2.625 -18.875 L 4.921875 -18.875 L 16.0625 -3.109375 L 16.0625 -18.875 L 18.015625 -18.875 Z M 18.015625 0 "/></g></g></g><g fill="#000000" fill-opacity="1"><g transform="translate(176.276551, 208.313718)"><g><path d="M 7.71875 0.1875 C 6.0625 0.1875 4.691406 -0.21875 3.609375 -1.03125 C 2.535156 -1.851562 1.726562 -2.976562 1.1875 -4.40625 L 2.890625 -5.296875 C 3.335938 -4.210938 3.929688 -3.332031 4.671875 -2.65625 C 5.410156 -1.988281 6.425781 -1.65625 7.71875 -1.65625 C 8.457031 -1.65625 9.128906 -1.789062 9.734375 -2.0625 C 10.347656 -2.34375 10.835938 -2.726562 11.203125 -3.21875 C 11.578125 -3.707031 11.765625 -4.28125 11.765625 -4.9375 C 11.765625 -5.9375 11.378906 -6.726562 10.609375 -7.3125 C 9.847656 -7.90625 8.769531 -8.367188 7.375 -8.703125 C 5.425781 -9.171875 4 -9.828125 3.09375 -10.671875 C 2.1875 -11.523438 1.734375 -12.613281 1.734375 -13.9375 C 1.734375 -15.007812 2.007812 -15.929688 2.5625 -16.703125 C 3.125 -17.472656 3.851562 -18.0625 4.75 -18.46875 C 5.644531 -18.882812 6.617188 -19.09375 7.671875 -19.09375 C 9.242188 -19.09375 10.523438 -18.71875 11.515625 -17.96875 C 12.503906 -17.226562 13.207031 -16.296875 13.625 -15.171875 L 11.9375 -14.21875 C 11.726562 -14.75 11.445312 -15.242188 11.09375 -15.703125 C 10.738281 -16.160156 10.28125 -16.53125 9.71875 -16.8125 C 9.15625 -17.09375 8.457031 -17.234375 7.625 -17.234375 C 6.945312 -17.234375 6.3125 -17.101562 5.71875 -16.84375 C 5.125 -16.59375 4.640625 -16.222656 4.265625 -15.734375 C 3.898438 -15.253906 3.71875 -14.6875 3.71875 -14.03125 C 3.71875 -13.175781 4.035156 -12.488281 4.671875 -11.96875 C 5.304688 -11.457031 6.328125 -11.019531 7.734375 -10.65625 C 8.753906 -10.394531 9.671875 -10.070312 10.484375 -9.6875 C 11.304688 -9.300781 11.972656 -8.828125 12.484375 -8.265625 C 12.890625 -7.835938 13.207031 -7.359375 13.4375 -6.828125 C 13.675781 -6.296875 13.796875 -5.71875 13.796875 -5.09375 C 13.796875 -4.175781 13.546875 -3.3125 13.046875 -2.5 C 12.554688 -1.695312 11.863281 -1.046875 10.96875 -0.546875 C 10.070312 -0.0546875 8.988281 0.1875 7.71875 0.1875 Z M 7.71875 0.1875 "/></g></g></g></svg>