<svg xmlns="http://www.w3.org/2000/svg" xmlns:xlink="http://www.w3.org/1999/xlink" width="500" zoomAndPan="magnify" viewBox="0 0 375 374.999991" height="500" preserveAspectRatio="xMidYMid meet" version="1.0"><defs><g/><clipPath id="a59c2322f9"><path d="M 57 194 L 74 194 L 74 230 L 57 230 Z M 57 194 " clip-rule="nonzero"/></clipPath><clipPath id="26053ad55e"><path d="M 49.363281 200.40625 L 71.472656 191.074219 L 83.722656 220.09375 L 61.609375 229.425781 Z M 49.363281 200.40625 " clip-rule="nonzero"/></clipPath><clipPath id="06abe0e7c3"><path d="M 49.363281 200.40625 L 71.472656 191.074219 L 83.722656 220.09375 L 61.609375 229.425781 Z M 49.363281 200.40625 " clip-rule="nonzero"/></clipPath></defs><path stroke-linecap="butt" transform="matrix(0.400032, 0, 0, 0.400032, 50.236811, 138.296036)" fill="none" stroke-linejoin="miter" d="M 241.165932 19.951666 C 241.165932 20.05908 241.165932 20.117669 241.165932 20.117669 C 241.165932 20.283671 241.165932 20.449673 241.165932 20.615676 C 241.165932 22.949472 241.126873 25.263739 241.038989 27.548712 C 240.951106 29.82392 240.912046 32.069833 240.912046 34.296217 C 240.912046 35.067639 240.931576 36.014828 240.9804 37.12802 C 241.01946 38.241212 241.058519 39.227461 241.097578 40.096532 C 241.146403 40.955837 241.165932 41.38549 241.165932 41.38549 L 241.165932 45.672255 C 241.165932 46.170262 240.951106 46.424148 240.531218 46.424148 C 236.058921 46.424148 232.035807 46.258146 228.461875 45.926141 C 224.897709 45.564842 222.03661 45.340251 219.89811 45.262132 C 217.8182 45.174248 215.542992 45.193778 213.082252 45.320721 C 210.650807 45.447664 209.000549 45.994495 208.141243 46.961214 C 207.360056 47.634988 206.969462 48.601707 206.969462 49.861372 C 206.969462 51.101506 207.018286 51.980342 207.096405 52.507643 C 207.350291 54.480141 208.053359 55.515214 209.205611 55.593333 C 210.387156 55.681216 211.920236 55.847219 213.814615 56.101105 C 214.839923 56.188988 216.529241 56.257342 218.882567 56.325696 C 221.255423 56.364755 223.882165 56.364755 226.762793 56.325696 C 229.662951 56.257342 232.348282 56.208518 234.828551 56.159694 C 237.32835 56.120634 239.193435 56.062045 240.404275 55.974162 C 240.912046 55.896043 241.165932 56.110869 241.165932 56.638171 C 241.165932 56.638171 241.165932 57.438888 241.165932 59.030557 C 241.165932 60.612461 241.146403 62.458015 241.097578 64.576986 C 241.058519 66.676426 241.058519 68.570805 241.097578 70.250358 C 241.146403 71.92991 241.165932 72.85757 241.165932 73.023572 C 241.165932 73.023572 241.165932 73.453225 241.165932 74.312531 C 241.165932 75.181602 241.165932 75.611255 241.165932 75.611255 C 241.165932 76.031143 240.951106 76.236205 240.531218 76.236205 C 239.759795 76.324088 238.177891 76.363148 235.805035 76.363148 C 233.451709 76.363148 230.785907 76.392442 227.807631 76.460796 C 224.83912 76.499856 222.026846 76.626798 219.361044 76.841625 C 216.685478 77.046687 214.634862 77.359161 213.1799 77.77905 C 211.627291 78.228232 210.43598 78.511413 209.615734 78.638356 C 208.805252 78.755534 208.131478 79.146127 207.604177 79.800371 C 207.096405 80.454616 206.539809 81.724045 205.934389 83.608659 C 205.241085 85.922926 205.153202 88.43249 205.680503 91.147116 C 206.207805 93.851976 206.549574 96.547072 206.725341 99.212874 C 206.725341 99.740175 206.46169 100.003826 205.934389 100.003826 L 169.784951 100.003826 C 169.286944 100.003826 169.033058 99.740175 169.033058 99.212874 C 169.033058 99.212874 169.052588 98.470746 169.091647 96.976725 C 169.130707 95.463175 169.160001 93.63715 169.160001 91.488885 C 169.160001 89.330855 169.160001 87.260709 169.160001 85.278447 C 169.160001 83.305949 169.111177 81.890047 169.033058 81.030741 C 169.033058 81.030741 169.033058 80.405792 169.033058 79.165657 C 169.033058 77.905993 169.033058 76.460796 169.033058 74.820303 C 169.033058 73.17981 169.033058 71.763908 169.033058 70.562833 C 169.033058 69.371522 169.033058 68.766102 169.033058 68.766102 C 169.033058 68.248566 169.052588 66.686191 169.091647 64.108273 C 169.130707 61.520591 169.160001 58.444666 169.160001 54.870735 C 169.160001 51.296803 169.160001 47.683812 169.160001 44.031762 C 169.160001 40.379712 169.160001 37.196374 169.160001 34.481748 C 169.160001 31.776888 169.111177 29.989922 169.033058 29.130616 L 169.033058 19.580602 C 169.033058 19.072831 169.286944 18.818945 169.784951 18.818945 L 240.531218 18.818945 C 240.951106 18.818945 241.165932 19.072831 241.165932 19.580602 Z M 248.919215 18.818945 L 284.65853 18.818945 C 285.625249 18.818945 286.113491 19.336481 286.113491 20.36179 C 285.840076 22.861589 285.683838 26.308577 285.635014 30.702755 C 285.595955 35.067639 285.576425 39.823116 285.576425 44.949657 C 285.576425 50.076198 285.615484 55.075796 285.703368 59.948452 C 285.781487 64.801577 285.849841 69.078577 285.8889 72.769687 C 285.927959 76.470561 286.006078 79.058244 286.113491 80.52297 C 286.113491 83.53054 286.19161 86.508817 286.357612 89.477328 C 286.533379 92.436075 286.738441 95.433881 286.992327 98.451216 C 287.08021 99.486289 286.601733 100.003826 285.576425 100.003826 L 249.046158 100.003826 C 248.714154 100.003826 248.587211 99.788999 248.675094 99.369111 C 248.841097 98.23639 248.968039 96.166244 249.046158 93.158673 C 249.134042 90.160867 249.173101 86.782232 249.173101 83.042298 C 249.173101 79.282835 249.153571 75.757728 249.114512 72.457212 C 249.075453 69.137166 249.007099 66.617837 248.919215 64.889461 C 248.919215 62.838844 248.899686 60.124219 248.860626 56.765114 C 248.821567 53.406009 248.772743 49.793018 248.733683 45.926141 C 248.694624 42.039735 248.6458 38.260742 248.60674 34.608691 C 248.567681 30.956641 248.518857 27.753774 248.450503 25.000089 C 248.411444 22.246404 248.391914 20.352025 248.391914 19.326717 C 248.489562 19.238833 248.675094 19.072831 248.919215 18.818945 Z M 365.609055 19.072831 C 365.609055 22.519819 365.696938 25.986338 365.862941 29.472386 C 366.028943 32.938904 366.028943 36.395657 365.862941 39.842646 C 365.775057 41.483139 365.696938 43.143162 365.609055 44.822714 C 365.521171 46.502267 365.521171 48.201349 365.609055 49.919961 C 365.609055 50.701148 365.25752 51.130801 364.564217 51.218684 C 363.206904 51.384687 361.595705 51.443276 359.750151 51.404216 C 357.894831 51.365157 356.156689 51.365157 354.516196 51.404216 C 352.875703 51.443276 351.791806 51.638573 351.274269 51.970577 C 351.020384 52.136579 350.717674 52.429525 350.356374 52.820118 C 350.02437 53.200947 349.770484 53.777073 349.594717 54.55826 C 349.516598 55.251563 349.428715 56.765114 349.350596 59.09891 C 349.262712 61.403413 349.223653 64.176627 349.223653 67.418554 C 349.223653 70.631187 349.223653 73.980527 349.223653 77.466575 C 349.223653 80.952623 349.223653 84.253139 349.223653 87.358358 C 349.223653 90.453812 349.223653 93.03173 349.223653 95.111641 C 349.223653 97.172022 349.262712 98.334038 349.350596 98.578159 C 349.350596 99.525349 348.960002 100.003826 348.178815 100.003826 L 312.166085 100.003826 C 311.472781 100.003826 311.082187 99.574173 310.994304 98.705102 C 310.994304 97.59191 311.013834 95.707296 311.062658 93.03173 C 311.101717 90.365928 311.160306 87.348593 311.24819 83.989488 C 311.355603 80.630383 311.443487 77.300572 311.53137 74.000056 C 311.619254 70.680011 311.677843 67.828677 311.716902 65.426527 C 311.765726 63.014611 311.736432 61.462002 311.658313 60.768698 C 311.492311 59.46021 311.423957 58.171251 311.472781 56.892057 C 311.51184 55.583568 311.062658 54.460611 310.115468 53.513422 C 309.334281 52.849413 308.494505 52.361171 307.59614 52.068226 C 306.688009 51.755751 305.76035 51.550689 304.822925 51.47257 C 304.041738 51.384687 302.879722 51.345627 301.317347 51.345627 C 299.764738 51.345627 298.368366 51.345627 297.128231 51.345627 C 295.888096 51.345627 295.272911 51.345627 295.272911 51.345627 C 294.491724 51.345627 294.101131 50.915974 294.101131 50.046904 C 294.101131 50.046904 294.101131 49.470778 294.101131 48.318527 C 294.101131 47.136981 294.081601 45.848022 294.042541 44.441885 C 294.003482 43.016219 293.935128 41.912792 293.847245 41.131605 C 293.749596 39.930529 293.651948 38.202153 293.564064 35.93671 C 293.485946 33.641972 293.446886 31.269116 293.446886 28.808376 C 293.446886 26.357402 293.446886 24.238431 293.446886 22.48076 C 293.446886 20.713324 293.446886 19.746605 293.446886 19.580602 C 293.446886 19.072831 293.827715 18.818945 294.608902 18.818945 L 365.355169 18.818945 C 365.355169 18.818945 365.394228 18.838475 365.482112 18.887299 C 365.569995 18.926358 365.609055 18.984947 365.609055 19.072831 Z M 444.98744 65.807356 C 444.98744 66.832664 444.96791 68.404803 444.919086 70.504244 C 444.880027 72.603684 444.840967 74.927716 444.792143 77.466575 C 444.753084 80.005433 444.753084 82.485703 444.792143 84.907383 C 444.840967 87.299769 444.948381 89.321091 445.114383 90.951819 L 445.114383 98.705102 C 445.114383 99.574173 444.68473 100.003826 443.815659 100.003826 L 413.632538 100.003826 C 408.213052 100.003826 403.779815 99.681586 400.332826 99.056636 C 396.885838 98.402392 394.151682 97.601675 392.140125 96.66425 C 390.118803 95.697531 388.49784 94.877285 387.287 94.203511 C 385.480504 93.070789 383.713068 91.772065 381.994456 90.326869 C 380.26608 88.852378 378.889237 87.299769 377.863929 85.659276 C 375.637546 82.046285 374.192349 78.804358 373.54787 75.92373 C 372.893625 73.043102 372.571386 70.191769 372.571386 67.3502 L 372.571386 51.843634 C 372.571386 51.843634 372.571386 52.087755 372.571386 52.575997 C 372.571386 53.034945 372.571386 53.484127 372.571386 53.923545 C 372.571386 54.343433 372.571386 54.431317 372.571386 54.177431 C 372.571386 53.923545 372.571386 53.103299 372.571386 51.716691 C 372.571386 48.884888 372.776447 46.131203 373.196335 43.465401 C 373.635753 40.7996 374.250938 38.33886 375.022361 36.092947 C 375.715664 33.944682 376.789797 32.011244 378.234993 30.292632 C 379.709484 28.564255 381.262093 26.884703 382.902587 25.253975 C 384.709082 23.633011 387.033114 22.353817 389.864918 21.406628 C 392.706486 20.439908 395.782411 19.766134 399.102456 19.385306 C 402.422502 19.014242 405.664429 18.818945 408.838002 18.818945 L 443.063767 18.818945 C 443.395771 18.818945 443.815659 19.063066 444.323431 19.541543 C 444.850732 20.010255 445.114383 20.410614 445.114383 20.742618 L 445.114383 27.333886 C 445.026499 27.66589 444.96791 28.007659 444.919086 28.368959 C 444.880027 28.700963 444.860497 29.042733 444.860497 29.374737 C 444.772614 30.155924 444.753084 31.728064 444.792143 34.10092 C 444.840967 36.483541 444.880027 39.022399 444.919086 41.72726 C 444.96791 44.441885 445.00697 46.785447 445.046029 48.757945 C 445.094853 50.730442 445.114383 51.716691 445.114383 51.716691 C 445.114383 52.585762 444.723789 53.015415 443.942602 53.015415 C 443.190709 52.927531 441.745513 52.908002 439.626543 52.947061 C 437.527102 52.995885 435.076127 53.034945 432.283383 53.074004 C 429.490639 53.122828 426.736954 53.181417 424.032093 53.269301 C 421.317468 53.34742 418.944611 53.415773 416.90376 53.454833 C 414.892203 53.493892 413.671598 53.513422 413.25171 53.513422 C 410.664027 53.513422 408.808707 54.109077 407.675986 55.280858 C 406.562794 56.433109 406.006198 57.526771 406.006198 58.561844 C 406.006198 60.719874 406.865504 62.321308 408.584116 63.346616 C 410.058607 64.215687 411.240153 64.703929 412.148283 64.830872 C 413.056413 64.957815 414.325842 65.104287 415.966335 65.270289 C 416.991643 65.358173 418.602842 65.397232 420.780401 65.397232 C 422.987255 65.397232 425.369876 65.377703 427.938029 65.338643 C 430.515947 65.289819 432.996216 65.25076 435.369073 65.2117 C 437.751693 65.162876 439.724191 65.123817 441.29633 65.084757 C 442.897764 65.045698 443.73754 65.016404 443.815659 65.016404 C 444.430844 65.016404 444.821438 65.280054 444.98744 65.807356 Z M 523.867819 43.84623 C 523.867819 46.092143 523.867819 48.806769 523.867819 51.999872 C 523.867819 55.173445 523.867819 58.356783 523.867819 61.549885 C 523.867819 64.723458 523.867819 67.379495 523.867819 69.52776 C 523.867819 72.886865 523.457695 75.777257 522.637449 78.189173 C 521.817202 80.591324 520.762599 82.993474 519.454111 85.40539 C 518.340919 87.465771 516.964077 89.291796 515.323583 90.89323 C 513.712385 92.484899 511.993773 93.842212 510.187277 94.955403 C 507.941364 96.342011 505.675921 97.513791 503.381184 98.451216 C 501.115741 99.398406 498.088641 99.876883 494.309647 99.876883 C 493.782346 99.876883 492.63986 99.876883 490.872424 99.876883 C 489.104988 99.876883 487.200844 99.876883 485.140463 99.876883 C 483.080081 99.876883 481.254056 99.876883 479.652622 99.876883 C 478.060954 99.876883 477.221177 99.876883 477.133294 99.876883 C 473.598422 99.701116 470.288141 98.82228 467.173157 97.230611 C 464.087467 95.629177 461.597433 93.891036 459.703054 91.996657 C 458.677746 90.961584 457.574319 89.467563 456.392773 87.485301 C 455.240522 85.493273 454.273803 83.423127 453.492616 81.284627 C 452.721193 79.136362 452.3306 77.251748 452.3306 75.611255 C 452.3306 74.41018 452.3306 72.437682 452.3306 69.683997 C 452.3306 66.910783 452.3306 63.854388 452.3306 60.514812 C 452.3306 57.155707 452.3306 53.923545 452.3306 50.837856 C 452.3306 47.732637 452.3306 45.232837 452.3306 43.338458 C 452.3306 39.637584 452.906725 36.395657 454.068741 33.602913 C 455.240522 30.780874 456.6076 28.564255 458.160209 26.953057 C 460.913894 24.01384 463.511342 22.041342 465.942787 21.055093 C 468.403527 20.068844 471.401333 19.365776 474.92644 18.945888 C 475.014323 18.858004 475.951748 18.838475 477.758243 18.887299 C 479.574504 18.926358 481.781358 18.945888 484.4081 18.945888 C 487.034842 18.945888 489.661584 18.945888 492.288326 18.945888 C 494.915068 18.945888 497.053568 18.945888 498.684296 18.945888 C 502.053166 18.945888 505.14862 19.424365 507.980424 20.36179 C 510.821992 21.308979 513.409675 22.900648 515.733707 25.127032 C 518.135857 27.372945 520.088825 30.243808 521.602376 33.729856 C 523.115926 37.215904 523.867819 40.584774 523.867819 43.84623 Z M 482.806666 67.096314 C 482.806666 70.43589 483.255848 72.652509 484.163979 73.746171 C 485.062344 74.820303 486.20483 75.357369 487.591437 75.357369 C 489.319814 75.357369 490.393947 74.576182 490.813835 73.023572 C 491.253253 71.470963 491.468079 70.221063 491.468079 69.273874 C 491.468079 66.022182 491.536433 62.584958 491.663376 58.971968 C 491.790319 55.339447 491.809848 52.322111 491.721965 49.919961 C 491.555963 47.947463 491.253253 46.267911 490.813835 44.881303 C 490.393947 43.494696 489.319814 42.801392 487.591437 42.801392 C 486.038828 42.801392 484.935401 43.211516 484.290922 44.031762 C 483.656207 44.852009 483.246084 45.808963 483.060552 46.902625 C 482.884785 47.966993 482.806666 48.845828 482.806666 49.519602 C 482.806666 50.378908 482.806666 51.785045 482.806666 53.738013 C 482.806666 55.671452 482.806666 57.849011 482.806666 60.260926 C 482.806666 62.653312 482.806666 64.938285 482.806666 67.096314 Z M 596.264343 75.357369 C 597.04553 76.890449 597.816953 78.843417 598.59814 81.216273 C 599.369562 83.589129 600.101925 86.01081 600.775699 88.461785 C 601.469003 90.902995 602.045128 93.041495 602.504076 94.896814 C 602.992318 96.742369 603.275498 97.972739 603.353617 98.578159 C 603.548914 99.525349 603.295028 100.003826 602.601724 100.003826 L 573.795446 100.003826 C 573.463441 100.003826 573.248615 99.740175 573.160731 99.212874 C 572.994729 98.626983 572.604136 97.445438 571.998715 95.678002 C 571.393295 93.92033 570.680462 91.986892 569.860215 89.887451 C 569.059499 87.758716 568.288076 85.864337 567.555713 84.184785 C 566.82335 82.495467 566.247225 81.41157 565.827336 80.903798 C 565.378154 80.464381 564.831323 80.356967 564.186843 80.591324 C 563.552129 80.796385 563.19083 81.245568 563.083416 81.938871 C 562.917414 84.614438 562.810001 87.387652 562.761177 90.258515 C 562.722117 93.139143 562.741647 95.951417 562.829531 98.705102 C 562.917414 99.574173 562.663528 100.003826 562.067873 100.003826 L 531.855458 100.003826 C 531.347686 100.003826 531.0938 99.613232 531.0938 98.832045 L 531.0938 87.866129 C 531.0938 87.426712 531.11333 86.303755 531.162154 84.49726 C 531.201213 82.690764 531.220743 80.542499 531.220743 78.06223 C 531.220743 75.562431 531.220743 73.062632 531.220743 70.562833 C 531.220743 68.063034 531.201213 65.914769 531.162154 64.108273 C 531.11333 62.301778 531.0938 61.188586 531.0938 60.768698 L 531.0938 44.75436 C 531.181684 40.614068 531.259802 36.424952 531.347686 32.187011 C 531.425805 27.919776 531.425805 23.67207 531.347686 19.45366 C 531.347686 19.033771 531.474629 18.818945 531.728515 18.818945 L 586.460444 18.818945 C 587.934935 18.818945 589.41919 19.190009 590.903446 19.922372 C 592.416996 20.635205 593.862192 21.562865 595.22927 22.695586 C 596.693996 23.974781 597.924366 25.439507 598.910615 27.08 C 599.896864 28.720493 600.609697 29.970392 601.05888 30.829698 C 602.172071 33.388086 602.85561 36.005064 603.099731 38.670865 C 603.373147 41.346431 603.509855 44.402826 603.509855 47.84005 C 603.509855 50.173847 603.295028 52.820118 602.85561 55.78863 C 602.435722 58.747376 601.869361 61.003054 601.176058 62.565429 C 600.73664 63.590737 600.13122 64.752753 599.350033 66.061241 C 598.59814 67.340435 597.914601 68.453627 597.309181 69.400817 C 596.693996 70.348006 596.352227 70.855778 596.264343 70.943661 C 596.264343 70.943661 596.225284 70.943661 596.1374 70.943661 C 595.53198 71.549082 595.287859 72.222856 595.414802 72.964983 C 595.561275 73.697346 595.844455 74.498063 596.264343 75.357369 Z M 568.65914 53.142358 C 568.747024 51.335863 568.766553 49.685605 568.717729 48.191584 C 568.67867 46.678034 568.561492 45.232837 568.37596 43.84623 C 568.122074 41.531963 567.633832 40.047707 566.891704 39.403228 C 566.178871 38.748984 565.436743 38.426744 564.655556 38.426744 C 564.128254 38.426744 563.649777 38.582981 563.210359 38.895456 C 562.790471 39.188401 562.575645 39.500876 562.575645 39.842646 C 562.575645 40.369947 562.575645 41.014427 562.575645 41.795614 C 562.575645 42.567036 562.575645 43.338458 562.575645 44.090351 C 562.575645 45.476958 562.556115 47.322513 562.517056 49.607486 C 562.468231 51.882694 562.487761 53.747778 562.575645 55.222269 C 562.575645 55.808159 562.663528 56.491698 562.829531 57.26312 C 562.995533 58.044308 563.610718 58.473961 564.655556 58.561844 C 565.514862 58.561844 566.344873 58.151721 567.14559 57.331474 C 567.965836 56.511228 568.473608 55.114856 568.65914 53.142358 Z M 682.107053 78.570002 C 682.107053 79.683193 682.107053 80.913563 682.107053 82.261111 C 682.107053 83.579365 682.107053 84.712086 682.107053 85.659276 C 682.107053 86.352579 682.126582 87.397417 682.175407 88.784024 C 682.214466 90.151102 682.273055 91.625593 682.360938 93.227027 C 682.448822 94.818696 682.507411 96.176008 682.54647 97.2892 C 682.595295 98.402392 682.614824 98.958988 682.614824 98.958988 C 682.614824 99.652291 682.273055 100.003826 681.599281 100.003826 L 611.770909 100.003826 C 610.550304 100.003826 609.983944 99.398406 610.071827 98.207095 C 610.345243 91.733006 610.50148 85.249152 610.540539 78.755534 C 610.579599 72.27168 610.647953 65.758531 610.726071 59.225853 C 610.813955 52.859178 611.048311 46.443678 611.419375 39.998883 C 611.819733 33.524794 611.546318 27.109294 610.599128 20.742618 C 610.52101 20.215317 610.647953 19.766134 610.979957 19.385306 C 611.321727 19.014242 611.75138 18.818945 612.278681 18.818945 L 681.07198 18.818945 C 681.589516 18.818945 681.94105 19.072831 682.107053 19.580602 C 682.107053 19.658721 682.087523 20.049315 682.048464 20.742618 C 681.999639 21.435922 681.94105 22.129226 681.853167 22.822529 C 681.853167 23.242418 681.814107 24.228666 681.726224 25.781276 C 681.648105 27.34365 681.569986 28.954849 681.511397 30.634401 C 681.462573 32.294424 681.443043 33.554089 681.443043 34.423159 C 681.443043 35.282465 681.491868 36.346833 681.569986 37.606497 C 681.6774 38.846632 681.794578 39.959824 681.921521 40.946073 C 682.048464 41.932322 682.107053 42.420564 682.107053 42.420564 C 682.107053 43.113867 681.716459 43.465401 680.945037 43.465401 C 680.945037 43.465401 680.10526 43.445872 678.425708 43.397048 C 676.736391 43.357988 674.607655 43.338458 672.019973 43.338458 C 669.461585 43.338458 666.727429 43.338458 663.827272 43.338458 C 660.956409 43.338458 658.280843 43.377518 655.829868 43.465401 C 653.388658 43.553285 651.474749 43.670463 650.088142 43.84623 C 648.808948 44.012232 647.500459 44.402826 646.152911 45.008246 C 644.824893 45.613666 644.082765 46.697563 643.916763 48.250173 C 643.80935 49.197363 644.102295 49.998079 644.795599 50.652324 C 645.488902 51.277273 646.221265 51.765516 647.002452 52.09752 C 647.422341 52.185404 648.769888 52.273287 651.035331 52.3807 C 653.330069 52.468584 656.064224 52.507643 659.257327 52.507643 C 662.450429 52.507643 665.653297 52.488114 668.875694 52.449054 C 672.107856 52.40023 674.842012 52.3807 677.068395 52.3807 C 679.314308 52.3807 680.603267 52.3807 680.945037 52.3807 C 681.716459 52.3807 682.107053 52.72247 682.107053 53.386479 L 682.107053 64.108273 C 682.107053 65.055463 682.107053 65.865945 682.107053 66.559248 C 682.107053 67.252552 682.107053 67.99468 682.107053 68.766102 C 682.107053 69.459406 681.716459 69.81094 680.945037 69.81094 C 679.470546 69.81094 677.419929 69.79141 674.793187 69.742586 C 672.19574 69.683997 669.481114 69.605878 666.66884 69.52776 C 663.876096 69.439876 661.347003 69.381287 659.101089 69.332463 C 656.874706 69.293404 655.380685 69.273874 654.628793 69.273874 C 653.769487 69.361757 652.705119 69.400817 651.445455 69.400817 C 650.20532 69.400817 649.014009 69.576584 647.881288 69.937883 C 646.768096 70.269888 645.957615 70.953426 645.459608 71.988499 C 644.600302 73.619228 644.727245 74.97654 645.840436 76.050673 C 646.953628 77.124805 648.203528 77.837639 649.590135 78.189173 C 650.449441 78.36494 652.216877 78.443059 654.882678 78.443059 C 657.54848 78.443059 660.57558 78.38447 663.954215 78.257527 C 667.362144 78.130584 670.623601 78.003641 673.758114 77.876698 C 676.912158 77.730225 679.304544 77.613047 680.945037 77.534929 C 681.716459 77.534929 682.107053 77.876698 682.107053 78.570002 Z M 682.107053 78.570002 " stroke="#222222" stroke-width="9.681525" stroke-opacity="1" stroke-miterlimit="4"/><path stroke-linecap="butt" transform="matrix(0.400032, 0, 0, 0.400032, 50.236811, 138.296036)" fill="none" stroke-linejoin="miter" d="M 75.632363 185.055583 C 75.632363 187.897152 75.48589 190.865663 75.192945 193.980647 C 74.9 197.066336 74.489876 199.390368 73.962575 200.942978 C 73.962575 200.942978 73.513392 202.104994 72.605262 204.438791 C 71.706897 206.753058 70.310525 209.05756 68.416146 211.371827 C 67.468956 212.42643 65.857758 213.783743 63.56302 215.47306 C 61.297577 217.123318 59.032134 218.431807 56.786221 219.378996 C 54.032536 220.511718 51.347205 221.341729 48.720463 221.86903 C 46.093721 222.367037 44.267696 222.620923 43.232623 222.620923 C 42.461201 222.708807 41.25036 222.767396 39.609867 222.806455 C 37.998669 222.855279 36.36794 222.874809 34.727447 222.874809 C 33.086954 222.874809 31.885879 222.874809 31.104692 222.874809 C 31.016808 222.874809 30.098913 222.894339 28.331477 222.933398 C 26.564041 222.982222 24.396246 223.001752 21.808564 223.001752 C 19.220881 223.001752 16.642963 223.001752 14.055281 223.001752 C 11.487128 223.001752 9.348628 223.001752 7.630016 223.001752 C 5.901639 223.001752 5.042333 223.001752 5.042333 223.001752 C 4.183027 223.001752 3.792434 222.572099 3.880317 221.712793 C 4.04632 221.019489 4.153733 219.42782 4.192792 216.947551 C 4.231852 214.447752 4.251381 211.596419 4.251381 208.374021 C 4.251381 205.141859 4.251381 202.046405 4.251381 199.077894 C 4.251381 196.099617 4.212322 193.746291 4.124438 192.017914 C 4.04632 188.238921 3.919377 184.459928 3.753374 180.680935 C 3.577607 176.872647 3.4409 173.083889 3.343251 169.304896 L 3.343251 147.119179 C 3.4409 145.732572 3.538548 144.29714 3.626432 142.832414 C 3.626432 142.15864 3.958436 141.816871 4.63221 141.816871 L 39.766105 141.816871 C 39.766105 141.816871 39.355982 141.816871 38.5455 141.816871 C 37.725253 141.816871 36.963596 141.816871 36.270292 141.816871 C 35.576988 141.816871 35.401221 141.816871 35.733226 141.816871 C 36.094525 141.816871 37.481132 141.816871 39.893048 141.816871 C 44.707114 141.816871 48.91576 142.314878 52.528751 143.301127 C 56.151507 144.287376 59.881675 146.367287 63.748552 149.54086 C 66.502237 151.708654 68.640737 154.286572 70.154287 157.294143 C 71.658073 160.301713 72.732205 163.074928 73.36692 165.613786 C 74.011399 168.152645 74.421522 169.900551 74.597289 170.847741 C 74.782821 171.79493 74.958589 173.210832 75.124591 175.095446 C 75.300358 176.989825 75.427301 178.893969 75.50542 180.807878 C 75.593303 182.692492 75.632363 184.108394 75.632363 185.055583 Z M 42.070607 190.221184 C 42.236609 189.283759 42.344023 187.926446 42.383082 186.15901 C 42.451436 184.391574 42.451436 182.585079 42.383082 180.739524 C 42.344023 178.874439 42.285434 177.419478 42.19755 176.39417 C 41.855781 173.386599 41.260125 171.433631 40.400819 170.525501 C 39.541513 169.627136 38.721267 169.177953 37.94008 169.177953 C 37.168657 169.177953 36.612061 169.500193 36.270292 170.154437 C 35.938287 170.779387 35.772285 172.1367 35.772285 174.216611 L 35.772285 190.104005 C 35.772285 191.637085 35.869934 192.984633 36.08476 194.166179 C 36.289822 195.31843 36.953831 195.894556 38.067023 195.894556 C 39.287628 195.894556 40.146934 195.484432 40.654705 194.673951 C 41.182007 193.853704 41.650719 192.369448 42.070607 190.221184 Z M 121.976294 141.816871 L 153.34096 141.816871 C 153.692494 141.816871 153.780378 142.070757 153.585081 142.578529 C 153.506962 142.930063 153.174958 144.101844 152.608597 146.074341 C 152.061766 148.046839 151.407522 150.507579 150.626335 153.446796 C 149.845147 156.366483 149.005371 159.354524 148.107006 162.401154 C 147.198876 165.447784 146.32004 168.172175 145.460734 170.593855 C 144.171775 174.294729 142.824227 177.761248 141.388796 180.99341 C 139.982659 184.206042 138.791348 186.871843 137.8051 189.000579 C 136.809086 191.100019 136.281785 192.408508 136.193901 192.935809 C 135.920485 194.302887 135.764248 195.474668 135.725189 196.460916 C 135.676364 197.45693 135.656835 198.638476 135.656835 200.025083 C 135.656835 201.665576 135.617775 203.325599 135.529892 205.005151 C 135.451773 206.665174 135.36389 208.315432 135.276006 209.955925 C 135.197887 212.035836 135.129533 214.125512 135.090474 216.224953 C 135.051415 218.324393 135.110004 220.414069 135.276006 222.49398 C 135.276006 222.83575 135.149063 223.001752 134.904942 223.001752 L 97.837609 223.001752 C 97.671607 223.001752 97.593488 222.83575 97.593488 222.49398 C 97.593488 222.308448 97.593488 221.400318 97.593488 219.789119 C 97.593488 218.148626 97.613018 216.176129 97.652077 213.861861 C 97.691136 211.528065 97.739961 209.155209 97.77902 206.743293 C 97.818079 204.321613 97.866903 202.192878 97.905963 200.337558 C 97.945022 198.492003 97.964552 197.261633 97.964552 196.656213 C 97.964552 195.123133 97.886433 194.12712 97.710666 193.658407 C 97.544664 193.17993 97.241954 192.242505 96.802536 190.855898 C 96.636534 190.250478 95.913935 188.541631 94.654271 185.748887 C 93.414136 182.956142 92.027529 179.235738 90.494449 174.597439 C 89.52773 171.404337 88.531716 168.094056 87.506408 164.666597 C 86.471335 161.219608 85.55344 157.938622 84.733194 154.804108 C 83.912947 151.650065 83.200114 148.964734 82.584929 146.73835 C 81.999038 144.492437 81.61821 143.057006 81.452207 142.451586 C 81.374089 142.031698 81.491267 141.816871 81.833036 141.816871 L 112.807109 141.816871 C 113.060995 141.816871 113.187938 141.992638 113.187938 142.324643 C 113.37347 145.683748 113.63712 149.052618 113.97889 152.411723 C 114.310894 155.751298 114.701488 159.100638 115.140906 162.459743 C 115.306908 163.572935 115.912328 164.129531 116.937636 164.129531 C 117.718823 164.129531 118.275419 163.572935 118.607424 162.459743 C 118.968723 161.268433 119.290963 159.637704 119.583908 157.577323 C 119.896383 155.497412 120.179563 153.368677 120.433449 151.181353 C 120.687335 148.974499 120.921691 147.031296 121.126753 145.351743 C 121.361109 143.672191 121.517346 142.617588 121.60523 142.1977 C 121.683349 141.943814 121.810291 141.816871 121.976294 141.816871 Z M 232.738875 186.100421 C 232.738875 188.160802 232.719346 190.670366 232.670521 193.629113 C 232.631462 196.587859 232.611932 199.693078 232.611932 202.925241 C 232.611932 206.157403 232.592403 209.194268 232.543578 212.035836 C 232.504519 214.86764 232.484989 217.250261 232.484989 219.183699 C 232.484989 221.117138 232.524049 222.269389 232.611932 222.620923 C 232.611932 222.874809 232.514284 223.001752 232.328752 223.001752 L 199.050177 223.001752 C 198.864645 223.001752 198.766996 222.913868 198.766996 222.747866 C 198.425227 221.722558 198.102987 220.687485 197.790512 219.662177 C 197.497567 218.607574 197.175327 217.572501 196.843323 216.537428 C 196.062136 214.398928 195.437186 211.889364 194.948944 209.008736 C 194.489996 206.108578 193.786928 203.794311 192.839738 202.075699 C 192.41985 201.12851 191.804665 200.894154 190.984419 201.382396 C 190.164172 201.841343 189.754049 202.64206 189.754049 203.774782 C 189.588047 206.528467 189.558752 209.672745 189.685695 213.197852 C 189.812638 216.732724 189.920051 219.867238 190.007935 222.620923 C 190.007935 222.874809 189.920051 223.001752 189.754049 223.001752 L 160.068935 222.874809 C 159.873638 222.874809 159.785755 222.786925 159.785755 222.620923 C 159.785755 215.482825 159.863873 208.374021 160.039641 201.314042 C 160.225172 194.263827 160.322821 187.155024 160.322821 180.016926 C 160.322821 177.595245 160.293526 174.763442 160.254467 171.501985 C 160.215408 168.230764 160.195878 164.891188 160.195878 161.483259 C 160.195878 158.085095 160.176348 154.901757 160.127524 151.933245 C 160.088465 148.974499 160.049405 146.591878 160.000581 144.785382 C 159.961522 142.978887 159.941992 142.070757 159.941992 142.070757 C 159.941992 141.904755 160.020111 141.816871 160.195878 141.816871 L 192.585853 141.816871 C 192.673736 141.816871 192.76162 141.904755 192.839738 142.070757 C 193.454923 144.043255 194.011519 146.43564 194.509526 149.228385 C 195.036828 152.021129 195.593423 154.813873 196.179314 157.606618 C 196.794499 160.399362 197.487802 162.752688 198.259225 164.666597 C 198.600994 165.779789 199.294298 166.121558 200.339136 165.672375 C 201.120323 165.428254 201.549976 164.656832 201.637859 163.377638 C 201.803862 161.571143 201.911275 159.374054 201.950334 156.786371 C 201.989394 154.208453 202.008923 151.581711 202.008923 148.91591 C 202.008923 146.240344 202.008923 144.004195 202.008923 142.1977 C 202.008923 141.943814 202.096807 141.816871 202.262809 141.816871 L 232.611932 141.816871 C 232.777935 141.816871 232.865818 141.943814 232.865818 142.1977 C 232.865818 142.285583 232.865818 142.363702 232.865818 142.451586 C 232.865818 149.765451 232.846288 157.050022 232.797464 164.324828 C 232.758405 171.589869 232.738875 178.845145 232.738875 186.100421 Z M 314.695178 223.001752 L 272.628247 223.001752 C 272.266948 223.001752 272.091181 222.786925 272.091181 222.367037 C 272.1693 220.726544 272.335302 218.509925 272.589188 215.717181 C 272.862603 212.904907 273.145784 210.082868 273.438729 207.2413 C 273.760969 204.409496 273.995325 202.212407 274.171092 200.659798 C 274.249211 200.484031 274.415213 200.366852 274.669099 200.278969 C 274.942514 200.191085 275.167106 200.152026 275.333108 200.152026 C 275.49911 200.23991 276.016647 200.278969 276.875953 200.278969 C 277.735258 200.278969 278.623859 200.278969 279.522224 200.278969 C 280.430354 200.278969 281.00648 200.278969 281.260366 200.278969 C 281.260366 200.278969 281.621665 200.112967 282.363793 199.771197 C 283.096156 199.419663 283.46722 198.804478 283.46722 197.945172 C 283.379336 197.525284 283.184039 196.26562 282.8618 194.166179 C 282.568854 192.047209 282.227085 189.625528 281.826726 186.920668 C 281.445898 184.206042 281.104128 181.608595 280.781889 179.128325 C 280.488943 176.628526 280.303411 174.773206 280.215528 173.552601 C 280.137409 171.667987 279.873758 170.076318 279.434341 168.797124 C 279.014453 167.498401 278.369973 166.844156 277.510667 166.844156 C 276.309592 166.756273 275.469816 167.342163 274.991338 168.611592 C 274.522626 169.851727 274.249211 170.808681 274.171092 171.501985 C 273.917206 173.396364 273.487553 176.062165 272.872368 179.509154 C 272.266948 182.936613 271.573644 186.715606 270.792457 190.855898 C 270.021035 194.99619 269.278907 199.136483 268.585603 203.276775 C 267.921594 207.387772 267.335704 211.147236 266.857227 214.555165 C 266.398279 217.953329 266.124864 220.560542 266.03698 222.367037 C 266.03698 222.786925 265.910037 223.001752 265.656151 223.001752 L 239.564498 223.001752 C 239.232494 223.001752 239.105551 222.738101 239.18367 222.2108 C 239.271553 221.878795 239.330142 221.517496 239.378966 221.136667 C 239.418026 220.746074 239.48638 220.37501 239.564498 220.03324 C 239.730501 219.261818 240.07227 217.601795 240.570277 215.062937 C 241.097578 212.514314 241.683469 209.66298 242.337713 206.489407 C 242.991957 203.296304 243.607142 200.22038 244.202798 197.251868 C 244.808218 194.293122 245.335519 191.98862 245.774937 190.348126 C 245.940939 189.215405 246.253414 187.330791 246.722126 184.674754 C 247.200603 182.008953 247.71814 178.933028 248.264971 175.44698 C 248.831332 171.960933 249.417222 168.387001 250.032407 164.734951 C 250.637827 161.073136 251.174893 157.606618 251.633841 154.335396 C 252.122083 151.05441 252.532206 148.339784 252.864211 146.201284 C 253.196215 144.03349 253.371982 142.744531 253.371982 142.324643 C 253.450101 141.992638 253.635633 141.816871 253.909049 141.816871 L 300.887694 141.816871 C 301.063462 141.816871 301.18064 141.992638 301.268523 142.324643 C 301.434525 143.183949 301.756765 144.970914 302.215713 147.68554 C 302.69419 150.390401 303.211726 153.427266 303.758557 156.786371 C 304.324918 160.125946 304.871749 163.338579 305.399051 166.404738 C 305.926352 169.451369 306.356005 171.83399 306.688009 173.552601 C 307.303194 176.99959 307.85979 180.446579 308.357797 183.893567 C 308.885098 187.340556 309.402635 190.777779 309.900642 194.224768 C 310.095939 194.898542 310.330295 196.216795 310.633005 198.169763 C 310.92595 200.103202 311.297014 202.300291 311.765726 204.751266 C 312.244203 207.192476 312.703151 209.66298 313.123039 212.162779 C 313.562457 214.662578 313.97258 216.810843 314.343644 218.617339 C 314.744003 220.423834 314.988124 221.624909 315.076007 222.2108 C 315.242009 222.738101 315.115066 223.001752 314.695178 223.001752 Z M 400.137529 184.02051 C 400.137529 185.485236 400.157059 187.701855 400.205883 190.670366 C 400.244943 193.629113 400.303532 196.919864 400.391415 200.532855 C 400.479299 204.145846 400.576947 207.612364 400.70389 210.932409 C 400.850363 214.252455 400.948011 216.98661 400.98707 219.154405 C 401.035895 221.30267 401.055424 222.367037 401.055424 222.367037 C 401.055424 222.786925 400.928481 223.001752 400.674596 223.001752 L 373.821285 223.001752 C 373.469751 223.001752 373.284219 222.786925 373.284219 222.367037 C 373.372103 218.734517 373.352573 215.180115 373.22563 211.713597 C 373.098687 208.227549 373.040098 204.49738 373.040098 200.532855 C 373.040098 199.673549 372.669034 199.087658 371.936671 198.794713 C 371.194543 198.501768 370.745361 198.784948 370.579358 199.644254 C 369.798171 204.038432 369.153692 208.002957 368.62639 211.528065 C 368.118619 215.033642 367.522963 218.695457 366.82966 222.49398 C 366.741776 222.83575 366.575774 223.001752 366.321888 223.001752 L 354.193957 223.001752 C 353.940071 223.001752 353.813128 222.83575 353.813128 222.49398 C 353.031941 218.968873 352.514404 215.307058 352.240989 211.528065 C 351.987103 207.729542 351.469566 204.018903 350.698144 200.405912 C 350.444258 199.204836 349.946251 198.589652 349.213888 198.540827 C 348.481525 198.501768 348.110461 199.077894 348.110461 200.278969 C 348.217874 203.472072 348.110461 207.133887 347.797986 211.274179 C 347.505041 215.394941 347.348804 219.095816 347.348804 222.367037 C 347.348804 222.786925 347.231626 223.001752 346.97774 223.001752 L 321.794217 223.001752 C 321.442683 223.001752 321.257151 222.786925 321.257151 222.367037 L 321.257151 221.58585 C 321.452448 217.279556 321.589155 212.367841 321.667274 206.860471 C 321.755158 201.362866 321.813747 195.767613 321.862571 190.104005 C 321.90163 184.411104 321.92116 179.069736 321.92116 174.089668 C 321.92116 169.09007 321.90163 164.891188 321.862571 161.483259 C 321.813747 158.085095 321.794217 156.005184 321.794217 155.243526 C 321.794217 153.163615 321.774687 151.093469 321.735628 149.033088 C 321.686804 146.982471 321.667274 144.863501 321.667274 142.705472 C 321.667274 142.617588 321.667274 142.539469 321.667274 142.451586 C 321.667274 142.031698 321.833276 141.816871 322.175046 141.816871 L 357.406589 141.816871 C 357.592121 141.816871 357.728829 141.992638 357.816712 142.324643 C 358.2366 145.84975 358.529546 149.423682 358.695548 153.036672 C 358.890845 156.649663 359.320498 160.057592 359.994272 163.250695 C 360.07239 163.758467 360.345806 164.100236 360.804753 164.285768 C 361.292995 164.461535 361.712883 164.49083 362.074183 164.383417 C 362.494071 164.217414 362.806546 164.070942 363.011607 163.943999 C 363.245963 163.817056 363.402201 163.153047 363.490084 161.961736 C 363.490084 161.268433 363.568203 159.706058 363.74397 157.294143 C 363.909973 154.882227 364.144329 152.275015 364.437274 149.482271 C 364.749749 146.679761 365.032929 144.29714 365.286815 142.324643 C 365.364934 141.992638 365.550466 141.816871 365.823881 141.816871 L 400.391415 141.816871 C 400.752714 141.816871 400.928481 142.031698 400.928481 142.451586 C 400.928481 149.345563 400.791774 156.249305 400.518358 163.182341 C 400.264472 170.095848 400.137529 177.038649 400.137529 184.02051 Z M 408.535292 141.816871 L 444.274607 141.816871 C 445.241326 141.816871 445.719803 142.334408 445.719803 143.369481 C 445.446388 145.86928 445.29015 149.306503 445.251091 153.700681 C 445.212031 158.07533 445.182737 162.821042 445.182737 167.947583 C 445.182737 173.074124 445.231561 178.073722 445.30968 182.946378 C 445.397563 187.799503 445.456152 192.076503 445.504977 195.767613 C 445.544036 199.468487 445.622155 202.05617 445.719803 203.520896 C 445.719803 206.528467 445.807687 209.516508 445.973689 212.475254 C 446.139691 215.434001 446.354518 218.431807 446.608403 221.458907 C 446.686522 222.484215 446.21781 223.001752 445.182737 223.001752 L 408.662235 223.001752 C 408.33023 223.001752 408.203287 222.786925 408.281406 222.367037 C 408.447408 221.234316 408.574351 219.16417 408.662235 216.166364 C 408.750118 213.158793 408.789178 209.789923 408.789178 206.049989 C 408.789178 202.280761 408.769648 198.755654 408.720824 195.455138 C 408.681764 192.135092 408.623175 189.615763 408.535292 187.897152 C 408.535292 185.83677 408.515762 183.122145 408.476703 179.76304 C 408.427879 176.403935 408.388819 172.790944 408.34976 168.924067 C 408.300936 165.037661 408.261876 161.268433 408.222817 157.606618 C 408.183758 153.954567 408.125169 150.7517 408.06658 147.998015 C 408.017755 145.24433 407.998226 143.349951 407.998226 142.324643 C 408.105639 142.236759 408.281406 142.070757 408.535292 141.816871 Z M 525.469252 188.805282 C 525.469252 189.840355 525.449723 191.402729 525.410663 193.50217 C 525.371604 195.60161 525.32278 197.925642 525.28372 200.464501 C 525.244661 203.013124 525.244661 205.493393 525.28372 207.905309 C 525.32278 210.297695 525.430193 212.319017 525.596195 213.95951 L 525.596195 221.712793 C 525.596195 222.572099 525.166542 223.001752 524.307236 223.001752 L 494.114351 223.001752 C 488.694864 223.001752 484.261627 222.689277 480.814638 222.054562 C 477.377415 221.400318 474.643259 220.609366 472.621938 219.662177 C 470.61038 218.695457 468.989417 217.875211 467.768812 217.201437 C 465.962317 216.068715 464.204645 214.779756 462.476269 213.324795 C 460.757657 211.850304 459.380814 210.297695 458.345741 208.657202 C 456.119358 205.044211 454.683926 201.802284 454.029682 198.921656 C 453.385203 196.041028 453.053198 193.189695 453.053198 190.348126 L 453.053198 174.851325 C 453.053198 174.851325 453.053198 175.085681 453.053198 175.573923 C 453.053198 176.032871 453.053198 176.482053 453.053198 176.931236 C 453.053198 177.351124 453.053198 177.429243 453.053198 177.175357 C 453.053198 176.931236 453.053198 176.11099 453.053198 174.724382 C 453.053198 171.882814 453.268024 169.129129 453.687913 166.463328 C 454.12733 163.797526 454.73275 161.336786 455.513938 159.090873 C 456.207241 156.942608 457.281374 155.018935 458.72657 153.290558 C 460.201061 151.571946 461.753671 149.892394 463.394164 148.251901 C 465.200659 146.630937 467.514926 145.351743 470.356495 144.404554 C 473.188298 143.437835 476.273988 142.764061 479.594033 142.383232 C 482.904314 142.012168 486.156006 141.816871 489.329579 141.816871 L 523.555344 141.816871 C 523.887348 141.816871 524.307236 142.060992 524.815008 142.549234 C 525.332545 143.008182 525.596195 143.40854 525.596195 143.740545 L 525.596195 150.331812 C 525.518076 150.663816 525.449723 151.01535 525.410663 151.366885 C 525.371604 151.708654 525.342309 152.040659 525.342309 152.382428 C 525.264191 153.15385 525.244661 154.735755 525.28372 157.108611 C 525.32278 159.481467 525.371604 162.020325 525.410663 164.734951 C 525.449723 167.439812 525.498547 169.783373 525.537606 171.755871 C 525.576666 173.738133 525.596195 174.724382 525.596195 174.724382 C 525.596195 175.583688 525.215366 176.013341 524.434179 176.013341 C 523.672522 175.925458 522.23709 175.905928 520.11812 175.954752 C 518.018679 175.993811 515.567704 176.032871 512.77496 176.07193 C 509.982216 176.120754 507.228531 176.179343 504.513905 176.267227 C 501.809045 176.345346 499.436189 176.4137 497.395337 176.452759 C 495.374015 176.491818 494.163175 176.521113 493.743287 176.521113 C 491.155604 176.521113 489.300284 177.107003 488.157798 178.278784 C 487.044606 179.4408 486.488011 180.534462 486.488011 181.55977 C 486.488011 183.727565 487.347316 185.319234 489.075693 186.354307 C 490.550184 187.213613 491.73173 187.701855 492.63986 187.828798 C 493.538225 187.955741 494.807654 188.102213 496.448147 188.268216 C 497.483221 188.356099 499.084654 188.395158 501.271978 188.395158 C 503.478832 188.395158 505.861453 188.375629 508.419841 188.336569 C 511.007524 188.29751 513.487793 188.248686 515.86065 188.209626 C 518.233506 188.170567 520.206003 188.121743 521.787908 188.082684 C 523.379576 188.043624 524.219353 188.024095 524.307236 188.024095 C 524.912656 188.024095 525.30325 188.27798 525.469252 188.805282 Z M 604.359396 141.816871 C 604.437514 141.904755 604.525398 142.031698 604.603517 142.1977 C 604.779284 143.926077 604.837873 145.361508 604.798813 146.513759 C 604.749989 147.675775 604.6914 148.964734 604.603517 150.390401 C 604.525398 151.825832 604.476574 153.954567 604.476574 156.786371 C 604.476574 157.821444 604.564457 159.325229 604.73046 161.297727 C 604.906227 163.270225 605.023405 164.77401 605.111288 165.799318 C 605.111288 166.580506 604.720695 166.971099 603.949272 166.971099 C 601.029585 166.883216 597.67048 166.736743 593.891487 166.531681 C 590.112494 166.316855 586.558092 166.131323 583.238046 165.955556 C 579.918001 165.770024 577.53538 165.672375 576.090183 165.672375 C 572.897081 165.760259 570.114101 166.02391 567.73148 166.463328 C 565.387919 166.883216 564.206373 167.869465 564.206373 169.422074 C 564.206373 171.062567 564.655556 172.058581 565.563686 172.41988 C 566.462051 172.751885 567.262768 172.966711 567.956072 173.054595 C 570.270339 173.474483 572.203777 173.620955 573.756387 173.494012 C 575.308996 173.367069 577.467026 173.386599 580.210946 173.552601 C 583.052514 173.718604 585.845259 174.109197 588.598944 174.724382 C 591.352629 175.329802 593.793839 176.540643 595.942103 178.347138 C 597.162708 179.372446 598.471197 180.6907 599.877334 182.282369 C 601.312765 183.864273 602.513841 186.15901 603.50009 189.18611 C 604.496103 192.193681 604.984345 196.441387 604.984345 201.948757 C 604.984345 203.169362 604.701165 204.946562 604.134804 207.270594 C 603.587973 209.584861 602.494311 211.987012 600.853818 214.486811 C 600.082396 215.600003 598.832496 216.830373 597.104119 218.177921 C 595.385508 219.505939 593.452069 220.511718 591.303804 221.205021 C 588.472001 222.064327 585.620667 222.533039 582.769334 222.620923 C 579.927766 222.708807 577.877149 222.747866 576.58819 222.747866 C 576.256186 222.747866 574.986757 222.767396 572.779903 222.806455 C 570.592578 222.855279 567.887718 222.874809 564.645791 222.874809 C 561.433158 222.874809 558.064289 222.894339 554.529416 222.933398 C 551.004309 222.982222 547.664734 223.001752 544.510691 223.001752 C 541.376177 223.001752 538.837318 223.001752 536.88435 223.001752 C 534.950912 223.001752 533.984193 223.001752 533.984193 223.001752 C 533.203006 223.001752 532.822177 222.650218 532.822177 221.956914 C 532.822177 220.931606 532.841707 219.896533 532.880766 218.871224 C 532.94912 217.845916 533.017474 216.810843 533.105357 215.785535 C 533.27136 213.197852 533.329949 210.59064 533.290889 207.963898 C 533.25183 205.337156 533.2323 202.739709 533.2323 200.152026 C 533.2323 199.370839 533.613129 199.029069 534.394316 199.116953 C 535.341506 199.195072 536.474227 199.234131 537.802245 199.234131 C 539.140028 199.234131 540.370398 199.263425 541.48359 199.302485 C 542.596782 199.341544 543.33891 199.361074 543.690444 199.361074 C 544.969638 199.468487 546.727309 199.546606 548.953693 199.585665 C 551.199606 199.624725 553.572462 199.605195 556.072261 199.527076 C 558.57206 199.419663 560.915622 199.282955 563.102946 199.116953 C 565.29027 198.941186 566.989352 198.697065 568.209957 198.355295 C 570.016453 197.915878 570.963642 196.792921 571.041761 194.986426 C 571.129645 193.951352 570.631638 193.248284 569.56727 192.87722 C 568.493138 192.476862 567.174884 192.2718 565.622275 192.2718 C 564.069665 192.2718 562.517056 192.340154 560.964446 192.467097 C 559.431366 192.59404 558.230291 192.652629 557.370985 192.652629 C 554.6173 192.838161 551.922204 192.750277 549.305227 192.369448 C 546.678485 191.96909 544.198216 190.992606 541.864419 189.439996 C 540.136042 188.326805 538.602962 186.881608 537.265179 185.123937 C 535.937161 183.356501 534.941147 181.530476 534.267373 179.636097 C 532.802647 175.74969 532.255816 171.707047 532.62688 167.508165 C 533.027239 163.27999 534.091606 159.276405 535.810218 155.497412 C 536.845291 153.251499 538.124485 151.220412 539.657565 149.413917 C 541.210175 147.607421 543.075259 146.191519 545.233289 145.156446 C 547.039784 144.29714 548.914633 143.535483 550.848072 142.861709 C 552.78151 142.168405 554.734478 141.816871 556.706976 141.816871 Z M 604.359396 141.816871 " stroke="#222222" stroke-width="9.681525" stroke-opacity="1" stroke-miterlimit="4"/><g fill="#ffffff" fill-opacity="1"><g transform="translate(50.236811, 178.299251)"><g/></g></g><g fill="#ffffff" fill-opacity="1"><g transform="translate(116.404629, 178.299251)"><g><path d="M 30.3125 -32.015625 C 30.3125 -31.984375 30.3125 -31.96875 30.3125 -31.96875 C 30.3125 -31.894531 30.3125 -31.828125 30.3125 -31.765625 C 30.3125 -30.828125 30.289062 -29.898438 30.25 -28.984375 C 30.21875 -28.078125 30.203125 -27.175781 30.203125 -26.28125 C 30.203125 -25.96875 30.210938 -25.585938 30.234375 -25.140625 C 30.253906 -24.703125 30.269531 -24.304688 30.28125 -23.953125 C 30.300781 -23.609375 30.3125 -23.4375 30.3125 -23.4375 L 30.3125 -21.734375 C 30.3125 -21.535156 30.226562 -21.4375 30.0625 -21.4375 C 28.269531 -21.4375 26.65625 -21.503906 25.21875 -21.640625 C 23.789062 -21.773438 22.648438 -21.859375 21.796875 -21.890625 C 20.960938 -21.929688 20.054688 -21.925781 19.078125 -21.875 C 18.097656 -21.820312 17.4375 -21.601562 17.09375 -21.21875 C 16.78125 -20.945312 16.625 -20.5625 16.625 -20.0625 C 16.625 -19.5625 16.644531 -19.207031 16.6875 -19 C 16.78125 -18.207031 17.0625 -17.796875 17.53125 -17.765625 C 18 -17.734375 18.609375 -17.664062 19.359375 -17.5625 C 19.773438 -17.519531 20.457031 -17.488281 21.40625 -17.46875 C 22.351562 -17.457031 23.398438 -17.457031 24.546875 -17.46875 C 25.703125 -17.488281 26.78125 -17.507812 27.78125 -17.53125 C 28.78125 -17.550781 29.519531 -17.578125 30 -17.609375 C 30.207031 -17.640625 30.3125 -17.550781 30.3125 -17.34375 C 30.3125 -17.34375 30.3125 -17.023438 30.3125 -16.390625 C 30.3125 -15.753906 30.300781 -15.015625 30.28125 -14.171875 C 30.269531 -13.328125 30.269531 -12.566406 30.28125 -11.890625 C 30.300781 -11.222656 30.3125 -10.859375 30.3125 -10.796875 C 30.3125 -10.796875 30.3125 -10.625 30.3125 -10.28125 C 30.3125 -9.9375 30.3125 -9.765625 30.3125 -9.765625 C 30.3125 -9.585938 30.226562 -9.5 30.0625 -9.5 C 29.75 -9.46875 29.117188 -9.453125 28.171875 -9.453125 C 27.222656 -9.453125 26.15625 -9.441406 24.96875 -9.421875 C 23.78125 -9.410156 22.648438 -9.359375 21.578125 -9.265625 C 20.515625 -9.179688 19.691406 -9.050781 19.109375 -8.875 C 18.484375 -8.707031 18.007812 -8.597656 17.6875 -8.546875 C 17.363281 -8.492188 17.097656 -8.335938 16.890625 -8.078125 C 16.679688 -7.816406 16.457031 -7.3125 16.21875 -6.5625 C 15.9375 -5.625 15.898438 -4.613281 16.109375 -3.53125 C 16.316406 -2.445312 16.457031 -1.375 16.53125 -0.3125 C 16.53125 -0.101562 16.425781 0 16.21875 0 L 1.75 0 C 1.550781 0 1.453125 -0.101562 1.453125 -0.3125 C 1.453125 -0.3125 1.457031 -0.613281 1.46875 -1.21875 C 1.488281 -1.820312 1.5 -2.550781 1.5 -3.40625 C 1.5 -4.269531 1.5 -5.097656 1.5 -5.890625 C 1.5 -6.679688 1.484375 -7.25 1.453125 -7.59375 C 1.453125 -7.59375 1.453125 -7.84375 1.453125 -8.34375 C 1.453125 -8.84375 1.453125 -9.414062 1.453125 -10.0625 C 1.453125 -10.71875 1.453125 -11.285156 1.453125 -11.765625 C 1.453125 -12.253906 1.453125 -12.5 1.453125 -12.5 C 1.453125 -12.707031 1.457031 -13.328125 1.46875 -14.359375 C 1.488281 -15.390625 1.5 -16.617188 1.5 -18.046875 C 1.5 -19.472656 1.5 -20.914062 1.5 -22.375 C 1.5 -23.84375 1.5 -25.117188 1.5 -26.203125 C 1.5 -27.285156 1.484375 -28 1.453125 -28.34375 L 1.453125 -32.171875 C 1.453125 -32.378906 1.550781 -32.484375 1.75 -32.484375 L 30.0625 -32.484375 C 30.226562 -32.484375 30.3125 -32.378906 30.3125 -32.171875 Z M 30.3125 -32.015625 "/></g></g></g><g fill="#ffffff" fill-opacity="1"><g transform="translate(148.263677, 178.299251)"><g><path d="M 1.546875 -32.484375 L 15.859375 -32.484375 C 16.234375 -32.484375 16.421875 -32.273438 16.421875 -31.859375 C 16.316406 -30.859375 16.253906 -29.476562 16.234375 -27.71875 C 16.222656 -25.96875 16.21875 -24.066406 16.21875 -22.015625 C 16.21875 -19.972656 16.234375 -17.976562 16.265625 -16.03125 C 16.296875 -14.082031 16.320312 -12.367188 16.34375 -10.890625 C 16.363281 -9.410156 16.390625 -8.378906 16.421875 -7.796875 C 16.421875 -6.585938 16.453125 -5.390625 16.515625 -4.203125 C 16.585938 -3.015625 16.675781 -1.820312 16.78125 -0.625 C 16.8125 -0.207031 16.625 0 16.21875 0 L 1.59375 0 C 1.457031 0 1.410156 -0.0859375 1.453125 -0.265625 C 1.515625 -0.703125 1.5625 -1.523438 1.59375 -2.734375 C 1.632812 -3.941406 1.65625 -5.289062 1.65625 -6.78125 C 1.65625 -8.28125 1.644531 -9.691406 1.625 -11.015625 C 1.601562 -12.347656 1.578125 -13.359375 1.546875 -14.046875 C 1.546875 -14.867188 1.535156 -15.953125 1.515625 -17.296875 C 1.503906 -18.640625 1.488281 -20.085938 1.46875 -21.640625 C 1.457031 -23.191406 1.441406 -24.695312 1.421875 -26.15625 C 1.398438 -27.613281 1.378906 -28.894531 1.359375 -30 C 1.347656 -31.101562 1.34375 -31.863281 1.34375 -32.28125 C 1.375 -32.3125 1.441406 -32.378906 1.546875 -32.484375 Z M 1.546875 -32.484375 "/></g></g></g><g fill="#ffffff" fill-opacity="1"><g transform="translate(166.387705, 178.299251)"><g><path d="M 30.109375 -32.375 C 30.109375 -31 30.140625 -29.613281 30.203125 -28.21875 C 30.273438 -26.820312 30.273438 -25.4375 30.203125 -24.0625 C 30.171875 -23.40625 30.140625 -22.738281 30.109375 -22.0625 C 30.078125 -21.394531 30.078125 -20.71875 30.109375 -20.03125 C 30.109375 -19.726562 29.96875 -19.554688 29.6875 -19.515625 C 29.132812 -19.453125 28.488281 -19.425781 27.75 -19.4375 C 27.007812 -19.457031 26.3125 -19.457031 25.65625 -19.4375 C 25.007812 -19.425781 24.582031 -19.347656 24.375 -19.203125 C 24.269531 -19.140625 24.148438 -19.03125 24.015625 -18.875 C 23.878906 -18.71875 23.773438 -18.484375 23.703125 -18.171875 C 23.671875 -17.898438 23.632812 -17.296875 23.59375 -16.359375 C 23.5625 -15.429688 23.546875 -14.320312 23.546875 -13.03125 C 23.546875 -11.75 23.546875 -10.410156 23.546875 -9.015625 C 23.546875 -7.617188 23.546875 -6.300781 23.546875 -5.0625 C 23.546875 -3.820312 23.546875 -2.785156 23.546875 -1.953125 C 23.546875 -1.128906 23.5625 -0.664062 23.59375 -0.5625 C 23.59375 -0.1875 23.441406 0 23.140625 0 L 8.734375 0 C 8.453125 0 8.296875 -0.171875 8.265625 -0.515625 C 8.265625 -0.960938 8.269531 -1.71875 8.28125 -2.78125 C 8.300781 -3.851562 8.328125 -5.0625 8.359375 -6.40625 C 8.398438 -7.75 8.4375 -9.082031 8.46875 -10.40625 C 8.5 -11.726562 8.523438 -12.867188 8.546875 -13.828125 C 8.566406 -14.796875 8.554688 -15.421875 8.515625 -15.703125 C 8.453125 -16.210938 8.425781 -16.722656 8.4375 -17.234375 C 8.457031 -17.753906 8.28125 -18.207031 7.90625 -18.59375 C 7.59375 -18.863281 7.253906 -19.054688 6.890625 -19.171875 C 6.535156 -19.296875 6.164062 -19.378906 5.78125 -19.421875 C 5.46875 -19.453125 5 -19.46875 4.375 -19.46875 C 3.757812 -19.46875 3.203125 -19.46875 2.703125 -19.46875 C 2.210938 -19.46875 1.96875 -19.46875 1.96875 -19.46875 C 1.65625 -19.46875 1.5 -19.640625 1.5 -19.984375 C 1.5 -19.984375 1.5 -20.210938 1.5 -20.671875 C 1.5 -21.140625 1.488281 -21.65625 1.46875 -22.21875 C 1.457031 -22.789062 1.429688 -23.234375 1.390625 -23.546875 C 1.359375 -24.023438 1.320312 -24.722656 1.28125 -25.640625 C 1.25 -26.554688 1.234375 -27.503906 1.234375 -28.484375 C 1.234375 -29.460938 1.234375 -30.300781 1.234375 -31 C 1.234375 -31.707031 1.234375 -32.097656 1.234375 -32.171875 C 1.234375 -32.378906 1.390625 -32.484375 1.703125 -32.484375 L 30 -32.484375 C 30 -32.484375 30.015625 -32.472656 30.046875 -32.453125 C 30.085938 -32.441406 30.109375 -32.414062 30.109375 -32.375 Z M 30.109375 -32.375 "/></g></g></g><g fill="#ffffff" fill-opacity="1"><g transform="translate(198.040212, 178.299251)"><g><path d="M 30.203125 -13.6875 C 30.203125 -13.269531 30.191406 -12.640625 30.171875 -11.796875 C 30.160156 -10.953125 30.144531 -10.019531 30.125 -9 C 30.113281 -7.988281 30.113281 -7 30.125 -6.03125 C 30.144531 -5.070312 30.191406 -4.265625 30.265625 -3.609375 L 30.265625 -0.515625 C 30.265625 -0.171875 30.09375 0 29.75 0 L 17.65625 0 C 15.488281 0 13.71875 -0.128906 12.34375 -0.390625 C 10.96875 -0.648438 9.875 -0.96875 9.0625 -1.34375 C 8.25 -1.71875 7.601562 -2.046875 7.125 -2.328125 C 6.40625 -2.773438 5.695312 -3.289062 5 -3.875 C 4.3125 -4.457031 3.765625 -5.078125 3.359375 -5.734375 C 2.460938 -7.179688 1.882812 -8.476562 1.625 -9.625 C 1.363281 -10.78125 1.234375 -11.925781 1.234375 -13.0625 L 1.234375 -19.265625 C 1.234375 -19.265625 1.234375 -19.164062 1.234375 -18.96875 C 1.234375 -18.78125 1.234375 -18.597656 1.234375 -18.421875 C 1.234375 -18.253906 1.234375 -18.222656 1.234375 -18.328125 C 1.234375 -18.429688 1.234375 -18.757812 1.234375 -19.3125 C 1.234375 -20.445312 1.316406 -21.546875 1.484375 -22.609375 C 1.660156 -23.679688 1.90625 -24.664062 2.21875 -25.5625 C 2.5 -26.425781 2.929688 -27.203125 3.515625 -27.890625 C 4.097656 -28.578125 4.71875 -29.25 5.375 -29.90625 C 6.09375 -30.550781 7.019531 -31.0625 8.15625 -31.4375 C 9.289062 -31.820312 10.519531 -32.09375 11.84375 -32.25 C 13.175781 -32.40625 14.476562 -32.484375 15.75 -32.484375 L 29.4375 -32.484375 C 29.570312 -32.484375 29.742188 -32.382812 29.953125 -32.1875 C 30.160156 -32 30.265625 -31.835938 30.265625 -31.703125 L 30.265625 -29.078125 C 30.222656 -28.929688 30.191406 -28.789062 30.171875 -28.65625 C 30.160156 -28.519531 30.15625 -28.382812 30.15625 -28.25 C 30.125 -27.9375 30.113281 -27.304688 30.125 -26.359375 C 30.144531 -25.410156 30.160156 -24.394531 30.171875 -23.3125 C 30.191406 -22.226562 30.210938 -21.289062 30.234375 -20.5 C 30.253906 -19.707031 30.265625 -19.3125 30.265625 -19.3125 C 30.265625 -18.96875 30.109375 -18.796875 29.796875 -18.796875 C 29.484375 -18.828125 28.90625 -18.832031 28.0625 -18.8125 C 27.21875 -18.800781 26.234375 -18.785156 25.109375 -18.765625 C 23.992188 -18.753906 22.894531 -18.726562 21.8125 -18.6875 C 20.726562 -18.65625 19.78125 -18.628906 18.96875 -18.609375 C 18.164062 -18.597656 17.675781 -18.59375 17.5 -18.59375 C 16.46875 -18.59375 15.726562 -18.359375 15.28125 -17.890625 C 14.832031 -17.429688 14.609375 -16.992188 14.609375 -16.578125 C 14.609375 -15.710938 14.953125 -15.078125 15.640625 -14.671875 C 16.234375 -14.328125 16.707031 -14.128906 17.0625 -14.078125 C 17.425781 -14.023438 17.9375 -13.960938 18.59375 -13.890625 C 19 -13.859375 19.640625 -13.84375 20.515625 -13.84375 C 21.398438 -13.84375 22.359375 -13.847656 23.390625 -13.859375 C 24.421875 -13.878906 25.410156 -13.894531 26.359375 -13.90625 C 27.304688 -13.925781 28.097656 -13.945312 28.734375 -13.96875 C 29.367188 -13.988281 29.707031 -14 29.75 -14 C 29.988281 -14 30.140625 -13.894531 30.203125 -13.6875 Z M 30.203125 -13.6875 "/></g></g></g><g fill="#ffffff" fill-opacity="1"><g transform="translate(229.847633, 178.299251)"><g><path d="M 29.953125 -22.46875 C 29.953125 -21.570312 29.953125 -20.484375 29.953125 -19.203125 C 29.953125 -17.929688 29.953125 -16.660156 29.953125 -15.390625 C 29.953125 -14.117188 29.953125 -13.050781 29.953125 -12.1875 C 29.953125 -10.84375 29.785156 -9.6875 29.453125 -8.71875 C 29.128906 -7.757812 28.710938 -6.796875 28.203125 -5.828125 C 27.753906 -5.003906 27.203125 -4.273438 26.546875 -3.640625 C 25.890625 -3.003906 25.203125 -2.460938 24.484375 -2.015625 C 23.585938 -1.460938 22.679688 -0.992188 21.765625 -0.609375 C 20.847656 -0.234375 19.632812 -0.046875 18.125 -0.046875 C 17.914062 -0.046875 17.457031 -0.046875 16.75 -0.046875 C 16.050781 -0.046875 15.285156 -0.046875 14.453125 -0.046875 C 13.628906 -0.046875 12.898438 -0.046875 12.265625 -0.046875 C 11.628906 -0.046875 11.289062 -0.046875 11.25 -0.046875 C 9.84375 -0.117188 8.519531 -0.472656 7.28125 -1.109375 C 6.039062 -1.742188 5.039062 -2.441406 4.28125 -3.203125 C 3.875 -3.617188 3.4375 -4.222656 2.96875 -5.015625 C 2.5 -5.804688 2.109375 -6.628906 1.796875 -7.484375 C 1.492188 -8.347656 1.34375 -9.109375 1.34375 -9.765625 C 1.34375 -10.242188 1.34375 -11.03125 1.34375 -12.125 C 1.34375 -13.226562 1.34375 -14.453125 1.34375 -15.796875 C 1.34375 -17.140625 1.34375 -18.429688 1.34375 -19.671875 C 1.34375 -20.910156 1.34375 -21.910156 1.34375 -22.671875 C 1.34375 -24.148438 1.570312 -25.445312 2.03125 -26.5625 C 2.5 -27.6875 3.046875 -28.578125 3.671875 -29.234375 C 4.765625 -30.398438 5.800781 -31.179688 6.78125 -31.578125 C 7.769531 -31.972656 8.96875 -32.257812 10.375 -32.4375 C 10.414062 -32.46875 10.796875 -32.472656 11.515625 -32.453125 C 12.234375 -32.441406 13.117188 -32.4375 14.171875 -32.4375 C 15.222656 -32.4375 16.273438 -32.4375 17.328125 -32.4375 C 18.378906 -32.4375 19.226562 -32.4375 19.875 -32.4375 C 21.21875 -32.4375 22.457031 -32.242188 23.59375 -31.859375 C 24.726562 -31.484375 25.765625 -30.847656 26.703125 -29.953125 C 27.660156 -29.054688 28.441406 -27.910156 29.046875 -26.515625 C 29.648438 -25.117188 29.953125 -23.769531 29.953125 -22.46875 Z M 13.53125 -13.171875 C 13.53125 -11.828125 13.707031 -10.9375 14.0625 -10.5 C 14.425781 -10.070312 14.882812 -9.859375 15.4375 -9.859375 C 16.125 -9.859375 16.550781 -10.164062 16.71875 -10.78125 C 16.894531 -11.40625 16.984375 -11.910156 16.984375 -12.296875 C 16.984375 -13.597656 17.007812 -14.972656 17.0625 -16.421875 C 17.113281 -17.867188 17.125 -19.070312 17.09375 -20.03125 C 17.019531 -20.820312 16.894531 -21.492188 16.71875 -22.046875 C 16.550781 -22.597656 16.125 -22.875 15.4375 -22.875 C 14.820312 -22.875 14.382812 -22.707031 14.125 -22.375 C 13.863281 -22.050781 13.695312 -21.675781 13.625 -21.25 C 13.5625 -20.820312 13.53125 -20.46875 13.53125 -20.1875 C 13.53125 -19.84375 13.53125 -19.28125 13.53125 -18.5 C 13.53125 -17.726562 13.53125 -16.859375 13.53125 -15.890625 C 13.53125 -14.929688 13.53125 -14.023438 13.53125 -13.171875 Z M 13.53125 -13.171875 "/></g></g></g><g fill="#ffffff" fill-opacity="1"><g transform="translate(261.241965, 178.299251)"><g><path d="M 27.53125 -9.859375 C 27.832031 -9.242188 28.140625 -8.460938 28.453125 -7.515625 C 28.765625 -6.566406 29.054688 -5.601562 29.328125 -4.625 C 29.609375 -3.644531 29.84375 -2.78125 30.03125 -2.03125 C 30.21875 -1.289062 30.328125 -0.800781 30.359375 -0.5625 C 30.429688 -0.1875 30.332031 0 30.0625 0 L 18.53125 0 C 18.394531 0 18.3125 -0.101562 18.28125 -0.3125 C 18.207031 -0.550781 18.050781 -1.019531 17.8125 -1.71875 C 17.570312 -2.425781 17.285156 -3.203125 16.953125 -4.046875 C 16.628906 -4.890625 16.320312 -5.644531 16.03125 -6.3125 C 15.738281 -6.988281 15.507812 -7.429688 15.34375 -7.640625 C 15.164062 -7.816406 14.945312 -7.859375 14.6875 -7.765625 C 14.425781 -7.679688 14.28125 -7.503906 14.25 -7.234375 C 14.1875 -6.160156 14.144531 -5.046875 14.125 -3.890625 C 14.101562 -2.742188 14.113281 -1.617188 14.15625 -0.515625 C 14.1875 -0.171875 14.082031 0 13.84375 0 L 1.75 0 C 1.550781 0 1.453125 -0.15625 1.453125 -0.46875 L 1.453125 -4.859375 C 1.453125 -5.023438 1.457031 -5.46875 1.46875 -6.1875 C 1.488281 -6.914062 1.5 -7.78125 1.5 -8.78125 C 1.5 -9.78125 1.5 -10.773438 1.5 -11.765625 C 1.5 -12.765625 1.488281 -13.625 1.46875 -14.34375 C 1.457031 -15.070312 1.453125 -15.523438 1.453125 -15.703125 L 1.453125 -22.109375 C 1.484375 -23.753906 1.515625 -25.425781 1.546875 -27.125 C 1.578125 -28.832031 1.578125 -30.53125 1.546875 -32.21875 C 1.546875 -32.394531 1.597656 -32.484375 1.703125 -32.484375 L 23.59375 -32.484375 C 24.1875 -32.484375 24.78125 -32.335938 25.375 -32.046875 C 25.976562 -31.753906 26.554688 -31.382812 27.109375 -30.9375 C 27.691406 -30.414062 28.179688 -29.828125 28.578125 -29.171875 C 28.972656 -28.523438 29.257812 -28.023438 29.4375 -27.671875 C 29.882812 -26.640625 30.160156 -25.585938 30.265625 -24.515625 C 30.367188 -23.453125 30.421875 -22.234375 30.421875 -20.859375 C 30.421875 -19.929688 30.332031 -18.875 30.15625 -17.6875 C 29.988281 -16.5 29.765625 -15.59375 29.484375 -14.96875 C 29.316406 -14.5625 29.078125 -14.097656 28.765625 -13.578125 C 28.453125 -13.066406 28.175781 -12.617188 27.9375 -12.234375 C 27.695312 -11.859375 27.5625 -11.65625 27.53125 -11.625 C 27.53125 -11.625 27.507812 -11.625 27.46875 -11.625 C 27.226562 -11.375 27.132812 -11.101562 27.1875 -10.8125 C 27.238281 -10.519531 27.351562 -10.203125 27.53125 -9.859375 Z M 16.46875 -18.75 C 16.507812 -19.46875 16.519531 -20.128906 16.5 -20.734375 C 16.476562 -21.335938 16.4375 -21.914062 16.375 -22.46875 C 16.269531 -23.394531 16.070312 -23.984375 15.78125 -24.234375 C 15.488281 -24.492188 15.1875 -24.625 14.875 -24.625 C 14.664062 -24.625 14.472656 -24.5625 14.296875 -24.4375 C 14.128906 -24.320312 14.046875 -24.195312 14.046875 -24.0625 C 14.046875 -23.851562 14.046875 -23.59375 14.046875 -23.28125 C 14.046875 -22.976562 14.046875 -22.671875 14.046875 -22.359375 C 14.046875 -21.804688 14.035156 -21.070312 14.015625 -20.15625 C 14.003906 -19.25 14.015625 -18.503906 14.046875 -17.921875 C 14.046875 -17.679688 14.078125 -17.40625 14.140625 -17.09375 C 14.210938 -16.78125 14.457031 -16.609375 14.875 -16.578125 C 15.21875 -16.578125 15.550781 -16.738281 15.875 -17.0625 C 16.207031 -17.394531 16.40625 -17.957031 16.46875 -18.75 Z M 16.46875 -18.75 "/></g></g></g><g fill="#ffffff" fill-opacity="1"><g transform="translate(292.99774, 178.299251)"><g><path d="M 30.109375 -8.578125 C 30.109375 -8.128906 30.109375 -7.632812 30.109375 -7.09375 C 30.109375 -6.5625 30.109375 -6.109375 30.109375 -5.734375 C 30.109375 -5.453125 30.113281 -5.035156 30.125 -4.484375 C 30.144531 -3.941406 30.171875 -3.347656 30.203125 -2.703125 C 30.242188 -2.066406 30.269531 -1.523438 30.28125 -1.078125 C 30.300781 -0.628906 30.3125 -0.40625 30.3125 -0.40625 C 30.3125 -0.132812 30.175781 0 29.90625 0 L 1.96875 0 C 1.476562 0 1.253906 -0.238281 1.296875 -0.71875 C 1.398438 -3.300781 1.457031 -5.890625 1.46875 -8.484375 C 1.488281 -11.085938 1.515625 -13.695312 1.546875 -16.3125 C 1.578125 -18.863281 1.671875 -21.429688 1.828125 -24.015625 C 1.984375 -26.597656 1.875 -29.160156 1.5 -31.703125 C 1.46875 -31.910156 1.519531 -32.09375 1.65625 -32.25 C 1.789062 -32.40625 1.960938 -32.484375 2.171875 -32.484375 L 29.6875 -32.484375 C 29.894531 -32.484375 30.035156 -32.378906 30.109375 -32.171875 C 30.109375 -32.140625 30.097656 -31.984375 30.078125 -31.703125 C 30.066406 -31.429688 30.039062 -31.15625 30 -30.875 C 30 -30.707031 29.984375 -30.3125 29.953125 -29.6875 C 29.921875 -29.070312 29.894531 -28.425781 29.875 -27.75 C 29.851562 -27.082031 29.84375 -26.578125 29.84375 -26.234375 C 29.84375 -25.890625 29.859375 -25.46875 29.890625 -24.96875 C 29.929688 -24.46875 29.976562 -24.019531 30.03125 -23.625 C 30.082031 -23.226562 30.109375 -23.03125 30.109375 -23.03125 C 30.109375 -22.757812 29.953125 -22.625 29.640625 -22.625 C 29.640625 -22.625 29.300781 -22.628906 28.625 -22.640625 C 27.957031 -22.660156 27.109375 -22.671875 26.078125 -22.671875 C 25.046875 -22.671875 23.953125 -22.671875 22.796875 -22.671875 C 21.640625 -22.671875 20.570312 -22.648438 19.59375 -22.609375 C 18.613281 -22.578125 17.847656 -22.53125 17.296875 -22.46875 C 16.785156 -22.394531 16.257812 -22.238281 15.71875 -22 C 15.1875 -21.757812 14.890625 -21.328125 14.828125 -20.703125 C 14.785156 -20.328125 14.898438 -20.007812 15.171875 -19.75 C 15.453125 -19.488281 15.75 -19.289062 16.0625 -19.15625 C 16.226562 -19.125 16.769531 -19.085938 17.6875 -19.046875 C 18.601562 -19.015625 19.695312 -19 20.96875 -19 C 22.238281 -19 23.519531 -19.007812 24.8125 -19.03125 C 26.101562 -19.050781 27.195312 -19.0625 28.09375 -19.0625 C 28.988281 -19.0625 29.503906 -19.0625 29.640625 -19.0625 C 29.953125 -19.0625 30.109375 -18.921875 30.109375 -18.640625 L 30.109375 -14.359375 C 30.109375 -13.972656 30.109375 -13.644531 30.109375 -13.375 C 30.109375 -13.101562 30.109375 -12.8125 30.109375 -12.5 C 30.109375 -12.21875 29.953125 -12.078125 29.640625 -12.078125 C 29.054688 -12.078125 28.238281 -12.085938 27.1875 -12.109375 C 26.132812 -12.128906 25.046875 -12.15625 23.921875 -12.1875 C 22.804688 -12.21875 21.800781 -12.242188 20.90625 -12.265625 C 20.019531 -12.285156 19.421875 -12.296875 19.109375 -12.296875 C 18.765625 -12.253906 18.34375 -12.234375 17.84375 -12.234375 C 17.34375 -12.234375 16.867188 -12.164062 16.421875 -12.03125 C 15.972656 -11.894531 15.644531 -11.617188 15.4375 -11.203125 C 15.09375 -10.546875 15.144531 -10.003906 15.59375 -9.578125 C 16.039062 -9.148438 16.539062 -8.867188 17.09375 -8.734375 C 17.4375 -8.660156 18.140625 -8.625 19.203125 -8.625 C 20.273438 -8.625 21.488281 -8.648438 22.84375 -8.703125 C 24.207031 -8.753906 25.515625 -8.804688 26.765625 -8.859375 C 28.023438 -8.910156 28.984375 -8.953125 29.640625 -8.984375 C 29.953125 -8.984375 30.109375 -8.847656 30.109375 -8.578125 Z M 30.109375 -8.578125 "/></g></g></g><g fill="#ffffff" fill-opacity="1"><g transform="translate(50.236811, 227.503205)"><g><path d="M 30.265625 -15.1875 C 30.265625 -14.050781 30.203125 -12.863281 30.078125 -11.625 C 29.960938 -10.382812 29.800781 -9.453125 29.59375 -8.828125 C 29.59375 -8.828125 29.410156 -8.363281 29.046875 -7.4375 C 28.679688 -6.507812 28.125 -5.578125 27.375 -4.640625 C 26.988281 -4.234375 26.335938 -3.691406 25.421875 -3.015625 C 24.515625 -2.347656 23.613281 -1.828125 22.71875 -1.453125 C 21.613281 -1.003906 20.535156 -0.675781 19.484375 -0.46875 C 18.441406 -0.257812 17.710938 -0.15625 17.296875 -0.15625 C 16.984375 -0.125 16.5 -0.0976562 15.84375 -0.078125 C 15.195312 -0.0546875 14.546875 -0.046875 13.890625 -0.046875 C 13.234375 -0.046875 12.753906 -0.046875 12.453125 -0.046875 C 12.410156 -0.046875 12.035156 -0.0351562 11.328125 -0.015625 C 10.628906 -0.00390625 9.757812 0 8.71875 0 C 7.6875 0 6.65625 0 5.625 0 C 4.59375 0 3.734375 0 3.046875 0 C 2.359375 0 2.015625 0 2.015625 0 C 1.671875 0 1.515625 -0.171875 1.546875 -0.515625 C 1.617188 -0.785156 1.660156 -1.421875 1.671875 -2.421875 C 1.691406 -3.421875 1.703125 -4.566406 1.703125 -5.859375 C 1.703125 -7.148438 1.703125 -8.390625 1.703125 -9.578125 C 1.703125 -10.765625 1.6875 -11.703125 1.65625 -12.390625 C 1.613281 -13.910156 1.554688 -15.425781 1.484375 -16.9375 C 1.421875 -18.445312 1.375 -19.960938 1.34375 -21.484375 L 1.34375 -30.359375 C 1.375 -30.910156 1.410156 -31.476562 1.453125 -32.0625 C 1.453125 -32.34375 1.585938 -32.484375 1.859375 -32.484375 L 15.90625 -32.484375 C 15.90625 -32.484375 15.738281 -32.484375 15.40625 -32.484375 C 15.082031 -32.484375 14.78125 -32.484375 14.5 -32.484375 C 14.226562 -32.484375 14.160156 -32.484375 14.296875 -32.484375 C 14.441406 -32.484375 14.992188 -32.484375 15.953125 -32.484375 C 17.878906 -32.484375 19.566406 -32.285156 21.015625 -31.890625 C 22.460938 -31.492188 23.960938 -30.660156 25.515625 -29.390625 C 26.609375 -28.523438 27.457031 -27.488281 28.0625 -26.28125 C 28.664062 -25.082031 29.097656 -23.972656 29.359375 -22.953125 C 29.617188 -21.941406 29.78125 -21.242188 29.84375 -20.859375 C 29.914062 -20.484375 29.984375 -19.914062 30.046875 -19.15625 C 30.117188 -18.394531 30.171875 -17.632812 30.203125 -16.875 C 30.242188 -16.125 30.265625 -15.5625 30.265625 -15.1875 Z M 16.828125 -13.109375 C 16.898438 -13.492188 16.941406 -14.035156 16.953125 -14.734375 C 16.972656 -15.441406 16.972656 -16.164062 16.953125 -16.90625 C 16.941406 -17.644531 16.921875 -18.222656 16.890625 -18.640625 C 16.753906 -19.847656 16.507812 -20.628906 16.15625 -20.984375 C 15.8125 -21.347656 15.488281 -21.53125 15.1875 -21.53125 C 14.875 -21.53125 14.644531 -21.398438 14.5 -21.140625 C 14.363281 -20.890625 14.296875 -20.347656 14.296875 -19.515625 L 14.296875 -13.171875 C 14.296875 -12.546875 14.335938 -12 14.421875 -11.53125 C 14.515625 -11.070312 14.785156 -10.84375 15.234375 -10.84375 C 15.710938 -10.84375 16.054688 -11.003906 16.265625 -11.328125 C 16.472656 -11.660156 16.660156 -12.253906 16.828125 -13.109375 Z M 16.828125 -13.109375 "/></g></g></g><g fill="#ffffff" fill-opacity="1"><g transform="translate(81.837684, 227.503205)"><g><path d="M 17.203125 -32.484375 L 29.75 -32.484375 C 29.882812 -32.484375 29.914062 -32.378906 29.84375 -32.171875 C 29.8125 -32.035156 29.679688 -31.570312 29.453125 -30.78125 C 29.234375 -29.988281 28.96875 -29.003906 28.65625 -27.828125 C 28.351562 -26.660156 28.019531 -25.460938 27.65625 -24.234375 C 27.289062 -23.015625 26.9375 -21.925781 26.59375 -20.96875 C 26.070312 -19.488281 25.523438 -18.101562 24.953125 -16.8125 C 24.390625 -15.519531 23.910156 -14.453125 23.515625 -13.609375 C 23.117188 -12.765625 22.90625 -12.238281 22.875 -12.03125 C 22.769531 -11.476562 22.707031 -11.003906 22.6875 -10.609375 C 22.675781 -10.210938 22.671875 -9.738281 22.671875 -9.1875 C 22.671875 -8.53125 22.648438 -7.867188 22.609375 -7.203125 C 22.578125 -6.535156 22.546875 -5.875 22.515625 -5.21875 C 22.484375 -4.382812 22.457031 -3.546875 22.4375 -2.703125 C 22.414062 -1.867188 22.441406 -1.035156 22.515625 -0.203125 C 22.515625 -0.0664062 22.460938 0 22.359375 0 L 7.546875 0 C 7.472656 0 7.4375 -0.0664062 7.4375 -0.203125 C 7.4375 -0.273438 7.4375 -0.632812 7.4375 -1.28125 C 7.4375 -1.9375 7.441406 -2.726562 7.453125 -3.65625 C 7.472656 -4.59375 7.492188 -5.539062 7.515625 -6.5 C 7.535156 -7.46875 7.550781 -8.320312 7.5625 -9.0625 C 7.582031 -9.800781 7.59375 -10.289062 7.59375 -10.53125 C 7.59375 -11.15625 7.554688 -11.5625 7.484375 -11.75 C 7.421875 -11.9375 7.300781 -12.304688 7.125 -12.859375 C 7.050781 -13.097656 6.765625 -13.773438 6.265625 -14.890625 C 5.773438 -16.015625 5.21875 -17.503906 4.59375 -19.359375 C 4.21875 -20.640625 3.820312 -21.96875 3.40625 -23.34375 C 2.988281 -24.71875 2.617188 -26.03125 2.296875 -27.28125 C 1.972656 -28.539062 1.6875 -29.617188 1.4375 -30.515625 C 1.195312 -31.410156 1.046875 -31.976562 0.984375 -32.21875 C 0.941406 -32.394531 0.992188 -32.484375 1.140625 -32.484375 L 13.53125 -32.484375 C 13.632812 -32.484375 13.6875 -32.414062 13.6875 -32.28125 C 13.75 -30.9375 13.847656 -29.59375 13.984375 -28.25 C 14.128906 -26.90625 14.285156 -25.5625 14.453125 -24.21875 C 14.523438 -23.769531 14.769531 -23.546875 15.1875 -23.546875 C 15.488281 -23.546875 15.710938 -23.769531 15.859375 -24.21875 C 15.992188 -24.695312 16.117188 -25.347656 16.234375 -26.171875 C 16.359375 -27.003906 16.472656 -27.859375 16.578125 -28.734375 C 16.679688 -29.617188 16.773438 -30.394531 16.859375 -31.0625 C 16.941406 -31.726562 17.003906 -32.148438 17.046875 -32.328125 C 17.078125 -32.429688 17.128906 -32.484375 17.203125 -32.484375 Z M 17.203125 -32.484375 "/></g></g></g><g fill="#ffffff" fill-opacity="1"><g transform="translate(112.818928, 227.503205)"><g><path d="M 30.515625 -14.765625 C 30.515625 -13.941406 30.503906 -12.9375 30.484375 -11.75 C 30.472656 -10.5625 30.46875 -9.320312 30.46875 -8.03125 C 30.46875 -6.738281 30.457031 -5.523438 30.4375 -4.390625 C 30.425781 -3.253906 30.421875 -2.296875 30.421875 -1.515625 C 30.421875 -0.742188 30.4375 -0.289062 30.46875 -0.15625 C 30.46875 -0.0507812 30.429688 0 30.359375 0 L 17.046875 0 C 16.972656 0 16.9375 -0.0351562 16.9375 -0.109375 C 16.800781 -0.515625 16.671875 -0.925781 16.546875 -1.34375 C 16.429688 -1.757812 16.300781 -2.171875 16.15625 -2.578125 C 15.851562 -3.441406 15.601562 -4.445312 15.40625 -5.59375 C 15.21875 -6.75 14.9375 -7.671875 14.5625 -8.359375 C 14.382812 -8.742188 14.132812 -8.835938 13.8125 -8.640625 C 13.488281 -8.453125 13.328125 -8.132812 13.328125 -7.6875 C 13.253906 -6.59375 13.242188 -5.335938 13.296875 -3.921875 C 13.347656 -2.515625 13.390625 -1.257812 13.421875 -0.15625 C 13.421875 -0.0507812 13.390625 0 13.328125 0 L 1.453125 -0.046875 C 1.378906 -0.046875 1.34375 -0.0820312 1.34375 -0.15625 C 1.34375 -3.007812 1.375 -5.847656 1.4375 -8.671875 C 1.507812 -11.492188 1.546875 -14.335938 1.546875 -17.203125 C 1.546875 -18.160156 1.535156 -19.289062 1.515625 -20.59375 C 1.503906 -21.90625 1.5 -23.238281 1.5 -24.59375 C 1.5 -25.957031 1.488281 -27.234375 1.46875 -28.421875 C 1.457031 -29.609375 1.441406 -30.5625 1.421875 -31.28125 C 1.398438 -32.007812 1.390625 -32.375 1.390625 -32.375 C 1.390625 -32.445312 1.425781 -32.484375 1.5 -32.484375 L 14.453125 -32.484375 C 14.492188 -32.484375 14.53125 -32.445312 14.5625 -32.375 C 14.800781 -31.582031 15.023438 -30.625 15.234375 -29.5 C 15.441406 -28.382812 15.664062 -27.269531 15.90625 -26.15625 C 16.144531 -25.039062 16.421875 -24.101562 16.734375 -23.34375 C 16.867188 -22.894531 17.144531 -22.753906 17.5625 -22.921875 C 17.863281 -23.023438 18.035156 -23.335938 18.078125 -23.859375 C 18.140625 -24.578125 18.179688 -25.453125 18.203125 -26.484375 C 18.222656 -27.523438 18.234375 -28.578125 18.234375 -29.640625 C 18.234375 -30.710938 18.234375 -31.609375 18.234375 -32.328125 C 18.234375 -32.429688 18.265625 -32.484375 18.328125 -32.484375 L 30.46875 -32.484375 C 30.539062 -32.484375 30.578125 -32.429688 30.578125 -32.328125 C 30.578125 -32.296875 30.578125 -32.257812 30.578125 -32.21875 C 30.578125 -29.289062 30.566406 -26.375 30.546875 -23.46875 C 30.523438 -20.5625 30.515625 -17.660156 30.515625 -14.765625 Z M 30.515625 -14.765625 "/></g></g></g><g fill="#ffffff" fill-opacity="1"><g transform="translate(144.936152, 227.503205)"><g><path d="M 31.1875 0 L 14.359375 0 C 14.222656 0 14.15625 -0.0859375 14.15625 -0.265625 C 14.1875 -0.910156 14.253906 -1.789062 14.359375 -2.90625 C 14.460938 -4.03125 14.570312 -5.160156 14.6875 -6.296875 C 14.8125 -7.429688 14.90625 -8.3125 14.96875 -8.9375 C 15.007812 -9 15.082031 -9.046875 15.1875 -9.078125 C 15.289062 -9.117188 15.375 -9.140625 15.4375 -9.140625 C 15.507812 -9.109375 15.71875 -9.09375 16.0625 -9.09375 C 16.40625 -9.09375 16.753906 -9.09375 17.109375 -9.09375 C 17.472656 -9.09375 17.707031 -9.09375 17.8125 -9.09375 C 17.8125 -9.09375 17.957031 -9.160156 18.25 -9.296875 C 18.539062 -9.429688 18.6875 -9.671875 18.6875 -10.015625 C 18.65625 -10.191406 18.578125 -10.703125 18.453125 -11.546875 C 18.335938 -12.390625 18.203125 -13.351562 18.046875 -14.4375 C 17.890625 -15.519531 17.75 -16.5625 17.625 -17.5625 C 17.507812 -18.5625 17.4375 -19.300781 17.40625 -19.78125 C 17.363281 -20.539062 17.253906 -21.175781 17.078125 -21.6875 C 16.910156 -22.207031 16.65625 -22.46875 16.3125 -22.46875 C 15.832031 -22.5 15.5 -22.265625 15.3125 -21.765625 C 15.125 -21.265625 15.007812 -20.878906 14.96875 -20.609375 C 14.875 -19.847656 14.703125 -18.78125 14.453125 -17.40625 C 14.210938 -16.03125 13.9375 -14.515625 13.625 -12.859375 C 13.320312 -11.203125 13.03125 -9.546875 12.75 -7.890625 C 12.476562 -6.242188 12.25 -4.738281 12.0625 -3.375 C 11.875 -2.019531 11.757812 -0.984375 11.71875 -0.265625 C 11.71875 -0.0859375 11.664062 0 11.5625 0 L 1.140625 0 C 0.992188 0 0.941406 -0.101562 0.984375 -0.3125 C 1.015625 -0.445312 1.035156 -0.59375 1.046875 -0.75 C 1.066406 -0.90625 1.097656 -1.050781 1.140625 -1.1875 C 1.203125 -1.5 1.335938 -2.160156 1.546875 -3.171875 C 1.753906 -4.191406 1.988281 -5.335938 2.25 -6.609375 C 2.507812 -7.878906 2.757812 -9.109375 3 -10.296875 C 3.238281 -11.484375 3.441406 -12.40625 3.609375 -13.0625 C 3.679688 -13.507812 3.8125 -14.265625 4 -15.328125 C 4.1875 -16.398438 4.390625 -17.632812 4.609375 -19.03125 C 4.835938 -20.425781 5.070312 -21.851562 5.3125 -23.3125 C 5.5625 -24.78125 5.78125 -26.164062 5.96875 -27.46875 C 6.15625 -28.78125 6.316406 -29.863281 6.453125 -30.71875 C 6.585938 -31.582031 6.65625 -32.101562 6.65625 -32.28125 C 6.695312 -32.414062 6.769531 -32.484375 6.875 -32.484375 L 25.671875 -32.484375 C 25.734375 -32.484375 25.78125 -32.414062 25.8125 -32.28125 C 25.882812 -31.9375 26.015625 -31.21875 26.203125 -30.125 C 26.390625 -29.039062 26.59375 -27.828125 26.8125 -26.484375 C 27.039062 -25.148438 27.257812 -23.867188 27.46875 -22.640625 C 27.675781 -21.421875 27.847656 -20.46875 27.984375 -19.78125 C 28.222656 -18.40625 28.445312 -17.023438 28.65625 -15.640625 C 28.863281 -14.265625 29.070312 -12.890625 29.28125 -11.515625 C 29.351562 -11.242188 29.445312 -10.71875 29.5625 -9.9375 C 29.6875 -9.164062 29.84375 -8.285156 30.03125 -7.296875 C 30.21875 -6.316406 30.394531 -5.328125 30.5625 -4.328125 C 30.738281 -3.335938 30.90625 -2.476562 31.0625 -1.75 C 31.21875 -1.03125 31.3125 -0.550781 31.34375 -0.3125 C 31.414062 -0.101562 31.363281 0 31.1875 0 Z M 31.1875 0 "/></g></g></g><g fill="#ffffff" fill-opacity="1"><g transform="translate(177.41483, 227.503205)"><g><path d="M 32.890625 -15.59375 C 32.890625 -15.007812 32.898438 -14.125 32.921875 -12.9375 C 32.941406 -11.75 32.96875 -10.429688 33 -8.984375 C 33.03125 -7.535156 33.070312 -6.148438 33.125 -4.828125 C 33.175781 -3.503906 33.207031 -2.410156 33.21875 -1.546875 C 33.238281 -0.691406 33.25 -0.265625 33.25 -0.265625 C 33.25 -0.0859375 33.203125 0 33.109375 0 L 22.359375 0 C 22.222656 0 22.15625 -0.0859375 22.15625 -0.265625 C 22.1875 -1.703125 22.175781 -3.117188 22.125 -4.515625 C 22.070312 -5.910156 22.046875 -7.398438 22.046875 -8.984375 C 22.046875 -9.328125 21.898438 -9.554688 21.609375 -9.671875 C 21.316406 -9.796875 21.132812 -9.6875 21.0625 -9.34375 C 20.757812 -7.59375 20.503906 -6.007812 20.296875 -4.59375 C 20.085938 -3.1875 19.847656 -1.722656 19.578125 -0.203125 C 19.535156 -0.0664062 19.460938 0 19.359375 0 L 14.515625 0 C 14.410156 0 14.359375 -0.0664062 14.359375 -0.203125 C 14.046875 -1.617188 13.835938 -3.082031 13.734375 -4.59375 C 13.628906 -6.113281 13.421875 -7.59375 13.109375 -9.03125 C 13.015625 -9.519531 12.816406 -9.769531 12.515625 -9.78125 C 12.222656 -9.800781 12.078125 -9.570312 12.078125 -9.09375 C 12.117188 -7.8125 12.078125 -6.34375 11.953125 -4.6875 C 11.835938 -3.039062 11.78125 -1.566406 11.78125 -0.265625 C 11.78125 -0.0859375 11.726562 0 11.625 0 L 1.546875 0 C 1.410156 0 1.34375 -0.0859375 1.34375 -0.265625 L 1.34375 -0.5625 C 1.414062 -2.289062 1.46875 -4.253906 1.5 -6.453125 C 1.53125 -8.660156 1.550781 -10.898438 1.5625 -13.171875 C 1.582031 -15.441406 1.59375 -17.570312 1.59375 -19.5625 C 1.59375 -21.5625 1.582031 -23.238281 1.5625 -24.59375 C 1.550781 -25.957031 1.546875 -26.796875 1.546875 -27.109375 C 1.546875 -27.929688 1.535156 -28.753906 1.515625 -29.578125 C 1.503906 -30.410156 1.5 -31.257812 1.5 -32.125 C 1.5 -32.15625 1.5 -32.1875 1.5 -32.21875 C 1.5 -32.394531 1.566406 -32.484375 1.703125 -32.484375 L 15.796875 -32.484375 C 15.867188 -32.484375 15.921875 -32.414062 15.953125 -32.28125 C 16.128906 -30.863281 16.25 -29.429688 16.3125 -27.984375 C 16.382812 -26.535156 16.554688 -25.175781 16.828125 -23.90625 C 16.867188 -23.695312 16.984375 -23.554688 17.171875 -23.484375 C 17.359375 -23.421875 17.519531 -23.40625 17.65625 -23.4375 C 17.832031 -23.507812 17.960938 -23.570312 18.046875 -23.625 C 18.128906 -23.675781 18.191406 -23.941406 18.234375 -24.421875 C 18.234375 -24.703125 18.265625 -25.320312 18.328125 -26.28125 C 18.398438 -27.25 18.492188 -28.289062 18.609375 -29.40625 C 18.734375 -30.53125 18.847656 -31.488281 18.953125 -32.28125 C 18.984375 -32.414062 19.050781 -32.484375 19.15625 -32.484375 L 33 -32.484375 C 33.132812 -32.484375 33.203125 -32.394531 33.203125 -32.21875 C 33.203125 -29.46875 33.148438 -26.707031 33.046875 -23.9375 C 32.941406 -21.164062 32.890625 -18.382812 32.890625 -15.59375 Z M 32.890625 -15.59375 "/></g></g></g><g fill="#ffffff" fill-opacity="1"><g transform="translate(212.113835, 227.503205)"><g><path d="M 1.546875 -32.484375 L 15.859375 -32.484375 C 16.234375 -32.484375 16.421875 -32.273438 16.421875 -31.859375 C 16.316406 -30.859375 16.253906 -29.476562 16.234375 -27.71875 C 16.222656 -25.96875 16.21875 -24.066406 16.21875 -22.015625 C 16.21875 -19.972656 16.234375 -17.976562 16.265625 -16.03125 C 16.296875 -14.082031 16.320312 -12.367188 16.34375 -10.890625 C 16.363281 -9.410156 16.390625 -8.378906 16.421875 -7.796875 C 16.421875 -6.585938 16.453125 -5.390625 16.515625 -4.203125 C 16.585938 -3.015625 16.675781 -1.820312 16.78125 -0.625 C 16.8125 -0.207031 16.625 0 16.21875 0 L 1.59375 0 C 1.457031 0 1.410156 -0.0859375 1.453125 -0.265625 C 1.515625 -0.703125 1.5625 -1.523438 1.59375 -2.734375 C 1.632812 -3.941406 1.65625 -5.289062 1.65625 -6.78125 C 1.65625 -8.28125 1.644531 -9.691406 1.625 -11.015625 C 1.601562 -12.347656 1.578125 -13.359375 1.546875 -14.046875 C 1.546875 -14.867188 1.535156 -15.953125 1.515625 -17.296875 C 1.503906 -18.640625 1.488281 -20.085938 1.46875 -21.640625 C 1.457031 -23.191406 1.441406 -24.695312 1.421875 -26.15625 C 1.398438 -27.613281 1.378906 -28.894531 1.359375 -30 C 1.347656 -31.101562 1.34375 -31.863281 1.34375 -32.28125 C 1.375 -32.3125 1.441406 -32.378906 1.546875 -32.484375 Z M 1.546875 -32.484375 "/></g></g></g><g fill="#ffffff" fill-opacity="1"><g transform="translate(230.237862, 227.503205)"><g><path d="M 30.203125 -13.6875 C 30.203125 -13.269531 30.191406 -12.640625 30.171875 -11.796875 C 30.160156 -10.953125 30.144531 -10.019531 30.125 -9 C 30.113281 -7.988281 30.113281 -7 30.125 -6.03125 C 30.144531 -5.070312 30.191406 -4.265625 30.265625 -3.609375 L 30.265625 -0.515625 C 30.265625 -0.171875 30.09375 0 29.75 0 L 17.65625 0 C 15.488281 0 13.71875 -0.128906 12.34375 -0.390625 C 10.96875 -0.648438 9.875 -0.96875 9.0625 -1.34375 C 8.25 -1.71875 7.601562 -2.046875 7.125 -2.328125 C 6.40625 -2.773438 5.695312 -3.289062 5 -3.875 C 4.3125 -4.457031 3.765625 -5.078125 3.359375 -5.734375 C 2.460938 -7.179688 1.882812 -8.476562 1.625 -9.625 C 1.363281 -10.78125 1.234375 -11.925781 1.234375 -13.0625 L 1.234375 -19.265625 C 1.234375 -19.265625 1.234375 -19.164062 1.234375 -18.96875 C 1.234375 -18.78125 1.234375 -18.597656 1.234375 -18.421875 C 1.234375 -18.253906 1.234375 -18.222656 1.234375 -18.328125 C 1.234375 -18.429688 1.234375 -18.757812 1.234375 -19.3125 C 1.234375 -20.445312 1.316406 -21.546875 1.484375 -22.609375 C 1.660156 -23.679688 1.90625 -24.664062 2.21875 -25.5625 C 2.5 -26.425781 2.929688 -27.203125 3.515625 -27.890625 C 4.097656 -28.578125 4.71875 -29.25 5.375 -29.90625 C 6.09375 -30.550781 7.019531 -31.0625 8.15625 -31.4375 C 9.289062 -31.820312 10.519531 -32.09375 11.84375 -32.25 C 13.175781 -32.40625 14.476562 -32.484375 15.75 -32.484375 L 29.4375 -32.484375 C 29.570312 -32.484375 29.742188 -32.382812 29.953125 -32.1875 C 30.160156 -32 30.265625 -31.835938 30.265625 -31.703125 L 30.265625 -29.078125 C 30.222656 -28.929688 30.191406 -28.789062 30.171875 -28.65625 C 30.160156 -28.519531 30.15625 -28.382812 30.15625 -28.25 C 30.125 -27.9375 30.113281 -27.304688 30.125 -26.359375 C 30.144531 -25.410156 30.160156 -24.394531 30.171875 -23.3125 C 30.191406 -22.226562 30.210938 -21.289062 30.234375 -20.5 C 30.253906 -19.707031 30.265625 -19.3125 30.265625 -19.3125 C 30.265625 -18.96875 30.109375 -18.796875 29.796875 -18.796875 C 29.484375 -18.828125 28.90625 -18.832031 28.0625 -18.8125 C 27.21875 -18.800781 26.234375 -18.785156 25.109375 -18.765625 C 23.992188 -18.753906 22.894531 -18.726562 21.8125 -18.6875 C 20.726562 -18.65625 19.78125 -18.628906 18.96875 -18.609375 C 18.164062 -18.597656 17.675781 -18.59375 17.5 -18.59375 C 16.46875 -18.59375 15.726562 -18.359375 15.28125 -17.890625 C 14.832031 -17.429688 14.609375 -16.992188 14.609375 -16.578125 C 14.609375 -15.710938 14.953125 -15.078125 15.640625 -14.671875 C 16.234375 -14.328125 16.707031 -14.128906 17.0625 -14.078125 C 17.425781 -14.023438 17.9375 -13.960938 18.59375 -13.890625 C 19 -13.859375 19.640625 -13.84375 20.515625 -13.84375 C 21.398438 -13.84375 22.359375 -13.847656 23.390625 -13.859375 C 24.421875 -13.878906 25.410156 -13.894531 26.359375 -13.90625 C 27.304688 -13.925781 28.097656 -13.945312 28.734375 -13.96875 C 29.367188 -13.988281 29.707031 -14 29.75 -14 C 29.988281 -14 30.140625 -13.894531 30.203125 -13.6875 Z M 30.203125 -13.6875 "/></g></g></g><g fill="#ffffff" fill-opacity="1"><g transform="translate(262.045289, 227.503205)"><g><path d="M 29.953125 -32.484375 C 29.984375 -32.453125 30.019531 -32.398438 30.0625 -32.328125 C 30.125 -31.640625 30.144531 -31.0625 30.125 -30.59375 C 30.113281 -30.132812 30.085938 -29.617188 30.046875 -29.046875 C 30.015625 -28.484375 30 -27.628906 30 -26.484375 C 30 -26.078125 30.03125 -25.476562 30.09375 -24.6875 C 30.164062 -23.894531 30.222656 -23.289062 30.265625 -22.875 C 30.265625 -22.5625 30.109375 -22.40625 29.796875 -22.40625 C 28.628906 -22.445312 27.285156 -22.507812 25.765625 -22.59375 C 24.253906 -22.675781 22.832031 -22.75 21.5 -22.8125 C 20.175781 -22.882812 19.222656 -22.921875 18.640625 -22.921875 C 17.367188 -22.890625 16.257812 -22.785156 15.3125 -22.609375 C 14.363281 -22.441406 13.890625 -22.050781 13.890625 -21.4375 C 13.890625 -20.78125 14.066406 -20.378906 14.421875 -20.234375 C 14.785156 -20.097656 15.109375 -20.015625 15.390625 -19.984375 C 16.316406 -19.816406 17.085938 -19.753906 17.703125 -19.796875 C 18.328125 -19.847656 19.191406 -19.84375 20.296875 -19.78125 C 21.429688 -19.707031 22.546875 -19.550781 23.640625 -19.3125 C 24.742188 -19.070312 25.726562 -18.59375 26.59375 -17.875 C 27.070312 -17.457031 27.59375 -16.929688 28.15625 -16.296875 C 28.726562 -15.660156 29.210938 -14.738281 29.609375 -13.53125 C 30.003906 -12.320312 30.203125 -10.617188 30.203125 -8.421875 C 30.203125 -7.929688 30.085938 -7.222656 29.859375 -6.296875 C 29.640625 -5.367188 29.207031 -4.40625 28.5625 -3.40625 C 28.25 -2.957031 27.75 -2.46875 27.0625 -1.9375 C 26.375 -1.40625 25.597656 -1 24.734375 -0.71875 C 23.597656 -0.375 22.460938 -0.1875 21.328125 -0.15625 C 20.191406 -0.125 19.363281 -0.109375 18.84375 -0.109375 C 18.707031 -0.109375 18.203125 -0.0976562 17.328125 -0.078125 C 16.453125 -0.0546875 15.367188 -0.046875 14.078125 -0.046875 C 12.785156 -0.046875 11.429688 -0.0351562 10.015625 -0.015625 C 8.609375 -0.00390625 7.273438 0 6.015625 0 C 4.753906 0 3.738281 0 2.96875 0 C 2.195312 0 1.8125 0 1.8125 0 C 1.5 0 1.34375 -0.132812 1.34375 -0.40625 C 1.34375 -0.820312 1.347656 -1.234375 1.359375 -1.640625 C 1.378906 -2.054688 1.410156 -2.472656 1.453125 -2.890625 C 1.515625 -3.921875 1.535156 -4.960938 1.515625 -6.015625 C 1.503906 -7.066406 1.5 -8.109375 1.5 -9.140625 C 1.5 -9.453125 1.65625 -9.585938 1.96875 -9.546875 C 2.34375 -9.515625 2.796875 -9.5 3.328125 -9.5 C 3.859375 -9.5 4.347656 -9.488281 4.796875 -9.46875 C 5.242188 -9.457031 5.539062 -9.453125 5.6875 -9.453125 C 6.195312 -9.421875 6.898438 -9.394531 7.796875 -9.375 C 8.691406 -9.351562 9.640625 -9.359375 10.640625 -9.390625 C 11.640625 -9.429688 12.578125 -9.484375 13.453125 -9.546875 C 14.328125 -9.617188 15.003906 -9.722656 15.484375 -9.859375 C 16.210938 -10.035156 16.59375 -10.484375 16.625 -11.203125 C 16.664062 -11.617188 16.46875 -11.90625 16.03125 -12.0625 C 15.601562 -12.21875 15.078125 -12.296875 14.453125 -12.296875 C 13.835938 -12.296875 13.21875 -12.269531 12.59375 -12.21875 C 11.976562 -12.164062 11.5 -12.140625 11.15625 -12.140625 C 10.050781 -12.066406 8.972656 -12.109375 7.921875 -12.265625 C 6.878906 -12.421875 5.890625 -12.804688 4.953125 -13.421875 C 4.265625 -13.867188 3.65625 -14.445312 3.125 -15.15625 C 2.59375 -15.863281 2.1875 -16.59375 1.90625 -17.34375 C 1.320312 -18.894531 1.109375 -20.515625 1.265625 -22.203125 C 1.421875 -23.890625 1.84375 -25.492188 2.53125 -27.015625 C 2.945312 -27.898438 3.460938 -28.703125 4.078125 -29.421875 C 4.703125 -30.148438 5.441406 -30.722656 6.296875 -31.140625 C 7.023438 -31.484375 7.773438 -31.789062 8.546875 -32.0625 C 9.316406 -32.34375 10.097656 -32.484375 10.890625 -32.484375 Z M 29.953125 -32.484375 "/></g></g></g><g fill="#000000" fill-opacity="1"><g transform="translate(95.520548, 248.505053)"><g><path d="M 3.84375 -7.421875 C 4.375 -7.421875 4.828125 -7.320312 5.203125 -7.125 C 5.578125 -6.9375 5.859375 -6.664062 6.046875 -6.3125 C 6.242188 -5.96875 6.34375 -5.5625 6.34375 -5.09375 C 6.34375 -4.632812 6.242188 -4.226562 6.046875 -3.875 C 5.859375 -3.53125 5.578125 -3.257812 5.203125 -3.0625 C 4.828125 -2.863281 4.375 -2.765625 3.84375 -2.765625 L 2.4375 -2.765625 L 2.4375 0 L 0.96875 0 L 0.96875 -7.421875 Z M 3.640625 -3.9375 C 4.460938 -3.9375 4.875 -4.320312 4.875 -5.09375 C 4.875 -5.875 4.460938 -6.265625 3.640625 -6.265625 L 2.4375 -6.265625 L 2.4375 -3.9375 Z M 3.640625 -3.9375 "/></g></g></g><g fill="#000000" fill-opacity="1"><g transform="translate(108.455894, 248.505053)"><g><path d="M 4.046875 0.109375 C 3.367188 0.109375 2.769531 -0.03125 2.25 -0.3125 C 1.726562 -0.59375 1.316406 -1.015625 1.015625 -1.578125 C 0.722656 -2.148438 0.578125 -2.863281 0.578125 -3.71875 C 0.578125 -4.5625 0.722656 -5.269531 1.015625 -5.84375 C 1.316406 -6.414062 1.726562 -6.835938 2.25 -7.109375 C 2.769531 -7.390625 3.367188 -7.53125 4.046875 -7.53125 C 4.734375 -7.53125 5.332031 -7.390625 5.84375 -7.109375 C 6.363281 -6.835938 6.769531 -6.414062 7.0625 -5.84375 C 7.351562 -5.269531 7.5 -4.5625 7.5 -3.71875 C 7.5 -2.863281 7.351562 -2.148438 7.0625 -1.578125 C 6.769531 -1.003906 6.363281 -0.578125 5.84375 -0.296875 C 5.332031 -0.0234375 4.734375 0.109375 4.046875 0.109375 Z M 4.046875 -1.171875 C 4.679688 -1.171875 5.160156 -1.375 5.484375 -1.78125 C 5.816406 -2.1875 5.984375 -2.832031 5.984375 -3.71875 C 5.984375 -4.601562 5.816406 -5.25 5.484375 -5.65625 C 5.160156 -6.0625 4.679688 -6.265625 4.046875 -6.265625 C 3.410156 -6.265625 2.925781 -6.0625 2.59375 -5.65625 C 2.257812 -5.25 2.09375 -4.601562 2.09375 -3.71875 C 2.09375 -2.832031 2.257812 -2.1875 2.59375 -1.78125 C 2.925781 -1.375 3.410156 -1.171875 4.046875 -1.171875 Z M 4.046875 -1.171875 "/></g></g></g><g fill="#000000" fill-opacity="1"><g transform="translate(122.696338, 248.505053)"><g><path d="M 3.546875 0 L 1.90625 0 L 0.203125 -7.421875 L 1.671875 -7.421875 L 2.796875 -2.203125 L 2.921875 -2.203125 L 4.25 -7.421875 L 5.5 -7.421875 L 6.859375 -2.203125 L 6.984375 -2.203125 L 8.109375 -7.421875 L 9.53125 -7.421875 L 7.828125 0 L 6.1875 0 L 4.890625 -4.796875 L 4.78125 -4.796875 Z M 3.546875 0 "/></g></g></g><g fill="#000000" fill-opacity="1"><g transform="translate(138.566881, 248.505053)"><g><path d="M 2.4375 -3.265625 L 2.4375 -1.234375 L 5.984375 -1.234375 L 5.984375 0 L 0.96875 0 L 0.96875 -7.421875 L 5.90625 -7.421875 L 5.90625 -6.203125 L 2.4375 -6.203125 L 2.4375 -4.46875 L 5.46875 -4.46875 L 5.46875 -3.265625 Z M 2.4375 -3.265625 "/></g></g></g><g fill="#000000" fill-opacity="1"><g transform="translate(151.101051, 248.505053)"><g><path d="M 0.96875 0 L 0.96875 -7.421875 L 3.953125 -7.421875 C 4.710938 -7.421875 5.289062 -7.242188 5.6875 -6.890625 C 6.082031 -6.535156 6.28125 -6.050781 6.28125 -5.4375 C 6.28125 -4.976562 6.164062 -4.601562 5.9375 -4.3125 C 5.707031 -4.03125 5.363281 -3.8125 4.90625 -3.65625 L 4.90625 -3.5625 C 5.144531 -3.457031 5.332031 -3.304688 5.46875 -3.109375 C 5.613281 -2.910156 5.753906 -2.613281 5.890625 -2.21875 L 6.625 0 L 5.109375 0 L 4.390625 -2.21875 C 4.316406 -2.445312 4.234375 -2.617188 4.140625 -2.734375 C 4.046875 -2.859375 3.925781 -2.945312 3.78125 -3 C 3.632812 -3.0625 3.445312 -3.09375 3.21875 -3.09375 L 2.4375 -3.09375 L 2.4375 0 Z M 3.765625 -4.265625 C 4.484375 -4.265625 4.84375 -4.59375 4.84375 -5.25 C 4.84375 -5.925781 4.484375 -6.265625 3.765625 -6.265625 L 2.4375 -6.265625 L 2.4375 -4.265625 Z M 3.765625 -4.265625 "/></g></g></g><g fill="#000000" fill-opacity="1"><g transform="translate(164.193823, 248.505053)"><g/></g></g><g fill="#000000" fill-opacity="1"><g transform="translate(172.797467, 248.505053)"><g><path d="M 2.4375 0 L 0.96875 0 L 0.96875 -7.421875 L 2.4375 -7.421875 Z M 2.4375 0 "/></g></g></g><g fill="#000000" fill-opacity="1"><g transform="translate(182.350734, 248.505053)"><g><path d="M 2.390625 0 L 0.96875 0 L 0.96875 -7.421875 L 2.640625 -7.421875 L 5.625 -2.640625 L 5.765625 -2.65625 L 5.765625 -7.421875 L 7.171875 -7.421875 L 7.171875 0 L 5.671875 0 L 2.515625 -5.109375 L 2.390625 -5.09375 Z M 2.390625 0 "/></g></g></g><g fill="#000000" fill-opacity="1"><g transform="translate(196.641955, 248.505053)"><g/></g></g><g fill="#000000" fill-opacity="1"><g transform="translate(205.245594, 248.505053)"><g><path d="M 2.3125 0 L 0.96875 0 L 0.96875 -7.421875 L 2.890625 -7.421875 L 4.765625 -1.96875 L 4.875 -1.96875 L 6.75 -7.421875 L 8.625 -7.421875 L 8.625 0 L 7.21875 0 L 7.21875 -4.90625 L 7.09375 -4.921875 L 5.375 0 L 4.15625 0 L 2.4375 -4.921875 L 2.3125 -4.90625 Z M 2.3125 0 "/></g></g></g><g fill="#000000" fill-opacity="1"><g transform="translate(220.979024, 248.505053)"><g><path d="M 4.046875 0.109375 C 3.367188 0.109375 2.769531 -0.03125 2.25 -0.3125 C 1.726562 -0.59375 1.316406 -1.015625 1.015625 -1.578125 C 0.722656 -2.148438 0.578125 -2.863281 0.578125 -3.71875 C 0.578125 -4.5625 0.722656 -5.269531 1.015625 -5.84375 C 1.316406 -6.414062 1.726562 -6.835938 2.25 -7.109375 C 2.769531 -7.390625 3.367188 -7.53125 4.046875 -7.53125 C 4.734375 -7.53125 5.332031 -7.390625 5.84375 -7.109375 C 6.363281 -6.835938 6.769531 -6.414062 7.0625 -5.84375 C 7.351562 -5.269531 7.5 -4.5625 7.5 -3.71875 C 7.5 -2.863281 7.351562 -2.148438 7.0625 -1.578125 C 6.769531 -1.003906 6.363281 -0.578125 5.84375 -0.296875 C 5.332031 -0.0234375 4.734375 0.109375 4.046875 0.109375 Z M 4.046875 -1.171875 C 4.679688 -1.171875 5.160156 -1.375 5.484375 -1.78125 C 5.816406 -2.1875 5.984375 -2.832031 5.984375 -3.71875 C 5.984375 -4.601562 5.816406 -5.25 5.484375 -5.65625 C 5.160156 -6.0625 4.679688 -6.265625 4.046875 -6.265625 C 3.410156 -6.265625 2.925781 -6.0625 2.59375 -5.65625 C 2.257812 -5.25 2.09375 -4.601562 2.09375 -3.71875 C 2.09375 -2.832031 2.257812 -2.1875 2.59375 -1.78125 C 2.925781 -1.375 3.410156 -1.171875 4.046875 -1.171875 Z M 4.046875 -1.171875 "/></g></g></g><g fill="#000000" fill-opacity="1"><g transform="translate(235.219463, 248.505053)"><g><path d="M 5.953125 -7.421875 L 5.953125 -6.1875 L 3.8125 -6.1875 L 3.8125 0 L 2.34375 0 L 2.34375 -6.1875 L 0.203125 -6.1875 L 0.203125 -7.421875 Z M 5.953125 -7.421875 "/></g></g></g><g fill="#000000" fill-opacity="1"><g transform="translate(247.525108, 248.505053)"><g><path d="M 2.4375 0 L 0.96875 0 L 0.96875 -7.421875 L 2.4375 -7.421875 Z M 2.4375 0 "/></g></g></g><g fill="#000000" fill-opacity="1"><g transform="translate(257.078369, 248.505053)"><g><path d="M 4.046875 0.109375 C 3.367188 0.109375 2.769531 -0.03125 2.25 -0.3125 C 1.726562 -0.59375 1.316406 -1.015625 1.015625 -1.578125 C 0.722656 -2.148438 0.578125 -2.863281 0.578125 -3.71875 C 0.578125 -4.5625 0.722656 -5.269531 1.015625 -5.84375 C 1.316406 -6.414062 1.726562 -6.835938 2.25 -7.109375 C 2.769531 -7.390625 3.367188 -7.53125 4.046875 -7.53125 C 4.734375 -7.53125 5.332031 -7.390625 5.84375 -7.109375 C 6.363281 -6.835938 6.769531 -6.414062 7.0625 -5.84375 C 7.351562 -5.269531 7.5 -4.5625 7.5 -3.71875 C 7.5 -2.863281 7.351562 -2.148438 7.0625 -1.578125 C 6.769531 -1.003906 6.363281 -0.578125 5.84375 -0.296875 C 5.332031 -0.0234375 4.734375 0.109375 4.046875 0.109375 Z M 4.046875 -1.171875 C 4.679688 -1.171875 5.160156 -1.375 5.484375 -1.78125 C 5.816406 -2.1875 5.984375 -2.832031 5.984375 -3.71875 C 5.984375 -4.601562 5.816406 -5.25 5.484375 -5.65625 C 5.160156 -6.0625 4.679688 -6.265625 4.046875 -6.265625 C 3.410156 -6.265625 2.925781 -6.0625 2.59375 -5.65625 C 2.257812 -5.25 2.09375 -4.601562 2.09375 -3.71875 C 2.09375 -2.832031 2.257812 -2.1875 2.59375 -1.78125 C 2.925781 -1.375 3.410156 -1.171875 4.046875 -1.171875 Z M 4.046875 -1.171875 "/></g></g></g><g fill="#000000" fill-opacity="1"><g transform="translate(271.318809, 248.505053)"><g><path d="M 2.390625 0 L 0.96875 0 L 0.96875 -7.421875 L 2.640625 -7.421875 L 5.625 -2.640625 L 5.765625 -2.65625 L 5.765625 -7.421875 L 7.171875 -7.421875 L 7.171875 0 L 5.671875 0 L 2.515625 -5.109375 L 2.390625 -5.09375 Z M 2.390625 0 "/></g></g></g><g clip-path="url(#a59c2322f9)"><g clip-path="url(#26053ad55e)"><g clip-path="url(#06abe0e7c3)"><path fill="#222222" d="M 61.480469 195.292969 L 57.550781 212.894531 L 63.050781 212.46875 L 61.464844 229.082031 L 71.949219 206.816406 L 66.75 207.164062 L 73.03125 194.644531 Z M 61.480469 195.292969 " fill-opacity="1" fill-rule="nonzero"/></g></g></g></svg>