
<svg version="1.0" xmlns="http://www.w3.org/2000/svg"
 width="300.000000pt" height="200.000000pt" viewBox="0 0 300.000000 200.000000"
 preserveAspectRatio="xMidYMid meet">
<g transform="translate(0.000000,200.000000) scale(0.100000,-0.100000)"
fill="currentColor" stroke="none">
<path d="M262 1399 c-172 -30 -261 -167 -262 -400 0 -188 62 -318 176 -370 98
-45 257 -44 362 1 l52 22 0 205 0 204 -137 -3 -138 -3 0 -70 0 -70 53 -3 53
-3 -3 -77 -3 -77 -53 -3 c-78 -4 -134 25 -164 86 -20 41 -23 62 -23 162 0 104
2 119 25 159 36 65 78 86 170 86 41 0 94 -4 116 -8 l41 -8 17 65 c9 36 16 67
16 70 0 11 -107 35 -175 40 -38 2 -94 0 -123 -5z"/>
<path d="M1330 995 l0 -385 80 0 80 0 0 165 0 165 110 0 110 0 0 -165 0 -166
83 3 82 3 0 380 0 380 -80 0 -80 0 -3 -142 -3 -143 -109 0 -109 0 -3 143 -3
142 -77 3 -78 3 0 -386z"/>
<path d="M2507 1374 c-4 -4 -7 -178 -7 -386 l0 -378 56 0 c40 0 60 5 68 16 10
13 16 13 56 -5 31 -14 66 -21 115 -21 97 0 131 19 170 96 28 56 30 66 30 179
0 108 -2 125 -25 170 -28 55 -73 91 -129 101 -33 7 -111 -4 -153 -21 -16 -6
-18 5 -20 122 l-3 128 -75 3 c-42 1 -79 0 -83 -4z m301 -389 c26 -33 35 -106
22 -175 -13 -68 -30 -83 -92 -77 -75 6 -78 13 -78 142 0 127 4 133 87 134 33
1 46 -4 61 -24z"/>
<path d="M713 1350 c-30 -12 -56 -65 -48 -99 20 -92 143 -100 176 -12 14 35
-7 88 -41 106 -32 17 -55 18 -87 5z"/>
<path d="M968 1203 l-3 -77 -38 -9 -38 -9 3 -57 3 -56 38 -3 37 -3 0 -112 c1
-175 21 -231 97 -263 33 -14 130 -19 171 -8 20 6 22 13 22 65 l0 59 -44 0
c-70 0 -76 12 -76 146 l0 114 48 0 c68 0 74 7 70 76 l-3 59 -57 3 -58 3 0 74
0 75 -85 0 -84 0 -3 -77z"/>
<path d="M670 870 l0 -261 83 3 82 3 0 255 0 255 -82 3 -83 3 0 -261z"/>
<path d="M1952 911 c3 -205 4 -221 24 -248 36 -48 77 -65 157 -66 53 0 85 6
121 22 44 19 51 20 58 6 6 -11 25 -15 63 -15 l55 0 0 260 0 261 -82 -3 -83 -3
-3 -186 -2 -187 -29 -12 c-16 -6 -44 -10 -62 -8 -53 5 -59 28 -59 226 l0 172
-81 0 -80 0 3 -219z"/>
</g>
</svg>
