<svg version="1.0" xmlns="http://www.w3.org/2000/svg"
 width="auto" height="auto" viewBox="0 0 300.000000 200.000000"
 preserveAspectRatio="xMidYMid meet">
<g transform="translate(0.000000,200.000000) scale(0.100000,-0.100000)"
fill="currentColor" stroke="none">
<path d="M277 1368 c-72 -39 -181 -153 -224 -234 -39 -73 -43 -129 -13 -167
12 -15 20 -40 20 -62 0 -20 7 -49 16 -65 17 -28 62 -60 86 -60 7 0 22 -13 31
-30 29 -48 79 -92 137 -119 75 -35 201 -36 275 -3 87 40 147 114 161 199 4 30
1 43 -16 63 -17 19 -20 32 -15 61 5 31 3 39 -20 57 -15 12 -35 24 -44 27 -13
4 -20 20 -24 57 -4 28 -13 61 -21 73 -14 21 -13 25 9 55 43 58 44 119 3 141
-28 15 -109 13 -150 -4 -33 -14 -35 -13 -66 14 -41 37 -72 36 -145 -3z m129
-19 c19 -21 19 -22 0 -33 -48 -29 -154 -117 -176 -147 -13 -19 -38 -60 -55
-91 -18 -34 -46 -67 -68 -82 l-37 -25 -16 23 c-12 20 -13 32 -5 64 33 122 225
311 317 312 11 0 29 -10 40 -21z m69 -99 c-3 -5 4 -11 17 -11 13 -1 -3 -5 -35
-10 -32 -5 -79 -18 -105 -29 l-47 -20 39 36 c22 21 41 32 45 26 4 -7 15 -6 31
3 29 17 64 19 55 5z m135 -119 c5 -11 10 -40 10 -64 0 -42 2 -45 40 -60 55
-21 61 -43 22 -78 -38 -34 -88 -49 -169 -49 -86 0 -118 -35 -74 -79 43 -43
174 -34 229 15 l27 24 -45 -22 c-59 -27 -158 -35 -185 -14 -19 14 -16 15 40
17 33 1 49 3 35 6 -78 12 -90 15 -90 25 0 6 13 8 33 5 47 -7 147 11 187 35 22
13 36 16 38 9 2 -6 11 -18 19 -27 26 -25 8 -83 -41 -129 -85 -82 -215 -87
-285 -11 -35 38 -41 122 -12 171 l21 37 -25 30 c-31 37 -33 85 -4 122 18 23
28 26 78 26 35 0 65 6 77 15 27 20 61 18 74 -4z m-394 -172 c23 -25 26 -107 5
-132 -20 -25 -65 -21 -100 9 -60 50 -32 144 42 144 22 0 41 -8 53 -21z"/>
<path d="M572 1054 c2 -15 9 -29 16 -32 10 -3 13 4 10 24 -2 15 -9 29 -16 32
-10 3 -13 -4 -10 -24z"/>
<path d="M425 1020 c-4 -6 9 -10 32 -11 34 0 36 -1 14 -10 -13 -5 -21 -12 -18
-15 7 -7 47 14 47 25 0 20 -64 29 -75 11z"/>
<path d="M580 990 c0 -5 5 -10 10 -10 6 0 10 5 10 10 0 6 -4 10 -10 10 -5 0
-10 -4 -10 -10z"/>
<path d="M545 970 c4 -6 11 -8 16 -5 14 9 11 15 -7 15 -8 0 -12 -5 -9 -10z"/>
<path d="M132 938 c-7 -7 -12 -19 -12 -27 1 -13 3 -12 15 3 19 25 49 14 42
-15 -8 -28 2 -49 22 -49 12 0 13 2 3 9 -9 5 -11 17 -6 35 11 44 -33 75 -64 44z"/>
<path d="M1533 1153 c-22 -8 -14 -43 12 -53 33 -13 75 3 75 29 0 27 -48 40
-87 24z"/>
<path d="M1640 1005 l0 -155 45 0 45 0 0 155 0 155 -45 0 -45 0 0 -155z"/>
<path d="M1990 1006 l0 -156 40 0 40 0 0 59 c0 68 13 111 34 111 20 0 26 -23
26 -101 l0 -69 40 0 40 0 0 98 c0 119 -11 142 -70 142 -30 0 -43 -6 -64 -31
l-26 -30 7 33 c4 18 7 47 8 63 0 28 -3 30 -37 33 l-38 3 0 -155z"/>
<path d="M2239 1144 c-11 -14 -10 -19 10 -35 13 -11 29 -19 36 -19 7 0 23 8
36 19 20 16 21 21 10 35 -7 9 -28 16 -46 16 -18 0 -39 -7 -46 -16z"/>
<path d="M890 970 l0 -120 40 0 40 0 0 59 c0 69 13 111 35 111 12 0 15 -15 15
-85 l0 -85 45 0 45 0 0 73 c0 78 9 103 34 94 13 -5 16 -22 16 -87 l0 -80 45 0
45 0 0 83 c0 58 -5 92 -18 117 -15 31 -22 35 -60 38 -38 3 -44 0 -59 -27 l-17
-29 -18 29 c-24 40 -77 41 -107 3 l-21 -27 0 27 c0 22 -4 26 -30 26 l-30 0 0
-120z"/>
<path d="M1303 1080 c-18 -7 -23 -17 -23 -44 l0 -34 49 15 c48 16 81 13 81 -7
0 -5 -13 -10 -29 -10 -41 0 -90 -19 -101 -40 -24 -46 -5 -96 42 -113 27 -10
77 13 93 42 l14 26 1 -32 c0 -31 2 -33 35 -33 l35 0 0 75 c0 83 -17 137 -48
154 -25 13 -118 13 -149 1z m107 -138 c0 -15 -24 -32 -47 -32 -27 0 -30 15 -5
29 21 12 52 14 52 3z"/>
<path d="M1530 968 l0 -118 40 0 40 0 0 118 0 117 -40 0 -40 1 0 -118z"/>
<path d="M1790 1063 c-39 -35 -49 -92 -27 -145 20 -48 57 -71 112 -70 66 1 85
15 85 63 0 35 -2 40 -17 33 -10 -4 -37 -9 -60 -12 -34 -3 -43 0 -52 16 -28 52
36 79 112 47 15 -6 17 -1 17 34 0 49 -17 61 -89 61 -41 0 -56 -5 -81 -27z"/>
<path d="M2240 968 l0 -118 45 0 45 0 0 118 0 117 -45 0 -45 0 0 -117z"/>
<path d="M2360 970 l0 -120 40 0 40 0 1 58 c1 74 11 106 32 110 15 3 17 -7 17
-82 l0 -86 45 0 45 0 0 68 c0 41 5 75 13 87 25 33 37 8 37 -76 l0 -79 46 0 46
0 -4 99 c-4 118 -17 141 -80 141 -32 0 -42 -5 -56 -29 l-16 -29 -18 29 c-30
49 -100 36 -121 -21 -3 -8 -6 0 -6 18 -1 29 -4 32 -31 32 l-30 0 0 -120z"/>
<path d="M2744 1077 c-2 -7 -3 -76 -2 -152 l3 -140 43 -3 42 -3 0 46 c0 42 2
45 19 35 22 -11 61 -13 86 -4 59 23 59 205 0 228 -42 16 -83 6 -108 -25 l-24
-31 5 31 c4 29 2 31 -27 31 -17 0 -34 -6 -37 -13z m144 -69 c25 -25 8 -108
-23 -108 -8 0 -19 9 -25 19 -29 55 10 127 48 89z"/>
</g>
</svg>
