<svg version="1.0" xmlns="http://www.w3.org/2000/svg"
 width="auto" height="auto" viewBox="0 0 900.000000 600.000000"
 preserveAspectRatio="xMidYMid meet">
<g transform="translate(0.000000,600.000000) scale(0.100000,-0.100000)"
fill="currentColor" stroke="none">
<path d="M5313 3485 c-11 -8 -12 -31 -3 -130 5 -66 13 -135 16 -152 8 -43 -4
-42 -57 7 -43 39 -120 71 -171 70 -96 -2 -199 -69 -246 -160 -31 -58 -32 -64
-32 -185 0 -138 8 -167 67 -242 45 -57 82 -81 150 -99 88 -23 165 -5 228 53
53 48 71 54 60 21 -3 -13 -9 -33 -12 -45 -6 -25 -20 -23 173 -27 l25 -1 0 443
c1 244 -2 446 -5 449 -10 10 -179 8 -193 -2z m-100 -394 c56 -24 89 -69 95
-132 6 -67 -4 -109 -36 -145 -82 -93 -222 -56 -251 68 -23 95 11 171 94 209
49 23 44 23 98 0z"/>
<path d="M986 3302 c-16 -9 -37 -24 -46 -32 -21 -20 -80 -109 -80 -120 0 -4
-3 -10 -7 -12 -8 -3 -53 -64 -53 -71 0 -3 -34 -55 -75 -117 -41 -62 -75 -115
-75 -118 0 -3 -7 -14 -16 -24 -24 -25 -23 -118 2 -150 37 -50 64 -62 137 -62
66 0 69 1 103 39 19 22 41 50 47 61 7 12 31 53 55 90 24 38 48 78 55 89 7 11
14 22 17 25 10 10 50 69 50 74 0 3 21 35 47 73 41 60 47 75 47 120 0 57 -22
98 -63 119 -13 7 -28 17 -34 23 -16 16 -78 13 -111 -7z m62 -130 c2 -13 10
-26 18 -29 31 -12 4 -103 -32 -103 -9 0 -14 -10 -14 -28 0 -28 -31 -72 -50
-72 -6 0 -10 -7 -10 -16 0 -8 -22 -46 -49 -82 -28 -37 -60 -82 -73 -99 -23
-32 -42 -38 -85 -27 -37 10 -30 67 17 139 22 33 49 77 60 98 11 20 25 37 30
37 6 0 10 6 10 13 0 8 8 23 18 35 9 11 35 46 57 77 22 31 46 63 54 71 19 21
45 13 49 -14z"/>
<path d="M1431 3289 c-24 -16 -49 -45 -56 -62 -7 -18 -23 -41 -34 -51 -12 -11
-21 -27 -21 -37 0 -10 -6 -22 -13 -26 -16 -10 -47 -59 -47 -74 0 -6 -13 -28
-30 -49 -16 -21 -30 -42 -30 -46 0 -5 -12 -20 -25 -33 -14 -13 -28 -34 -31
-46 -3 -13 -12 -26 -20 -29 -8 -3 -14 -12 -14 -19 0 -8 -9 -24 -20 -37 -22
-26 -27 -75 -7 -87 6 -4 19 -21 27 -38 16 -31 88 -74 126 -75 43 0 108 45 151
106 23 32 42 67 42 76 1 9 11 29 24 45 13 15 34 45 46 66 12 20 27 37 32 37 5
0 9 6 9 14 0 8 16 33 35 56 19 23 35 46 35 52 0 5 13 23 30 39 27 27 29 35 27
92 -2 62 -27 116 -53 117 -6 0 -19 9 -29 20 -29 32 -102 27 -154 -11z m134
-112 c7 -27 -31 -120 -69 -170 -14 -19 -26 -37 -26 -42 0 -4 -21 -41 -47 -83
-54 -84 -150 -192 -172 -192 -25 0 -61 42 -61 70 0 15 11 44 25 64 14 20 25
40 25 43 0 3 18 32 40 64 22 32 40 63 40 67 0 5 16 25 35 45 19 20 35 43 35
52 0 24 59 93 84 98 60 12 86 7 91 -16z"/>
<path d="M2460 3270 c-14 -4 -36 -11 -51 -14 -14 -3 -38 -19 -55 -35 -38 -40
-52 -39 -56 6 l-3 36 -99 1 -99 1 0 -335 0 -335 104 0 104 0 -4 201 c-3 201
-3 202 22 242 53 83 171 83 224 -1 25 -40 25 -40 22 -241 l-4 -201 98 0 c54
-1 101 2 105 5 4 3 7 102 7 220 0 207 1 216 21 236 37 37 87 50 140 36 88 -24
98 -61 93 -329 l-4 -168 103 0 c63 0 102 3 103 10 0 5 0 111 -1 233 -1 246 -9
287 -67 353 -101 113 -324 108 -398 -9 -11 -17 -22 -31 -25 -32 -3 0 -31 24
-62 54 -42 39 -67 55 -95 59 -21 3 -51 8 -68 11 -16 3 -41 1 -55 -4z"/>
<path d="M3565 3268 c-189 -46 -292 -211 -255 -410 27 -150 121 -240 275 -267
74 -12 161 -1 230 30 43 19 124 98 143 139 41 90 41 251 0 341 -59 127 -240
204 -393 167z m132 -175 c50 -23 69 -47 89 -109 16 -49 16 -55 0 -105 -22 -65
-38 -85 -94 -111 -42 -20 -43 -20 -85 -2 -51 23 -67 38 -89 87 -41 88 -6 195
79 241 37 20 54 20 100 -1z"/>
<path d="M4417 3266 c-28 -6 -63 -25 -84 -44 -44 -39 -58 -37 -58 7 l0 33
-103 3 -102 2 2 -336 3 -335 100 0 100 0 5 219 c5 240 7 244 67 278 45 25 90
22 131 -9 54 -41 62 -74 61 -236 0 -79 -4 -165 -8 -191 -7 -39 -5 -49 8 -55
20 -10 182 -9 197 0 7 5 8 25 3 60 -4 29 -8 139 -8 245 -1 176 -3 196 -22 233
-33 62 -98 112 -167 127 -67 14 -64 14 -125 -1z"/>
<path d="M5796 3263 c-61 -19 -144 -98 -175 -167 -17 -41 -21 -68 -21 -165 0
-83 4 -124 15 -145 8 -15 15 -33 15 -39 0 -18 71 -98 109 -121 100 -62 227
-53 308 21 25 24 50 43 55 43 11 0 10 -28 -3 -52 -17 -32 0 -38 101 -41 l94
-2 -2 328 c-1 181 -4 332 -6 335 -6 11 -177 5 -188 -6 -6 -6 -6 -17 1 -30 13
-24 14 -52 3 -52 -5 0 -30 19 -55 43 -71 65 -150 81 -251 50z m196 -172 c54
-23 81 -54 97 -110 15 -53 0 -134 -33 -169 -24 -27 -78 -52 -111 -52 -34 0
-87 25 -115 55 -23 24 -25 34 -25 115 0 80 2 91 25 115 21 23 89 62 112 64 3
1 26 -7 50 -18z"/>
<path d="M6350 3247 c0 -10 6 -31 13 -45 8 -15 22 -45 31 -67 10 -22 24 -53
32 -68 8 -16 14 -35 14 -42 0 -7 6 -26 14 -42 13 -26 24 -51 61 -138 27 -66
42 -100 72 -163 l29 -64 -42 -86 c-66 -136 -88 -181 -105 -215 -10 -18 -15
-35 -12 -39 2 -5 53 -8 112 -8 l107 0 17 35 c9 20 17 42 17 50 0 7 6 26 14 42
8 15 22 45 30 65 9 21 24 55 33 75 9 21 22 52 29 68 6 17 19 46 27 65 8 19 22
51 30 70 8 19 22 51 30 70 8 19 22 52 31 73 9 20 22 52 30 70 8 17 21 49 30
69 9 21 23 52 31 70 38 89 58 128 66 134 5 3 9 14 9 24 0 18 -30 20 -226 11
-7 -1 -14 -16 -17 -33 -5 -37 -23 -90 -43 -130 -8 -14 -14 -33 -14 -42 0 -8
-6 -30 -14 -48 -8 -18 -19 -53 -26 -78 -22 -81 -29 -94 -45 -80 -8 7 -15 21
-15 31 0 10 -4 20 -9 23 -5 3 -11 20 -14 38 -5 37 -22 89 -43 131 -8 16 -14
36 -14 46 0 9 -7 26 -15 37 -8 10 -15 31 -15 45 0 53 -17 61 -133 63 -99 2
-107 1 -107 -17z"/>
<path d="M7288 2903 c-43 -7 -95 -62 -109 -116 -15 -53 -1 -127 29 -160 22
-24 90 -57 117 -57 53 0 135 59 135 97 0 34 -41 30 -78 -7 -39 -39 -75 -39
-112 -1 -37 37 -46 73 -30 123 16 46 34 58 89 58 32 0 46 -6 69 -31 36 -38 65
-34 60 7 -6 54 -94 98 -170 87z"/>
<path d="M7624 2902 c-41 -4 -97 -57 -118 -112 -17 -43 -17 -47 1 -98 20 -61
50 -91 110 -111 36 -12 46 -11 86 4 59 22 83 49 98 108 34 123 -49 221 -177
209z m96 -82 c51 -51 48 -112 -6 -160 -39 -34 -64 -37 -104 -13 -55 32 -69
120 -25 167 31 34 104 37 135 6z"/>
<path d="M8195 2903 c-11 -3 -34 -17 -53 -31 l-33 -25 -27 27 c-23 21 -38 26
-79 26 -33 0 -55 -5 -63 -15 -12 -14 -15 -14 -31 1 -9 8 -26 14 -36 12 -16 -3
-18 -16 -18 -158 l0 -155 24 -3 c13 -2 27 2 31 9 5 7 6 54 3 106 -6 88 -5 95
17 118 19 20 33 25 72 25 44 0 50 -3 59 -27 6 -17 9 -67 6 -121 -4 -85 -3 -94
16 -107 37 -26 47 -3 47 102 0 65 5 103 15 123 14 27 20 30 64 30 70 0 81 -21
81 -148 0 -112 10 -133 49 -106 21 15 22 20 16 112 -4 54 -11 111 -16 128 -16
51 -89 91 -144 77z"/>
<path d="M1623 2879 c-50 -32 -77 -84 -77 -145 1 -54 17 -84 63 -120 39 -29
137 -27 176 4 45 35 65 76 65 132 0 46 -3 53 -50 100 -47 46 -55 50 -98 50
-30 0 -59 -8 -79 -21z m77 -119 c0 -5 -7 -10 -15 -10 -8 0 -15 5 -15 10 0 6 7
10 15 10 8 0 15 -4 15 -10z"/>
<path d="M7022 2674 c-33 -23 -30 -69 5 -88 25 -13 30 -12 56 6 23 17 27 25
22 46 -6 26 -31 51 -50 52 -6 0 -21 -7 -33 -16z"/>
</g>
</svg>
