<svg version="1.0" xmlns="http://www.w3.org/2000/svg"
 width="auto" height="auto" viewBox="0 0 300.000000 200.000000"
 preserveAspectRatio="xMidYMid meet">
<g transform="translate(0.000000,200.000000) scale(0.100000,-0.100000)"
fill="currentColor" stroke="none">
<path d="M2079 1642 c-113 -147 -254 -335 -315 -419 -60 -83 -111 -152 -114
-152 -3 0 -63 83 -135 185 -125 178 -130 184 -164 184 l-34 0 20 -22 c11 -13
79 -105 151 -206 l131 -182 -151 -208 c-83 -114 -155 -213 -161 -220 -9 -11
-4 -13 24 -10 31 4 44 18 171 194 76 104 140 194 142 199 3 6 9 3 15 -5 5 -8
69 -98 143 -199 122 -169 136 -185 167 -189 24 -2 31 0 26 9 -4 6 -75 104
-156 217 -82 112 -149 208 -149 212 0 8 420 618 542 788 122 168 47 83 -153
-176z"/>
<path d="M5 1020 c0 -329 3 -420 13 -421 6 -1 16 -2 22 -3 6 -1 10 144 12 386
2 214 6 388 9 388 4 0 9 -6 12 -14 22 -58 874 -1262 885 -1251 2 2 -136 209
-306 461 -170 253 -371 552 -447 667 -130 195 -140 207 -169 207 l-31 0 0
-420z"/>
<path d="M710 1018 l0 -423 285 0 285 0 0 23 0 22 -260 0 -260 0 0 185 0 185
244 0 244 0 0 25 0 25 -244 0 -244 0 0 168 0 167 257 0 258 0 3 23 3 22 -285
0 -286 0 0 -422z"/>
<path d="M2020 1414 l0 -25 148 2 147 2 2 -399 2 -399 25 -3 26 -3 0 403 0
403 147 0 c146 0 148 0 151 23 l3 22 -325 0 -326 0 0 -26z"/>
<path d="M2790 765 c0 -61 -3 -77 -16 -82 -10 -4 -22 1 -29 10 -15 20 -35 22
-35 4 0 -20 33 -47 58 -47 40 0 52 25 52 111 0 64 -3 79 -15 79 -12 0 -15 -15
-15 -75z"/>
<path d="M2877 822 c-33 -37 -12 -73 53 -89 25 -7 35 -15 35 -29 0 -25 -62
-34 -71 -10 -8 20 -34 21 -34 2 0 -19 39 -46 66 -46 36 0 55 11 65 37 13 34
-4 59 -48 73 -50 16 -59 26 -43 45 16 19 39 19 61 -1 26 -23 43 -14 24 14 -21
28 -84 31 -108 4z"/>
<path d="M2642 673 c2 -10 10 -18 18 -18 8 0 16 8 18 18 2 12 -3 17 -18 17
-15 0 -20 -5 -18 -17z"/>
</g>
</svg>
