<svg xmlns="http://www.w3.org/2000/svg" xmlns:xlink="http://www.w3.org/1999/xlink" width="500" zoomAndPan="magnify" viewBox="0 0 375 374.999991" height="500" preserveAspectRatio="xMidYMid meet" version="1.0"><defs><g/><clipPath id="7406c086c6"><path d="M 149.148438 164.5 L 185.898438 164.5 L 185.898438 200.5 L 149.148438 200.5 Z M 149.148438 164.5 " clip-rule="nonzero"/></clipPath></defs><g fill="#000000" fill-opacity="1"><g transform="translate(45.509993, 194.179446)"><g><path d="M 1.375 -0.6875 L 1.375 -21.390625 C 1.375 -21.816406 1.523438 -22.175781 1.828125 -22.46875 C 2.140625 -22.757812 2.492188 -22.90625 2.890625 -22.90625 L 15.625 -22.90625 C 16.175781 -22.90625 16.632812 -22.722656 17 -22.359375 L 21.625 -17.6875 C 21.957031 -17.289062 22.125 -16.894531 22.125 -16.5 L 22.125 -0.6875 C 22.125 -0.5 22.054688 -0.335938 21.921875 -0.203125 C 21.785156 -0.0664062 21.625 0 21.4375 0 L 18.375 0 C 18.1875 0 18.023438 -0.0664062 17.890625 -0.203125 C 17.753906 -0.335938 17.6875 -0.5 17.6875 -0.6875 L 17.6875 -15.203125 C 17.6875 -15.515625 17.578125 -15.773438 17.359375 -15.984375 L 14.984375 -18.234375 C 14.859375 -18.328125 14.703125 -18.375 14.515625 -18.375 L 5.8125 -18.375 L 5.8125 -0.6875 C 5.8125 -0.5 5.742188 -0.335938 5.609375 -0.203125 C 5.472656 -0.0664062 5.3125 0 5.125 0 L 2.0625 0 C 1.875 0 1.710938 -0.0664062 1.578125 -0.203125 C 1.441406 -0.335938 1.375 -0.5 1.375 -0.6875 Z M 1.375 -0.6875 "/></g></g></g><g fill="#000000" fill-opacity="1"><g transform="translate(69.005036, 194.179446)"><g><path d="M 6.5 -14.984375 C 6.289062 -14.765625 6.1875 -14.503906 6.1875 -14.203125 L 6.1875 -12.546875 L 19.109375 -12.546875 C 19.285156 -12.546875 19.441406 -12.476562 19.578125 -12.34375 C 19.722656 -12.207031 19.796875 -12.046875 19.796875 -11.859375 L 19.796875 -8.703125 C 19.796875 -8.515625 19.722656 -8.351562 19.578125 -8.21875 C 19.441406 -8.082031 19.285156 -8.015625 19.109375 -8.015625 L 6.1875 -8.015625 L 6.1875 -6.96875 C 6.1875 -6.8125 6.234375 -6.65625 6.328125 -6.5 L 6.546875 -6.234375 L 7.921875 -4.765625 C 8.140625 -4.546875 8.398438 -4.4375 8.703125 -4.4375 L 21.34375 -4.4375 C 21.53125 -4.4375 21.691406 -4.367188 21.828125 -4.234375 C 21.960938 -4.097656 22.03125 -3.9375 22.03125 -3.75 L 22.03125 -0.6875 C 22.03125 -0.5 21.960938 -0.335938 21.828125 -0.203125 C 21.691406 -0.0664062 21.53125 0 21.34375 0 L 7.234375 0 C 6.773438 0 6.378906 -0.164062 6.046875 -0.5 L 1.921875 -4.53125 C 1.554688 -4.894531 1.375 -5.351562 1.375 -5.90625 L 1.375 -15.390625 C 1.375 -15.640625 1.429688 -15.867188 1.546875 -16.078125 C 1.671875 -16.296875 1.796875 -16.460938 1.921875 -16.578125 L 6.046875 -20.703125 C 6.410156 -21.066406 6.851562 -21.25 7.375 -21.25 L 21.34375 -21.25 C 21.53125 -21.25 21.691406 -21.179688 21.828125 -21.046875 C 21.960938 -20.910156 22.03125 -20.75 22.03125 -20.5625 L 22.03125 -17.40625 C 22.03125 -17.226562 21.960938 -17.066406 21.828125 -16.921875 C 21.691406 -16.785156 21.53125 -16.71875 21.34375 -16.71875 L 8.65625 -16.71875 C 8.445312 -16.71875 8.21875 -16.597656 7.96875 -16.359375 Z M 6.5 -14.984375 "/></g></g></g><g fill="#000000" fill-opacity="1"><g transform="translate(92.40849, 194.179446)"><g><path d="M 22.125 -15.125 C 22.125 -14.71875 21.957031 -14.316406 21.625 -13.921875 L 18.28125 -10.359375 L 21.625 -6.78125 C 21.957031 -6.382812 22.125 -5.988281 22.125 -5.59375 L 22.125 -0.6875 C 22.125 -0.5 22.054688 -0.335938 21.921875 -0.203125 C 21.785156 -0.0664062 21.625 0 21.4375 0 L 18.375 0 C 18.1875 0 18.023438 -0.0664062 17.890625 -0.203125 C 17.753906 -0.335938 17.6875 -0.5 17.6875 -0.6875 L 17.6875 -4.390625 C 17.6875 -4.703125 17.578125 -4.960938 17.359375 -5.171875 L 14.984375 -7.703125 L 14.703125 -7.921875 C 14.578125 -8.015625 14.425781 -8.0625 14.25 -8.0625 L 9.25 -8.0625 C 9.039062 -8.0625 8.890625 -8.015625 8.796875 -7.921875 L 8.515625 -7.703125 L 6.140625 -5.171875 C 5.921875 -4.992188 5.8125 -4.734375 5.8125 -4.390625 L 5.8125 -0.6875 C 5.8125 -0.5 5.742188 -0.335938 5.609375 -0.203125 C 5.472656 -0.0664062 5.3125 0 5.125 0 L 2.0625 0 C 1.875 0 1.710938 -0.0664062 1.578125 -0.203125 C 1.441406 -0.335938 1.375 -0.5 1.375 -0.6875 L 1.375 -5.59375 C 1.375 -5.988281 1.539062 -6.382812 1.875 -6.78125 L 5.21875 -10.359375 L 1.875 -13.921875 C 1.539062 -14.316406 1.375 -14.71875 1.375 -15.125 L 1.375 -20.5625 C 1.375 -20.75 1.441406 -20.910156 1.578125 -21.046875 C 1.710938 -21.179688 1.875 -21.25 2.0625 -21.25 L 5.125 -21.25 C 5.3125 -21.25 5.472656 -21.179688 5.609375 -21.046875 C 5.742188 -20.910156 5.8125 -20.75 5.8125 -20.5625 L 5.8125 -16.3125 C 5.8125 -15.976562 5.921875 -15.71875 6.140625 -15.53125 L 8.515625 -13.015625 L 8.796875 -12.78125 C 8.890625 -12.6875 9.039062 -12.640625 9.25 -12.640625 L 14.25 -12.640625 C 14.425781 -12.640625 14.578125 -12.6875 14.703125 -12.78125 L 14.984375 -13.015625 L 17.359375 -15.53125 C 17.578125 -15.738281 17.6875 -16 17.6875 -16.3125 L 17.6875 -20.5625 C 17.6875 -20.75 17.753906 -20.910156 17.890625 -21.046875 C 18.023438 -21.179688 18.1875 -21.25 18.375 -21.25 L 21.4375 -21.25 C 21.625 -21.25 21.785156 -21.179688 21.921875 -21.046875 C 22.054688 -20.910156 22.125 -20.75 22.125 -20.5625 Z M 22.125 -15.125 "/></g></g></g><g fill="#000000" fill-opacity="1"><g transform="translate(115.903533, 194.179446)"><g><path d="M 23.828125 -21.25 C 24.003906 -21.25 24.160156 -21.179688 24.296875 -21.046875 C 24.441406 -20.910156 24.515625 -20.75 24.515625 -20.5625 L 24.515625 -17.140625 C 24.515625 -16.953125 24.441406 -16.789062 24.296875 -16.65625 C 24.160156 -16.519531 24.003906 -16.453125 23.828125 -16.453125 L 15.390625 -16.453125 L 15.390625 -0.6875 C 15.390625 -0.5 15.320312 -0.335938 15.1875 -0.203125 C 15.050781 -0.0664062 14.890625 0 14.703125 0 L 11.265625 0 C 11.085938 0 10.925781 -0.0664062 10.78125 -0.203125 C 10.644531 -0.335938 10.578125 -0.5 10.578125 -0.6875 L 10.578125 -16.453125 L 2.0625 -16.453125 C 1.875 -16.453125 1.710938 -16.519531 1.578125 -16.65625 C 1.441406 -16.789062 1.375 -16.953125 1.375 -17.140625 L 1.375 -20.5625 C 1.375 -20.75 1.441406 -20.910156 1.578125 -21.046875 C 1.710938 -21.179688 1.875 -21.25 2.0625 -21.25 Z M 23.828125 -21.25 "/></g></g></g><g fill="#000000" fill-opacity="1"><g transform="translate(141.782361, 194.179446)"><g/></g></g><g fill="#000000" fill-opacity="1"><g transform="translate(153.690189, 194.179446)"><g/></g></g><g fill="#000000" fill-opacity="1"><g transform="translate(165.598017, 194.179446)"><g/></g></g><g fill="#000000" fill-opacity="1"><g transform="translate(177.505845, 194.179446)"><g/></g></g><g fill="#000000" fill-opacity="1"><g transform="translate(189.422831, 194.179446)"><g><path d="M 1.375 -14.296875 L 1.375 -17.5 C 1.375 -17.738281 1.429688 -17.96875 1.546875 -18.1875 C 1.671875 -18.40625 1.796875 -18.570312 1.921875 -18.6875 L 5.59375 -22.359375 C 5.957031 -22.722656 6.398438 -22.90625 6.921875 -22.90625 L 20.203125 -22.90625 C 20.390625 -22.90625 20.550781 -22.835938 20.6875 -22.703125 C 20.820312 -22.566406 20.890625 -22.40625 20.890625 -22.21875 L 20.890625 -19.0625 C 20.890625 -18.875 20.820312 -18.710938 20.6875 -18.578125 C 20.550781 -18.441406 20.390625 -18.375 20.203125 -18.375 L 8.203125 -18.375 C 8.046875 -18.375 7.816406 -18.25 7.515625 -18 L 6.5 -17.09375 C 6.289062 -16.875 6.1875 -16.613281 6.1875 -16.3125 L 6.1875 -15.34375 C 6.1875 -15.195312 6.234375 -15.046875 6.328125 -14.890625 L 7.015625 -14.0625 C 7.222656 -13.851562 7.476562 -13.75 7.78125 -13.75 L 17.640625 -13.75 C 17.878906 -13.75 18.097656 -13.703125 18.296875 -13.609375 C 18.492188 -13.515625 18.671875 -13.390625 18.828125 -13.234375 L 21.578125 -10.578125 C 21.941406 -10.273438 22.125 -9.816406 22.125 -9.203125 L 22.125 -5.40625 C 22.125 -5.1875 22.070312 -4.96875 21.96875 -4.75 C 21.863281 -4.539062 21.734375 -4.363281 21.578125 -4.21875 L 17.90625 -0.546875 C 17.539062 -0.179688 17.097656 0 16.578125 0 L 2.84375 0 C 2.65625 0 2.492188 -0.0664062 2.359375 -0.203125 C 2.222656 -0.335938 2.15625 -0.5 2.15625 -0.6875 L 2.15625 -3.84375 C 2.15625 -4.03125 2.222656 -4.191406 2.359375 -4.328125 C 2.492188 -4.460938 2.65625 -4.53125 2.84375 -4.53125 L 15.296875 -4.53125 C 15.453125 -4.53125 15.679688 -4.65625 15.984375 -4.90625 L 17 -5.8125 C 17.207031 -6.03125 17.3125 -6.289062 17.3125 -6.59375 L 17.3125 -7.703125 C 17.3125 -7.878906 17.269531 -8.03125 17.1875 -8.15625 L 16.5 -8.984375 C 16.28125 -9.191406 16.019531 -9.296875 15.71875 -9.296875 L 6.328125 -9.296875 C 6.109375 -9.296875 5.890625 -9.347656 5.671875 -9.453125 C 5.460938 -9.566406 5.28125 -9.679688 5.125 -9.796875 L 1.921875 -12.921875 C 1.554688 -13.285156 1.375 -13.742188 1.375 -14.296875 Z M 1.375 -14.296875 "/></g></g></g><g fill="#000000" fill-opacity="1"><g transform="translate(212.917874, 194.179446)"><g><path d="M 21.53125 -16.71875 C 21.894531 -16.351562 22.078125 -15.894531 22.078125 -15.34375 L 22.078125 -9.9375 C 22.078125 -9.726562 22.023438 -9.515625 21.921875 -9.296875 C 21.816406 -9.085938 21.6875 -8.90625 21.53125 -8.75 L 17.40625 -4.625 C 17.039062 -4.257812 16.597656 -4.078125 16.078125 -4.078125 L 5.90625 -4.078125 L 5.90625 -0.828125 C 5.90625 -0.640625 5.835938 -0.476562 5.703125 -0.34375 C 5.566406 -0.207031 5.40625 -0.140625 5.21875 -0.140625 L 2.0625 -0.140625 C 1.875 -0.140625 1.710938 -0.207031 1.578125 -0.34375 C 1.441406 -0.476562 1.375 -0.640625 1.375 -0.828125 L 1.375 -20.5625 C 1.375 -20.75 1.441406 -20.910156 1.578125 -21.046875 C 1.710938 -21.179688 1.875 -21.25 2.0625 -21.25 L 16.21875 -21.25 C 16.675781 -21.25 17.070312 -21.082031 17.40625 -20.75 Z M 17.265625 -11.125 L 17.265625 -14.296875 C 17.265625 -14.472656 17.222656 -14.625 17.140625 -14.75 L 16.90625 -15.03125 L 15.53125 -16.5 C 15.3125 -16.707031 15.050781 -16.8125 14.75 -16.8125 L 5.90625 -16.8125 L 5.90625 -8.609375 L 14.796875 -8.609375 C 15.015625 -8.609375 15.242188 -8.734375 15.484375 -8.984375 L 16.953125 -10.359375 C 17.160156 -10.566406 17.265625 -10.820312 17.265625 -11.125 Z M 17.265625 -11.125 "/></g></g></g><g fill="#000000" fill-opacity="1"><g transform="translate(236.367123, 194.179446)"><g><path d="M 20.75 -21.25 C 20.9375 -21.25 21.097656 -21.179688 21.234375 -21.046875 C 21.367188 -20.910156 21.4375 -20.75 21.4375 -20.5625 L 21.4375 -0.6875 C 21.4375 -0.5 21.367188 -0.335938 21.234375 -0.203125 C 21.097656 -0.0664062 20.9375 0 20.75 0 L 17.3125 0 C 17.132812 0 16.972656 -0.0664062 16.828125 -0.203125 C 16.691406 -0.335938 16.625 -0.5 16.625 -0.6875 L 16.625 -8.390625 L 6.1875 -8.390625 L 6.1875 -0.6875 C 6.1875 -0.5 6.113281 -0.335938 5.96875 -0.203125 C 5.832031 -0.0664062 5.675781 0 5.5 0 L 2.0625 0 C 1.875 0 1.710938 -0.0664062 1.578125 -0.203125 C 1.441406 -0.335938 1.375 -0.5 1.375 -0.6875 L 1.375 -20.5625 C 1.375 -20.75 1.441406 -20.910156 1.578125 -21.046875 C 1.710938 -21.179688 1.875 -21.25 2.0625 -21.25 L 5.5 -21.25 C 5.675781 -21.25 5.832031 -21.179688 5.96875 -21.046875 C 6.113281 -20.910156 6.1875 -20.75 6.1875 -20.5625 L 6.1875 -12.921875 L 16.625 -12.921875 L 16.625 -20.5625 C 16.625 -20.75 16.691406 -20.910156 16.828125 -21.046875 C 16.972656 -21.179688 17.132812 -21.25 17.3125 -21.25 Z M 20.75 -21.25 "/></g></g></g><g fill="#000000" fill-opacity="1"><g transform="translate(259.175184, 194.179446)"><g><path d="M 6.5 -14.984375 C 6.289062 -14.765625 6.1875 -14.503906 6.1875 -14.203125 L 6.1875 -12.546875 L 19.109375 -12.546875 C 19.285156 -12.546875 19.441406 -12.476562 19.578125 -12.34375 C 19.722656 -12.207031 19.796875 -12.046875 19.796875 -11.859375 L 19.796875 -8.703125 C 19.796875 -8.515625 19.722656 -8.351562 19.578125 -8.21875 C 19.441406 -8.082031 19.285156 -8.015625 19.109375 -8.015625 L 6.1875 -8.015625 L 6.1875 -6.96875 C 6.1875 -6.8125 6.234375 -6.65625 6.328125 -6.5 L 6.546875 -6.234375 L 7.921875 -4.765625 C 8.140625 -4.546875 8.398438 -4.4375 8.703125 -4.4375 L 21.34375 -4.4375 C 21.53125 -4.4375 21.691406 -4.367188 21.828125 -4.234375 C 21.960938 -4.097656 22.03125 -3.9375 22.03125 -3.75 L 22.03125 -0.6875 C 22.03125 -0.5 21.960938 -0.335938 21.828125 -0.203125 C 21.691406 -0.0664062 21.53125 0 21.34375 0 L 7.234375 0 C 6.773438 0 6.378906 -0.164062 6.046875 -0.5 L 1.921875 -4.53125 C 1.554688 -4.894531 1.375 -5.351562 1.375 -5.90625 L 1.375 -15.390625 C 1.375 -15.640625 1.429688 -15.867188 1.546875 -16.078125 C 1.671875 -16.296875 1.796875 -16.460938 1.921875 -16.578125 L 6.046875 -20.703125 C 6.410156 -21.066406 6.851562 -21.25 7.375 -21.25 L 21.34375 -21.25 C 21.53125 -21.25 21.691406 -21.179688 21.828125 -21.046875 C 21.960938 -20.910156 22.03125 -20.75 22.03125 -20.5625 L 22.03125 -17.40625 C 22.03125 -17.226562 21.960938 -17.066406 21.828125 -16.921875 C 21.691406 -16.785156 21.53125 -16.71875 21.34375 -16.71875 L 8.65625 -16.71875 C 8.445312 -16.71875 8.21875 -16.597656 7.96875 -16.359375 Z M 6.5 -14.984375 "/></g></g></g><g fill="#000000" fill-opacity="1"><g transform="translate(282.578638, 194.179446)"><g><path d="M 22.125 -9.890625 C 22.125 -9.679688 22.070312 -9.46875 21.96875 -9.25 C 21.863281 -9.039062 21.734375 -8.859375 21.578125 -8.703125 L 18.78125 -5.90625 L 21.890625 -0.96875 C 22.046875 -0.75 22.0625 -0.53125 21.9375 -0.3125 C 21.820312 -0.101562 21.625 0 21.34375 0 L 17.90625 0 C 17.632812 0 17.40625 -0.132812 17.21875 -0.40625 L 14.984375 -4.03125 L 5.90625 -4.03125 L 5.90625 -0.6875 C 5.90625 -0.5 5.835938 -0.335938 5.703125 -0.203125 C 5.566406 -0.0664062 5.40625 0 5.21875 0 L 2.0625 0 C 1.875 0 1.710938 -0.0664062 1.578125 -0.203125 C 1.441406 -0.335938 1.375 -0.5 1.375 -0.6875 L 1.375 -20.5625 C 1.375 -20.75 1.441406 -20.910156 1.578125 -21.046875 C 1.710938 -21.179688 1.875 -21.25 2.0625 -21.25 L 16.265625 -21.25 C 16.722656 -21.25 17.117188 -21.082031 17.453125 -20.75 L 21.578125 -16.71875 C 21.941406 -16.351562 22.125 -15.894531 22.125 -15.34375 Z M 5.90625 -16.8125 L 5.90625 -8.5625 L 14.84375 -8.5625 C 15.050781 -8.5625 15.28125 -8.6875 15.53125 -8.9375 L 17 -10.3125 C 17.207031 -10.519531 17.3125 -10.78125 17.3125 -11.09375 L 17.3125 -14.296875 C 17.3125 -14.472656 17.269531 -14.625 17.1875 -14.75 L 16.953125 -15.03125 L 15.578125 -16.5 C 15.359375 -16.707031 15.097656 -16.8125 14.796875 -16.8125 Z M 5.90625 -16.8125 "/></g></g></g><g fill="#000000" fill-opacity="1"><g transform="translate(306.073682, 194.179446)"><g><path d="M 6.5 -14.984375 C 6.289062 -14.765625 6.1875 -14.503906 6.1875 -14.203125 L 6.1875 -12.546875 L 19.109375 -12.546875 C 19.285156 -12.546875 19.441406 -12.476562 19.578125 -12.34375 C 19.722656 -12.207031 19.796875 -12.046875 19.796875 -11.859375 L 19.796875 -8.703125 C 19.796875 -8.515625 19.722656 -8.351562 19.578125 -8.21875 C 19.441406 -8.082031 19.285156 -8.015625 19.109375 -8.015625 L 6.1875 -8.015625 L 6.1875 -6.96875 C 6.1875 -6.8125 6.234375 -6.65625 6.328125 -6.5 L 6.546875 -6.234375 L 7.921875 -4.765625 C 8.140625 -4.546875 8.398438 -4.4375 8.703125 -4.4375 L 21.34375 -4.4375 C 21.53125 -4.4375 21.691406 -4.367188 21.828125 -4.234375 C 21.960938 -4.097656 22.03125 -3.9375 22.03125 -3.75 L 22.03125 -0.6875 C 22.03125 -0.5 21.960938 -0.335938 21.828125 -0.203125 C 21.691406 -0.0664062 21.53125 0 21.34375 0 L 7.234375 0 C 6.773438 0 6.378906 -0.164062 6.046875 -0.5 L 1.921875 -4.53125 C 1.554688 -4.894531 1.375 -5.351562 1.375 -5.90625 L 1.375 -15.390625 C 1.375 -15.640625 1.429688 -15.867188 1.546875 -16.078125 C 1.671875 -16.296875 1.796875 -16.460938 1.921875 -16.578125 L 6.046875 -20.703125 C 6.410156 -21.066406 6.851562 -21.25 7.375 -21.25 L 21.34375 -21.25 C 21.53125 -21.25 21.691406 -21.179688 21.828125 -21.046875 C 21.960938 -20.910156 22.03125 -20.75 22.03125 -20.5625 L 22.03125 -17.40625 C 22.03125 -17.226562 21.960938 -17.066406 21.828125 -16.921875 C 21.691406 -16.785156 21.53125 -16.71875 21.34375 -16.71875 L 8.65625 -16.71875 C 8.445312 -16.71875 8.21875 -16.597656 7.96875 -16.359375 Z M 6.5 -14.984375 "/></g></g></g><path fill="#000000" d="M 169.203125 174.265625 C 169.203125 174.265625 168.203125 173.265625 166.621094 173.480469 C 165.972656 173.558594 165.230469 173.792969 164.464844 174.480469 C 164.464844 174.480469 162.097656 173.207031 160.710938 175.222656 C 160.710938 175.222656 159.496094 174.96875 158.480469 175.496094 C 157.8125 175.847656 157.421875 176.535156 157.285156 177.277344 C 157.226562 177.628906 157.070312 178.140625 156.699219 178.433594 C 156.699219 178.433594 154.683594 179.507812 156.445312 182.542969 C 156.445312 182.542969 156.109375 184.324219 157.597656 185.535156 C 158.222656 186.023438 159.554688 186.574219 160.296875 185.535156 C 160.355469 185.457031 160.476562 185.496094 160.496094 185.574219 C 160.613281 186.222656 161.042969 187.765625 162.351562 188.472656 C 163.917969 189.3125 166.285156 188.375 166.285156 188.375 C 167.441406 188.472656 168.066406 190.3125 168.066406 190.3125 C 168.476562 191.777344 168.378906 192.601562 168.378906 192.601562 C 168.636719 193.324219 170.75 193.050781 170.75 193.050781 L 171.003906 191.074219 C 175.777344 192.25 175.835938 189.019531 175.835938 189.019531 C 179.046875 188.921875 178.164062 187.042969 178.164062 187.042969 C 179.496094 186.023438 178.417969 185.164062 178.417969 185.164062 C 180.828125 183.695312 178.378906 182.757812 178.378906 182.757812 C 178.515625 181.269531 177.519531 181.09375 177.519531 181.09375 C 178.496094 178.199219 175.5625 178.042969 175.5625 178.042969 C 176.226562 174.910156 172.46875 175.4375 172.46875 175.4375 C 172.292969 173.441406 170.554688 174.421875 170.554688 174.421875 C 170.277344 173.246094 169.203125 174.265625 169.203125 174.265625 Z M 169.203125 174.265625 " fill-opacity="1" fill-rule="nonzero"/><path fill="#ffffff" d="M 179.496094 183.695312 C 179.4375 183.324219 179.125 183.03125 178.59375 182.796875 C 178.476562 182.738281 178.398438 182.601562 178.4375 182.464844 C 178.476562 182.347656 178.496094 182.210938 178.476562 182.074219 C 178.4375 181.738281 178.222656 181.40625 177.832031 181.113281 C 177.753906 181.054688 177.714844 180.9375 177.734375 180.839844 C 177.832031 180.429688 177.949219 179.625 177.519531 178.941406 C 177.226562 178.453125 176.699219 178.121094 175.972656 177.960938 C 175.835938 177.941406 175.757812 177.804688 175.777344 177.667969 C 175.816406 177.296875 175.816406 176.691406 175.425781 176.183594 C 174.9375 175.554688 174.035156 175.242188 172.726562 175.242188 C 172.609375 175.242188 172.488281 175.164062 172.46875 175.046875 C 172.351562 174.636719 172.15625 174.34375 171.863281 174.207031 C 171.511719 174.03125 171.121094 174.109375 170.828125 174.207031 C 170.710938 174.246094 170.550781 174.1875 170.511719 174.070312 C 170.472656 173.992188 170.414062 173.910156 170.335938 173.851562 C 170.121094 173.714844 169.808594 173.753906 169.359375 173.992188 C 169.28125 174.03125 169.164062 174.03125 169.085938 173.972656 C 168.558594 173.597656 166.875 172.738281 164.566406 174.226562 C 164.484375 174.265625 164.386719 174.285156 164.308594 174.246094 C 163.78125 173.992188 162.195312 173.460938 160.75 175.007812 C 160.691406 175.066406 160.59375 175.105469 160.515625 175.085938 C 159.984375 175.007812 158.359375 174.871094 157.578125 176.085938 C 157.382812 176.378906 157.285156 176.710938 157.246094 177.082031 C 157.246094 177.179688 157.207031 177.335938 157.148438 177.492188 C 156.933594 178.023438 156.679688 178.257812 156.421875 178.492188 C 156.226562 178.6875 156.011719 178.902344 155.835938 179.253906 C 155.835938 179.273438 155.816406 179.292969 155.816406 179.292969 C 155.757812 179.507812 155.40625 180.898438 156.324219 182.484375 C 156.34375 182.523438 156.363281 182.582031 156.363281 182.640625 C 156.34375 183.011719 156.304688 184.1875 156.777344 184.832031 C 156.816406 184.890625 157.734375 186.125 158.929688 186.203125 C 158.96875 186.203125 158.988281 186.203125 159.027344 186.203125 C 159.398438 186.203125 159.75 186.085938 160.082031 185.847656 C 160.238281 185.730469 160.476562 185.828125 160.496094 186.023438 C 160.515625 186.105469 160.515625 186.144531 160.515625 186.164062 C 160.828125 187.375 161.433594 188.21875 162.332031 188.648438 C 163.859375 189.371094 166.207031 188.570312 166.207031 188.570312 C 168.183594 189.039062 168.320312 192.25 168.320312 192.269531 C 168.320312 192.5625 168.398438 192.796875 168.578125 192.972656 C 168.851562 193.226562 169.28125 193.285156 169.691406 193.285156 C 169.945312 193.285156 170.179688 193.265625 170.375 193.246094 C 170.453125 193.246094 170.511719 193.226562 170.574219 193.226562 C 170.730469 193.207031 170.847656 193.109375 170.886719 192.972656 C 171.023438 192.464844 171.042969 191.972656 171.042969 191.601562 C 171.042969 191.425781 171.199219 191.308594 171.375 191.347656 C 171.882812 191.464844 172.351562 191.523438 172.785156 191.523438 C 173.527344 191.523438 174.171875 191.347656 174.722656 190.996094 C 175.699219 190.371094 175.992188 189.371094 176.070312 189.039062 C 176.128906 189.039062 176.1875 189.039062 176.226562 189.039062 C 176.953125 189.039062 177.5 188.863281 177.871094 188.511719 C 178.476562 187.921875 178.359375 187.082031 178.359375 187.0625 L 178.320312 187.0625 C 178.4375 186.984375 178.535156 186.886719 178.613281 186.789062 C 178.96875 186.359375 178.871094 185.886719 178.851562 185.808594 C 178.851562 185.691406 178.8125 185.574219 178.753906 185.476562 C 178.695312 185.378906 178.714844 185.242188 178.792969 185.164062 C 179.105469 184.8125 179.59375 184.265625 179.496094 183.695312 Z M 175.289062 176.28125 C 175.640625 176.75 175.640625 177.316406 175.601562 177.648438 C 175.582031 177.824219 175.523438 177.960938 175.523438 177.980469 C 175.503906 178.003906 175.503906 178.023438 175.523438 178.0625 C 175.542969 178.082031 175.5625 178.101562 175.582031 178.101562 C 175.601562 178.101562 175.738281 178.101562 175.777344 178.101562 C 176.539062 178.21875 177.089844 178.53125 177.382812 179.019531 C 177.792969 179.683594 177.636719 180.527344 177.539062 180.859375 C 177.519531 180.957031 177.441406 180.957031 177.421875 180.917969 C 177.128906 180.410156 176.699219 180.058594 176.679688 180.019531 C 176.265625 179.644531 175.816406 179.625 175.464844 179.742188 C 175.289062 179.800781 175.113281 179.625 175.132812 179.449219 C 175.328125 178.160156 175.152344 177.296875 174.605469 176.886719 C 174.113281 176.515625 173.449219 176.613281 172.980469 176.75 C 172.804688 176.808594 172.628906 176.671875 172.648438 176.476562 C 172.667969 176.183594 172.648438 175.925781 172.628906 175.730469 C 172.609375 175.574219 172.726562 175.4375 172.902344 175.4375 C 174.054688 175.4375 174.878906 175.730469 175.289062 176.28125 Z M 160.335938 185.359375 C 159.90625 185.808594 159.417969 186.023438 158.929688 186.003906 C 157.832031 185.945312 156.933594 184.734375 156.933594 184.714844 C 156.445312 184.027344 156.5625 182.5625 156.5625 182.5625 L 156.542969 182.503906 C 155.640625 181.054688 155.894531 179.703125 155.972656 179.410156 C 155.972656 179.371094 155.992188 179.332031 156.011719 179.3125 C 156.167969 179 156.363281 178.824219 156.5625 178.648438 C 156.816406 178.394531 157.089844 178.140625 157.324219 177.570312 C 157.382812 177.433594 157.421875 177.277344 157.441406 177.101562 C 157.460938 176.769531 157.578125 176.457031 157.734375 176.203125 C 158.398438 175.203125 159.730469 175.203125 160.355469 175.28125 C 160.375 175.28125 160.632812 175.398438 160.75 175.339844 C 160.886719 175.28125 161.042969 175.027344 161.101562 174.96875 C 162.449219 173.695312 163.820312 174.207031 164.269531 174.421875 C 164.367188 174.460938 164.425781 174.5 164.507812 174.5 C 164.585938 174.5 164.742188 174.363281 164.839844 174.304688 C 165.054688 174.1875 165.25 174.070312 165.445312 173.972656 C 165.484375 173.949219 165.640625 173.890625 165.71875 173.890625 C 165.992188 173.851562 166.5625 173.851562 166.992188 174.1875 C 167.34375 174.460938 167.519531 174.929688 167.519531 175.554688 L 167.714844 175.554688 C 167.714844 174.851562 167.519531 174.34375 167.109375 174.03125 L 166.777344 173.8125 C 166.699219 173.753906 166.738281 173.597656 166.835938 173.597656 C 168.261719 173.460938 169.105469 174.226562 169.164062 174.265625 L 169.222656 174.304688 L 169.28125 174.265625 C 169.867188 173.910156 170.121094 173.929688 170.238281 174.011719 C 170.316406 174.050781 170.355469 174.148438 170.375 174.226562 C 170.238281 174.128906 170.082031 174.089844 169.925781 174.109375 C 169.339844 174.167969 168.753906 174.988281 168.496094 175.378906 C 168.4375 175.457031 168.359375 175.515625 168.261719 175.496094 C 167.988281 175.476562 167.753906 175.535156 167.578125 175.671875 C 167.324219 175.886719 167.226562 176.222656 167.207031 176.4375 C 167.1875 176.535156 167.128906 176.613281 167.03125 176.652344 C 166.285156 176.925781 165.835938 177.277344 165.679688 177.6875 C 165.5625 178.023438 165.640625 178.355469 165.894531 178.726562 C 166.128906 179.078125 166.480469 179.351562 166.914062 179.507812 C 167.421875 179.703125 167.695312 179.9375 167.753906 180.195312 C 167.792969 180.371094 167.714844 180.527344 167.636719 180.625 C 167.597656 180.683594 167.539062 180.703125 167.480469 180.722656 C 166.660156 180.9375 165.992188 181.582031 165.660156 181.953125 C 165.582031 182.054688 165.425781 182.074219 165.328125 181.992188 C 165.152344 181.875 164.996094 181.796875 164.839844 181.738281 C 164.703125 181.699219 164.625 181.5625 164.664062 181.425781 C 164.703125 181.25 164.800781 181.113281 164.859375 181.015625 C 165.015625 180.800781 165.09375 180.605469 165.132812 180.390625 C 165.269531 179.625 164.742188 179.117188 164.40625 178.902344 C 164.191406 178.765625 164.054688 178.570312 163.976562 178.394531 C 163.566406 177.355469 165.015625 176.554688 165.035156 176.554688 L 165.054688 176.535156 C 165.367188 176.183594 165.484375 175.886719 165.367188 175.652344 C 165.09375 175.066406 163.546875 175.164062 163.371094 175.183594 C 162.882812 175.222656 162.609375 175.417969 162.46875 175.59375 C 162.390625 175.691406 162.273438 175.710938 162.15625 175.652344 C 161.785156 175.476562 161.414062 175.4375 161.023438 175.535156 C 159.867188 175.789062 158.988281 177.0625 158.753906 177.414062 C 158.714844 177.472656 158.65625 177.511719 158.597656 177.53125 C 158.398438 177.589844 158.222656 177.6875 158.066406 177.84375 C 157.5 178.414062 157.558594 179.46875 157.597656 179.898438 C 157.617188 180.019531 157.558594 180.117188 157.460938 180.15625 C 156.953125 180.410156 156.855469 180.761719 156.835938 180.839844 C 156.542969 181.542969 156.796875 182.191406 157.519531 182.621094 C 157.8125 182.796875 158.046875 183.011719 158.203125 183.246094 C 158.558594 183.773438 158.4375 184.070312 158.4375 184.070312 L 158.4375 184.089844 C 158.398438 184.304688 158.460938 184.5 158.597656 184.65625 C 158.96875 185.105469 159.925781 185.203125 160.277344 185.242188 C 160.335938 185.28125 160.355469 185.339844 160.335938 185.359375 Z M 163.019531 181.933594 C 162.882812 181.933594 162.648438 181.914062 162.53125 181.796875 C 162.46875 181.71875 162.449219 181.621094 162.46875 181.464844 C 162.46875 181.445312 162.53125 180.273438 161.570312 180.019531 C 161.570312 180.019531 161.433594 179.976562 161.414062 180.078125 C 161.394531 180.195312 161.511719 180.195312 161.511719 180.195312 C 162.332031 180.410156 162.273438 181.40625 162.273438 181.445312 C 162.234375 181.640625 162.273438 181.796875 162.371094 181.914062 C 162.390625 181.933594 162.410156 181.953125 162.429688 181.972656 C 162.570312 182.074219 162.550781 182.269531 162.410156 182.386719 C 162.390625 182.40625 162.371094 182.425781 162.332031 182.445312 C 162.273438 182.484375 162.214844 182.503906 162.136719 182.503906 C 161.628906 182.464844 161.21875 182.582031 160.925781 182.894531 C 160.476562 183.363281 160.355469 184.128906 160.355469 184.8125 C 160.355469 184.96875 160.21875 185.085938 160.0625 185.066406 C 159.652344 185.027344 158.988281 184.910156 158.714844 184.578125 C 158.617188 184.460938 158.578125 184.324219 158.597656 184.167969 C 158.617188 184.089844 158.714844 183.734375 158.339844 183.167969 C 158.164062 182.894531 157.910156 182.679688 157.597656 182.484375 C 157.148438 182.210938 156.660156 181.738281 156.992188 180.9375 L 156.992188 180.917969 C 156.992188 180.917969 157.167969 180.058594 159.027344 180.097656 L 159.027344 179.898438 C 158.988281 179.898438 158.949219 179.898438 158.929688 179.898438 C 158.597656 179.898438 158.320312 179.9375 158.066406 179.976562 C 157.910156 180.019531 157.773438 179.898438 157.753906 179.742188 C 157.714844 179.273438 157.734375 178.472656 158.183594 178.023438 C 158.4375 177.765625 158.8125 177.648438 159.300781 177.707031 C 159.339844 177.707031 159.4375 177.726562 159.457031 177.628906 C 159.476562 177.53125 159.339844 177.511719 159.320312 177.492188 C 159.183594 177.414062 159.125 177.238281 159.222656 177.101562 C 159.613281 176.613281 160.277344 175.925781 161.023438 175.769531 C 161.433594 175.671875 161.84375 175.75 162.214844 175.988281 C 162.253906 176.007812 162.3125 176.027344 162.390625 176.007812 C 162.449219 175.988281 162.46875 175.925781 162.511719 175.867188 C 162.589844 175.730469 162.804688 175.476562 163.351562 175.417969 C 163.78125 175.378906 164.976562 175.398438 165.152344 175.789062 C 165.25 175.988281 165.054688 176.242188 164.878906 176.4375 C 164.761719 176.515625 163.878906 177.023438 163.703125 177.785156 C 163.683594 177.902344 163.566406 177.980469 163.429688 177.980469 C 163.058594 177.960938 162.390625 177.980469 161.785156 178.316406 L 161.589844 178.238281 C 161.53125 178.199219 161.199219 177.980469 160.75 177.824219 C 160.632812 177.785156 160.554688 177.667969 160.574219 177.53125 L 160.671875 176.90625 C 160.671875 176.90625 160.691406 176.789062 160.59375 176.789062 C 160.496094 176.769531 160.476562 176.886719 160.476562 176.886719 L 160.375 177.472656 C 160.355469 177.609375 160.21875 177.707031 160.082031 177.6875 C 160.003906 177.6875 159.945312 177.667969 159.867188 177.667969 C 159.828125 177.667969 159.769531 177.667969 159.75 177.746094 C 159.75 177.84375 159.847656 177.84375 159.886719 177.863281 C 160.75 177.882812 161.453125 178.394531 161.453125 178.394531 L 161.550781 178.433594 C 161.257812 178.628906 160.964844 178.921875 160.75 179.3125 C 160.632812 179.507812 160.453125 179.664062 160.238281 179.761719 C 160.003906 179.859375 159.75 179.878906 159.476562 179.820312 L 159.4375 180.019531 C 159.554688 180.039062 159.671875 180.058594 159.769531 180.058594 C 159.945312 180.058594 160.140625 180.019531 160.296875 179.957031 C 160.554688 179.859375 160.769531 179.664062 160.90625 179.429688 C 161.6875 178.003906 163.253906 178.160156 163.585938 178.199219 C 163.625 178.199219 163.664062 178.238281 163.664062 178.277344 C 163.683594 178.355469 163.703125 178.433594 163.722656 178.511719 C 163.820312 178.746094 163.996094 178.941406 164.230469 179.117188 C 164.527344 179.3125 164.996094 179.742188 164.878906 180.410156 C 164.839844 180.585938 164.761719 180.78125 164.625 180.957031 C 164.546875 181.054688 164.445312 181.25 164.386719 181.464844 C 164.367188 181.582031 164.25 181.660156 164.132812 181.660156 C 163.761719 181.660156 163.410156 181.738281 163.117188 181.875 C 163.175781 181.914062 163.058594 181.933594 163.019531 181.933594 Z M 170.730469 192.894531 C 170.710938 192.953125 170.652344 193.011719 170.574219 193.011719 C 170.511719 193.011719 170.453125 193.03125 170.375 193.03125 C 169.90625 193.070312 169.105469 193.148438 168.734375 192.816406 C 168.597656 192.679688 168.515625 192.503906 168.535156 192.269531 C 168.535156 192.152344 168.417969 189.761719 167.070312 188.765625 C 166.894531 188.628906 166.953125 188.335938 167.1875 188.296875 C 167.285156 188.277344 167.363281 188.257812 167.460938 188.257812 C 167.578125 188.238281 167.695312 188.316406 167.734375 188.414062 C 167.929688 188.863281 168.222656 189.078125 168.4375 189.175781 C 168.558594 189.214844 168.617188 189.332031 168.597656 189.449219 C 168.558594 189.820312 168.617188 190.117188 168.792969 190.292969 C 168.949219 190.449219 169.144531 190.488281 169.300781 190.488281 C 169.398438 190.488281 169.496094 190.546875 169.535156 190.625 C 169.730469 190.996094 169.964844 191.230469 170.257812 191.328125 C 170.375 191.367188 170.492188 191.367188 170.59375 191.367188 C 170.75 191.367188 170.867188 191.464844 170.886719 191.621094 C 170.886719 191.953125 170.867188 192.425781 170.730469 192.894531 Z M 174.625 190.800781 C 173.742188 191.367188 172.546875 191.445312 171.042969 191.015625 L 171.023438 191.015625 C 170.945312 190.996094 170.710938 191.152344 170.554688 191.152344 C 170.472656 191.152344 170.394531 191.152344 170.316406 191.113281 C 170.0625 191.035156 169.847656 190.800781 169.671875 190.429688 C 169.652344 190.390625 169.652344 190.273438 169.59375 190.234375 C 169.515625 190.195312 169.476562 190.253906 169.4375 190.273438 C 169.320312 190.292969 169.085938 190.292969 168.949219 190.136719 C 168.792969 189.976562 168.753906 189.683594 168.851562 189.292969 C 168.851562 189.253906 168.910156 189.117188 168.890625 189.058594 C 168.851562 189 168.753906 189.019531 168.734375 189.019531 C 168.617188 189 168.320312 188.921875 168.085938 188.570312 C 167.96875 188.394531 168.085938 188.179688 168.300781 188.160156 C 171.023438 188 173.410156 188.921875 173.449219 188.941406 C 173.761719 189.019531 174.035156 189.058594 174.289062 189.058594 C 174.582031 189.058594 174.820312 189 175.015625 188.902344 C 175.035156 188.902344 175.09375 188.882812 175.113281 188.882812 C 175.289062 188.921875 175.445312 188.941406 175.601562 188.960938 C 175.777344 188.980469 175.875 189.15625 175.816406 189.3125 C 175.621094 189.742188 175.289062 190.371094 174.625 190.800781 Z M 177.734375 188.335938 C 177.304688 188.746094 176.601562 188.882812 175.621094 188.765625 C 175.445312 188.746094 175.347656 188.550781 175.40625 188.394531 C 175.503906 188.179688 175.523438 187.941406 175.523438 187.765625 C 175.523438 187.609375 175.640625 187.492188 175.796875 187.492188 C 176.621094 187.53125 177.285156 187.453125 177.773438 187.277344 C 177.96875 187.199219 178.164062 187.375 178.125 187.570312 C 178.085938 187.824219 177.96875 188.121094 177.734375 188.335938 Z M 178.574219 185.046875 C 178.496094 185.105469 178.398438 185.125 178.320312 185.105469 C 178.027344 184.988281 177.65625 185.007812 177.460938 185.007812 C 177.382812 185.007812 177.324219 185.046875 177.324219 185.105469 C 177.324219 185.164062 177.402344 185.203125 177.5 185.183594 C 177.753906 185.164062 178.203125 185.183594 178.457031 185.378906 C 178.574219 185.476562 178.636719 185.59375 178.636719 185.75 L 178.636719 185.769531 C 178.636719 185.769531 178.753906 186.203125 178.4375 186.59375 C 178.144531 186.964844 177.382812 187.375 175.445312 187.257812 C 175.425781 187.257812 175.386719 187.21875 175.308594 187.277344 C 175.230469 187.355469 175.289062 187.394531 175.308594 187.433594 C 175.328125 187.628906 175.386719 188.21875 175.035156 188.570312 C 174.722656 188.863281 174.191406 188.921875 173.46875 188.726562 C 173.449219 188.726562 173.449219 188.726562 173.429688 188.726562 C 173.175781 188.628906 169.691406 187.335938 166.324219 188.238281 C 166.304688 188.238281 166.304688 188.238281 166.285156 188.257812 C 166.070312 188.355469 164.015625 189.214844 162.410156 188.453125 C 161.570312 188.039062 160.984375 187.257812 160.691406 186.105469 C 160.691406 186.085938 160.238281 183.871094 161.082031 183.011719 C 161.355469 182.738281 161.726562 182.621094 162.195312 182.679688 C 162.214844 182.679688 162.3125 182.699219 162.371094 182.679688 C 162.429688 182.660156 162.492188 182.5625 162.570312 182.484375 C 162.941406 182.152344 164.074219 181.328125 165.328125 182.269531 C 165.367188 182.308594 165.445312 182.386719 165.542969 182.367188 C 165.640625 182.347656 165.660156 182.289062 165.757812 182.171875 C 166.050781 181.816406 166.777344 181.054688 167.65625 180.898438 C 167.714844 180.878906 167.773438 180.878906 167.832031 180.878906 C 168.378906 180.839844 168.890625 181.015625 169.378906 181.445312 C 169.417969 181.484375 169.496094 181.542969 169.59375 181.542969 C 169.691406 181.542969 169.691406 181.445312 169.730469 181.367188 C 169.828125 181.171875 170.101562 180.820312 170.867188 180.761719 C 170.90625 180.761719 171.023438 180.761719 171.003906 180.664062 C 171.003906 180.566406 170.90625 180.566406 170.847656 180.585938 C 170.199219 180.625 169.847656 180.878906 169.671875 181.113281 C 169.574219 181.230469 169.417969 181.25 169.300781 181.152344 C 168.949219 180.878906 168.558594 180.722656 168.164062 180.703125 C 168.007812 180.683594 167.910156 180.546875 167.929688 180.410156 C 167.949219 180.332031 167.949219 180.273438 167.929688 180.195312 C 167.871094 179.859375 167.539062 179.585938 166.972656 179.351562 C 166.582031 179.195312 166.265625 178.960938 166.03125 178.648438 C 165.816406 178.335938 165.757812 178.042969 165.835938 177.785156 C 165.972656 177.394531 166.460938 177.042969 167.285156 176.789062 L 167.34375 176.691406 C 167.34375 176.691406 167.34375 176.125 167.65625 175.847656 C 167.832031 175.710938 168.085938 175.671875 168.398438 175.730469 L 168.496094 175.691406 C 168.496094 175.671875 169.222656 174.382812 169.886719 174.304688 C 170.0625 174.285156 170.21875 174.363281 170.355469 174.519531 L 170.472656 174.539062 C 170.472656 174.539062 171.21875 174.109375 171.746094 174.363281 C 172.058594 174.519531 172.253906 174.871094 172.3125 175.4375 C 172.3125 175.457031 172.746094 177.394531 171.492188 177.980469 C 171.335938 178.0625 171.140625 178.101562 170.925781 178.121094 C 170.59375 178.140625 170.023438 178.21875 169.789062 178.609375 C 169.652344 178.84375 169.671875 179.117188 169.828125 179.46875 C 169.828125 179.488281 170.003906 179.917969 170.472656 180.078125 C 170.828125 180.195312 171.238281 180.117188 171.6875 179.839844 C 171.726562 179.820312 171.804688 179.742188 171.746094 179.683594 C 171.6875 179.625 171.609375 179.683594 171.550781 179.703125 C 171.160156 179.9375 170.808594 179.996094 170.511719 179.917969 C 170.140625 179.800781 169.984375 179.429688 169.984375 179.429688 C 169.847656 179.136719 169.847656 178.921875 169.945312 178.746094 C 170.140625 178.433594 170.691406 178.375 170.925781 178.355469 C 171.179688 178.335938 171.394531 178.296875 171.570312 178.199219 C 172.019531 177.980469 172.273438 177.628906 172.410156 177.257812 C 172.429688 177.179688 172.488281 177.140625 172.546875 177.101562 C 172.941406 176.945312 173.839844 176.632812 174.40625 177.0625 C 174.957031 177.472656 175.074219 178.453125 174.761719 179.957031 C 174.761719 179.957031 174.664062 180.195312 174.664062 180.195312 C 174.644531 180.253906 174.625 180.3125 174.585938 180.371094 C 174.210938 181.191406 173.234375 183.03125 171.570312 183.753906 C 170.632812 184.167969 169.613281 184.167969 168.558594 183.753906 C 168.476562 183.734375 168.359375 183.65625 168.28125 183.714844 C 168.203125 183.753906 168.203125 183.832031 168.164062 183.949219 C 168.066406 184.246094 167.851562 184.753906 167.324219 185.007812 C 166.757812 185.28125 165.972656 185.183594 165.035156 184.695312 C 164.957031 184.65625 164.898438 184.578125 164.800781 184.597656 C 164.703125 184.597656 164.664062 184.636719 164.605469 184.675781 C 164.25 184.929688 163.097656 185.59375 161.863281 184.480469 C 161.824219 184.441406 161.707031 184.34375 161.648438 184.402344 C 161.589844 184.460938 161.667969 184.558594 161.707031 184.597656 C 161.921875 184.792969 162.117188 184.929688 162.332031 185.027344 C 162.429688 185.066406 162.492188 185.183594 162.46875 185.28125 C 162.429688 185.632812 162.390625 186.320312 162.46875 186.632812 C 162.492188 186.671875 162.492188 186.730469 162.550781 186.730469 C 162.6875 186.710938 162.648438 186.613281 162.648438 186.574219 C 162.609375 186.359375 162.628906 185.90625 162.648438 185.496094 C 162.667969 185.339844 162.804688 185.222656 162.960938 185.261719 C 163.722656 185.398438 164.367188 185.066406 164.664062 184.871094 C 164.742188 184.8125 164.839844 184.8125 164.9375 184.851562 C 165.582031 185.183594 166.148438 185.339844 166.640625 185.339844 C 166.933594 185.339844 167.1875 185.28125 167.421875 185.164062 C 167.929688 184.910156 168.183594 184.460938 168.320312 184.128906 C 168.378906 183.988281 168.515625 183.910156 168.65625 183.96875 C 169.730469 184.34375 170.75 184.34375 171.6875 183.929688 C 173.527344 183.128906 174.523438 181.09375 174.859375 180.3125 C 174.878906 180.273438 174.917969 180.234375 174.957031 180.195312 C 175.25 179.996094 175.894531 179.664062 176.5 180.195312 C 176.519531 180.195312 177.617188 181.113281 177.460938 182.09375 C 177.363281 182.71875 176.777344 183.265625 175.71875 183.675781 L 175.660156 183.753906 C 175.660156 183.773438 175.503906 185.398438 174.464844 186.125 C 173.957031 186.496094 173.3125 186.574219 172.546875 186.398438 C 172.527344 186.398438 172.488281 186.378906 172.46875 186.359375 C 172.292969 186.261719 171.746094 185.925781 171.335938 186.023438 C 171.199219 186.066406 171.082031 186.125 171.023438 186.261719 C 171.023438 186.261719 170.808594 186.652344 170.394531 186.75 C 170.121094 186.808594 169.828125 186.75 169.515625 186.535156 C 169.496094 186.515625 169.476562 186.496094 169.457031 186.476562 C 169.398438 186.398438 169.261719 186.261719 169.027344 186.203125 C 168.714844 186.125 168.359375 186.242188 167.949219 186.535156 C 167.949219 186.535156 167.167969 187.121094 166.582031 187.042969 C 166.402344 187.023438 166.246094 186.925781 166.148438 186.769531 L 166.011719 186.75 C 166.011719 186.75 165.699219 187.003906 165.269531 186.925781 C 164.878906 186.847656 164.527344 186.535156 164.191406 185.964844 C 164.191406 185.964844 164.152344 185.867188 164.054688 185.925781 C 163.957031 185.984375 164.015625 186.066406 164.015625 186.066406 C 164.367188 186.671875 164.78125 187.023438 165.210938 187.101562 C 165.484375 187.140625 165.699219 187.082031 165.875 187.023438 C 165.972656 186.984375 166.070312 187.003906 166.148438 187.0625 C 166.265625 187.140625 166.382812 187.199219 166.542969 187.21875 C 166.601562 187.21875 166.640625 187.238281 166.699219 187.238281 C 167.34375 187.238281 168.027344 186.710938 168.066406 186.691406 C 168.417969 186.4375 168.734375 186.339844 168.96875 186.398438 C 169.066406 186.417969 169.144531 186.457031 169.203125 186.515625 C 169.28125 186.574219 169.417969 186.730469 169.457031 186.75 C 169.808594 186.964844 170.140625 187.042969 170.453125 186.964844 C 170.945312 186.847656 171.199219 186.378906 171.199219 186.378906 C 171.238281 186.300781 171.296875 186.261719 171.394531 186.242188 C 171.707031 186.164062 172.234375 186.457031 172.429688 186.574219 L 172.46875 186.59375 C 173.3125 186.808594 174.035156 186.710938 174.625 186.300781 C 175.523438 185.671875 175.796875 184.460938 175.875 183.988281 C 175.894531 183.910156 175.953125 183.832031 176.03125 183.792969 C 176.402344 183.636719 176.699219 183.460938 176.953125 183.265625 C 176.953125 183.265625 176.992188 183.265625 177.011719 183.265625 C 177.578125 183.363281 177.832031 183.675781 177.910156 183.851562 C 177.949219 183.929688 178.007812 183.988281 178.046875 183.96875 C 178.085938 183.949219 178.125 183.871094 178.066406 183.773438 C 177.988281 183.617188 177.8125 183.382812 177.480469 183.226562 C 177.324219 183.148438 177.265625 182.972656 177.382812 182.835938 C 177.539062 182.621094 177.636719 182.386719 177.675781 182.152344 C 177.675781 182.113281 177.695312 182.054688 177.695312 181.992188 C 177.714844 181.699219 178.085938 181.621094 178.203125 181.894531 C 178.242188 181.972656 178.261719 182.054688 178.261719 182.132812 C 178.300781 182.484375 178.085938 182.71875 178.085938 182.71875 L 178.007812 182.796875 L 177.753906 182.953125 C 177.753906 182.953125 177.597656 183.03125 177.675781 183.128906 C 177.753906 183.226562 177.871094 183.109375 177.871094 183.109375 L 178.085938 182.972656 C 178.164062 182.933594 178.242188 182.914062 178.320312 182.953125 C 178.890625 183.167969 179.203125 183.441406 179.261719 183.773438 C 179.398438 184.246094 178.851562 184.8125 178.574219 185.046875 Z M 178.574219 185.046875 " fill-opacity="1" fill-rule="nonzero"/><g clip-path="url(#7406c086c6)"><path fill="#000000" d="M 154.546875 171.71875 C 154.546875 171.71875 151.21875 176.457031 151.21875 176.496094 C 151.160156 176.632812 149.535156 180.996094 149.535156 180.996094 L 150.730469 188.039062 L 150.847656 188.394531 L 153.332031 193.558594 L 158.164062 197.550781 L 166.640625 200.507812 L 176.660156 197.648438 L 181.394531 194.207031 L 184.703125 187.941406 L 185.171875 180.351562 L 183.136719 173.207031 L 177.578125 168.394531 L 171.082031 164.949219 L 164.308594 164.851562 L 159.066406 167.964844 Z M 179.398438 188.121094 L 179.554688 183.5 L 184.328125 187.84375 L 179.4375 188.238281 L 179.476562 188.082031 Z M 179.417969 183.050781 L 179.398438 183.03125 L 176.050781 174.363281 L 183.058594 177.394531 Z M 151.785156 181.445312 L 157.148438 175.867188 L 155.40625 184.5 L 155.386719 184.519531 Z M 155.171875 184.65625 L 151.0625 187.882812 L 151.707031 181.679688 Z M 157.421875 175.691406 L 161.394531 180.996094 L 155.660156 184.402344 Z M 174.542969 185.046875 L 171.882812 175.828125 L 175.640625 174.226562 Z M 175.855469 174.539062 L 179.222656 183.265625 L 174.761719 185.398438 Z M 165.875 185.105469 L 169.183594 181.152344 L 174.289062 185.59375 Z M 169.164062 180.722656 L 166.402344 176.164062 L 171.550781 175.886719 Z M 169.339844 180.9375 L 171.726562 176.085938 L 174.386719 185.320312 Z M 166.660156 171.191406 L 175.308594 174.089844 L 171.765625 175.613281 Z M 171.433594 175.652344 L 166.285156 175.925781 L 166.402344 171.308594 Z M 169.027344 180.957031 L 165.855469 184.734375 L 166.265625 176.417969 Z M 165.601562 184.929688 L 161.746094 181.035156 L 166.03125 176.4375 Z M 166.050781 175.886719 L 157.675781 175.4375 L 166.167969 171.132812 Z M 165.972656 176.125 L 161.589844 180.859375 L 157.734375 175.691406 Z M 162 189.136719 L 155.679688 184.695312 L 161.472656 181.25 Z M 161.726562 181.347656 L 165.5625 185.242188 L 162.234375 189.078125 Z M 165.679688 185.476562 L 167.636719 190.605469 L 162.371094 189.3125 Z M 165.894531 185.359375 L 174.25 185.828125 L 167.910156 190.664062 Z M 166.5 170.878906 L 168.734375 167.648438 L 175.347656 173.832031 Z M 166.285156 170.761719 L 162.292969 168.296875 L 168.457031 167.628906 Z M 166.070312 170.917969 L 157.636719 175.203125 L 161.960938 168.375 Z M 159.574219 193.050781 L 156.011719 191.015625 L 155.660156 185.417969 Z M 155.757812 185.046875 L 161.941406 189.390625 L 159.847656 193.089844 Z M 162.15625 189.546875 L 162.175781 189.527344 L 167.519531 190.839844 L 160.160156 193.070312 Z M 167.851562 190.9375 L 169.378906 194.8125 L 160.238281 193.324219 Z M 168.125 190.800781 L 173.996094 186.320312 L 173.78125 186.691406 L 169.59375 194.65625 Z M 174.5625 185.925781 L 179.046875 188.355469 L 169.945312 194.578125 Z M 174.742188 185.691406 L 179.300781 183.519531 L 179.144531 188.160156 Z M 183.3125 177.453125 L 184.898438 180.253906 L 179.789062 182.953125 Z M 184.582031 179.214844 L 183.449219 177.21875 L 183.214844 174.851562 Z M 182.84375 173.675781 L 183.214844 177.199219 L 176.304688 174.207031 L 182.726562 173.285156 Z M 182.585938 173.050781 L 175.992188 173.992188 L 177.597656 168.726562 Z M 175.757812 173.890625 L 169.046875 167.628906 L 177.363281 168.609375 Z M 176.914062 168.296875 L 168.890625 167.355469 L 171.003906 165.183594 Z M 170.671875 165.183594 L 168.617188 167.277344 L 164.664062 165.085938 Z M 164.40625 165.242188 L 168.300781 167.394531 L 162.195312 168.0625 Z M 164.074219 165.261719 L 161.84375 168.101562 L 159.398438 168.003906 Z M 159.203125 168.238281 L 161.589844 168.335938 L 161.6875 168.355469 L 161.648438 168.414062 L 157.636719 174.734375 Z M 151.394531 176.632812 L 156.992188 175.671875 L 151.707031 181.152344 L 151.375 176.652344 Z M 151.179688 177.21875 L 151.472656 181.289062 L 149.808594 180.917969 Z M 149.789062 181.171875 L 151.453125 181.542969 L 150.847656 187.375 Z M 151.023438 188.335938 L 151.042969 188.238281 L 155.386719 184.832031 L 155.40625 184.851562 L 155.777344 190.878906 L 151.140625 188.53125 Z M 151.296875 188.902344 L 155.640625 191.09375 L 153.507812 193.363281 Z M 153.703125 193.539062 L 155.796875 191.289062 L 158.066406 197.179688 Z M 156.089844 191.328125 L 159.710938 193.402344 L 158.378906 197.257812 Z M 158.578125 197.453125 L 159.90625 193.597656 L 166.1875 200.09375 Z M 166.621094 200.175781 L 160.199219 193.539062 L 169.398438 195.046875 Z M 166.894531 200.175781 L 169.652344 195.105469 L 176.226562 197.53125 Z M 176.539062 197.394531 L 169.867188 194.929688 L 179.066406 188.648438 Z M 176.835938 197.238281 L 179.28125 188.746094 L 181.121094 194.128906 Z M 181.296875 193.890625 L 179.417969 188.453125 L 184.386719 188.058594 Z M 184.503906 187.648438 L 179.691406 183.285156 L 184.9375 180.507812 Z M 154.839844 171.796875 L 158.949219 168.316406 L 157.285156 175.125 Z M 157.128906 175.398438 L 151.570312 176.359375 L 154.625 172.074219 L 157.011719 175.222656 L 157.03125 175.242188 Z M 157.128906 175.398438 " fill-opacity="1" fill-rule="nonzero"/><path fill="#ffffff" d="M 157.363281 174.851562 C 157.070312 174.851562 156.816406 175.085938 156.816406 175.398438 C 156.816406 175.710938 157.050781 175.945312 157.363281 175.945312 C 157.675781 175.945312 157.910156 175.710938 157.910156 175.398438 C 157.910156 175.085938 157.65625 174.851562 157.363281 174.851562 Z M 166.285156 171.601562 C 166.582031 171.601562 166.835938 171.367188 166.835938 171.054688 C 166.835938 170.742188 166.582031 170.507812 166.285156 170.507812 C 165.992188 170.507812 165.738281 170.742188 165.738281 171.054688 C 165.738281 171.367188 165.992188 171.601562 166.285156 171.601562 Z M 161.804688 168.785156 C 162.097656 168.785156 162.351562 168.550781 162.351562 168.238281 C 162.351562 167.925781 162.117188 167.6875 161.804688 167.6875 C 161.511719 167.6875 161.257812 167.925781 161.257812 168.238281 C 161.257812 168.550781 161.511719 168.785156 161.804688 168.785156 Z M 179.4375 182.699219 C 179.144531 182.699219 178.890625 182.933594 178.890625 183.246094 C 178.890625 183.558594 179.125 183.792969 179.4375 183.792969 C 179.75 183.792969 179.984375 183.558594 179.984375 183.246094 C 179.984375 182.933594 179.75 182.699219 179.4375 182.699219 Z M 183.332031 176.710938 C 183.039062 176.710938 182.785156 176.945312 182.785156 177.257812 C 182.785156 177.570312 183.019531 177.804688 183.332031 177.804688 C 183.644531 177.804688 183.878906 177.570312 183.878906 177.257812 C 183.878906 176.945312 183.644531 176.710938 183.332031 176.710938 Z M 176.34375 174.011719 C 176.34375 173.714844 176.089844 173.460938 175.796875 173.460938 C 175.503906 173.460938 175.25 173.695312 175.25 174.011719 C 175.25 174.324219 175.484375 174.558594 175.796875 174.558594 C 176.109375 174.558594 176.34375 174.324219 176.34375 174.011719 Z M 150.769531 187.804688 C 151.0625 187.804688 151.316406 188.058594 151.316406 188.355469 C 151.316406 188.648438 151.0625 188.902344 150.769531 188.902344 C 150.476562 188.902344 150.21875 188.648438 150.21875 188.355469 C 150.21875 188.058594 150.476562 187.804688 150.769531 187.804688 Z M 151.257812 176.007812 C 151.550781 176.007812 151.804688 176.261719 151.804688 176.554688 C 151.804688 176.847656 151.550781 177.101562 151.257812 177.101562 C 150.964844 177.101562 150.710938 176.847656 150.710938 176.554688 C 150.710938 176.261719 150.945312 176.007812 151.257812 176.007812 Z M 155.816406 190.507812 C 156.109375 190.507812 156.363281 190.761719 156.363281 191.054688 C 156.363281 191.347656 156.109375 191.601562 155.816406 191.601562 C 155.523438 191.601562 155.269531 191.347656 155.269531 191.054688 C 155.269531 190.761719 155.523438 190.507812 155.816406 190.507812 Z M 158.417969 196.964844 C 158.714844 196.964844 158.96875 197.21875 158.96875 197.511719 C 158.96875 197.804688 158.714844 198.058594 158.417969 198.058594 C 158.125 198.058594 157.871094 197.804688 157.871094 197.511719 C 157.871094 197.21875 158.105469 196.964844 158.417969 196.964844 Z M 166.582031 199.683594 C 166.285156 199.683594 166.03125 199.917969 166.03125 200.234375 C 166.03125 200.546875 166.285156 200.78125 166.582031 200.78125 C 166.875 200.78125 167.128906 200.546875 167.128906 200.234375 C 167.128906 199.917969 166.894531 199.683594 166.582031 199.683594 Z M 159.144531 167.570312 C 159.4375 167.570312 159.691406 167.824219 159.691406 168.121094 C 159.691406 168.414062 159.4375 168.667969 159.144531 168.667969 C 158.851562 168.667969 158.597656 168.414062 158.597656 168.121094 C 158.597656 167.824219 158.851562 167.570312 159.144531 167.570312 Z M 185.054688 179.742188 C 184.761719 179.742188 184.503906 179.976562 184.503906 180.292969 C 184.503906 180.605469 184.742188 180.839844 185.054688 180.839844 C 185.367188 180.839844 185.601562 180.605469 185.601562 180.292969 C 185.601562 179.976562 185.347656 179.742188 185.054688 179.742188 Z M 184.582031 187.335938 C 184.289062 187.335938 184.035156 187.570312 184.035156 187.882812 C 184.035156 188.199219 184.269531 188.433594 184.582031 188.433594 C 184.898438 188.433594 185.132812 188.199219 185.132812 187.882812 C 185.132812 187.570312 184.878906 187.335938 184.582031 187.335938 Z M 176.621094 197.003906 C 176.324219 197.003906 176.070312 197.238281 176.070312 197.550781 C 176.070312 197.863281 176.304688 198.097656 176.621094 198.097656 C 176.933594 198.097656 177.167969 197.863281 177.167969 197.550781 C 177.167969 197.238281 176.914062 197.003906 176.621094 197.003906 Z M 171.492188 165.066406 C 171.492188 164.773438 171.257812 164.519531 170.945312 164.519531 C 170.632812 164.519531 170.394531 164.753906 170.394531 165.066406 C 170.394531 165.378906 170.632812 165.613281 170.945312 165.613281 C 171.257812 165.613281 171.492188 165.359375 171.492188 165.066406 Z M 177.5 167.863281 C 177.207031 167.863281 176.953125 168.101562 176.953125 168.414062 C 176.953125 168.707031 177.1875 168.960938 177.5 168.960938 C 177.8125 168.960938 178.046875 168.726562 178.046875 168.414062 C 178.046875 168.101562 177.792969 167.863281 177.5 167.863281 Z M 183.253906 173.109375 C 183.253906 172.816406 183 172.5625 182.707031 172.5625 C 182.410156 172.5625 182.15625 172.796875 182.15625 173.109375 C 182.15625 173.421875 182.390625 173.65625 182.707031 173.65625 C 183.019531 173.65625 183.253906 173.421875 183.253906 173.109375 Z M 169.710938 194.34375 C 169.417969 194.34375 169.164062 194.578125 169.164062 194.890625 C 169.164062 195.203125 169.398438 195.4375 169.710938 195.4375 C 170.023438 195.4375 170.257812 195.203125 170.257812 194.890625 C 170.257812 194.578125 170.023438 194.34375 169.710938 194.34375 Z M 155.464844 184.207031 C 155.757812 184.207031 156.011719 184.460938 156.011719 184.753906 C 156.011719 185.046875 155.757812 185.300781 155.464844 185.300781 C 155.171875 185.300781 154.917969 185.046875 154.917969 184.753906 C 154.917969 184.460938 155.171875 184.207031 155.464844 184.207031 Z M 151.609375 180.898438 C 151.316406 180.898438 151.0625 181.132812 151.0625 181.445312 C 151.0625 181.757812 151.296875 181.992188 151.609375 181.992188 C 151.921875 181.992188 152.15625 181.757812 152.15625 181.445312 C 152.15625 181.132812 151.902344 180.898438 151.609375 180.898438 Z M 179.261719 187.804688 C 179.554688 187.804688 179.808594 188.058594 179.808594 188.355469 C 179.808594 188.648438 179.554688 188.902344 179.261719 188.902344 C 178.96875 188.902344 178.714844 188.648438 178.714844 188.355469 C 178.714844 188.058594 178.96875 187.804688 179.261719 187.804688 Z M 159.867188 192.816406 C 159.574219 192.816406 159.320312 193.050781 159.320312 193.363281 C 159.320312 193.675781 159.574219 193.910156 159.867188 193.910156 C 160.160156 193.910156 160.414062 193.675781 160.414062 193.363281 C 160.414062 193.050781 160.160156 192.816406 159.867188 192.816406 Z M 168.714844 167.945312 C 169.007812 167.945312 169.261719 167.707031 169.261719 167.394531 C 169.261719 167.082031 169.027344 166.847656 168.714844 166.847656 C 168.398438 166.847656 168.164062 167.082031 168.164062 167.394531 C 168.164062 167.707031 168.398438 167.945312 168.714844 167.945312 Z M 164.367188 164.5 C 164.074219 164.5 163.820312 164.734375 163.820312 165.046875 C 163.820312 165.359375 164.074219 165.59375 164.367188 165.59375 C 164.664062 165.59375 164.917969 165.359375 164.917969 165.046875 C 164.917969 164.734375 164.683594 164.5 164.367188 164.5 Z M 153.429688 193.109375 C 153.136719 193.109375 152.882812 193.34375 152.882812 193.65625 C 152.882812 193.96875 153.117188 194.207031 153.429688 194.207031 C 153.742188 194.207031 153.976562 193.96875 153.976562 193.65625 C 153.976562 193.34375 153.742188 193.109375 153.429688 193.109375 Z M 181.238281 193.480469 C 180.945312 193.480469 180.691406 193.714844 180.691406 194.027344 C 180.691406 194.34375 180.945312 194.578125 181.238281 194.578125 C 181.53125 194.578125 181.785156 194.34375 181.785156 194.027344 C 181.785156 193.714844 181.550781 193.480469 181.238281 193.480469 Z M 166.207031 176.710938 C 166.5 176.710938 166.757812 176.476562 166.757812 176.164062 C 166.757812 175.847656 166.5 175.613281 166.207031 175.613281 C 165.914062 175.613281 165.660156 175.847656 165.660156 176.164062 C 165.660156 176.476562 165.894531 176.710938 166.207031 176.710938 Z M 171.746094 175.203125 C 171.453125 175.203125 171.199219 175.4375 171.199219 175.75 C 171.199219 176.066406 171.453125 176.300781 171.746094 176.300781 C 172.039062 176.300781 172.292969 176.066406 172.292969 175.75 C 172.292969 175.4375 172.039062 175.203125 171.746094 175.203125 Z M 162.117188 181.035156 C 162.117188 180.742188 161.882812 180.488281 161.570312 180.488281 C 161.257812 180.488281 161.023438 180.722656 161.023438 181.035156 C 161.023438 181.347656 161.257812 181.582031 161.570312 181.582031 C 161.882812 181.582031 162.117188 181.328125 162.117188 181.035156 Z M 169.183594 180.429688 C 169.476562 180.429688 169.730469 180.683594 169.730469 180.976562 C 169.730469 181.269531 169.476562 181.523438 169.183594 181.523438 C 168.890625 181.523438 168.636719 181.269531 168.636719 180.976562 C 168.636719 180.683594 168.871094 180.429688 169.183594 180.429688 Z M 165.71875 184.65625 C 166.011719 184.65625 166.265625 184.910156 166.265625 185.203125 C 166.265625 185.496094 166.011719 185.75 165.71875 185.75 C 165.425781 185.75 165.171875 185.496094 165.171875 185.203125 C 165.171875 184.910156 165.40625 184.65625 165.71875 184.65625 Z M 174.425781 185.144531 C 174.132812 185.144531 173.878906 185.378906 173.878906 185.691406 C 173.878906 186.003906 174.113281 186.242188 174.425781 186.242188 C 174.722656 186.242188 174.976562 186.003906 174.976562 185.691406 C 174.976562 185.378906 174.742188 185.144531 174.425781 185.144531 Z M 162.136719 188.824219 C 161.84375 188.824219 161.589844 189.058594 161.589844 189.371094 C 161.589844 189.664062 161.84375 189.917969 162.136719 189.917969 C 162.429688 189.917969 162.6875 189.683594 162.6875 189.371094 C 162.6875 189.078125 162.429688 188.824219 162.136719 188.824219 Z M 167.851562 190.3125 C 167.558594 190.3125 167.304688 190.546875 167.304688 190.859375 C 167.304688 191.171875 167.539062 191.40625 167.851562 191.40625 C 168.164062 191.40625 168.398438 191.171875 168.398438 190.859375 C 168.398438 190.546875 168.164062 190.3125 167.851562 190.3125 Z M 149.710938 180.390625 C 149.417969 180.390625 149.164062 180.625 149.164062 180.9375 C 149.164062 181.25 149.398438 181.484375 149.710938 181.484375 C 150.023438 181.484375 150.257812 181.25 150.257812 180.9375 C 150.257812 180.625 150.003906 180.390625 149.710938 180.390625 Z M 154.703125 171.328125 C 154.996094 171.328125 155.25 171.582031 155.25 171.875 C 155.25 172.171875 154.996094 172.425781 154.703125 172.425781 C 154.40625 172.425781 154.152344 172.171875 154.152344 171.875 C 154.152344 171.582031 154.40625 171.328125 154.703125 171.328125 Z M 154.703125 171.328125 " fill-opacity="1" fill-rule="nonzero"/></g></svg>