<svg version="1.0" xmlns="http://www.w3.org/2000/svg"
 width="auto" height="auto" viewBox="0 0 300.000000 200.000000"
 preserveAspectRatio="xMidYMid meet">
<g transform="translate(0.000000,200.000000) scale(0.100000,-0.100000)"
fill="currentColor" stroke="none">
<path d="M173 1260 c-17 -10 -38 -31 -45 -45 -8 -14 -29 -33 -48 -44 -53 -28
-74 -63 -74 -124 0 -28 6 -63 14 -77 7 -14 13 -43 11 -65 -3 -72 65 -145 136
-145 18 0 47 -9 65 -20 66 -40 172 -16 200 45 6 14 27 33 45 42 70 33 99 116
68 188 -10 22 -17 58 -16 80 3 73 -51 132 -131 143 -24 3 -56 14 -73 24 -40
24 -111 23 -152 -2z m139 -28 c6 -6 -14 -23 -49 -42 -32 -18 -61 -38 -65 -44
-4 -6 -8 -46 -8 -89 l0 -77 -25 16 c-23 15 -25 23 -25 85 0 88 19 135 62 154
33 15 94 13 110 -3z m144 -66 c22 -22 34 -44 34 -61 l0 -27 -47 28 c-27 15
-55 32 -63 37 -12 7 -34 -2 -83 -32 -37 -22 -70 -41 -72 -41 -3 0 -5 12 -5 28
0 23 10 32 68 64 87 48 123 49 168 4z m-346 -99 l0 -74 69 -39 c69 -39 70 -39
48 -56 -21 -16 -24 -15 -77 14 -77 42 -110 80 -110 124 0 53 28 100 63 103 4
1 7 -32 7 -72z m316 7 c36 -20 72 -47 81 -60 21 -32 19 -91 -4 -122 -35 -46
-43 -39 -43 36 l0 71 -77 42 c-69 38 -74 43 -58 56 26 18 29 18 101 -23z
m-116 -19 c25 -13 30 -22 30 -53 0 -31 -5 -40 -30 -54 -28 -16 -32 -16 -60 0
-25 14 -30 23 -30 54 0 30 5 40 28 52 34 19 28 19 62 1z m81 -45 c17 -9 19
-22 19 -100 0 -80 -2 -91 -25 -118 -31 -37 -72 -47 -116 -29 l-34 13 68 38 68
39 -3 83 c-2 46 -2 84 0 84 2 0 12 -5 23 -10z m-51 -107 c0 -24 -10 -33 -69
-65 -38 -21 -82 -38 -97 -38 -46 0 -91 34 -103 76 -6 21 -9 40 -6 42 2 2 31
-12 65 -32 33 -20 63 -36 64 -36 2 0 35 18 72 40 38 22 70 40 71 40 2 0 3 -12
3 -27z"/>
<path d="M820 1257 c-68 -36 -90 -87 -90 -204 0 -74 4 -102 20 -132 36 -72
111 -108 202 -98 62 8 101 29 135 74 26 34 28 44 31 142 3 96 1 110 -20 150
-33 61 -90 91 -173 91 -45 0 -74 -6 -105 -23z m189 -71 c23 -24 26 -35 30
-111 4 -103 -2 -129 -36 -161 -31 -28 -97 -33 -142 -9 -42 21 -54 60 -50 163
4 94 17 122 64 143 37 16 105 3 134 -25z"/>
<path d="M2353 1055 l-80 -225 42 0 c41 0 41 0 54 50 l13 50 94 0 93 0 14 -47
c14 -47 15 -48 57 -51 38 -3 42 -1 35 15 -4 10 -40 110 -80 223 l-73 205 -44
3 -45 3 -80 -226z m165 28 l28 -93 -72 0 -72 0 14 38 c7 20 23 71 35 112 25
84 22 87 67 -57z"/>
<path d="M2730 1245 l0 -35 48 0 47 0 0 -160 0 -160 -47 0 c-47 0 -48 -1 -48
-30 l0 -30 135 0 135 0 0 30 c0 29 -1 30 -50 30 l-50 0 0 160 0 160 50 0 50 0
0 35 0 35 -135 0 -135 0 0 -35z"/>
<path d="M1340 1160 c-19 -5 -43 -18 -52 -30 l-18 -22 0 26 c0 24 -4 26 -40
26 l-40 0 2 -222 3 -221 40 0 40 0 -4 77 -3 77 38 -26 c62 -42 146 -25 184 37
28 46 28 169 0 215 -33 55 -86 77 -150 63z m69 -86 c16 -20 21 -41 21 -84 0
-68 -18 -97 -67 -106 -27 -5 -37 -1 -63 24 -26 26 -30 38 -30 85 0 73 26 107
80 107 30 0 43 -6 59 -26z"/>
<path d="M1655 1156 c-16 -7 -41 -26 -55 -40 -21 -24 -25 -39 -29 -109 -4 -92
11 -132 57 -159 61 -35 153 -29 198 13 29 27 30 35 4 49 -16 9 -26 7 -47 -9
-38 -31 -96 -28 -122 5 -12 15 -21 35 -21 45 0 17 9 19 115 19 l114 0 -6 53
c-8 73 -27 105 -76 128 -49 22 -90 23 -132 5z m119 -68 c9 -12 16 -33 16 -45
0 -22 -4 -23 -76 -23 l-76 0 7 28 c11 43 34 62 76 62 28 0 42 -6 53 -22z"/>
<path d="M2050 1159 c-14 -5 -33 -20 -43 -32 l-19 -22 6 28 c6 26 5 27 -34 27
l-40 0 0 -165 0 -165 40 0 40 0 0 113 c0 106 2 115 23 135 27 25 65 28 93 8
17 -13 19 -29 22 -135 l4 -121 39 0 39 0 0 108 c0 123 -10 169 -44 201 -27 26
-89 36 -126 20z"/>
</g>
</svg>
