<svg xmlns="http://www.w3.org/2000/svg" xmlns:xlink="http://www.w3.org/1999/xlink" width="500" zoomAndPan="magnify" viewBox="0 0 375 374.999991" height="500" preserveAspectRatio="xMidYMid meet" version="1.0"><defs><g/></defs><rect x="-37.5" width="450" fill="#ffffff" y="-37.499999" height="449.999989" fill-opacity="1"/><rect x="-37.5" width="450" fill="#ffffff" y="-37.499999" height="449.999989" fill-opacity="1"/><g fill="#000000" fill-opacity="1"><g transform="translate(91.511161, 189.602858)"><g><path d="M 15.46875 -15.578125 C 15.9375 -14.640625 16.171875 -13.59375 16.171875 -12.4375 C 16.171875 -11.28125 15.9375 -10.234375 15.46875 -9.296875 C 15.007812 -8.367188 14.414062 -7.632812 13.6875 -7.09375 C 12.21875 -5.945312 10.691406 -5.375 9.109375 -5.375 L 5.78125 -5.375 L 5.78125 -2.375 C 5.78125 -1.96875 5.765625 -1.660156 5.734375 -1.453125 C 5.710938 -1.242188 5.628906 -1.007812 5.484375 -0.75 C 5.234375 -0.269531 4.539062 -0.03125 3.40625 -0.03125 C 2.164062 -0.03125 1.4375 -0.359375 1.21875 -1.015625 C 1.113281 -1.316406 1.0625 -1.773438 1.0625 -2.390625 L 1.0625 -17.1875 C 1.0625 -17.59375 1.070312 -17.894531 1.09375 -18.09375 C 1.125 -18.300781 1.210938 -18.539062 1.359375 -18.8125 C 1.609375 -19.289062 2.300781 -19.53125 3.4375 -19.53125 L 9.140625 -19.53125 C 10.703125 -19.53125 12.21875 -18.960938 13.6875 -17.828125 C 14.414062 -17.273438 15.007812 -16.523438 15.46875 -15.578125 Z M 9.140625 -10.09375 C 9.671875 -10.09375 10.191406 -10.285156 10.703125 -10.671875 C 11.222656 -11.066406 11.484375 -11.65625 11.484375 -12.4375 C 11.484375 -13.21875 11.222656 -13.804688 10.703125 -14.203125 C 10.191406 -14.609375 9.660156 -14.8125 9.109375 -14.8125 L 5.78125 -14.8125 L 5.78125 -10.09375 Z M 9.140625 -10.09375 "/></g></g></g><g fill="#000000" fill-opacity="1"><g transform="translate(109.491208, 189.602858)"><g><path d="M 1.0625 -17.1875 C 1.0625 -17.59375 1.070312 -17.894531 1.09375 -18.09375 C 1.125 -18.300781 1.210938 -18.539062 1.359375 -18.8125 C 1.609375 -19.289062 2.300781 -19.53125 3.4375 -19.53125 C 4.675781 -19.53125 5.410156 -19.203125 5.640625 -18.546875 C 5.734375 -18.242188 5.78125 -17.78125 5.78125 -17.15625 L 5.78125 -2.34375 C 5.78125 -1.914062 5.765625 -1.601562 5.734375 -1.40625 C 5.710938 -1.21875 5.628906 -0.988281 5.484375 -0.71875 C 5.234375 -0.238281 4.539062 0 3.40625 0 C 2.164062 0 1.4375 -0.335938 1.21875 -1.015625 C 1.113281 -1.296875 1.0625 -1.75 1.0625 -2.375 Z M 1.0625 -17.1875 "/></g></g></g><g fill="#000000" fill-opacity="1"><g transform="translate(117.48251, 189.602858)"><g><path d="M 13.078125 -9.890625 L 18.4375 -4 C 19.039062 -3.320312 19.34375 -2.75 19.34375 -2.28125 C 19.34375 -1.820312 19 -1.28125 18.3125 -0.65625 C 17.632812 -0.0390625 17.054688 0.265625 16.578125 0.265625 C 16.109375 0.265625 15.566406 -0.0859375 14.953125 -0.796875 L 9.890625 -6.609375 L 4.828125 -0.796875 C 4.179688 -0.0859375 3.628906 0.265625 3.171875 0.265625 C 2.722656 0.265625 2.148438 -0.046875 1.453125 -0.671875 C 0.753906 -1.304688 0.40625 -1.84375 0.40625 -2.28125 C 0.40625 -2.726562 0.710938 -3.300781 1.328125 -4 L 6.6875 -9.890625 L 1.328125 -15.765625 C 0.710938 -16.421875 0.40625 -16.976562 0.40625 -17.4375 C 0.40625 -17.90625 0.75 -18.453125 1.4375 -19.078125 C 2.132812 -19.710938 2.71875 -20.03125 3.1875 -20.03125 C 3.65625 -20.03125 4.203125 -19.675781 4.828125 -18.96875 L 9.890625 -13.15625 L 14.953125 -18.96875 C 15.585938 -19.675781 16.128906 -20.03125 16.578125 -20.03125 C 17.035156 -20.03125 17.609375 -19.71875 18.296875 -19.09375 C 18.992188 -18.476562 19.34375 -17.929688 19.34375 -17.453125 C 19.34375 -16.972656 19.039062 -16.410156 18.4375 -15.765625 Z M 13.078125 -9.890625 "/></g></g></g><g fill="#000000" fill-opacity="1"><g transform="translate(138.365947, 189.602858)"><g><path d="M 5.78125 -4.71875 L 13.984375 -4.71875 C 14.390625 -4.71875 14.695312 -4.703125 14.90625 -4.671875 C 15.113281 -4.648438 15.347656 -4.566406 15.609375 -4.421875 C 16.085938 -4.171875 16.328125 -3.476562 16.328125 -2.34375 C 16.328125 -1.101562 16 -0.375 15.34375 -0.15625 C 15.039062 -0.0507812 14.578125 0 13.953125 0 L 3.40625 0 C 2.164062 0 1.4375 -0.335938 1.21875 -1.015625 C 1.113281 -1.296875 1.0625 -1.75 1.0625 -2.375 L 1.0625 -17.1875 C 1.0625 -18.09375 1.226562 -18.707031 1.5625 -19.03125 C 1.90625 -19.363281 2.546875 -19.53125 3.484375 -19.53125 L 13.984375 -19.53125 C 14.390625 -19.53125 14.695312 -19.515625 14.90625 -19.484375 C 15.113281 -19.460938 15.347656 -19.378906 15.609375 -19.234375 C 16.085938 -18.984375 16.328125 -18.289062 16.328125 -17.15625 C 16.328125 -15.914062 16 -15.1875 15.34375 -14.96875 C 15.039062 -14.863281 14.578125 -14.8125 13.953125 -14.8125 L 5.78125 -14.8125 L 5.78125 -12.125 L 11.0625 -12.125 C 11.46875 -12.125 11.769531 -12.109375 11.96875 -12.078125 C 12.175781 -12.054688 12.414062 -11.972656 12.6875 -11.828125 C 13.164062 -11.578125 13.40625 -10.882812 13.40625 -9.75 C 13.40625 -8.507812 13.066406 -7.78125 12.390625 -7.5625 C 12.085938 -7.457031 11.625 -7.40625 11 -7.40625 L 5.78125 -7.40625 Z M 5.78125 -4.71875 "/></g></g></g><g fill="#000000" fill-opacity="1"><g transform="translate(156.50581, 189.602858)"><g><path d="M 5.78125 -3.9375 L 13.03125 -3.9375 C 13.613281 -3.9375 14.035156 -3.867188 14.296875 -3.734375 C 14.566406 -3.609375 14.742188 -3.398438 14.828125 -3.109375 C 14.921875 -2.828125 14.96875 -2.453125 14.96875 -1.984375 C 14.96875 -1.515625 14.921875 -1.132812 14.828125 -0.84375 C 14.742188 -0.5625 14.597656 -0.367188 14.390625 -0.265625 C 14.046875 -0.0859375 13.582031 0 13 0 L 3.40625 0 C 2.164062 0 1.4375 -0.335938 1.21875 -1.015625 C 1.113281 -1.296875 1.0625 -1.75 1.0625 -2.375 L 1.0625 -17.1875 C 1.0625 -17.59375 1.070312 -17.894531 1.09375 -18.09375 C 1.125 -18.300781 1.210938 -18.539062 1.359375 -18.8125 C 1.609375 -19.289062 2.300781 -19.53125 3.4375 -19.53125 C 4.675781 -19.53125 5.410156 -19.203125 5.640625 -18.546875 C 5.734375 -18.242188 5.78125 -17.78125 5.78125 -17.15625 Z M 5.78125 -3.9375 "/></g></g></g><g fill="#000000" fill-opacity="1"><g transform="translate(173.287202, 189.602858)"><g><path d="M 13.265625 -5.109375 L 13.75 -5.46875 C 14.351562 -5.820312 14.78125 -6 15.03125 -6 C 15.570312 -6 16.164062 -5.5 16.8125 -4.5 C 17.195312 -3.875 17.390625 -3.375 17.390625 -3 C 17.390625 -2.632812 17.269531 -2.328125 17.03125 -2.078125 C 16.789062 -1.828125 16.507812 -1.601562 16.1875 -1.40625 C 15.875 -1.21875 15.570312 -1.035156 15.28125 -0.859375 C 14.988281 -0.679688 14.390625 -0.445312 13.484375 -0.15625 C 12.578125 0.125 11.703125 0.265625 10.859375 0.265625 C 10.015625 0.265625 9.160156 0.15625 8.296875 -0.0625 C 7.429688 -0.289062 6.539062 -0.664062 5.625 -1.1875 C 4.71875 -1.707031 3.898438 -2.34375 3.171875 -3.09375 C 2.441406 -3.851562 1.84375 -4.820312 1.375 -6 C 0.90625 -7.1875 0.671875 -8.472656 0.671875 -9.859375 C 0.671875 -11.242188 0.898438 -12.5 1.359375 -13.625 C 1.816406 -14.75 2.40625 -15.679688 3.125 -16.421875 C 3.84375 -17.160156 4.664062 -17.78125 5.59375 -18.28125 C 7.332031 -19.238281 9.082031 -19.71875 10.84375 -19.71875 C 11.675781 -19.71875 12.519531 -19.585938 13.375 -19.328125 C 14.238281 -19.066406 14.894531 -18.804688 15.34375 -18.546875 L 15.984375 -18.171875 C 16.304688 -17.972656 16.554688 -17.8125 16.734375 -17.6875 C 17.191406 -17.3125 17.421875 -16.890625 17.421875 -16.421875 C 17.421875 -15.953125 17.234375 -15.460938 16.859375 -14.953125 C 16.171875 -13.984375 15.550781 -13.5 15 -13.5 C 14.675781 -13.5 14.222656 -13.695312 13.640625 -14.09375 C 12.890625 -14.695312 11.894531 -15 10.65625 -15 C 9.5 -15 8.363281 -14.597656 7.25 -13.796875 C 6.71875 -13.410156 6.269531 -12.859375 5.90625 -12.140625 C 5.550781 -11.429688 5.375 -10.628906 5.375 -9.734375 C 5.375 -8.835938 5.550781 -8.035156 5.90625 -7.328125 C 6.269531 -6.617188 6.722656 -6.054688 7.265625 -5.640625 C 8.347656 -4.859375 9.476562 -4.46875 10.65625 -4.46875 C 11.207031 -4.46875 11.726562 -4.539062 12.21875 -4.6875 C 12.707031 -4.832031 13.054688 -4.972656 13.265625 -5.109375 Z M 13.265625 -5.109375 "/></g></g></g><g fill="#000000" fill-opacity="1"><g transform="translate(192.519168, 189.602858)"><g><path d="M 16.015625 -3.296875 C 16.273438 -2.660156 16.40625 -2.203125 16.40625 -1.921875 C 16.40625 -1.242188 15.859375 -0.675781 14.765625 -0.21875 C 14.191406 0.03125 13.734375 0.15625 13.390625 0.15625 C 13.046875 0.15625 12.757812 0.0703125 12.53125 -0.09375 C 12.3125 -0.257812 12.148438 -0.429688 12.046875 -0.609375 C 11.867188 -0.953125 11.175781 -2.5625 9.96875 -5.4375 L 9.140625 -5.375 L 5.78125 -5.375 L 5.78125 -2.375 C 5.78125 -1.96875 5.765625 -1.660156 5.734375 -1.453125 C 5.710938 -1.242188 5.628906 -1.007812 5.484375 -0.75 C 5.234375 -0.269531 4.539062 -0.03125 3.40625 -0.03125 C 2.164062 -0.03125 1.4375 -0.359375 1.21875 -1.015625 C 1.113281 -1.316406 1.0625 -1.773438 1.0625 -2.390625 L 1.0625 -17.1875 C 1.0625 -17.59375 1.070312 -17.894531 1.09375 -18.09375 C 1.125 -18.300781 1.210938 -18.539062 1.359375 -18.8125 C 1.609375 -19.289062 2.300781 -19.53125 3.4375 -19.53125 L 9.1875 -19.53125 C 10.75 -19.53125 12.269531 -18.960938 13.75 -17.828125 C 14.457031 -17.273438 15.039062 -16.523438 15.5 -15.578125 C 15.96875 -14.640625 16.203125 -13.59375 16.203125 -12.4375 C 16.203125 -10.4375 15.535156 -8.785156 14.203125 -7.484375 C 14.585938 -6.546875 15.191406 -5.148438 16.015625 -3.296875 Z M 5.78125 -10.09375 L 9.1875 -10.09375 C 9.707031 -10.09375 10.222656 -10.285156 10.734375 -10.671875 C 11.253906 -11.066406 11.515625 -11.65625 11.515625 -12.4375 C 11.515625 -13.21875 11.253906 -13.804688 10.734375 -14.203125 C 10.222656 -14.609375 9.691406 -14.8125 9.140625 -14.8125 L 5.78125 -14.8125 Z M 5.78125 -10.09375 "/></g></g></g><g fill="#000000" fill-opacity="1"><g transform="translate(210.472578, 189.602858)"><g><path d="M 12.328125 -18.140625 L 19.53125 -3.28125 C 19.832031 -2.675781 19.984375 -2.222656 19.984375 -1.921875 C 19.984375 -1.273438 19.46875 -0.695312 18.4375 -0.1875 C 17.832031 0.113281 17.351562 0.265625 17 0.265625 C 16.65625 0.265625 16.375 0.179688 16.15625 0.015625 C 15.9375 -0.140625 15.773438 -0.304688 15.671875 -0.484375 C 15.578125 -0.660156 15.441406 -0.925781 15.265625 -1.28125 L 13.875 -4.15625 L 6.5 -4.15625 L 5.109375 -1.28125 C 4.929688 -0.925781 4.796875 -0.664062 4.703125 -0.5 C 4.609375 -0.34375 4.445312 -0.179688 4.21875 -0.015625 C 4 0.148438 3.710938 0.234375 3.359375 0.234375 C 3.015625 0.234375 2.539062 0.0820312 1.9375 -0.21875 C 0.914062 -0.707031 0.40625 -1.273438 0.40625 -1.921875 C 0.40625 -2.222656 0.554688 -2.675781 0.859375 -3.28125 L 8.046875 -18.171875 C 8.242188 -18.578125 8.539062 -18.90625 8.9375 -19.15625 C 9.332031 -19.40625 9.753906 -19.53125 10.203125 -19.53125 C 11.160156 -19.53125 11.867188 -19.066406 12.328125 -18.140625 Z M 10.171875 -11.75 L 8.421875 -8.09375 L 11.96875 -8.09375 Z M 10.171875 -11.75 "/></g></g></g><g fill="#000000" fill-opacity="1"><g transform="translate(231.995297, 189.602858)"><g><path d="M 13.984375 -19.53125 C 14.390625 -19.53125 14.695312 -19.515625 14.90625 -19.484375 C 15.113281 -19.460938 15.34375 -19.378906 15.59375 -19.234375 C 15.851562 -19.085938 16.035156 -18.847656 16.140625 -18.515625 C 16.242188 -18.179688 16.296875 -17.726562 16.296875 -17.15625 C 16.296875 -16.582031 16.242188 -16.128906 16.140625 -15.796875 C 16.035156 -15.460938 15.847656 -15.226562 15.578125 -15.09375 C 15.316406 -14.957031 15.082031 -14.875 14.875 -14.84375 C 14.675781 -14.820312 14.363281 -14.8125 13.9375 -14.8125 L 5.78125 -14.8125 L 5.78125 -12.125 L 11.03125 -12.125 C 11.457031 -12.125 11.769531 -12.109375 11.96875 -12.078125 C 12.175781 -12.054688 12.414062 -11.972656 12.6875 -11.828125 C 13.144531 -11.554688 13.375 -10.851562 13.375 -9.71875 C 13.375 -8.476562 13.035156 -7.742188 12.359375 -7.515625 C 12.078125 -7.421875 11.625 -7.375 11 -7.375 L 5.78125 -7.375 L 5.78125 -2.34375 C 5.78125 -1.914062 5.765625 -1.601562 5.734375 -1.40625 C 5.710938 -1.21875 5.628906 -0.988281 5.484375 -0.71875 C 5.234375 -0.238281 4.539062 0 3.40625 0 C 2.164062 0 1.4375 -0.335938 1.21875 -1.015625 C 1.113281 -1.296875 1.0625 -1.75 1.0625 -2.375 L 1.0625 -17.1875 C 1.0625 -18.09375 1.226562 -18.707031 1.5625 -19.03125 C 1.90625 -19.363281 2.546875 -19.53125 3.484375 -19.53125 Z M 13.984375 -19.53125 "/></g></g></g><g fill="#000000" fill-opacity="1"><g transform="translate(250.108523, 189.602858)"><g><path d="M 2.34375 -19.546875 L 17.15625 -19.546875 C 17.726562 -19.546875 18.144531 -19.476562 18.40625 -19.34375 C 18.675781 -19.21875 18.851562 -19.007812 18.9375 -18.71875 C 19.03125 -18.4375 19.078125 -18.066406 19.078125 -17.609375 C 19.078125 -17.148438 19.03125 -16.78125 18.9375 -16.5 C 18.851562 -16.226562 18.703125 -16.039062 18.484375 -15.9375 C 18.171875 -15.769531 17.71875 -15.6875 17.125 -15.6875 L 12.046875 -15.6875 L 12.046875 -2.296875 C 12.046875 -1.878906 12.03125 -1.570312 12 -1.375 C 11.976562 -1.1875 11.898438 -0.960938 11.765625 -0.703125 C 11.628906 -0.441406 11.390625 -0.257812 11.046875 -0.15625 C 10.710938 -0.0507812 10.269531 0 9.71875 0 C 9.164062 0 8.722656 -0.0507812 8.390625 -0.15625 C 8.066406 -0.257812 7.835938 -0.441406 7.703125 -0.703125 C 7.578125 -0.960938 7.5 -1.191406 7.46875 -1.390625 C 7.445312 -1.597656 7.4375 -1.90625 7.4375 -2.3125 L 7.4375 -15.6875 L 2.3125 -15.6875 C 1.75 -15.6875 1.332031 -15.753906 1.0625 -15.890625 C 0.800781 -16.023438 0.625 -16.234375 0.53125 -16.515625 C 0.445312 -16.796875 0.40625 -17.164062 0.40625 -17.625 C 0.40625 -18.09375 0.445312 -18.460938 0.53125 -18.734375 C 0.625 -19.015625 0.773438 -19.207031 0.984375 -19.3125 C 1.304688 -19.46875 1.757812 -19.546875 2.34375 -19.546875 Z M 2.34375 -19.546875 "/></g></g></g><g fill="#000000" fill-opacity="1"><g transform="translate(82.179704, 209.30341)"><g/></g></g><g fill="#000000" fill-opacity="1"><g transform="translate(92.304704, 209.30341)"><g><path d="M 0.984375 0 L 0.984375 -11.96875 L 5.90625 -11.96875 C 7.8125 -11.96875 8.765625 -10.8125 8.765625 -8.5 C 8.765625 -7.84375 8.703125 -7.28125 8.578125 -6.8125 C 8.453125 -6.34375 8.296875 -5.984375 8.109375 -5.734375 C 7.929688 -5.492188 7.703125 -5.304688 7.421875 -5.171875 C 7.140625 -5.035156 6.890625 -4.953125 6.671875 -4.921875 C 6.453125 -4.890625 6.195312 -4.875 5.90625 -4.875 C 5.582031 -4.875 4.890625 -4.921875 3.828125 -5.015625 C 2.773438 -5.117188 2.226562 -5.179688 2.1875 -5.203125 L 2.1875 0 Z M 2.1875 -6.078125 L 5.90625 -6.078125 C 6.425781 -6.078125 6.828125 -6.234375 7.109375 -6.546875 C 7.390625 -6.867188 7.53125 -7.519531 7.53125 -8.5 C 7.519531 -9 7.457031 -9.410156 7.34375 -9.734375 C 7.238281 -10.066406 7.09375 -10.296875 6.90625 -10.421875 C 6.71875 -10.554688 6.550781 -10.640625 6.40625 -10.671875 C 6.257812 -10.710938 6.09375 -10.734375 5.90625 -10.734375 L 2.1875 -10.734375 Z M 2.1875 -6.078125 "/></g></g></g><g fill="#000000" fill-opacity="1"><g transform="translate(106.609902, 209.30341)"><g><path d="M 0.984375 0 L 0.984375 -11.96875 L 6.078125 -11.96875 C 7.921875 -11.96875 8.84375 -10.769531 8.84375 -8.375 C 8.84375 -6.28125 8.148438 -5.132812 6.765625 -4.9375 L 9.28125 0 L 7.96875 0 L 5.453125 -4.890625 L 2.1875 -5.109375 L 2.1875 0 Z M 2.1875 -6.1875 L 6.078125 -6.1875 C 6.273438 -6.1875 6.425781 -6.191406 6.53125 -6.203125 C 6.644531 -6.222656 6.78125 -6.265625 6.9375 -6.328125 C 7.09375 -6.398438 7.210938 -6.507812 7.296875 -6.65625 C 7.378906 -6.800781 7.453125 -7.019531 7.515625 -7.3125 C 7.578125 -7.601562 7.609375 -7.957031 7.609375 -8.375 C 7.609375 -9.332031 7.46875 -9.960938 7.1875 -10.265625 C 6.90625 -10.578125 6.535156 -10.734375 6.078125 -10.734375 L 2.1875 -10.734375 Z M 2.1875 -6.1875 "/></g></g></g><g fill="#000000" fill-opacity="1"><g transform="translate(121.111275, 209.30341)"><g><path d="M 1.3125 -2.015625 L 1.3125 -9.84375 C 1.3125 -10.570312 1.488281 -11.109375 1.84375 -11.453125 C 2.207031 -11.796875 2.671875 -11.96875 3.234375 -11.96875 C 3.253906 -11.96875 3.273438 -11.96875 3.296875 -11.96875 C 3.316406 -11.96875 3.335938 -11.96875 3.359375 -11.96875 L 8.53125 -11.703125 L 8.53125 -10.75 L 3.359375 -10.75 C 3.097656 -10.75 2.898438 -10.695312 2.765625 -10.59375 C 2.628906 -10.488281 2.550781 -10.382812 2.53125 -10.28125 C 2.519531 -10.1875 2.515625 -10.039062 2.515625 -9.84375 L 2.515625 -6.5625 L 7.875 -6.40625 L 7.875 -5.4375 L 2.515625 -5.28125 L 2.515625 -2.015625 C 2.515625 -1.816406 2.539062 -1.65625 2.59375 -1.53125 C 2.65625 -1.40625 2.738281 -1.316406 2.84375 -1.265625 C 2.945312 -1.210938 3.039062 -1.179688 3.125 -1.171875 C 3.207031 -1.160156 3.328125 -1.15625 3.484375 -1.15625 C 3.484375 -1.15625 3.488281 -1.15625 3.5 -1.15625 C 3.507812 -1.15625 3.519531 -1.15625 3.53125 -1.15625 L 8.53125 -1.15625 L 8.53125 -0.234375 L 3.53125 0.046875 C 3.488281 0.046875 3.441406 0.046875 3.390625 0.046875 C 3.347656 0.0546875 3.304688 0.0625 3.265625 0.0625 C 2.992188 0.0625 2.75 0.0351562 2.53125 -0.015625 C 2.3125 -0.078125 2.109375 -0.179688 1.921875 -0.328125 C 1.734375 -0.484375 1.582031 -0.703125 1.46875 -0.984375 C 1.363281 -1.265625 1.3125 -1.609375 1.3125 -2.015625 Z M 1.3125 -2.015625 "/></g></g></g><g fill="#000000" fill-opacity="1"><g transform="translate(135.187613, 209.30341)"><g><path d="M 0.90625 -6.015625 C 0.90625 -8.085938 1.179688 -9.617188 1.734375 -10.609375 C 2.296875 -11.597656 3.347656 -12.09375 4.890625 -12.09375 C 6.078125 -12.09375 7.40625 -11.957031 8.875 -11.6875 L 8.875 -10.71875 L 8.734375 -10.71875 C 8.628906 -10.726562 8.492188 -10.738281 8.328125 -10.75 C 8.171875 -10.757812 7.984375 -10.769531 7.765625 -10.78125 C 7.554688 -10.789062 7.328125 -10.800781 7.078125 -10.8125 C 6.828125 -10.832031 6.578125 -10.847656 6.328125 -10.859375 C 6.085938 -10.867188 5.835938 -10.875 5.578125 -10.875 C 5.328125 -10.882812 5.097656 -10.890625 4.890625 -10.890625 C 4.179688 -10.890625 3.628906 -10.753906 3.234375 -10.484375 C 2.847656 -10.210938 2.5625 -9.722656 2.375 -9.015625 C 2.195312 -8.316406 2.109375 -7.304688 2.109375 -5.984375 C 2.109375 -2.734375 3.035156 -1.109375 4.890625 -1.109375 L 8.875 -1.21875 L 8.875 -0.265625 C 7.59375 -0.0234375 6.265625 0.09375 4.890625 0.09375 C 2.234375 0.09375 0.90625 -1.941406 0.90625 -6.015625 Z M 0.90625 -6.015625 "/></g></g></g><g fill="#000000" fill-opacity="1"><g transform="translate(149.443775, 209.30341)"><g><path d="M 1.3125 0 L 1.3125 -11.96875 L 2.515625 -11.96875 L 2.515625 0 Z M 1.3125 0 "/></g></g></g><g fill="#000000" fill-opacity="1"><g transform="translate(157.749375, 209.30341)"><g><path d="M 1.0625 -8.078125 L 1.0625 -9.15625 C 1.0625 -10.25 1.34375 -11.003906 1.90625 -11.421875 C 2.476562 -11.847656 3.273438 -12.0625 4.296875 -12.0625 C 5.035156 -12.0625 6.398438 -11.929688 8.390625 -11.671875 L 8.390625 -10.6875 L 4.296875 -10.859375 C 4.171875 -10.867188 4.054688 -10.875 3.953125 -10.875 C 3.398438 -10.875 2.976562 -10.753906 2.6875 -10.515625 C 2.40625 -10.285156 2.265625 -9.832031 2.265625 -9.15625 L 2.265625 -8.078125 C 2.265625 -7.398438 2.398438 -6.960938 2.671875 -6.765625 C 2.941406 -6.566406 3.363281 -6.46875 3.9375 -6.46875 L 6.265625 -6.46875 C 7.960938 -6.46875 8.8125 -5.53125 8.8125 -3.65625 L 8.8125 -2.546875 C 8.8125 -1.992188 8.71875 -1.53125 8.53125 -1.15625 C 8.34375 -0.789062 8.078125 -0.515625 7.734375 -0.328125 C 7.398438 -0.148438 7.054688 -0.03125 6.703125 0.03125 C 6.359375 0.09375 5.960938 0.125 5.515625 0.125 C 5.128906 0.125 4.453125 0.078125 3.484375 -0.015625 C 2.523438 -0.109375 1.835938 -0.195312 1.421875 -0.28125 L 1.421875 -1.265625 C 2.617188 -1.140625 3.984375 -1.078125 5.515625 -1.078125 C 6.898438 -1.078125 7.59375 -1.566406 7.59375 -2.546875 L 7.59375 -3.65625 C 7.59375 -4.164062 7.492188 -4.5625 7.296875 -4.84375 C 7.109375 -5.125 6.765625 -5.265625 6.265625 -5.265625 L 3.96875 -5.265625 C 3.351562 -5.265625 2.835938 -5.335938 2.421875 -5.484375 C 2.015625 -5.640625 1.71875 -5.863281 1.53125 -6.15625 C 1.351562 -6.457031 1.226562 -6.75 1.15625 -7.03125 C 1.09375 -7.320312 1.0625 -7.671875 1.0625 -8.078125 Z M 1.0625 -8.078125 "/></g></g></g><g fill="#000000" fill-opacity="1"><g transform="translate(172.103624, 209.30341)"><g><path d="M 1.3125 0 L 1.3125 -11.96875 L 2.515625 -11.96875 L 2.515625 0 Z M 1.3125 0 "/></g></g></g><g fill="#000000" fill-opacity="1"><g transform="translate(180.409225, 209.30341)"><g><path d="M 1.0625 -5.90625 C 1.0625 -6.8125 1.109375 -7.601562 1.203125 -8.28125 C 1.304688 -8.96875 1.460938 -9.535156 1.671875 -9.984375 C 1.878906 -10.429688 2.101562 -10.789062 2.34375 -11.0625 C 2.59375 -11.34375 2.90625 -11.554688 3.28125 -11.703125 C 3.664062 -11.847656 4.035156 -11.941406 4.390625 -11.984375 C 4.753906 -12.023438 5.191406 -12.046875 5.703125 -12.046875 C 6.148438 -12.046875 6.535156 -12.03125 6.859375 -12 C 7.179688 -11.96875 7.515625 -11.898438 7.859375 -11.796875 C 8.203125 -11.703125 8.484375 -11.566406 8.703125 -11.390625 C 8.929688 -11.210938 9.15625 -10.972656 9.375 -10.671875 C 9.59375 -10.367188 9.765625 -10 9.890625 -9.5625 C 10.015625 -9.132812 10.113281 -8.613281 10.1875 -8 C 10.269531 -7.394531 10.3125 -6.695312 10.3125 -5.90625 C 10.3125 -4.863281 10.242188 -3.976562 10.109375 -3.25 C 9.972656 -2.53125 9.785156 -1.953125 9.546875 -1.515625 C 9.316406 -1.078125 8.992188 -0.738281 8.578125 -0.5 C 8.171875 -0.269531 7.75 -0.117188 7.3125 -0.046875 C 6.882812 0.0234375 6.347656 0.0625 5.703125 0.0625 C 5.160156 0.0625 4.703125 0.0390625 4.328125 0 C 3.960938 -0.0390625 3.585938 -0.128906 3.203125 -0.265625 C 2.816406 -0.398438 2.503906 -0.601562 2.265625 -0.875 C 2.023438 -1.144531 1.804688 -1.492188 1.609375 -1.921875 C 1.421875 -2.359375 1.28125 -2.90625 1.1875 -3.5625 C 1.101562 -4.226562 1.0625 -5.007812 1.0625 -5.90625 Z M 2.265625 -5.90625 C 2.265625 -4.84375 2.316406 -4 2.421875 -3.375 C 2.523438 -2.757812 2.726562 -2.28125 3.03125 -1.9375 C 3.332031 -1.601562 3.675781 -1.382812 4.0625 -1.28125 C 4.457031 -1.1875 5.003906 -1.140625 5.703125 -1.140625 C 6.242188 -1.140625 6.6875 -1.175781 7.03125 -1.25 C 7.382812 -1.320312 7.703125 -1.453125 7.984375 -1.640625 C 8.273438 -1.828125 8.492188 -2.097656 8.640625 -2.453125 C 8.796875 -2.816406 8.910156 -3.273438 8.984375 -3.828125 C 9.066406 -4.378906 9.109375 -5.070312 9.109375 -5.90625 C 9.109375 -6.445312 9.085938 -6.929688 9.046875 -7.359375 C 9.015625 -7.796875 8.976562 -8.175781 8.9375 -8.5 C 8.894531 -8.820312 8.816406 -9.101562 8.703125 -9.34375 C 8.597656 -9.59375 8.5 -9.800781 8.40625 -9.96875 C 8.320312 -10.132812 8.191406 -10.273438 8.015625 -10.390625 C 7.847656 -10.503906 7.703125 -10.585938 7.578125 -10.640625 C 7.453125 -10.703125 7.265625 -10.742188 7.015625 -10.765625 C 6.773438 -10.796875 6.570312 -10.816406 6.40625 -10.828125 C 6.238281 -10.835938 6.003906 -10.84375 5.703125 -10.84375 C 5.398438 -10.84375 5.164062 -10.835938 5 -10.828125 C 4.84375 -10.816406 4.640625 -10.796875 4.390625 -10.765625 C 4.148438 -10.742188 3.960938 -10.703125 3.828125 -10.640625 C 3.703125 -10.585938 3.550781 -10.503906 3.375 -10.390625 C 3.207031 -10.273438 3.078125 -10.132812 2.984375 -9.96875 C 2.890625 -9.800781 2.785156 -9.59375 2.671875 -9.34375 C 2.566406 -9.101562 2.488281 -8.820312 2.4375 -8.5 C 2.394531 -8.175781 2.351562 -7.796875 2.3125 -7.359375 C 2.28125 -6.921875 2.265625 -6.4375 2.265625 -5.90625 Z M 2.265625 -5.90625 "/></g></g></g><g fill="#000000" fill-opacity="1"><g transform="translate(196.26745, 209.30341)"><g><path d="M 1.3125 0 L 1.3125 -11.96875 L 2.546875 -11.96875 L 8.921875 -2.25 L 8.921875 -11.96875 L 10.140625 -11.96875 L 10.140625 0 L 8.921875 0 L 2.53125 -9.703125 L 2.53125 0 Z M 1.3125 0 "/></g></g></g><g fill="#000000" fill-opacity="1"><g transform="translate(212.191068, 209.30341)"><g/></g></g><g fill="#000000" fill-opacity="1"><g transform="translate(222.311249, 209.30341)"><g><path d="M 0.90625 0 L 1.6875 -11.96875 L 3.34375 -11.96875 L 6.53125 -2.015625 L 9.625 -11.96875 L 11.28125 -11.96875 L 12.1875 0 L 10.984375 0 L 10.25 -9.78125 L 7.171875 0 L 5.9375 0 L 2.765625 -9.78125 L 2.109375 0 Z M 0.90625 0 "/></g></g></g><g fill="#000000" fill-opacity="1"><g transform="translate(240.212943, 209.30341)"><g><path d="M 0.734375 0 L 5.125 -11.96875 L 6.34375 -11.96875 L 10.546875 0 L 9.109375 0 L 8.078125 -3.328125 L 3.296875 -3.328125 L 2.21875 0 Z M 3.75 -4.546875 L 7.65625 -4.546875 L 5.71875 -10.109375 Z M 3.75 -4.546875 "/></g></g></g><g fill="#000000" fill-opacity="1"><g transform="translate(255.973093, 209.30341)"><g><path d="M 0.734375 -10.75 L 0.734375 -11.96875 L 9.03125 -11.96875 L 9.03125 -10.75 L 5.4375 -10.75 L 5.4375 0 L 4.234375 0 L 4.234375 -10.75 Z M 0.734375 -10.75 "/></g></g></g><g fill="#000000" fill-opacity="1"><g transform="translate(270.229249, 209.30341)"><g><path d="M 0.734375 -10.75 L 0.734375 -11.96875 L 9.03125 -11.96875 L 9.03125 -10.75 L 5.4375 -10.75 L 5.4375 0 L 4.234375 0 L 4.234375 -10.75 Z M 0.734375 -10.75 "/></g></g></g><g fill="#000000" fill-opacity="1"><g transform="translate(284.485416, 209.30341)"><g><path d="M 1.3125 -2.015625 L 1.3125 -9.84375 C 1.3125 -10.570312 1.488281 -11.109375 1.84375 -11.453125 C 2.207031 -11.796875 2.671875 -11.96875 3.234375 -11.96875 C 3.253906 -11.96875 3.273438 -11.96875 3.296875 -11.96875 C 3.316406 -11.96875 3.335938 -11.96875 3.359375 -11.96875 L 8.53125 -11.703125 L 8.53125 -10.75 L 3.359375 -10.75 C 3.097656 -10.75 2.898438 -10.695312 2.765625 -10.59375 C 2.628906 -10.488281 2.550781 -10.382812 2.53125 -10.28125 C 2.519531 -10.1875 2.515625 -10.039062 2.515625 -9.84375 L 2.515625 -6.5625 L 7.875 -6.40625 L 7.875 -5.4375 L 2.515625 -5.28125 L 2.515625 -2.015625 C 2.515625 -1.816406 2.539062 -1.65625 2.59375 -1.53125 C 2.65625 -1.40625 2.738281 -1.316406 2.84375 -1.265625 C 2.945312 -1.210938 3.039062 -1.179688 3.125 -1.171875 C 3.207031 -1.160156 3.328125 -1.15625 3.484375 -1.15625 C 3.484375 -1.15625 3.488281 -1.15625 3.5 -1.15625 C 3.507812 -1.15625 3.519531 -1.15625 3.53125 -1.15625 L 8.53125 -1.15625 L 8.53125 -0.234375 L 3.53125 0.046875 C 3.488281 0.046875 3.441406 0.046875 3.390625 0.046875 C 3.347656 0.0546875 3.304688 0.0625 3.265625 0.0625 C 2.992188 0.0625 2.75 0.0351562 2.53125 -0.015625 C 2.3125 -0.078125 2.109375 -0.179688 1.921875 -0.328125 C 1.734375 -0.484375 1.582031 -0.703125 1.46875 -0.984375 C 1.363281 -1.265625 1.3125 -1.609375 1.3125 -2.015625 Z M 1.3125 -2.015625 "/></g></g></g><g fill="#000000" fill-opacity="1"><g transform="translate(298.561762, 209.30341)"><g><path d="M 0.984375 0 L 0.984375 -11.96875 L 6.078125 -11.96875 C 7.921875 -11.96875 8.84375 -10.769531 8.84375 -8.375 C 8.84375 -6.28125 8.148438 -5.132812 6.765625 -4.9375 L 9.28125 0 L 7.96875 0 L 5.453125 -4.890625 L 2.1875 -5.109375 L 2.1875 0 Z M 2.1875 -6.1875 L 6.078125 -6.1875 C 6.273438 -6.1875 6.425781 -6.191406 6.53125 -6.203125 C 6.644531 -6.222656 6.78125 -6.265625 6.9375 -6.328125 C 7.09375 -6.398438 7.210938 -6.507812 7.296875 -6.65625 C 7.378906 -6.800781 7.453125 -7.019531 7.515625 -7.3125 C 7.578125 -7.601562 7.609375 -7.957031 7.609375 -8.375 C 7.609375 -9.332031 7.46875 -9.960938 7.1875 -10.265625 C 6.90625 -10.578125 6.535156 -10.734375 6.078125 -10.734375 L 2.1875 -10.734375 Z M 2.1875 -6.1875 "/></g></g></g><g fill="#000000" fill-opacity="1"><g transform="translate(313.063143, 209.30341)"><g><path d="M 1.0625 -8.078125 L 1.0625 -9.15625 C 1.0625 -10.25 1.34375 -11.003906 1.90625 -11.421875 C 2.476562 -11.847656 3.273438 -12.0625 4.296875 -12.0625 C 5.035156 -12.0625 6.398438 -11.929688 8.390625 -11.671875 L 8.390625 -10.6875 L 4.296875 -10.859375 C 4.171875 -10.867188 4.054688 -10.875 3.953125 -10.875 C 3.398438 -10.875 2.976562 -10.753906 2.6875 -10.515625 C 2.40625 -10.285156 2.265625 -9.832031 2.265625 -9.15625 L 2.265625 -8.078125 C 2.265625 -7.398438 2.398438 -6.960938 2.671875 -6.765625 C 2.941406 -6.566406 3.363281 -6.46875 3.9375 -6.46875 L 6.265625 -6.46875 C 7.960938 -6.46875 8.8125 -5.53125 8.8125 -3.65625 L 8.8125 -2.546875 C 8.8125 -1.992188 8.71875 -1.53125 8.53125 -1.15625 C 8.34375 -0.789062 8.078125 -0.515625 7.734375 -0.328125 C 7.398438 -0.148438 7.054688 -0.03125 6.703125 0.03125 C 6.359375 0.09375 5.960938 0.125 5.515625 0.125 C 5.128906 0.125 4.453125 0.078125 3.484375 -0.015625 C 2.523438 -0.109375 1.835938 -0.195312 1.421875 -0.28125 L 1.421875 -1.265625 C 2.617188 -1.140625 3.984375 -1.078125 5.515625 -1.078125 C 6.898438 -1.078125 7.59375 -1.566406 7.59375 -2.546875 L 7.59375 -3.65625 C 7.59375 -4.164062 7.492188 -4.5625 7.296875 -4.84375 C 7.109375 -5.125 6.765625 -5.265625 6.265625 -5.265625 L 3.96875 -5.265625 C 3.351562 -5.265625 2.835938 -5.335938 2.421875 -5.484375 C 2.015625 -5.640625 1.71875 -5.863281 1.53125 -6.15625 C 1.351562 -6.457031 1.226562 -6.75 1.15625 -7.03125 C 1.09375 -7.320312 1.0625 -7.671875 1.0625 -8.078125 Z M 1.0625 -8.078125 "/></g></g></g><g fill="#000000" fill-opacity="1"><g transform="translate(54.861541, 206.129371)"><g><path d="M 15.75 -29.3125 C 19.488281 -29.3125 22.414062 -28.414062 24.53125 -26.625 C 26.65625 -24.84375 27.71875 -22.390625 27.71875 -19.265625 C 27.71875 -16.140625 26.65625 -13.6875 24.53125 -11.90625 C 22.414062 -10.132812 19.488281 -9.25 15.75 -9.25 L 7.875 -9.25 L 7.875 0 L 4.78125 0 L 4.78125 -29.3125 Z M 15.65625 -11.96875 C 18.5625 -11.96875 20.78125 -12.601562 22.3125 -13.875 C 23.851562 -15.144531 24.625 -16.941406 24.625 -19.265625 C 24.625 -21.640625 23.851562 -23.457031 22.3125 -24.71875 C 20.78125 -25.988281 18.5625 -26.625 15.65625 -26.625 L 7.875 -26.625 L 7.875 -11.96875 Z M 15.65625 -11.96875 "/></g></g></g><g fill="#000000" fill-opacity="1"><g transform="translate(42.759556, 209.174913)"><g><path d="M 26.046875 0.375 C 21.722656 0.375 17.828125 -0.578125 14.359375 -2.484375 C 10.890625 -4.398438 8.164062 -7.050781 6.1875 -10.4375 C 4.21875 -13.820312 3.234375 -17.613281 3.234375 -21.8125 C 3.234375 -26.007812 4.21875 -29.800781 6.1875 -33.1875 C 8.164062 -36.570312 10.898438 -39.21875 14.390625 -41.125 C 17.878906 -43.039062 21.785156 -44 26.109375 -44 C 29.347656 -44 32.335938 -43.457031 35.078125 -42.375 C 37.816406 -41.289062 40.144531 -39.710938 42.0625 -37.640625 L 39.125 -34.703125 C 35.71875 -38.148438 31.421875 -39.875 26.234375 -39.875 C 22.785156 -39.875 19.648438 -39.082031 16.828125 -37.5 C 14.003906 -35.925781 11.789062 -33.769531 10.1875 -31.03125 C 8.59375 -28.289062 7.796875 -25.21875 7.796875 -21.8125 C 7.796875 -18.40625 8.59375 -15.328125 10.1875 -12.578125 C 11.789062 -9.835938 14.003906 -7.675781 16.828125 -6.09375 C 19.648438 -4.519531 22.785156 -3.734375 26.234375 -3.734375 C 31.460938 -3.734375 35.757812 -5.476562 39.125 -8.96875 L 42.0625 -6.046875 C 40.144531 -3.960938 37.804688 -2.367188 35.046875 -1.265625 C 32.285156 -0.171875 29.285156 0.375 26.046875 0.375 Z M 26.046875 0.375 "/></g></g></g></svg>