<svg xmlns="http://www.w3.org/2000/svg" xmlns:xlink="http://www.w3.org/1999/xlink" width="800" zoomAndPan="magnify" viewBox="0 0 600 599.999999" height="800" preserveAspectRatio="xMidYMid meet" version="1.0"><defs><filter x="0%" y="0%" width="100%" height="100%" id="8045289bd9"><feColorMatrix values="0 0 0 0 1 0 0 0 0 1 0 0 0 0 1 0 0 0 1 0" color-interpolation-filters="sRGB"/></filter><g/><mask id="41a312f3fc"><g filter="url(#8045289bd9)"><rect x="-60" width="720" fill="#000000" y="-60" height="719.999999" fill-opacity="0.3"/></g></mask><clipPath id="77d9f00505"><path d="M 99 83 L 183 83 L 183 180.683594 L 99 180.683594 Z M 99 83 " clip-rule="nonzero"/></clipPath><clipPath id="5454884bd5"><path d="M 50 0.398438 L 135 0.398438 L 135 97 L 50 97 Z M 50 0.398438 " clip-rule="nonzero"/></clipPath><clipPath id="da33c42d53"><path d="M 0.839844 83 L 85 83 L 85 180.683594 L 0.839844 180.683594 Z M 0.839844 83 " clip-rule="nonzero"/></clipPath><clipPath id="ae84986586"><path d="M 198 83 L 281.339844 83 L 281.339844 180.683594 L 198 180.683594 Z M 198 83 " clip-rule="nonzero"/></clipPath><clipPath id="7ee6e96211"><path d="M 149 0.398438 L 234 0.398438 L 234 97 L 149 97 Z M 149 0.398438 " clip-rule="nonzero"/></clipPath><clipPath id="bc978b2f5f"><rect x="0" width="283" y="0" height="182"/></clipPath></defs><g mask="url(#41a312f3fc)"><g transform="matrix(1, 0, 0, 1, 159, 206)"><g clip-path="url(#bc978b2f5f)"><g clip-path="url(#77d9f00505)"><path fill="#000000" d="M 99.246094 107.8125 L 99.246094 156.007812 L 141.007812 180.074219 L 182.707031 156.007812 L 182.707031 107.8125 L 141.007812 83.730469 Z M 99.246094 107.8125 " fill-opacity="1" fill-rule="nonzero"/></g><g clip-path="url(#5454884bd5)"><path fill="#000000" d="M 134.230469 24.546875 L 92.53125 0.441406 L 50.773438 24.546875 L 50.773438 72.742188 L 92.53125 96.796875 L 134.230469 72.742188 Z M 134.230469 24.546875 " fill-opacity="1" fill-rule="nonzero"/></g><g clip-path="url(#da33c42d53)"><path fill="#000000" d="M 0.839844 107.8125 L 0.839844 156.007812 L 42.5625 180.074219 L 84.269531 156.007812 L 84.269531 107.8125 L 42.5625 83.730469 Z M 0.839844 107.8125 " fill-opacity="1" fill-rule="nonzero"/></g><g clip-path="url(#ae84986586)"><path fill="#000000" d="M 239.792969 83.734375 L 198.03125 107.8125 L 198.03125 156.007812 L 239.792969 180.074219 L 281.492188 156.007812 L 281.492188 107.8125 Z M 273.402344 151.335938 L 239.789062 170.734375 L 206.121094 151.332031 L 206.121094 112.488281 L 239.789062 93.074219 L 273.402344 112.484375 Z M 273.402344 151.335938 " fill-opacity="1" fill-rule="nonzero"/></g><g clip-path="url(#7ee6e96211)"><path fill="#000000" d="M 233.015625 24.542969 L 191.316406 0.441406 L 149.554688 24.542969 L 149.554688 72.742188 L 191.316406 96.796875 L 233.015625 72.742188 Z M 224.925781 68.066406 L 191.3125 87.457031 L 157.648438 68.0625 L 157.648438 29.214844 L 191.3125 9.785156 L 224.925781 29.210938 Z M 224.925781 68.066406 " fill-opacity="1" fill-rule="nonzero"/></g></g></g></g><g fill="#000000" fill-opacity="1"><g transform="translate(165.57741, 306.27138)"><g><path d="M 18.875 0.40625 C 14.070312 0.40625 10.125 -0.734375 7.03125 -3.015625 C 3.945312 -5.304688 2.285156 -8.582031 2.046875 -12.84375 L 14.3125 -12.84375 C 14.425781 -11.394531 14.851562 -10.335938 15.59375 -9.671875 C 16.34375 -9.003906 17.300781 -8.671875 18.46875 -8.671875 C 19.53125 -8.671875 20.398438 -8.9375 21.078125 -9.46875 C 21.765625 -10 22.109375 -10.734375 22.109375 -11.671875 C 22.109375 -12.878906 21.539062 -13.816406 20.40625 -14.484375 C 19.269531 -15.148438 17.429688 -15.894531 14.890625 -16.71875 C 12.191406 -17.613281 10.007812 -18.476562 8.34375 -19.3125 C 6.6875 -20.15625 5.242188 -21.390625 4.015625 -23.015625 C 2.785156 -24.640625 2.171875 -26.757812 2.171875 -29.375 C 2.171875 -32.03125 2.832031 -34.304688 4.15625 -36.203125 C 5.488281 -38.109375 7.328125 -39.546875 9.671875 -40.515625 C 12.015625 -41.492188 14.675781 -41.984375 17.65625 -41.984375 C 22.457031 -41.984375 26.296875 -40.859375 29.171875 -38.609375 C 32.046875 -36.367188 33.582031 -33.210938 33.78125 -29.140625 L 21.28125 -29.140625 C 21.25 -30.390625 20.867188 -31.328125 20.140625 -31.953125 C 19.421875 -32.578125 18.492188 -32.890625 17.359375 -32.890625 C 16.492188 -32.890625 15.785156 -32.632812 15.234375 -32.125 C 14.691406 -31.625 14.421875 -30.90625 14.421875 -29.96875 C 14.421875 -29.1875 14.722656 -28.507812 15.328125 -27.9375 C 15.941406 -27.375 16.695312 -26.882812 17.59375 -26.46875 C 18.488281 -26.0625 19.816406 -25.546875 21.578125 -24.921875 C 24.203125 -24.023438 26.363281 -23.132812 28.0625 -22.25 C 29.757812 -21.375 31.222656 -20.144531 32.453125 -18.5625 C 33.691406 -16.976562 34.3125 -14.972656 34.3125 -12.546875 C 34.3125 -10.085938 33.691406 -7.878906 32.453125 -5.921875 C 31.222656 -3.960938 29.441406 -2.414062 27.109375 -1.28125 C 24.785156 -0.15625 22.039062 0.40625 18.875 0.40625 Z M 18.875 0.40625 "/></g></g></g><g fill="#000000" fill-opacity="1"><g transform="translate(201.936288, 306.27138)"><g><path d="M 27.734375 0 L 14.78125 -18.125 L 14.78125 0 L 3.28125 0 L 3.28125 -41.34375 L 14.78125 -41.34375 L 14.78125 -23.515625 L 27.625 -41.34375 L 40.875 -41.34375 L 25.6875 -21.28125 L 41.640625 0 Z M 27.734375 0 "/></g></g></g><g fill="#000000" fill-opacity="1"><g transform="translate(244.511355, 306.27138)"><g><path d="M 40.875 -41.34375 L 26.328125 -13.140625 L 26.328125 0 L 14.78125 0 L 14.78125 -13.140625 L 0.234375 -41.34375 L 13.375 -41.34375 L 20.640625 -25.390625 L 27.90625 -41.34375 Z M 40.875 -41.34375 "/></g></g></g><g fill="#000000" fill-opacity="1"><g transform="translate(285.620338, 306.27138)"><g><path d="M 40.28125 -41.34375 L 40.28125 0 L 28.796875 0 L 28.796875 -16.59375 L 14.78125 -16.59375 L 14.78125 0 L 3.28125 0 L 3.28125 -41.34375 L 14.78125 -41.34375 L 14.78125 -25.796875 L 28.796875 -25.796875 L 28.796875 -41.34375 Z M 40.28125 -41.34375 "/></g></g></g><g fill="#000000" fill-opacity="1"><g transform="translate(329.192356, 306.27138)"><g><path d="M 14.78125 -41.34375 L 14.78125 0 L 3.28125 0 L 3.28125 -41.34375 Z M 14.78125 -41.34375 "/></g></g></g><g fill="#000000" fill-opacity="1"><g transform="translate(347.254495, 306.27138)"><g><path d="M 43.515625 -41.34375 L 29.265625 0 L 14.546875 0 L 0.234375 -41.34375 L 12.546875 -41.34375 L 21.9375 -11.5 L 31.25 -41.34375 Z M 43.515625 -41.34375 "/></g></g></g><g fill="#000000" fill-opacity="1"><g transform="translate(391.061083, 306.27138)"><g><path d="M 14.78125 -32.140625 L 14.78125 -25.390625 L 27.96875 -25.390625 L 27.96875 -16.65625 L 14.78125 -16.65625 L 14.78125 -9.203125 L 29.734375 -9.203125 L 29.734375 0 L 3.28125 0 L 3.28125 -41.34375 L 29.734375 -41.34375 L 29.734375 -32.140625 Z M 14.78125 -32.140625 "/></g></g></g><g fill="#000000" fill-opacity="1"><g transform="translate(423.198592, 306.27138)"><g/></g></g><g fill="#000000" fill-opacity="1"><g transform="translate(166.764017, 342.791957)"><g><path d="M 12.15625 -16.109375 L 12.15625 -13.953125 L 7.859375 -13.953125 L 7.859375 0 L 5.21875 0 L 5.21875 -13.953125 L 0.90625 -13.953125 L 0.90625 -16.109375 Z M 12.15625 -16.109375 "/></g></g></g><g fill="#000000" fill-opacity="1"><g transform="translate(192.245271, 342.791957)"><g><path d="M 4.375 -13.984375 L 4.375 -9.25 L 9.953125 -9.25 L 9.953125 -7.09375 L 4.375 -7.09375 L 4.375 -2.15625 L 10.640625 -2.15625 L 10.640625 0 L 1.734375 0 L 1.734375 -16.140625 L 10.640625 -16.140625 L 10.640625 -13.984375 Z M 4.375 -13.984375 "/></g></g></g><g fill="#000000" fill-opacity="1"><g transform="translate(216.799347, 342.791957)"><g><path d="M 0.859375 -8.09375 C 0.859375 -9.664062 1.222656 -11.078125 1.953125 -12.328125 C 2.691406 -13.585938 3.691406 -14.566406 4.953125 -15.265625 C 6.210938 -15.972656 7.59375 -16.328125 9.09375 -16.328125 C 10.800781 -16.328125 12.320312 -15.90625 13.65625 -15.0625 C 15 -14.21875 15.972656 -13.023438 16.578125 -11.484375 L 13.40625 -11.484375 C 12.988281 -12.328125 12.40625 -12.957031 11.65625 -13.375 C 10.914062 -13.789062 10.0625 -14 9.09375 -14 C 8.019531 -14 7.066406 -13.757812 6.234375 -13.28125 C 5.398438 -12.800781 4.75 -12.113281 4.28125 -11.21875 C 3.8125 -10.320312 3.578125 -9.28125 3.578125 -8.09375 C 3.578125 -6.90625 3.8125 -5.863281 4.28125 -4.96875 C 4.75 -4.070312 5.398438 -3.378906 6.234375 -2.890625 C 7.066406 -2.398438 8.019531 -2.15625 9.09375 -2.15625 C 10.0625 -2.15625 10.914062 -2.363281 11.65625 -2.78125 C 12.40625 -3.195312 12.988281 -3.832031 13.40625 -4.6875 L 16.578125 -4.6875 C 15.972656 -3.132812 15 -1.941406 13.65625 -1.109375 C 12.320312 -0.273438 10.800781 0.140625 9.09375 0.140625 C 7.570312 0.140625 6.1875 -0.207031 4.9375 -0.90625 C 3.6875 -1.613281 2.691406 -2.59375 1.953125 -3.84375 C 1.222656 -5.101562 0.859375 -6.519531 0.859375 -8.09375 Z M 0.859375 -8.09375 "/></g></g></g><g fill="#000000" fill-opacity="1"><g transform="translate(247.125147, 342.791957)"><g><path d="M 14.609375 -16.109375 L 14.609375 0 L 11.96875 0 L 11.96875 -7.046875 L 4.375 -7.046875 L 4.375 0 L 1.734375 0 L 1.734375 -16.109375 L 4.375 -16.109375 L 4.375 -9.203125 L 11.96875 -9.203125 L 11.96875 -16.109375 Z M 14.609375 -16.109375 "/></g></g></g><g fill="#000000" fill-opacity="1"><g transform="translate(275.87473, 342.791957)"><g><path d="M 14.984375 0 L 12.328125 0 L 4.375 -12.03125 L 4.375 0 L 1.734375 0 L 1.734375 -16.140625 L 4.375 -16.140625 L 12.328125 -4.125 L 12.328125 -16.140625 L 14.984375 -16.140625 Z M 14.984375 0 "/></g></g></g><g fill="#000000" fill-opacity="1"><g transform="translate(304.995194, 342.791957)"><g><path d="M 9.09375 0.15625 C 7.59375 0.15625 6.210938 -0.191406 4.953125 -0.890625 C 3.691406 -1.597656 2.691406 -2.582031 1.953125 -3.84375 C 1.222656 -5.101562 0.859375 -6.519531 0.859375 -8.09375 C 0.859375 -9.664062 1.222656 -11.078125 1.953125 -12.328125 C 2.691406 -13.585938 3.691406 -14.566406 4.953125 -15.265625 C 6.210938 -15.972656 7.59375 -16.328125 9.09375 -16.328125 C 10.601562 -16.328125 11.988281 -15.972656 13.25 -15.265625 C 14.507812 -14.566406 15.503906 -13.585938 16.234375 -12.328125 C 16.960938 -11.078125 17.328125 -9.664062 17.328125 -8.09375 C 17.328125 -6.519531 16.960938 -5.101562 16.234375 -3.84375 C 15.503906 -2.582031 14.507812 -1.597656 13.25 -0.890625 C 11.988281 -0.191406 10.601562 0.15625 9.09375 0.15625 Z M 9.09375 -2.140625 C 10.15625 -2.140625 11.101562 -2.378906 11.9375 -2.859375 C 12.769531 -3.347656 13.421875 -4.046875 13.890625 -4.953125 C 14.367188 -5.859375 14.609375 -6.90625 14.609375 -8.09375 C 14.609375 -9.28125 14.367188 -10.320312 13.890625 -11.21875 C 13.421875 -12.113281 12.769531 -12.800781 11.9375 -13.28125 C 11.101562 -13.757812 10.15625 -14 9.09375 -14 C 8.019531 -14 7.066406 -13.757812 6.234375 -13.28125 C 5.398438 -12.800781 4.75 -12.113281 4.28125 -11.21875 C 3.8125 -10.320312 3.578125 -9.28125 3.578125 -8.09375 C 3.578125 -6.90625 3.8125 -5.859375 4.28125 -4.953125 C 4.75 -4.046875 5.398438 -3.347656 6.234375 -2.859375 C 7.066406 -2.378906 8.019531 -2.140625 9.09375 -2.140625 Z M 9.09375 -2.140625 "/></g></g></g><g fill="#000000" fill-opacity="1"><g transform="translate(335.57598, 342.791957)"><g><path d="M 4.375 -2.140625 L 9.828125 -2.140625 L 9.828125 0 L 1.734375 0 L 1.734375 -16.109375 L 4.375 -16.109375 Z M 4.375 -2.140625 "/></g></g></g><g fill="#000000" fill-opacity="1"><g transform="translate(358.275679, 342.791957)"><g><path d="M 9.09375 0.15625 C 7.59375 0.15625 6.210938 -0.191406 4.953125 -0.890625 C 3.691406 -1.597656 2.691406 -2.582031 1.953125 -3.84375 C 1.222656 -5.101562 0.859375 -6.519531 0.859375 -8.09375 C 0.859375 -9.664062 1.222656 -11.078125 1.953125 -12.328125 C 2.691406 -13.585938 3.691406 -14.566406 4.953125 -15.265625 C 6.210938 -15.972656 7.59375 -16.328125 9.09375 -16.328125 C 10.601562 -16.328125 11.988281 -15.972656 13.25 -15.265625 C 14.507812 -14.566406 15.503906 -13.585938 16.234375 -12.328125 C 16.960938 -11.078125 17.328125 -9.664062 17.328125 -8.09375 C 17.328125 -6.519531 16.960938 -5.101562 16.234375 -3.84375 C 15.503906 -2.582031 14.507812 -1.597656 13.25 -0.890625 C 11.988281 -0.191406 10.601562 0.15625 9.09375 0.15625 Z M 9.09375 -2.140625 C 10.15625 -2.140625 11.101562 -2.378906 11.9375 -2.859375 C 12.769531 -3.347656 13.421875 -4.046875 13.890625 -4.953125 C 14.367188 -5.859375 14.609375 -6.90625 14.609375 -8.09375 C 14.609375 -9.28125 14.367188 -10.320312 13.890625 -11.21875 C 13.421875 -12.113281 12.769531 -12.800781 11.9375 -13.28125 C 11.101562 -13.757812 10.15625 -14 9.09375 -14 C 8.019531 -14 7.066406 -13.757812 6.234375 -13.28125 C 5.398438 -12.800781 4.75 -12.113281 4.28125 -11.21875 C 3.8125 -10.320312 3.578125 -9.28125 3.578125 -8.09375 C 3.578125 -6.90625 3.8125 -5.859375 4.28125 -4.953125 C 4.75 -4.046875 5.398438 -3.347656 6.234375 -2.859375 C 7.066406 -2.378906 8.019531 -2.140625 9.09375 -2.140625 Z M 9.09375 -2.140625 "/></g></g></g><g fill="#000000" fill-opacity="1"><g transform="translate(388.856477, 342.791957)"><g><path d="M 13.40625 -11.484375 C 12.988281 -12.285156 12.40625 -12.890625 11.65625 -13.296875 C 10.914062 -13.703125 10.0625 -13.90625 9.09375 -13.90625 C 8.019531 -13.90625 7.066406 -13.664062 6.234375 -13.1875 C 5.398438 -12.707031 4.75 -12.023438 4.28125 -11.140625 C 3.8125 -10.265625 3.578125 -9.25 3.578125 -8.09375 C 3.578125 -6.9375 3.8125 -5.910156 4.28125 -5.015625 C 4.75 -4.128906 5.398438 -3.445312 6.234375 -2.96875 C 7.066406 -2.488281 8.019531 -2.25 9.09375 -2.25 C 10.53125 -2.25 11.695312 -2.648438 12.59375 -3.453125 C 13.488281 -4.253906 14.035156 -5.34375 14.234375 -6.71875 L 8.1875 -6.71875 L 8.1875 -8.828125 L 17.0625 -8.828125 L 17.0625 -6.765625 C 16.894531 -5.515625 16.453125 -4.363281 15.734375 -3.3125 C 15.015625 -2.257812 14.078125 -1.421875 12.921875 -0.796875 C 11.773438 -0.171875 10.5 0.140625 9.09375 0.140625 C 7.570312 0.140625 6.1875 -0.207031 4.9375 -0.90625 C 3.6875 -1.613281 2.691406 -2.59375 1.953125 -3.84375 C 1.222656 -5.101562 0.859375 -6.519531 0.859375 -8.09375 C 0.859375 -9.664062 1.222656 -11.078125 1.953125 -12.328125 C 2.691406 -13.585938 3.691406 -14.566406 4.953125 -15.265625 C 6.210938 -15.972656 7.59375 -16.328125 9.09375 -16.328125 C 10.800781 -16.328125 12.320312 -15.90625 13.65625 -15.0625 C 15 -14.21875 15.972656 -13.023438 16.578125 -11.484375 Z M 13.40625 -11.484375 "/></g></g></g><g fill="#000000" fill-opacity="1"><g transform="translate(419.182266, 342.791957)"><g><path d="M 13.6875 -16.109375 L 8.34375 -5.84375 L 8.34375 0 L 5.703125 0 L 5.703125 -5.84375 L 0.34375 -16.109375 L 3.296875 -16.109375 L 7.03125 -8.203125 L 10.765625 -16.109375 Z M 13.6875 -16.109375 "/></g></g></g></svg>