<svg version="1.0" xmlns="http://www.w3.org/2000/svg"
 width="auto" height="auto" viewBox="0 0 900.000000 600.000000"
 preserveAspectRatio="xMidYMid meet">
<g transform="translate(0.000000,600.000000) scale(0.100000,-0.100000)"
fill="currentColor" stroke="none">
<path d="M415 4045 c-115 -16 -156 -32 -217 -84 -54 -47 -71 -81 -99 -191 -17
-70 -19 -122 -19 -780 0 -658 2 -710 19 -780 28 -110 45 -144 99 -191 108 -92
166 -98 947 -98 755 0 829 7 931 84 63 47 87 86 115 190 17 66 19 117 19 795
0 678 -2 729 -19 795 -28 104 -52 143 -115 190 -103 78 -175 84 -941 83 -448
0 -656 -4 -720 -13z m1153 -985 c1 -190 0 -354 -2 -366 -10 -37 -51 -48 -196
-50 l-135 -2 -31 30 -32 30 2 146 c3 157 0 178 -18 164 -6 -5 -65 -8 -131 -7
-66 1 -128 0 -137 -2 -27 -6 -21 -23 7 -23 14 0 25 -4 25 -9 0 -5 11 -16 24
-24 22 -15 23 -15 20 9 -3 27 5 30 25 12 11 -10 13 -10 7 0 -4 6 -2 12 3 12 6
0 11 -4 11 -10 0 -5 5 -10 11 -10 5 0 7 5 4 10 -3 6 -1 10 4 10 6 0 11 -4 11
-10 0 -5 5 -10 11 -10 5 0 7 5 4 10 -3 6 -1 10 4 10 6 0 11 -4 11 -10 0 -5 5
-10 11 -10 5 0 7 5 4 10 -3 6 -1 10 4 10 6 0 11 -4 11 -10 0 -5 5 -10 11 -10
5 0 7 5 4 10 -9 15 4 12 21 -4 16 -17 19 -30 4 -21 -5 3 -10 1 -10 -4 0 -6 5
-11 10 -11 6 0 10 -5 10 -11 0 -5 -4 -7 -10 -4 -5 3 -10 1 -10 -4 0 -6 5 -11
10 -11 6 0 10 -5 10 -11 0 -5 -4 -7 -10 -4 -5 3 -10 1 -10 -4 0 -6 5 -11 10
-11 6 0 10 -5 10 -11 0 -5 -4 -7 -10 -4 -5 3 -10 1 -10 -4 0 -6 5 -11 10 -11
6 0 10 -5 10 -11 0 -5 -4 -7 -10 -4 -5 3 -10 1 -10 -4 0 -6 5 -11 10 -11 6 0
10 -5 10 -11 0 -5 -4 -7 -10 -4 -5 3 -10 1 -10 -4 0 -6 5 -11 10 -11 6 0 10
-5 10 -11 0 -5 -4 -7 -10 -4 -5 3 -10 2 -10 -4 0 -5 4 -11 9 -13 5 -1 11 -12
13 -23 3 -18 -5 -19 -149 -22 l-153 -3 0 158 c0 134 -3 161 -17 182 -15 21
-18 50 -20 170 -1 81 3 157 9 173 l11 27 366 -2 366 -3 3 -345z m-773 263 c-4
-10 -7 -26 -7 -36 0 -9 -3 -15 -7 -13 -4 3 -12 1 -19 -3 -9 -5 -7 -13 8 -29
21 -22 27 -37 10 -27 -5 3 -10 1 -10 -4 0 -6 5 -11 10 -11 6 0 10 -5 10 -11 0
-5 -4 -7 -10 -4 -5 3 -10 -3 -10 -14 0 -12 -5 -21 -10 -21 -6 0 -10 8 -8 18 2
12 -3 16 -15 14 -12 -2 -17 2 -15 12 2 8 0 15 -4 15 -27 3 -30 0 -17 -15 11
-13 11 -15 -2 -14 -35 5 -42 1 -28 -17 12 -14 12 -16 -2 -11 -33 13 -40 -8
-13 -36 31 -30 43 -22 38 26 -3 24 -1 28 9 19 8 -6 17 -8 20 -4 11 10 38 -19
32 -35 -4 -12 -3 -13 10 -2 19 16 23 13 27 -25 l3 -29 -143 -2 c-141 -2 -143
-1 -123 17 11 10 25 19 31 19 5 0 10 7 10 15 0 8 7 15 15 15 8 0 15 7 15 15 0
8 7 15 15 15 8 0 15 7 15 15 0 8 7 15 15 15 8 0 15 7 15 15 0 8 7 15 15 15 8
0 15 7 15 15 0 8 7 15 15 15 8 0 15 7 15 15 0 8 7 15 15 15 8 0 15 7 15 15 0
8 7 15 15 15 8 0 15 7 15 15 0 8 5 15 11 15 7 0 8 -7 4 -17z m471 -711 c-13
-12 16 -29 43 -26 35 4 61 -20 43 -38 -7 -7 -12 -16 -12 -21 0 -4 11 4 25 19
26 28 25 47 -2 37 -12 -5 -15 -2 -10 10 4 11 2 14 -7 11 -8 -3 -17 -1 -21 5
-4 7 8 10 35 9 22 -1 36 -4 30 -8 -7 -5 -6 -11 5 -20 15 -12 21 -4 16 23 -1 4
4 7 11 6 7 -1 21 1 31 6 42 18 21 -10 -96 -127 l-125 -125 3 126 c1 69 3 127
4 128 0 1 8 0 16 -4 9 -3 13 -8 11 -11z"/>
<path d="M907 2939 c-9 -6 -17 -15 -17 -20 0 -8 67 -79 75 -79 1 0 1 10 0 23
-1 14 -8 21 -18 19 -13 -2 -16 4 -13 28 4 35 -3 42 -27 29z"/>
<path d="M909 2760 c-13 -9 6 -23 33 -25 17 -2 21 5 16 22 -4 10 -35 11 -49 3z"/>
<path d="M733 3243 c-10 -3 -10 -9 0 -24 15 -24 24 -24 22 1 -2 24 -6 29 -22
23z"/>
<path d="M612 3121 c-10 -6 -10 -10 1 -20 12 -9 16 -8 20 3 7 19 -4 27 -21 17z"/>
<path d="M1264 2556 c0 -11 9 -29 21 -38 16 -13 18 -19 8 -29 -24 -25 -13 -28
13 -4 27 25 25 49 -2 38 -10 -4 -15 -1 -14 8 4 25 0 37 -13 42 -8 3 -13 -3
-13 -17z"/>
<path d="M8655 4048 c-39 -14 -53 -25 -87 -72 -24 -33 -28 -49 -28 -102 0 -55
4 -67 33 -106 18 -24 46 -49 62 -57 82 -39 181 -14 235 60 26 36 30 51 30 103
-1 50 -6 68 -28 101 -47 69 -140 100 -217 73z"/>
<path d="M4360 3853 c-30 -13 -68 -31 -85 -38 -16 -8 -51 -23 -78 -35 -26 -12
-52 -31 -58 -41 -5 -11 -9 -53 -8 -95 1 -41 -1 -77 -4 -81 -4 -3 -42 -5 -85
-4 -58 1 -82 -2 -91 -12 -8 -10 -11 -56 -9 -148 l3 -134 93 -3 c64 -2 92 -6
92 -15 0 -7 1 -136 4 -287 4 -316 13 -371 76 -455 26 -35 93 -80 146 -98 40
-14 78 -17 195 -15 l144 3 3 133 3 132 -82 0 c-91 0 -137 16 -166 58 -16 24
-18 52 -18 282 l0 255 130 5 130 5 3 134 c2 88 -1 138 -9 147 -8 10 -45 14
-132 16 l-122 3 -1 148 c-1 82 -6 153 -10 157 -5 5 -34 -3 -64 -17z"/>
<path d="M3205 3570 c-70 -18 -152 -56 -190 -88 -30 -26 -78 -92 -98 -135 -12
-27 -17 -64 -17 -128 0 -75 4 -97 24 -138 26 -50 113 -136 156 -153 94 -38
129 -51 160 -58 82 -20 145 -41 154 -50 5 -5 18 -10 27 -10 22 0 69 -55 69
-81 0 -33 -29 -66 -71 -83 -86 -35 -196 -9 -266 62 -45 46 -53 49 -91 28 -44
-24 -161 -76 -171 -76 -17 0 -33 -30 -27 -53 9 -39 120 -151 178 -181 237
-124 588 -67 702 114 74 116 73 278 -3 380 -56 76 -109 112 -216 144 -33 10
-78 25 -100 32 -23 8 -48 14 -57 14 -27 0 -112 41 -140 68 -45 42 -30 90 40
126 62 32 158 10 211 -48 28 -30 42 -32 79 -12 47 24 154 71 185 80 55 17 -48
145 -164 203 -126 62 -246 76 -374 43z"/>
<path d="M6140 3571 c-89 -24 -146 -51 -208 -100 -183 -145 -267 -391 -218
-636 19 -93 33 -128 82 -205 111 -174 277 -270 467 -270 121 0 213 31 308 103
27 20 54 37 59 37 5 0 10 -24 12 -52 l3 -53 137 -3 c128 -2 138 -1 148 18 7
13 10 193 8 575 -3 481 -5 557 -18 565 -23 15 -253 13 -268 -2 -7 -7 -12 -31
-12 -55 0 -55 -15 -56 -78 -5 -59 47 -100 67 -183 86 -82 20 -156 19 -239 -3z
m316 -302 c130 -58 203 -216 171 -371 -21 -98 -78 -171 -177 -224 -51 -27
-221 -26 -270 2 -92 51 -140 107 -165 191 -25 81 -12 230 23 265 7 7 12 17 12
24 0 16 80 88 121 110 66 35 208 36 285 3z"/>
<path d="M7700 3571 c-81 -22 -140 -52 -189 -96 -21 -19 -41 -35 -45 -35 -3 0
-6 22 -6 49 0 29 -6 53 -14 60 -9 8 -57 11 -147 9 l-134 -3 0 -810 0 -810 134
-3 c90 -2 138 1 147 9 11 9 14 64 14 284 0 149 3 275 6 278 4 3 27 -11 52 -33
180 -159 485 -144 670 31 64 60 104 113 140 184 49 100 62 159 62 291 0 140
-19 212 -86 335 -37 68 -176 196 -249 228 -54 24 -179 51 -235 50 -30 0 -84
-8 -120 -18z m222 -307 c66 -33 102 -70 137 -141 28 -55 31 -72 31 -150 0 -58
-5 -98 -15 -117 -8 -15 -15 -34 -15 -41 0 -22 -93 -111 -141 -136 -37 -20 -59
-23 -144 -23 -85 0 -107 3 -144 23 -67 35 -108 78 -142 150 -29 60 -31 71 -27
155 6 135 56 223 159 277 81 42 219 44 301 3z"/>
<path d="M5470 3561 c-72 -16 -154 -73 -197 -138 -25 -38 -33 -27 -33 46 0 46
-5 72 -14 80 -9 8 -57 11 -147 9 l-134 -3 0 -580 0 -580 145 0 145 0 5 330 c5
299 7 333 24 365 48 88 128 138 237 147 38 3 74 11 79 18 7 8 9 70 8 161 l-3
149 -40 2 c-22 0 -56 -2 -75 -6z"/>
<path d="M8575 3548 c-3 -7 -4 -269 -3 -583 l3 -570 145 0 145 0 0 580 0 580
-143 3 c-108 2 -144 0 -147 -10z"/>
</g>
</svg>
