<svg width="40" height="40" viewBox="0 0 40 40" fill="none" xmlns="http://www.w3.org/2000/svg">
<path d="M35 13.3333V26.6667C35 28.8768 34.122 30.9964 32.5592 32.5592C30.9964 34.122 28.8768 35 26.6667 35H13.3333C11.1232 35 9.00358 34.122 7.44078 32.5592C5.87797 30.9964 5 28.8768 5 26.6667V13.3333C5 11.1232 5.87797 9.00358 7.44078 7.44078C9.00358 5.87797 11.1232 5 13.3333 5H26.6667C28.8768 5 30.9964 5.87797 32.5592 7.44078C34.122 9.00358 35 11.1232 35 13.3333Z" stroke="currentColor" stroke-linecap="round" stroke-linejoin="round"/>
<path d="M18.3333 35.0002V20.0002C18.3333 16.3535 19.1667 13.3335 25 13.3335M15 21.6668H25" stroke="currentColor" stroke-linecap="round" stroke-linejoin="round"/>
</svg>
