<svg width="40" height="40" viewBox="0 0 40 40" fill="none" xmlns="http://www.w3.org/2000/svg">
<path d="M19.9999 26.6668C21.768 26.6668 23.4637 25.9645 24.714 24.7142C25.9642 23.464 26.6666 21.7683 26.6666 20.0002C26.6666 18.2321 25.9642 16.5364 24.714 15.2861C23.4637 14.0359 21.768 13.3335 19.9999 13.3335C18.2318 13.3335 16.5361 14.0359 15.2859 15.2861C14.0356 16.5364 13.3333 18.2321 13.3333 20.0002C13.3333 21.7683 14.0356 23.464 15.2859 24.7142C16.5361 25.9645 18.2318 26.6668 19.9999 26.6668Z" stroke="#0A0D1A" stroke-linecap="round" stroke-linejoin="round"/>
<path d="M5 26.6667V13.3333C5 11.1232 5.87797 9.00358 7.44078 7.44078C9.00358 5.87797 11.1232 5 13.3333 5H26.6667C28.8768 5 30.9964 5.87797 32.5592 7.44078C34.122 9.00358 35 11.1232 35 13.3333V26.6667C35 28.8768 34.122 30.9964 32.5592 32.5592C30.9964 34.122 28.8768 35 26.6667 35H13.3333C11.1232 35 9.00358 34.122 7.44078 32.5592C5.87797 30.9964 5 28.8768 5 26.6667Z" stroke="#0A0D1A"/>
<path d="M29.1667 10.8499L29.1834 10.8315" stroke="#0A0D1A" stroke-width="1.5" stroke-linecap="round" stroke-linejoin="round"/>
</svg>
