<svg width="28" height="29" viewBox="0 0 28 29" fill="none" xmlns="http://www.w3.org/2000/svg">
<path fill-rule="evenodd" clip-rule="evenodd" d="M5.13317 1.6665H17.0332C18.0852 1.6665 19.0941 2.05281 19.838 2.74045C20.5819 3.42808 20.9998 4.36071 20.9998 5.33317V23.6665C20.9998 24.639 20.5819 25.5716 19.838 26.2592C19.0941 26.9469 18.0852 27.3332 17.0332 27.3332H5.13317C4.08115 27.3332 3.07221 26.9469 2.32831 26.2592C1.58442 25.5716 1.1665 24.639 1.1665 23.6665V5.33317C1.1665 4.36071 1.58442 3.42808 2.32831 2.74045C3.07221 2.05281 4.08115 1.6665 5.13317 1.6665Z" stroke="#12A6C8" stroke-linecap="round" stroke-linejoin="round"/>
<path d="M11.0832 24.8886C12.1264 24.8886 12.9721 24.0468 12.9721 23.0083C12.9721 21.9698 12.1264 21.1279 11.0832 21.1279C10.04 21.1279 9.19434 21.9698 9.19434 23.0083C9.19434 24.0468 10.04 24.8886 11.0832 24.8886Z" fill="#12A6C8"/>
</svg>
