<svg width="28" height="29" viewBox="0 0 28 29" fill="none" xmlns="http://www.w3.org/2000/svg">
<path fill-rule="evenodd" clip-rule="evenodd" d="M1 7.16667V21.8333C1 22.8058 1.39133 23.7384 2.08789 24.4261C2.78445 25.1137 3.7292 25.5 4.71429 25.5H23.2857C24.2708 25.5 25.2155 25.1137 25.9121 24.4261C26.6087 23.7384 27 22.8058 27 21.8333V7.16667C27 6.19421 26.6087 5.26158 25.9121 4.57394C25.2155 3.88631 24.2708 3.5 23.2857 3.5H4.71429C3.7292 3.5 2.78445 3.88631 2.08789 4.57394C1.39133 5.26158 1 6.19421 1 7.16667Z" stroke="#12A6C8" stroke-linecap="round" stroke-linejoin="round"/>
<path d="M4.71436 9L14.0001 14.5L23.2858 9" stroke="#12A6C8" stroke-linecap="round" stroke-linejoin="round"/>
</svg>
