<svg width="28" height="29" viewBox="0 0 28 29" fill="none" xmlns="http://www.w3.org/2000/svg">
<path d="M14 8.08317C11.7483 8.08317 9.91667 9.91484 9.91667 12.1665C9.91667 14.4182 11.7483 16.2498 14 16.2498C16.2517 16.2498 18.0833 14.4182 18.0833 12.1665C18.0833 9.91484 16.2505 8.08317 14 8.08317ZM14 15.0832C12.3923 15.0832 11.0833 13.7742 11.0833 12.1665C11.0833 10.5588 12.3923 9.24984 14 9.24984C15.6077 9.24984 16.9167 10.5588 16.9167 12.1665C16.9167 13.7742 15.6077 15.0832 14 15.0832ZM13.9953 3.4165C9.01017 3.4165 5.25 7.17784 5.25 12.1665C5.25 19.2692 10.6855 23.706 13.0212 25.2833C13.3163 25.4828 13.6558 25.5832 13.9953 25.5832C14.3337 25.5832 14.672 25.484 14.9672 25.2845C17.3075 23.7037 22.75 19.261 22.75 12.1654C22.75 7.17786 18.9852 3.4165 13.9953 3.4165ZM14.315 24.3173C14.1202 24.448 13.8693 24.448 13.6745 24.3162C11.9723 23.167 6.41667 18.8935 6.41667 12.1654C6.41667 7.8417 9.674 4.58203 13.9953 4.58203C18.3213 4.58203 21.5833 7.8417 21.5833 12.1654C21.5833 18.7022 16.499 22.8415 14.315 24.3173Z" fill="#12A6C8"/>
</svg>
